<?xml version="1.0" encoding="utf-8" standalone="no"?>
<!DOCTYPE svg PUBLIC "-//W3C//DTD SVG 1.1//EN"
  "http://www.w3.org/Graphics/SVG/1.1/DTD/svg11.dtd">
<svg xmlns:xlink="http://www.w3.org/1999/xlink" width="576pt" height="432pt" viewBox="0 0 576 432" xmlns="http://www.w3.org/2000/svg" version="1.1">
 <metadata>
  <rdf:RDF xmlns:dc="http://purl.org/dc/elements/1.1/" xmlns:cc="http://creativecommons.org/ns#" xmlns:rdf="http://www.w3.org/1999/02/22-rdf-syntax-ns#">
   <cc:Work>
    <dc:type rdf:resource="http://purl.org/dc/dcmitype/StillImage"/>
    <dc:date>2022-10-13T10:41:53.388988</dc:date>
    <dc:format>image/svg+xml</dc:format>
    <dc:creator>
     <cc:Agent>
      <dc:title>Matplotlib v3.6.1, https://matplotlib.org/</dc:title>
     </cc:Agent>
    </dc:creator>
   </cc:Work>
  </rdf:RDF>
 </metadata>
 <defs>
  <style type="text/css">*{stroke-linejoin: round; stroke-linecap: butt}</style>
 </defs>
 <g id="figure_1">
  <g id="patch_1">
   <path d="M 0 432 
L 576 432 
L 576 0 
L 0 0 
z
" style="fill: #ffffff"/>
  </g>
  <g id="axes_1">
   <g id="patch_2">
    <path d="M 52.189063 381.7875 
L 282.660937 381.7875 
L 282.660937 32.86125 
L 52.189063 32.86125 
z
" style="fill: #ffffff"/>
   </g>
   <g id="patch_3">
    <path d="M 63.712656 302.48608 
L 155.901406 302.48608 
L 155.901406 175.603807 
L 63.712656 175.603807 
L 63.712656 302.48608 
z
" clip-path="url(#p9fc3381f3e)" style="fill: #3274a1; stroke: #3f3f3f; stroke-width: 1.5; stroke-linejoin: miter"/>
   </g>
   <g id="patch_4">
    <path d="M 178.948594 327.862534 
L 271.137344 327.862534 
L 271.137344 277.109625 
L 178.948594 277.109625 
L 178.948594 327.862534 
z
" clip-path="url(#p9fc3381f3e)" style="fill: #e1812c; stroke: #3f3f3f; stroke-width: 1.5; stroke-linejoin: miter"/>
   </g>
   <g id="matplotlib.axis_1">
    <g id="xtick_1">
     <g id="line2d_1">
      <defs>
       <path id="m4c99cd72f3" d="M 0 0 
L 0 3.5 
" style="stroke: #000000; stroke-width: 0.8"/>
      </defs>
      <g>
       <use xlink:href="#m4c99cd72f3" x="109.807031" y="391.7875" style="stroke: #000000; stroke-width: 0.8"/>
      </g>
     </g>
     <g id="text_1">
      <!-- 2018 -->
      <g transform="translate(98.685156 405.945312) scale(0.1 -0.1)">
       <defs>
        <path id="ArialMT-32" d="M 3222 541 
L 3222 0 
L 194 0 
Q 188 203 259 391 
Q 375 700 629 1000 
Q 884 1300 1366 1694 
Q 2113 2306 2375 2664 
Q 2638 3022 2638 3341 
Q 2638 3675 2398 3904 
Q 2159 4134 1775 4134 
Q 1369 4134 1125 3890 
Q 881 3647 878 3216 
L 300 3275 
Q 359 3922 746 4261 
Q 1134 4600 1788 4600 
Q 2447 4600 2831 4234 
Q 3216 3869 3216 3328 
Q 3216 3053 3103 2787 
Q 2991 2522 2730 2228 
Q 2469 1934 1863 1422 
Q 1356 997 1212 845 
Q 1069 694 975 541 
L 3222 541 
z
" transform="scale(0.015625)"/>
        <path id="ArialMT-30" d="M 266 2259 
Q 266 3072 433 3567 
Q 600 4063 929 4331 
Q 1259 4600 1759 4600 
Q 2128 4600 2406 4451 
Q 2684 4303 2865 4023 
Q 3047 3744 3150 3342 
Q 3253 2941 3253 2259 
Q 3253 1453 3087 958 
Q 2922 463 2592 192 
Q 2263 -78 1759 -78 
Q 1097 -78 719 397 
Q 266 969 266 2259 
z
M 844 2259 
Q 844 1131 1108 757 
Q 1372 384 1759 384 
Q 2147 384 2411 759 
Q 2675 1134 2675 2259 
Q 2675 3391 2411 3762 
Q 2147 4134 1753 4134 
Q 1366 4134 1134 3806 
Q 844 3388 844 2259 
z
" transform="scale(0.015625)"/>
        <path id="ArialMT-31" d="M 2384 0 
L 1822 0 
L 1822 3584 
Q 1619 3391 1289 3197 
Q 959 3003 697 2906 
L 697 3450 
Q 1169 3672 1522 3987 
Q 1875 4303 2022 4600 
L 2384 4600 
L 2384 0 
z
" transform="scale(0.015625)"/>
        <path id="ArialMT-38" d="M 1131 2484 
Q 781 2613 612 2850 
Q 444 3088 444 3419 
Q 444 3919 803 4259 
Q 1163 4600 1759 4600 
Q 2359 4600 2725 4251 
Q 3091 3903 3091 3403 
Q 3091 3084 2923 2848 
Q 2756 2613 2416 2484 
Q 2838 2347 3058 2040 
Q 3278 1734 3278 1309 
Q 3278 722 2862 322 
Q 2447 -78 1769 -78 
Q 1091 -78 675 323 
Q 259 725 259 1325 
Q 259 1772 486 2073 
Q 713 2375 1131 2484 
z
M 1019 3438 
Q 1019 3113 1228 2906 
Q 1438 2700 1772 2700 
Q 2097 2700 2305 2904 
Q 2513 3109 2513 3406 
Q 2513 3716 2298 3927 
Q 2084 4138 1766 4138 
Q 1444 4138 1231 3931 
Q 1019 3725 1019 3438 
z
M 838 1322 
Q 838 1081 952 856 
Q 1066 631 1291 507 
Q 1516 384 1775 384 
Q 2178 384 2440 643 
Q 2703 903 2703 1303 
Q 2703 1709 2433 1975 
Q 2163 2241 1756 2241 
Q 1359 2241 1098 1978 
Q 838 1716 838 1322 
z
" transform="scale(0.015625)"/>
       </defs>
       <use xlink:href="#ArialMT-32"/>
       <use xlink:href="#ArialMT-30" x="55.615234"/>
       <use xlink:href="#ArialMT-31" x="111.230469"/>
       <use xlink:href="#ArialMT-38" x="166.845703"/>
      </g>
     </g>
    </g>
    <g id="xtick_2">
     <g id="line2d_2">
      <g>
       <use xlink:href="#m4c99cd72f3" x="225.042969" y="391.7875" style="stroke: #000000; stroke-width: 0.8"/>
      </g>
     </g>
     <g id="text_2">
      <!-- 2022 -->
      <g transform="translate(213.921094 405.945312) scale(0.1 -0.1)">
       <use xlink:href="#ArialMT-32"/>
       <use xlink:href="#ArialMT-30" x="55.615234"/>
       <use xlink:href="#ArialMT-32" x="111.230469"/>
       <use xlink:href="#ArialMT-32" x="166.845703"/>
      </g>
     </g>
    </g>
    <g id="text_3">
     <!-- Year -->
     <g transform="translate(157.320312 419.090625) scale(0.1 -0.1)">
      <defs>
       <path id="ArialMT-59" d="M 1784 0 
L 1784 1941 
L 19 4581 
L 756 4581 
L 1659 3200 
Q 1909 2813 2125 2425 
Q 2331 2784 2625 3234 
L 3513 4581 
L 4219 4581 
L 2391 1941 
L 2391 0 
L 1784 0 
z
" transform="scale(0.015625)"/>
       <path id="ArialMT-65" d="M 2694 1069 
L 3275 997 
Q 3138 488 2766 206 
Q 2394 -75 1816 -75 
Q 1088 -75 661 373 
Q 234 822 234 1631 
Q 234 2469 665 2931 
Q 1097 3394 1784 3394 
Q 2450 3394 2872 2941 
Q 3294 2488 3294 1666 
Q 3294 1616 3291 1516 
L 816 1516 
Q 847 969 1125 678 
Q 1403 388 1819 388 
Q 2128 388 2347 550 
Q 2566 713 2694 1069 
z
M 847 1978 
L 2700 1978 
Q 2663 2397 2488 2606 
Q 2219 2931 1791 2931 
Q 1403 2931 1139 2672 
Q 875 2413 847 1978 
z
" transform="scale(0.015625)"/>
       <path id="ArialMT-61" d="M 2588 409 
Q 2275 144 1986 34 
Q 1697 -75 1366 -75 
Q 819 -75 525 192 
Q 231 459 231 875 
Q 231 1119 342 1320 
Q 453 1522 633 1644 
Q 813 1766 1038 1828 
Q 1203 1872 1538 1913 
Q 2219 1994 2541 2106 
Q 2544 2222 2544 2253 
Q 2544 2597 2384 2738 
Q 2169 2928 1744 2928 
Q 1347 2928 1158 2789 
Q 969 2650 878 2297 
L 328 2372 
Q 403 2725 575 2942 
Q 747 3159 1072 3276 
Q 1397 3394 1825 3394 
Q 2250 3394 2515 3294 
Q 2781 3194 2906 3042 
Q 3031 2891 3081 2659 
Q 3109 2516 3109 2141 
L 3109 1391 
Q 3109 606 3145 398 
Q 3181 191 3288 0 
L 2700 0 
Q 2613 175 2588 409 
z
M 2541 1666 
Q 2234 1541 1622 1453 
Q 1275 1403 1131 1340 
Q 988 1278 909 1158 
Q 831 1038 831 891 
Q 831 666 1001 516 
Q 1172 366 1500 366 
Q 1825 366 2078 508 
Q 2331 650 2450 897 
Q 2541 1088 2541 1459 
L 2541 1666 
z
" transform="scale(0.015625)"/>
       <path id="ArialMT-72" d="M 416 0 
L 416 3319 
L 922 3319 
L 922 2816 
Q 1116 3169 1280 3281 
Q 1444 3394 1641 3394 
Q 1925 3394 2219 3213 
L 2025 2691 
Q 1819 2813 1613 2813 
Q 1428 2813 1281 2702 
Q 1134 2591 1072 2394 
Q 978 2094 978 1738 
L 978 0 
L 416 0 
z
" transform="scale(0.015625)"/>
      </defs>
      <use xlink:href="#ArialMT-59"/>
      <use xlink:href="#ArialMT-65" x="57.574219"/>
      <use xlink:href="#ArialMT-61" x="113.189453"/>
      <use xlink:href="#ArialMT-72" x="168.804688"/>
     </g>
    </g>
   </g>
   <g id="matplotlib.axis_2">
    <g id="ytick_1">
     <g id="line2d_3">
      <defs>
       <path id="m8e343aef83" d="M 0 0 
L -3.5 0 
" style="stroke: #000000; stroke-width: 0.8"/>
      </defs>
      <g>
       <use xlink:href="#m8e343aef83" x="42.189063" y="365.927216" style="stroke: #000000; stroke-width: 0.8"/>
      </g>
     </g>
     <g id="text_4">
      <!-- 0 -->
      <g transform="translate(29.628125 369.506122) scale(0.1 -0.1)">
       <use xlink:href="#ArialMT-30"/>
      </g>
     </g>
    </g>
    <g id="ytick_2">
     <g id="line2d_4">
      <g>
       <use xlink:href="#m8e343aef83" x="42.189063" y="302.48608" style="stroke: #000000; stroke-width: 0.8"/>
      </g>
     </g>
     <g id="text_5">
      <!-- 5 -->
      <g transform="translate(29.628125 306.064986) scale(0.1 -0.1)">
       <defs>
        <path id="ArialMT-35" d="M 266 1200 
L 856 1250 
Q 922 819 1161 601 
Q 1400 384 1738 384 
Q 2144 384 2425 690 
Q 2706 997 2706 1503 
Q 2706 1984 2436 2262 
Q 2166 2541 1728 2541 
Q 1456 2541 1237 2417 
Q 1019 2294 894 2097 
L 366 2166 
L 809 4519 
L 3088 4519 
L 3088 3981 
L 1259 3981 
L 1013 2750 
Q 1425 3038 1878 3038 
Q 2478 3038 2890 2622 
Q 3303 2206 3303 1553 
Q 3303 931 2941 478 
Q 2500 -78 1738 -78 
Q 1113 -78 717 272 
Q 322 622 266 1200 
z
" transform="scale(0.015625)"/>
       </defs>
       <use xlink:href="#ArialMT-35"/>
      </g>
     </g>
    </g>
    <g id="ytick_3">
     <g id="line2d_5">
      <g>
       <use xlink:href="#m8e343aef83" x="42.189063" y="239.044943" style="stroke: #000000; stroke-width: 0.8"/>
      </g>
     </g>
     <g id="text_6">
      <!-- 10 -->
      <g transform="translate(24.067188 242.623849) scale(0.1 -0.1)">
       <use xlink:href="#ArialMT-31"/>
       <use xlink:href="#ArialMT-30" x="55.615234"/>
      </g>
     </g>
    </g>
    <g id="ytick_4">
     <g id="line2d_6">
      <g>
       <use xlink:href="#m8e343aef83" x="42.189063" y="175.603807" style="stroke: #000000; stroke-width: 0.8"/>
      </g>
     </g>
     <g id="text_7">
      <!-- 15 -->
      <g transform="translate(24.067188 179.182713) scale(0.1 -0.1)">
       <use xlink:href="#ArialMT-31"/>
       <use xlink:href="#ArialMT-35" x="55.615234"/>
      </g>
     </g>
    </g>
    <g id="ytick_5">
     <g id="line2d_7">
      <g>
       <use xlink:href="#m8e343aef83" x="42.189063" y="112.16267" style="stroke: #000000; stroke-width: 0.8"/>
      </g>
     </g>
     <g id="text_8">
      <!-- 20 -->
      <g transform="translate(24.067188 115.741577) scale(0.1 -0.1)">
       <use xlink:href="#ArialMT-32"/>
       <use xlink:href="#ArialMT-30" x="55.615234"/>
      </g>
     </g>
    </g>
    <g id="ytick_6">
     <g id="line2d_8">
      <g>
       <use xlink:href="#m8e343aef83" x="42.189063" y="48.721534" style="stroke: #000000; stroke-width: 0.8"/>
      </g>
     </g>
     <g id="text_9">
      <!-- 25 -->
      <g transform="translate(24.067188 52.30044) scale(0.1 -0.1)">
       <use xlink:href="#ArialMT-32"/>
       <use xlink:href="#ArialMT-35" x="55.615234"/>
      </g>
     </g>
    </g>
    <g id="text_10">
     <!-- Years of development experience -->
     <g transform="translate(18.079688 281.3525) rotate(-90) scale(0.1 -0.1)">
      <defs>
       <path id="ArialMT-73" d="M 197 991 
L 753 1078 
Q 800 744 1014 566 
Q 1228 388 1613 388 
Q 2000 388 2187 545 
Q 2375 703 2375 916 
Q 2375 1106 2209 1216 
Q 2094 1291 1634 1406 
Q 1016 1563 777 1677 
Q 538 1791 414 1992 
Q 291 2194 291 2438 
Q 291 2659 392 2848 
Q 494 3038 669 3163 
Q 800 3259 1026 3326 
Q 1253 3394 1513 3394 
Q 1903 3394 2198 3281 
Q 2494 3169 2634 2976 
Q 2775 2784 2828 2463 
L 2278 2388 
Q 2241 2644 2061 2787 
Q 1881 2931 1553 2931 
Q 1166 2931 1000 2803 
Q 834 2675 834 2503 
Q 834 2394 903 2306 
Q 972 2216 1119 2156 
Q 1203 2125 1616 2013 
Q 2213 1853 2448 1751 
Q 2684 1650 2818 1456 
Q 2953 1263 2953 975 
Q 2953 694 2789 445 
Q 2625 197 2315 61 
Q 2006 -75 1616 -75 
Q 969 -75 630 194 
Q 291 463 197 991 
z
" transform="scale(0.015625)"/>
       <path id="ArialMT-20" transform="scale(0.015625)"/>
       <path id="ArialMT-6f" d="M 213 1659 
Q 213 2581 725 3025 
Q 1153 3394 1769 3394 
Q 2453 3394 2887 2945 
Q 3322 2497 3322 1706 
Q 3322 1066 3130 698 
Q 2938 331 2570 128 
Q 2203 -75 1769 -75 
Q 1072 -75 642 372 
Q 213 819 213 1659 
z
M 791 1659 
Q 791 1022 1069 705 
Q 1347 388 1769 388 
Q 2188 388 2466 706 
Q 2744 1025 2744 1678 
Q 2744 2294 2464 2611 
Q 2184 2928 1769 2928 
Q 1347 2928 1069 2612 
Q 791 2297 791 1659 
z
" transform="scale(0.015625)"/>
       <path id="ArialMT-66" d="M 556 0 
L 556 2881 
L 59 2881 
L 59 3319 
L 556 3319 
L 556 3672 
Q 556 4006 616 4169 
Q 697 4388 901 4523 
Q 1106 4659 1475 4659 
Q 1713 4659 2000 4603 
L 1916 4113 
Q 1741 4144 1584 4144 
Q 1328 4144 1222 4034 
Q 1116 3925 1116 3625 
L 1116 3319 
L 1763 3319 
L 1763 2881 
L 1116 2881 
L 1116 0 
L 556 0 
z
" transform="scale(0.015625)"/>
       <path id="ArialMT-64" d="M 2575 0 
L 2575 419 
Q 2259 -75 1647 -75 
Q 1250 -75 917 144 
Q 584 363 401 755 
Q 219 1147 219 1656 
Q 219 2153 384 2558 
Q 550 2963 881 3178 
Q 1213 3394 1622 3394 
Q 1922 3394 2156 3267 
Q 2391 3141 2538 2938 
L 2538 4581 
L 3097 4581 
L 3097 0 
L 2575 0 
z
M 797 1656 
Q 797 1019 1065 703 
Q 1334 388 1700 388 
Q 2069 388 2326 689 
Q 2584 991 2584 1609 
Q 2584 2291 2321 2609 
Q 2059 2928 1675 2928 
Q 1300 2928 1048 2622 
Q 797 2316 797 1656 
z
" transform="scale(0.015625)"/>
       <path id="ArialMT-76" d="M 1344 0 
L 81 3319 
L 675 3319 
L 1388 1331 
Q 1503 1009 1600 663 
Q 1675 925 1809 1294 
L 2547 3319 
L 3125 3319 
L 1869 0 
L 1344 0 
z
" transform="scale(0.015625)"/>
       <path id="ArialMT-6c" d="M 409 0 
L 409 4581 
L 972 4581 
L 972 0 
L 409 0 
z
" transform="scale(0.015625)"/>
       <path id="ArialMT-70" d="M 422 -1272 
L 422 3319 
L 934 3319 
L 934 2888 
Q 1116 3141 1344 3267 
Q 1572 3394 1897 3394 
Q 2322 3394 2647 3175 
Q 2972 2956 3137 2557 
Q 3303 2159 3303 1684 
Q 3303 1175 3120 767 
Q 2938 359 2589 142 
Q 2241 -75 1856 -75 
Q 1575 -75 1351 44 
Q 1128 163 984 344 
L 984 -1272 
L 422 -1272 
z
M 931 1641 
Q 931 1000 1190 694 
Q 1450 388 1819 388 
Q 2194 388 2461 705 
Q 2728 1022 2728 1688 
Q 2728 2322 2467 2637 
Q 2206 2953 1844 2953 
Q 1484 2953 1207 2617 
Q 931 2281 931 1641 
z
" transform="scale(0.015625)"/>
       <path id="ArialMT-6d" d="M 422 0 
L 422 3319 
L 925 3319 
L 925 2853 
Q 1081 3097 1340 3245 
Q 1600 3394 1931 3394 
Q 2300 3394 2536 3241 
Q 2772 3088 2869 2813 
Q 3263 3394 3894 3394 
Q 4388 3394 4653 3120 
Q 4919 2847 4919 2278 
L 4919 0 
L 4359 0 
L 4359 2091 
Q 4359 2428 4304 2576 
Q 4250 2725 4106 2815 
Q 3963 2906 3769 2906 
Q 3419 2906 3187 2673 
Q 2956 2441 2956 1928 
L 2956 0 
L 2394 0 
L 2394 2156 
Q 2394 2531 2256 2718 
Q 2119 2906 1806 2906 
Q 1569 2906 1367 2781 
Q 1166 2656 1075 2415 
Q 984 2175 984 1722 
L 984 0 
L 422 0 
z
" transform="scale(0.015625)"/>
       <path id="ArialMT-6e" d="M 422 0 
L 422 3319 
L 928 3319 
L 928 2847 
Q 1294 3394 1984 3394 
Q 2284 3394 2536 3286 
Q 2788 3178 2913 3003 
Q 3038 2828 3088 2588 
Q 3119 2431 3119 2041 
L 3119 0 
L 2556 0 
L 2556 2019 
Q 2556 2363 2490 2533 
Q 2425 2703 2258 2804 
Q 2091 2906 1866 2906 
Q 1506 2906 1245 2678 
Q 984 2450 984 1813 
L 984 0 
L 422 0 
z
" transform="scale(0.015625)"/>
       <path id="ArialMT-74" d="M 1650 503 
L 1731 6 
Q 1494 -44 1306 -44 
Q 1000 -44 831 53 
Q 663 150 594 308 
Q 525 466 525 972 
L 525 2881 
L 113 2881 
L 113 3319 
L 525 3319 
L 525 4141 
L 1084 4478 
L 1084 3319 
L 1650 3319 
L 1650 2881 
L 1084 2881 
L 1084 941 
Q 1084 700 1114 631 
Q 1144 563 1211 522 
Q 1278 481 1403 481 
Q 1497 481 1650 503 
z
" transform="scale(0.015625)"/>
       <path id="ArialMT-78" d="M 47 0 
L 1259 1725 
L 138 3319 
L 841 3319 
L 1350 2541 
Q 1494 2319 1581 2169 
Q 1719 2375 1834 2534 
L 2394 3319 
L 3066 3319 
L 1919 1756 
L 3153 0 
L 2463 0 
L 1781 1031 
L 1600 1309 
L 728 0 
L 47 0 
z
" transform="scale(0.015625)"/>
       <path id="ArialMT-69" d="M 425 3934 
L 425 4581 
L 988 4581 
L 988 3934 
L 425 3934 
z
M 425 0 
L 425 3319 
L 988 3319 
L 988 0 
L 425 0 
z
" transform="scale(0.015625)"/>
       <path id="ArialMT-63" d="M 2588 1216 
L 3141 1144 
Q 3050 572 2676 248 
Q 2303 -75 1759 -75 
Q 1078 -75 664 370 
Q 250 816 250 1647 
Q 250 2184 428 2587 
Q 606 2991 970 3192 
Q 1334 3394 1763 3394 
Q 2303 3394 2647 3120 
Q 2991 2847 3088 2344 
L 2541 2259 
Q 2463 2594 2264 2762 
Q 2066 2931 1784 2931 
Q 1359 2931 1093 2626 
Q 828 2322 828 1663 
Q 828 994 1084 691 
Q 1341 388 1753 388 
Q 2084 388 2306 591 
Q 2528 794 2588 1216 
z
" transform="scale(0.015625)"/>
      </defs>
      <use xlink:href="#ArialMT-59"/>
      <use xlink:href="#ArialMT-65" x="57.574219"/>
      <use xlink:href="#ArialMT-61" x="113.189453"/>
      <use xlink:href="#ArialMT-72" x="168.804688"/>
      <use xlink:href="#ArialMT-73" x="202.105469"/>
      <use xlink:href="#ArialMT-20" x="252.105469"/>
      <use xlink:href="#ArialMT-6f" x="279.888672"/>
      <use xlink:href="#ArialMT-66" x="335.503906"/>
      <use xlink:href="#ArialMT-20" x="363.287109"/>
      <use xlink:href="#ArialMT-64" x="391.070312"/>
      <use xlink:href="#ArialMT-65" x="446.685547"/>
      <use xlink:href="#ArialMT-76" x="502.300781"/>
      <use xlink:href="#ArialMT-65" x="552.300781"/>
      <use xlink:href="#ArialMT-6c" x="607.916016"/>
      <use xlink:href="#ArialMT-6f" x="630.132812"/>
      <use xlink:href="#ArialMT-70" x="685.748047"/>
      <use xlink:href="#ArialMT-6d" x="741.363281"/>
      <use xlink:href="#ArialMT-65" x="824.664062"/>
      <use xlink:href="#ArialMT-6e" x="880.279297"/>
      <use xlink:href="#ArialMT-74" x="935.894531"/>
      <use xlink:href="#ArialMT-20" x="963.677734"/>
      <use xlink:href="#ArialMT-65" x="991.460938"/>
      <use xlink:href="#ArialMT-78" x="1047.076172"/>
      <use xlink:href="#ArialMT-70" x="1097.076172"/>
      <use xlink:href="#ArialMT-65" x="1152.691406"/>
      <use xlink:href="#ArialMT-72" x="1208.306641"/>
      <use xlink:href="#ArialMT-69" x="1241.607422"/>
      <use xlink:href="#ArialMT-65" x="1263.824219"/>
      <use xlink:href="#ArialMT-6e" x="1319.439453"/>
      <use xlink:href="#ArialMT-63" x="1375.054688"/>
      <use xlink:href="#ArialMT-65" x="1425.054688"/>
     </g>
    </g>
   </g>
   <g id="line2d_9">
    <path d="M 109.807031 302.48608 
L 109.807031 340.550761 
" clip-path="url(#p9fc3381f3e)" style="fill: none; stroke: #3f3f3f; stroke-width: 1.5; stroke-linecap: square"/>
   </g>
   <g id="line2d_10">
    <path d="M 109.807031 175.603807 
L 109.807031 48.721534 
" clip-path="url(#p9fc3381f3e)" style="fill: none; stroke: #3f3f3f; stroke-width: 1.5; stroke-linecap: square"/>
   </g>
   <g id="line2d_11">
    <path d="M 86.759844 340.550761 
L 132.854219 340.550761 
" clip-path="url(#p9fc3381f3e)" style="fill: none; stroke: #3f3f3f; stroke-width: 1.5; stroke-linecap: square"/>
   </g>
   <g id="line2d_12">
    <path d="M 86.759844 48.721534 
L 132.854219 48.721534 
" clip-path="url(#p9fc3381f3e)" style="fill: none; stroke: #3f3f3f; stroke-width: 1.5; stroke-linecap: square"/>
   </g>
   <g id="line2d_13"/>
   <g id="line2d_14">
    <path d="M 225.042969 327.862534 
L 225.042969 365.927216 
" clip-path="url(#p9fc3381f3e)" style="fill: none; stroke: #3f3f3f; stroke-width: 1.5; stroke-linecap: square"/>
   </g>
   <g id="line2d_15">
    <path d="M 225.042969 277.109625 
L 225.042969 200.980261 
" clip-path="url(#p9fc3381f3e)" style="fill: none; stroke: #3f3f3f; stroke-width: 1.5; stroke-linecap: square"/>
   </g>
   <g id="line2d_16">
    <path d="M 201.995781 365.927216 
L 248.090156 365.927216 
" clip-path="url(#p9fc3381f3e)" style="fill: none; stroke: #3f3f3f; stroke-width: 1.5; stroke-linecap: square"/>
   </g>
   <g id="line2d_17">
    <path d="M 201.995781 200.980261 
L 248.090156 200.980261 
" clip-path="url(#p9fc3381f3e)" style="fill: none; stroke: #3f3f3f; stroke-width: 1.5; stroke-linecap: square"/>
   </g>
   <g id="line2d_18">
    <defs>
     <path id="m1b309634d9" d="M -0 3.535534 
L 2.12132 0 
L -0 -3.535534 
L -2.12132 -0 
z
" style="stroke: #3f3f3f; stroke-linejoin: miter"/>
    </defs>
    <g clip-path="url(#p9fc3381f3e)">
     <use xlink:href="#m1b309634d9" x="225.042969" y="188.292034" style="fill: #3f3f3f; stroke: #3f3f3f; stroke-linejoin: miter"/>
    </g>
   </g>
   <g id="line2d_19">
    <path d="M 63.712656 239.044943 
L 155.901406 239.044943 
" clip-path="url(#p9fc3381f3e)" style="fill: none; stroke: #3f3f3f; stroke-width: 1.5; stroke-linecap: square"/>
   </g>
   <g id="line2d_20">
    <path d="M 178.948594 302.48608 
L 271.137344 302.48608 
" clip-path="url(#p9fc3381f3e)" style="fill: none; stroke: #3f3f3f; stroke-width: 1.5; stroke-linecap: square"/>
   </g>
   <g id="patch_5">
    <path d="M 42.189063 365.927216 
L 42.189063 48.721534 
" style="fill: none; stroke: #000000; stroke-width: 0.8; stroke-linejoin: miter; stroke-linecap: square"/>
   </g>
   <g id="patch_6">
    <path d="M 109.807031 391.7875 
L 225.042969 391.7875 
" style="fill: none; stroke: #000000; stroke-width: 0.8; stroke-linejoin: miter; stroke-linecap: square"/>
   </g>
   <g id="PathCollection_1">
    <defs>
     <path id="m7c0cf669a7" d="M 0 2.5 
C 0.663008 2.5 1.29895 2.236584 1.767767 1.767767 
C 2.236584 1.29895 2.5 0.663008 2.5 0 
C 2.5 -0.663008 2.236584 -1.29895 1.767767 -1.767767 
C 1.29895 -2.236584 0.663008 -2.5 0 -2.5 
C -0.663008 -2.5 -1.29895 -2.236584 -1.767767 -1.767767 
C -2.236584 -1.29895 -2.5 -0.663008 -2.5 0 
C -2.5 0.663008 -2.236584 1.29895 -1.767767 1.767767 
C -1.29895 2.236584 -0.663008 2.5 0 2.5 
z
"/>
    </defs>
    <g clip-path="url(#p9fc3381f3e)">
     <use xlink:href="#m7c0cf669a7" x="115.057031" y="239.044943" style="fill: #808080; fill-opacity: 0.75"/>
     <use xlink:href="#m7c0cf669a7" x="88.807031" y="112.16267" style="fill: #808080; fill-opacity: 0.75"/>
     <use xlink:href="#m7c0cf669a7" x="109.807031" y="277.109625" style="fill: #808080; fill-opacity: 0.75"/>
     <use xlink:href="#m7c0cf669a7" x="115.057031" y="175.603807" style="fill: #808080; fill-opacity: 0.75"/>
     <use xlink:href="#m7c0cf669a7" x="109.807031" y="150.227352" style="fill: #808080; fill-opacity: 0.75"/>
     <use xlink:href="#m7c0cf669a7" x="115.057031" y="112.16267" style="fill: #808080; fill-opacity: 0.75"/>
     <use xlink:href="#m7c0cf669a7" x="99.307031" y="175.603807" style="fill: #808080; fill-opacity: 0.75"/>
     <use xlink:href="#m7c0cf669a7" x="115.057031" y="277.109625" style="fill: #808080; fill-opacity: 0.75"/>
     <use xlink:href="#m7c0cf669a7" x="104.557031" y="315.174307" style="fill: #808080; fill-opacity: 0.75"/>
     <use xlink:href="#m7c0cf669a7" x="115.057031" y="315.174307" style="fill: #808080; fill-opacity: 0.75"/>
     <use xlink:href="#m7c0cf669a7" x="109.807031" y="48.721534" style="fill: #808080; fill-opacity: 0.75"/>
     <use xlink:href="#m7c0cf669a7" x="120.307031" y="175.603807" style="fill: #808080; fill-opacity: 0.75"/>
     <use xlink:href="#m7c0cf669a7" x="109.807031" y="264.421398" style="fill: #808080; fill-opacity: 0.75"/>
     <use xlink:href="#m7c0cf669a7" x="130.807031" y="175.603807" style="fill: #808080; fill-opacity: 0.75"/>
     <use xlink:href="#m7c0cf669a7" x="94.057031" y="239.044943" style="fill: #808080; fill-opacity: 0.75"/>
     <use xlink:href="#m7c0cf669a7" x="104.557031" y="340.550761" style="fill: #808080; fill-opacity: 0.75"/>
     <use xlink:href="#m7c0cf669a7" x="104.557031" y="277.109625" style="fill: #808080; fill-opacity: 0.75"/>
     <use xlink:href="#m7c0cf669a7" x="104.557031" y="327.862534" style="fill: #808080; fill-opacity: 0.75"/>
     <use xlink:href="#m7c0cf669a7" x="125.557031" y="175.603807" style="fill: #808080; fill-opacity: 0.75"/>
     <use xlink:href="#m7c0cf669a7" x="99.307031" y="112.16267" style="fill: #808080; fill-opacity: 0.75"/>
     <use xlink:href="#m7c0cf669a7" x="94.057031" y="112.16267" style="fill: #808080; fill-opacity: 0.75"/>
     <use xlink:href="#m7c0cf669a7" x="99.307031" y="340.550761" style="fill: #808080; fill-opacity: 0.75"/>
     <use xlink:href="#m7c0cf669a7" x="109.807031" y="137.539125" style="fill: #808080; fill-opacity: 0.75"/>
     <use xlink:href="#m7c0cf669a7" x="109.807031" y="315.174307" style="fill: #808080; fill-opacity: 0.75"/>
     <use xlink:href="#m7c0cf669a7" x="88.807031" y="175.603807" style="fill: #808080; fill-opacity: 0.75"/>
     <use xlink:href="#m7c0cf669a7" x="99.307031" y="239.044943" style="fill: #808080; fill-opacity: 0.75"/>
     <use xlink:href="#m7c0cf669a7" x="109.807031" y="112.16267" style="fill: #808080; fill-opacity: 0.75"/>
     <use xlink:href="#m7c0cf669a7" x="109.807031" y="340.550761" style="fill: #808080; fill-opacity: 0.75"/>
     <use xlink:href="#m7c0cf669a7" x="104.557031" y="302.48608" style="fill: #808080; fill-opacity: 0.75"/>
     <use xlink:href="#m7c0cf669a7" x="109.807031" y="239.044943" style="fill: #808080; fill-opacity: 0.75"/>
     <use xlink:href="#m7c0cf669a7" x="104.557031" y="239.044943" style="fill: #808080; fill-opacity: 0.75"/>
     <use xlink:href="#m7c0cf669a7" x="104.557031" y="289.797852" style="fill: #808080; fill-opacity: 0.75"/>
     <use xlink:href="#m7c0cf669a7" x="104.557031" y="264.421398" style="fill: #808080; fill-opacity: 0.75"/>
     <use xlink:href="#m7c0cf669a7" x="115.057031" y="327.862534" style="fill: #808080; fill-opacity: 0.75"/>
     <use xlink:href="#m7c0cf669a7" x="109.807031" y="289.797852" style="fill: #808080; fill-opacity: 0.75"/>
     <use xlink:href="#m7c0cf669a7" x="115.057031" y="340.550761" style="fill: #808080; fill-opacity: 0.75"/>
     <use xlink:href="#m7c0cf669a7" x="99.307031" y="277.109625" style="fill: #808080; fill-opacity: 0.75"/>
     <use xlink:href="#m7c0cf669a7" x="115.057031" y="289.797852" style="fill: #808080; fill-opacity: 0.75"/>
     <use xlink:href="#m7c0cf669a7" x="109.807031" y="86.786216" style="fill: #808080; fill-opacity: 0.75"/>
     <use xlink:href="#m7c0cf669a7" x="104.557031" y="112.16267" style="fill: #808080; fill-opacity: 0.75"/>
     <use xlink:href="#m7c0cf669a7" x="109.807031" y="321.51842" style="fill: #808080; fill-opacity: 0.75"/>
     <use xlink:href="#m7c0cf669a7" x="109.807031" y="327.862534" style="fill: #808080; fill-opacity: 0.75"/>
     <use xlink:href="#m7c0cf669a7" x="115.057031" y="302.48608" style="fill: #808080; fill-opacity: 0.75"/>
     <use xlink:href="#m7c0cf669a7" x="120.307031" y="112.16267" style="fill: #808080; fill-opacity: 0.75"/>
     <use xlink:href="#m7c0cf669a7" x="104.557031" y="175.603807" style="fill: #808080; fill-opacity: 0.75"/>
     <use xlink:href="#m7c0cf669a7" x="125.557031" y="112.16267" style="fill: #808080; fill-opacity: 0.75"/>
     <use xlink:href="#m7c0cf669a7" x="109.807031" y="175.603807" style="fill: #808080; fill-opacity: 0.75"/>
     <use xlink:href="#m7c0cf669a7" x="109.807031" y="302.48608" style="fill: #808080; fill-opacity: 0.75"/>
     <use xlink:href="#m7c0cf669a7" x="109.807031" y="213.668489" style="fill: #808080; fill-opacity: 0.75"/>
     <use xlink:href="#m7c0cf669a7" x="120.307031" y="239.044943" style="fill: #808080; fill-opacity: 0.75"/>
     <use xlink:href="#m7c0cf669a7" x="94.057031" y="175.603807" style="fill: #808080; fill-opacity: 0.75"/>
    </g>
   </g>
   <g id="PathCollection_2">
    <g clip-path="url(#p9fc3381f3e)">
     <use xlink:href="#m7c0cf669a7" x="225.042969" y="277.109625" style="fill: #808080; fill-opacity: 0.75"/>
     <use xlink:href="#m7c0cf669a7" x="209.292969" y="239.044943" style="fill: #808080; fill-opacity: 0.75"/>
     <use xlink:href="#m7c0cf669a7" x="219.792969" y="340.550761" style="fill: #808080; fill-opacity: 0.75"/>
     <use xlink:href="#m7c0cf669a7" x="219.792969" y="327.862534" style="fill: #808080; fill-opacity: 0.75"/>
     <use xlink:href="#m7c0cf669a7" x="219.792969" y="302.48608" style="fill: #808080; fill-opacity: 0.75"/>
     <use xlink:href="#m7c0cf669a7" x="225.042969" y="365.927216" style="fill: #808080; fill-opacity: 0.75"/>
     <use xlink:href="#m7c0cf669a7" x="214.542969" y="289.797852" style="fill: #808080; fill-opacity: 0.75"/>
     <use xlink:href="#m7c0cf669a7" x="214.542969" y="277.109625" style="fill: #808080; fill-opacity: 0.75"/>
     <use xlink:href="#m7c0cf669a7" x="219.792969" y="289.797852" style="fill: #808080; fill-opacity: 0.75"/>
     <use xlink:href="#m7c0cf669a7" x="225.042969" y="239.044943" style="fill: #808080; fill-opacity: 0.75"/>
     <use xlink:href="#m7c0cf669a7" x="214.542969" y="315.174307" style="fill: #808080; fill-opacity: 0.75"/>
     <use xlink:href="#m7c0cf669a7" x="219.792969" y="239.044943" style="fill: #808080; fill-opacity: 0.75"/>
     <use xlink:href="#m7c0cf669a7" x="219.792969" y="365.927216" style="fill: #808080; fill-opacity: 0.75"/>
     <use xlink:href="#m7c0cf669a7" x="235.542969" y="277.109625" style="fill: #808080; fill-opacity: 0.75"/>
     <use xlink:href="#m7c0cf669a7" x="235.542969" y="340.550761" style="fill: #808080; fill-opacity: 0.75"/>
     <use xlink:href="#m7c0cf669a7" x="235.542969" y="239.044943" style="fill: #808080; fill-opacity: 0.75"/>
     <use xlink:href="#m7c0cf669a7" x="225.042969" y="200.980261" style="fill: #808080; fill-opacity: 0.75"/>
     <use xlink:href="#m7c0cf669a7" x="214.542969" y="239.044943" style="fill: #808080; fill-opacity: 0.75"/>
     <use xlink:href="#m7c0cf669a7" x="230.292969" y="239.044943" style="fill: #808080; fill-opacity: 0.75"/>
     <use xlink:href="#m7c0cf669a7" x="214.542969" y="327.862534" style="fill: #808080; fill-opacity: 0.75"/>
     <use xlink:href="#m7c0cf669a7" x="230.292969" y="315.174307" style="fill: #808080; fill-opacity: 0.75"/>
     <use xlink:href="#m7c0cf669a7" x="219.792969" y="353.238989" style="fill: #808080; fill-opacity: 0.75"/>
     <use xlink:href="#m7c0cf669a7" x="214.542969" y="340.550761" style="fill: #808080; fill-opacity: 0.75"/>
     <use xlink:href="#m7c0cf669a7" x="214.542969" y="302.48608" style="fill: #808080; fill-opacity: 0.75"/>
     <use xlink:href="#m7c0cf669a7" x="230.292969" y="340.550761" style="fill: #808080; fill-opacity: 0.75"/>
     <use xlink:href="#m7c0cf669a7" x="225.042969" y="353.238989" style="fill: #808080; fill-opacity: 0.75"/>
     <use xlink:href="#m7c0cf669a7" x="230.292969" y="277.109625" style="fill: #808080; fill-opacity: 0.75"/>
     <use xlink:href="#m7c0cf669a7" x="225.042969" y="213.668489" style="fill: #808080; fill-opacity: 0.75"/>
     <use xlink:href="#m7c0cf669a7" x="219.792969" y="200.980261" style="fill: #808080; fill-opacity: 0.75"/>
     <use xlink:href="#m7c0cf669a7" x="230.292969" y="327.862534" style="fill: #808080; fill-opacity: 0.75"/>
     <use xlink:href="#m7c0cf669a7" x="230.292969" y="289.797852" style="fill: #808080; fill-opacity: 0.75"/>
     <use xlink:href="#m7c0cf669a7" x="225.042969" y="289.797852" style="fill: #808080; fill-opacity: 0.75"/>
     <use xlink:href="#m7c0cf669a7" x="219.792969" y="277.109625" style="fill: #808080; fill-opacity: 0.75"/>
     <use xlink:href="#m7c0cf669a7" x="230.292969" y="302.48608" style="fill: #808080; fill-opacity: 0.75"/>
     <use xlink:href="#m7c0cf669a7" x="225.042969" y="315.174307" style="fill: #808080; fill-opacity: 0.75"/>
     <use xlink:href="#m7c0cf669a7" x="225.042969" y="188.292034" style="fill: #808080; fill-opacity: 0.75"/>
     <use xlink:href="#m7c0cf669a7" x="235.542969" y="302.48608" style="fill: #808080; fill-opacity: 0.75"/>
     <use xlink:href="#m7c0cf669a7" x="225.042969" y="340.550761" style="fill: #808080; fill-opacity: 0.75"/>
     <use xlink:href="#m7c0cf669a7" x="225.042969" y="302.48608" style="fill: #808080; fill-opacity: 0.75"/>
     <use xlink:href="#m7c0cf669a7" x="219.792969" y="315.174307" style="fill: #808080; fill-opacity: 0.75"/>
     <use xlink:href="#m7c0cf669a7" x="225.042969" y="327.862534" style="fill: #808080; fill-opacity: 0.75"/>
    </g>
   </g>
  </g>
  <g id="axes_2">
   <g id="patch_7">
    <path d="M 334.728125 381.7875 
L 565.2 381.7875 
L 565.2 32.86125 
L 334.728125 32.86125 
z
" style="fill: #ffffff"/>
   </g>
   <g id="patch_8">
    <path d="M 358.299112 381.7875 
L 371.394105 381.7875 
L 371.394105 49.476786 
L 358.299112 49.476786 
z
" clip-path="url(#p94b00bbc45)" style="fill: #2d1e3e; fill-opacity: 0.5; stroke: #000000; stroke-linejoin: miter"/>
   </g>
   <g id="patch_9">
    <path d="M 384.489098 381.7875 
L 397.584091 381.7875 
L 397.584091 49.476786 
L 384.489098 49.476786 
z
" clip-path="url(#p94b00bbc45)" style="fill: #2d1e3e; fill-opacity: 0.5; stroke: #000000; stroke-linejoin: miter"/>
   </g>
   <g id="patch_10">
    <path d="M 410.679084 381.7875 
L 423.774077 381.7875 
L 423.774077 253.975687 
L 410.679084 253.975687 
z
" clip-path="url(#p94b00bbc45)" style="fill: #2d1e3e; fill-opacity: 0.5; stroke: #000000; stroke-linejoin: miter"/>
   </g>
   <g id="patch_11">
    <path d="M 436.86907 381.7875 
L 449.964062 381.7875 
L 449.964062 202.850962 
L 436.86907 202.850962 
z
" clip-path="url(#p94b00bbc45)" style="fill: #2d1e3e; fill-opacity: 0.5; stroke: #000000; stroke-linejoin: miter"/>
   </g>
   <g id="patch_12">
    <path d="M 463.059055 381.7875 
L 476.154048 381.7875 
L 476.154048 305.100412 
L 463.059055 305.100412 
z
" clip-path="url(#p94b00bbc45)" style="fill: #2d1e3e; fill-opacity: 0.5; stroke: #000000; stroke-linejoin: miter"/>
   </g>
   <g id="patch_13">
    <path d="M 489.249041 381.7875 
L 502.344034 381.7875 
L 502.344034 381.7875 
L 489.249041 381.7875 
z
" clip-path="url(#p94b00bbc45)" style="fill: #2d1e3e; fill-opacity: 0.5; stroke: #000000; stroke-linejoin: miter"/>
   </g>
   <g id="patch_14">
    <path d="M 515.439027 381.7875 
L 528.53402 381.7875 
L 528.53402 381.7875 
L 515.439027 381.7875 
z
" clip-path="url(#p94b00bbc45)" style="fill: #2d1e3e; fill-opacity: 0.5; stroke: #000000; stroke-linejoin: miter"/>
   </g>
   <g id="patch_15">
    <path d="M 541.629013 381.7875 
L 554.724006 381.7875 
L 554.724006 381.7875 
L 541.629013 381.7875 
z
" clip-path="url(#p94b00bbc45)" style="fill: #2d1e3e; fill-opacity: 0.5; stroke: #000000; stroke-linejoin: miter"/>
   </g>
   <g id="patch_16">
    <path d="M 345.204119 381.7875 
L 358.299112 381.7875 
L 358.299112 202.850962 
L 345.204119 202.850962 
z
" clip-path="url(#p94b00bbc45)" style="fill: #edd1cb; fill-opacity: 0.5; stroke: #000000; stroke-linejoin: miter"/>
   </g>
   <g id="patch_17">
    <path d="M 371.394105 381.7875 
L 384.489098 381.7875 
L 384.489098 126.163874 
L 371.394105 126.163874 
z
" clip-path="url(#p94b00bbc45)" style="fill: #edd1cb; fill-opacity: 0.5; stroke: #000000; stroke-linejoin: miter"/>
   </g>
   <g id="patch_18">
    <path d="M 397.584091 381.7875 
L 410.679084 381.7875 
L 410.679084 228.413324 
L 397.584091 228.413324 
z
" clip-path="url(#p94b00bbc45)" style="fill: #edd1cb; fill-opacity: 0.5; stroke: #000000; stroke-linejoin: miter"/>
   </g>
   <g id="patch_19">
    <path d="M 423.774077 381.7875 
L 436.86907 381.7875 
L 436.86907 202.850962 
L 423.774077 202.850962 
z
" clip-path="url(#p94b00bbc45)" style="fill: #edd1cb; fill-opacity: 0.5; stroke: #000000; stroke-linejoin: miter"/>
   </g>
   <g id="patch_20">
    <path d="M 449.964062 381.7875 
L 463.059055 381.7875 
L 463.059055 151.726236 
L 449.964062 151.726236 
z
" clip-path="url(#p94b00bbc45)" style="fill: #edd1cb; fill-opacity: 0.5; stroke: #000000; stroke-linejoin: miter"/>
   </g>
   <g id="patch_21">
    <path d="M 476.154048 381.7875 
L 489.249041 381.7875 
L 489.249041 330.662775 
L 476.154048 330.662775 
z
" clip-path="url(#p94b00bbc45)" style="fill: #edd1cb; fill-opacity: 0.5; stroke: #000000; stroke-linejoin: miter"/>
   </g>
   <g id="patch_22">
    <path d="M 502.344034 381.7875 
L 515.439027 381.7875 
L 515.439027 177.288599 
L 502.344034 177.288599 
z
" clip-path="url(#p94b00bbc45)" style="fill: #edd1cb; fill-opacity: 0.5; stroke: #000000; stroke-linejoin: miter"/>
   </g>
   <g id="patch_23">
    <path d="M 528.53402 381.7875 
L 541.629013 381.7875 
L 541.629013 330.662775 
L 528.53402 330.662775 
z
" clip-path="url(#p94b00bbc45)" style="fill: #edd1cb; fill-opacity: 0.5; stroke: #000000; stroke-linejoin: miter"/>
   </g>
   <g id="matplotlib.axis_3">
    <g id="xtick_3">
     <g id="line2d_21">
      <g>
       <use xlink:href="#m4c99cd72f3" x="345.204119" y="391.7875" style="stroke: #000000; stroke-width: 0.8"/>
      </g>
     </g>
     <g id="text_11">
      <!-- 0 -->
      <g transform="translate(342.423651 405.945312) scale(0.1 -0.1)">
       <use xlink:href="#ArialMT-30"/>
      </g>
     </g>
    </g>
    <g id="xtick_4">
     <g id="line2d_22">
      <g>
       <use xlink:href="#m4c99cd72f3" x="387.108097" y="391.7875" style="stroke: #000000; stroke-width: 0.8"/>
      </g>
     </g>
     <g id="text_12">
      <!-- 5 -->
      <g transform="translate(384.327628 405.945312) scale(0.1 -0.1)">
       <use xlink:href="#ArialMT-35"/>
      </g>
     </g>
    </g>
    <g id="xtick_5">
     <g id="line2d_23">
      <g>
       <use xlink:href="#m4c99cd72f3" x="429.012074" y="391.7875" style="stroke: #000000; stroke-width: 0.8"/>
      </g>
     </g>
     <g id="text_13">
      <!-- 10 -->
      <g transform="translate(423.451136 405.945312) scale(0.1 -0.1)">
       <use xlink:href="#ArialMT-31"/>
       <use xlink:href="#ArialMT-30" x="55.615234"/>
      </g>
     </g>
    </g>
    <g id="xtick_6">
     <g id="line2d_24">
      <g>
       <use xlink:href="#m4c99cd72f3" x="470.916051" y="391.7875" style="stroke: #000000; stroke-width: 0.8"/>
      </g>
     </g>
     <g id="text_14">
      <!-- 15 -->
      <g transform="translate(465.355114 405.945312) scale(0.1 -0.1)">
       <use xlink:href="#ArialMT-31"/>
       <use xlink:href="#ArialMT-35" x="55.615234"/>
      </g>
     </g>
    </g>
    <g id="xtick_7">
     <g id="line2d_25">
      <g>
       <use xlink:href="#m4c99cd72f3" x="512.820028" y="391.7875" style="stroke: #000000; stroke-width: 0.8"/>
      </g>
     </g>
     <g id="text_15">
      <!-- 20 -->
      <g transform="translate(507.259091 405.945312) scale(0.1 -0.1)">
       <use xlink:href="#ArialMT-32"/>
       <use xlink:href="#ArialMT-30" x="55.615234"/>
      </g>
     </g>
    </g>
    <g id="xtick_8">
     <g id="line2d_26">
      <g>
       <use xlink:href="#m4c99cd72f3" x="554.724006" y="391.7875" style="stroke: #000000; stroke-width: 0.8"/>
      </g>
     </g>
     <g id="text_16">
      <!-- 25 -->
      <g transform="translate(549.163068 405.945312) scale(0.1 -0.1)">
       <use xlink:href="#ArialMT-32"/>
       <use xlink:href="#ArialMT-35" x="55.615234"/>
      </g>
     </g>
    </g>
    <g id="text_17">
     <!-- Years of development experience -->
     <g transform="translate(375.935937 419.2125) scale(0.1 -0.1)">
      <use xlink:href="#ArialMT-59"/>
      <use xlink:href="#ArialMT-65" x="57.574219"/>
      <use xlink:href="#ArialMT-61" x="113.189453"/>
      <use xlink:href="#ArialMT-72" x="168.804688"/>
      <use xlink:href="#ArialMT-73" x="202.105469"/>
      <use xlink:href="#ArialMT-20" x="252.105469"/>
      <use xlink:href="#ArialMT-6f" x="279.888672"/>
      <use xlink:href="#ArialMT-66" x="335.503906"/>
      <use xlink:href="#ArialMT-20" x="363.287109"/>
      <use xlink:href="#ArialMT-64" x="391.070312"/>
      <use xlink:href="#ArialMT-65" x="446.685547"/>
      <use xlink:href="#ArialMT-76" x="502.300781"/>
      <use xlink:href="#ArialMT-65" x="552.300781"/>
      <use xlink:href="#ArialMT-6c" x="607.916016"/>
      <use xlink:href="#ArialMT-6f" x="630.132812"/>
      <use xlink:href="#ArialMT-70" x="685.748047"/>
      <use xlink:href="#ArialMT-6d" x="741.363281"/>
      <use xlink:href="#ArialMT-65" x="824.664062"/>
      <use xlink:href="#ArialMT-6e" x="880.279297"/>
      <use xlink:href="#ArialMT-74" x="935.894531"/>
      <use xlink:href="#ArialMT-20" x="963.677734"/>
      <use xlink:href="#ArialMT-65" x="991.460938"/>
      <use xlink:href="#ArialMT-78" x="1047.076172"/>
      <use xlink:href="#ArialMT-70" x="1097.076172"/>
      <use xlink:href="#ArialMT-65" x="1152.691406"/>
      <use xlink:href="#ArialMT-72" x="1208.306641"/>
      <use xlink:href="#ArialMT-69" x="1241.607422"/>
      <use xlink:href="#ArialMT-65" x="1263.824219"/>
      <use xlink:href="#ArialMT-6e" x="1319.439453"/>
      <use xlink:href="#ArialMT-63" x="1375.054688"/>
      <use xlink:href="#ArialMT-65" x="1425.054688"/>
     </g>
    </g>
   </g>
   <g id="matplotlib.axis_4">
    <g id="ytick_7">
     <g id="line2d_27">
      <g>
       <use xlink:href="#m8e343aef83" x="324.728125" y="381.7875" style="stroke: #000000; stroke-width: 0.8"/>
      </g>
     </g>
     <g id="text_18">
      <!-- 0 -->
      <g transform="translate(312.167187 385.366406) scale(0.1 -0.1)">
       <use xlink:href="#ArialMT-30"/>
      </g>
     </g>
    </g>
    <g id="ytick_8">
     <g id="line2d_28">
      <g>
       <use xlink:href="#m8e343aef83" x="324.728125" y="330.662775" style="stroke: #000000; stroke-width: 0.8"/>
      </g>
     </g>
     <g id="text_19">
      <!-- 2 -->
      <g transform="translate(312.167187 334.241681) scale(0.1 -0.1)">
       <use xlink:href="#ArialMT-32"/>
      </g>
     </g>
    </g>
    <g id="ytick_9">
     <g id="line2d_29">
      <g>
       <use xlink:href="#m8e343aef83" x="324.728125" y="279.538049" style="stroke: #000000; stroke-width: 0.8"/>
      </g>
     </g>
     <g id="text_20">
      <!-- 4 -->
      <g transform="translate(312.167187 283.116956) scale(0.1 -0.1)">
       <defs>
        <path id="ArialMT-34" d="M 2069 0 
L 2069 1097 
L 81 1097 
L 81 1613 
L 2172 4581 
L 2631 4581 
L 2631 1613 
L 3250 1613 
L 3250 1097 
L 2631 1097 
L 2631 0 
L 2069 0 
z
M 2069 1613 
L 2069 3678 
L 634 1613 
L 2069 1613 
z
" transform="scale(0.015625)"/>
       </defs>
       <use xlink:href="#ArialMT-34"/>
      </g>
     </g>
    </g>
    <g id="ytick_10">
     <g id="line2d_30">
      <g>
       <use xlink:href="#m8e343aef83" x="324.728125" y="228.413324" style="stroke: #000000; stroke-width: 0.8"/>
      </g>
     </g>
     <g id="text_21">
      <!-- 6 -->
      <g transform="translate(312.167187 231.99223) scale(0.1 -0.1)">
       <defs>
        <path id="ArialMT-36" d="M 3184 3459 
L 2625 3416 
Q 2550 3747 2413 3897 
Q 2184 4138 1850 4138 
Q 1581 4138 1378 3988 
Q 1113 3794 959 3422 
Q 806 3050 800 2363 
Q 1003 2672 1297 2822 
Q 1591 2972 1913 2972 
Q 2475 2972 2870 2558 
Q 3266 2144 3266 1488 
Q 3266 1056 3080 686 
Q 2894 316 2569 119 
Q 2244 -78 1831 -78 
Q 1128 -78 684 439 
Q 241 956 241 2144 
Q 241 3472 731 4075 
Q 1159 4600 1884 4600 
Q 2425 4600 2770 4297 
Q 3116 3994 3184 3459 
z
M 888 1484 
Q 888 1194 1011 928 
Q 1134 663 1356 523 
Q 1578 384 1822 384 
Q 2178 384 2434 671 
Q 2691 959 2691 1453 
Q 2691 1928 2437 2201 
Q 2184 2475 1800 2475 
Q 1419 2475 1153 2201 
Q 888 1928 888 1484 
z
" transform="scale(0.015625)"/>
       </defs>
       <use xlink:href="#ArialMT-36"/>
      </g>
     </g>
    </g>
    <g id="ytick_11">
     <g id="line2d_31">
      <g>
       <use xlink:href="#m8e343aef83" x="324.728125" y="177.288599" style="stroke: #000000; stroke-width: 0.8"/>
      </g>
     </g>
     <g id="text_22">
      <!-- 8 -->
      <g transform="translate(312.167187 180.867505) scale(0.1 -0.1)">
       <use xlink:href="#ArialMT-38"/>
      </g>
     </g>
    </g>
    <g id="ytick_12">
     <g id="line2d_32">
      <g>
       <use xlink:href="#m8e343aef83" x="324.728125" y="126.163874" style="stroke: #000000; stroke-width: 0.8"/>
      </g>
     </g>
     <g id="text_23">
      <!-- 10 -->
      <g transform="translate(306.60625 129.74278) scale(0.1 -0.1)">
       <use xlink:href="#ArialMT-31"/>
       <use xlink:href="#ArialMT-30" x="55.615234"/>
      </g>
     </g>
    </g>
    <g id="ytick_13">
     <g id="line2d_33">
      <g>
       <use xlink:href="#m8e343aef83" x="324.728125" y="75.039148" style="stroke: #000000; stroke-width: 0.8"/>
      </g>
     </g>
     <g id="text_24">
      <!-- 12 -->
      <g transform="translate(306.60625 78.618055) scale(0.1 -0.1)">
       <use xlink:href="#ArialMT-31"/>
       <use xlink:href="#ArialMT-32" x="55.615234"/>
      </g>
     </g>
    </g>
    <g id="text_25">
     <!-- Count -->
     <g transform="translate(300.61875 220.665781) rotate(-90) scale(0.1 -0.1)">
      <defs>
       <path id="ArialMT-43" d="M 3763 1606 
L 4369 1453 
Q 4178 706 3683 314 
Q 3188 -78 2472 -78 
Q 1731 -78 1267 223 
Q 803 525 561 1097 
Q 319 1669 319 2325 
Q 319 3041 592 3573 
Q 866 4106 1370 4382 
Q 1875 4659 2481 4659 
Q 3169 4659 3637 4309 
Q 4106 3959 4291 3325 
L 3694 3184 
Q 3534 3684 3231 3912 
Q 2928 4141 2469 4141 
Q 1941 4141 1586 3887 
Q 1231 3634 1087 3207 
Q 944 2781 944 2328 
Q 944 1744 1114 1308 
Q 1284 872 1643 656 
Q 2003 441 2422 441 
Q 2931 441 3284 734 
Q 3638 1028 3763 1606 
z
" transform="scale(0.015625)"/>
       <path id="ArialMT-75" d="M 2597 0 
L 2597 488 
Q 2209 -75 1544 -75 
Q 1250 -75 995 37 
Q 741 150 617 320 
Q 494 491 444 738 
Q 409 903 409 1263 
L 409 3319 
L 972 3319 
L 972 1478 
Q 972 1038 1006 884 
Q 1059 663 1231 536 
Q 1403 409 1656 409 
Q 1909 409 2131 539 
Q 2353 669 2445 892 
Q 2538 1116 2538 1541 
L 2538 3319 
L 3100 3319 
L 3100 0 
L 2597 0 
z
" transform="scale(0.015625)"/>
      </defs>
      <use xlink:href="#ArialMT-43"/>
      <use xlink:href="#ArialMT-6f" x="72.216797"/>
      <use xlink:href="#ArialMT-75" x="127.832031"/>
      <use xlink:href="#ArialMT-6e" x="183.447266"/>
      <use xlink:href="#ArialMT-74" x="239.0625"/>
     </g>
    </g>
   </g>
   <g id="line2d_34">
    <path d="M 345.204119 242.825732 
L 351.521302 191.277359 
L 355.732757 157.757771 
L 358.891348 134.474102 
L 360.997076 120.217164 
L 363.102803 107.150719 
L 365.208531 95.381491 
L 367.314258 84.977465 
L 369.419986 75.973813 
L 371.525713 68.381797 
L 373.631441 62.199433 
L 374.684304 59.635331 
L 375.737168 57.422378 
L 376.790032 55.561214 
L 377.842896 54.053352 
L 378.895759 52.901285 
L 379.948623 52.108514 
L 381.001487 51.679495 
L 382.054351 51.619507 
L 383.107214 51.934427 
L 384.160078 52.63044 
L 385.212942 53.713667 
L 386.265806 55.189731 
L 387.318669 57.063278 
L 388.371533 59.337463 
L 389.424397 62.013413 
L 390.477261 65.089692 
L 391.530124 68.561799 
L 393.635852 76.65739 
L 395.741579 86.186745 
L 397.847307 96.965725 
L 401.005898 114.900143 
L 409.428808 164.676967 
L 411.534536 175.607115 
L 413.640263 185.38396 
L 415.745991 193.892614 
L 417.851718 201.129235 
L 419.957446 207.195431 
L 422.063173 212.280446 
L 424.168901 216.633668 
L 427.327492 222.39541 
L 431.538947 229.964414 
L 433.644674 234.113478 
L 435.750402 238.631415 
L 438.908993 246.120789 
L 442.067584 254.336075 
L 446.279039 266.031496 
L 451.543358 281.299274 
L 456.807677 297.155557 
L 463.124859 317.010243 
L 469.442042 336.75344 
L 472.600633 345.874849 
L 474.706361 351.464424 
L 476.812088 356.573878 
L 478.917816 361.15201 
L 481.023543 365.171468 
L 483.129271 368.628675 
L 485.234998 371.541549 
L 487.340726 373.945615 
L 489.446453 375.889222 
L 491.552181 377.42854 
L 493.657908 378.622894 
L 495.763636 379.530818 
L 497.869363 380.207067 
L 499.975091 380.700615 
L 503.133682 381.188567 
L 507.345137 381.533853 
L 512.609456 381.709477 
L 523.138093 381.78232 
L 554.724006 381.7875 
L 554.724006 381.7875 
" clip-path="url(#p94b00bbc45)" style="fill: none; stroke: #2d1e3e; stroke-width: 1.5; stroke-linecap: square"/>
   </g>
   <g id="line2d_35">
    <path d="M 345.204119 293.899477 
L 349.415574 277.314507 
L 363.102803 222.31742 
L 366.261394 210.840954 
L 369.419986 200.311066 
L 371.525713 193.911016 
L 373.631441 188.061997 
L 375.737168 182.80208 
L 377.842896 178.160693 
L 379.948623 174.158435 
L 382.054351 170.80712 
L 384.160078 168.110018 
L 385.212942 167.005583 
L 386.265806 166.062279 
L 387.318669 165.278323 
L 388.371533 164.651505 
L 389.424397 164.179208 
L 390.477261 163.85843 
L 391.530124 163.685815 
L 392.582988 163.657673 
L 393.635852 163.770006 
L 394.688716 164.018534 
L 395.741579 164.398719 
L 397.847307 165.53476 
L 399.953034 167.137549 
L 402.058762 169.163805 
L 404.164489 171.568161 
L 406.270217 174.303693 
L 409.428808 178.922693 
L 412.587399 184.013874 
L 416.798854 191.249884 
L 425.221764 205.811429 
L 428.380356 210.833761 
L 431.538947 215.404719 
L 433.644674 218.145454 
L 435.750402 220.608777 
L 437.856129 222.773385 
L 439.961857 224.624211 
L 442.067584 226.152896 
L 444.173312 227.358103 
L 446.279039 228.245624 
L 448.384767 228.82826 
L 450.490494 229.125449 
L 452.596222 229.16266 
L 454.701949 228.970554 
L 456.807677 228.583953 
L 459.966268 227.722591 
L 464.177723 226.257211 
L 470.494906 223.999983 
L 473.653497 223.085905 
L 476.812088 222.430039 
L 478.917816 222.167524 
L 481.023543 222.061722 
L 483.129271 222.124145 
L 485.234998 222.364474 
L 487.340726 222.791354 
L 489.446453 223.413145 
L 491.552181 224.23856 
L 493.657908 225.277131 
L 495.763636 226.53945 
L 497.869363 228.037163 
L 499.975091 229.782716 
L 502.080818 231.788859 
L 504.186546 234.067946 
L 506.292273 236.631085 
L 508.398001 239.487202 
L 510.503728 242.642089 
L 512.609456 246.097503 
L 515.768047 251.835999 
L 518.926638 258.209234 
L 522.085229 265.154758 
L 525.243821 272.58195 
L 529.455276 283.032901 
L 543.142504 317.569851 
L 547.353959 327.229673 
L 550.512551 333.925182 
L 553.671142 340.092275 
L 554.724006 342.025438 
L 554.724006 342.025438 
" clip-path="url(#p94b00bbc45)" style="fill: none; stroke: #edd1cb; stroke-width: 1.5; stroke-linecap: square"/>
   </g>
   <g id="patch_24">
    <path d="M 324.728125 381.7875 
L 324.728125 75.039148 
" style="fill: none; stroke: #000000; stroke-width: 0.8; stroke-linejoin: miter; stroke-linecap: square"/>
   </g>
   <g id="patch_25">
    <path d="M 345.204119 391.7875 
L 554.724006 391.7875 
" style="fill: none; stroke: #000000; stroke-width: 0.8; stroke-linejoin: miter; stroke-linecap: square"/>
   </g>
   <g id="legend_1">
    <g id="patch_26">
     <path d="M 503.95625 83.297188 
L 558.2 83.297188 
Q 560.2 83.297188 560.2 81.297188 
L 560.2 39.86125 
Q 560.2 37.86125 558.2 37.86125 
L 503.95625 37.86125 
Q 501.95625 37.86125 501.95625 39.86125 
L 501.95625 81.297188 
Q 501.95625 83.297188 503.95625 83.297188 
z
" style="fill: #ffffff; opacity: 0.8; stroke: #cccccc; stroke-linejoin: miter"/>
    </g>
    <g id="text_26">
     <!-- Year -->
     <g transform="translate(520.973437 49.019063) scale(0.1 -0.1)">
      <use xlink:href="#ArialMT-59"/>
      <use xlink:href="#ArialMT-65" x="57.574219"/>
      <use xlink:href="#ArialMT-61" x="113.189453"/>
      <use xlink:href="#ArialMT-72" x="168.804688"/>
     </g>
    </g>
    <g id="patch_27">
     <path d="M 505.95625 63.164375 
L 525.95625 63.164375 
L 525.95625 56.164375 
L 505.95625 56.164375 
z
" style="fill: #edd1cb; fill-opacity: 0.5; stroke: #000000; stroke-linejoin: miter"/>
    </g>
    <g id="text_27">
     <!-- 2018 -->
     <g transform="translate(533.95625 63.164375) scale(0.1 -0.1)">
      <use xlink:href="#ArialMT-32"/>
      <use xlink:href="#ArialMT-30" x="55.615234"/>
      <use xlink:href="#ArialMT-31" x="111.230469"/>
      <use xlink:href="#ArialMT-38" x="166.845703"/>
     </g>
    </g>
    <g id="patch_28">
     <path d="M 505.95625 77.309688 
L 525.95625 77.309688 
L 525.95625 70.309688 
L 505.95625 70.309688 
z
" style="fill: #2d1e3e; fill-opacity: 0.5; stroke: #000000; stroke-linejoin: miter"/>
    </g>
    <g id="text_28">
     <!-- 2022 -->
     <g transform="translate(533.95625 77.309688) scale(0.1 -0.1)">
      <use xlink:href="#ArialMT-32"/>
      <use xlink:href="#ArialMT-30" x="55.615234"/>
      <use xlink:href="#ArialMT-32" x="111.230469"/>
      <use xlink:href="#ArialMT-32" x="166.845703"/>
     </g>
    </g>
   </g>
  </g>
  <g id="text_29">
   <!-- How many years of software development experience for Netherlands (without 95 percentile) -->
   <g transform="translate(41.894063 17.375625) scale(0.12 -0.12)">
    <defs>
     <path id="ArialMT-48" d="M 513 0 
L 513 4581 
L 1119 4581 
L 1119 2700 
L 3500 2700 
L 3500 4581 
L 4106 4581 
L 4106 0 
L 3500 0 
L 3500 2159 
L 1119 2159 
L 1119 0 
L 513 0 
z
" transform="scale(0.015625)"/>
     <path id="ArialMT-77" d="M 1034 0 
L 19 3319 
L 600 3319 
L 1128 1403 
L 1325 691 
Q 1338 744 1497 1375 
L 2025 3319 
L 2603 3319 
L 3100 1394 
L 3266 759 
L 3456 1400 
L 4025 3319 
L 4572 3319 
L 3534 0 
L 2950 0 
L 2422 1988 
L 2294 2553 
L 1622 0 
L 1034 0 
z
" transform="scale(0.015625)"/>
     <path id="ArialMT-79" d="M 397 -1278 
L 334 -750 
Q 519 -800 656 -800 
Q 844 -800 956 -737 
Q 1069 -675 1141 -563 
Q 1194 -478 1313 -144 
Q 1328 -97 1363 -6 
L 103 3319 
L 709 3319 
L 1400 1397 
Q 1534 1031 1641 628 
Q 1738 1016 1872 1384 
L 2581 3319 
L 3144 3319 
L 1881 -56 
Q 1678 -603 1566 -809 
Q 1416 -1088 1222 -1217 
Q 1028 -1347 759 -1347 
Q 597 -1347 397 -1278 
z
" transform="scale(0.015625)"/>
     <path id="ArialMT-4e" d="M 488 0 
L 488 4581 
L 1109 4581 
L 3516 984 
L 3516 4581 
L 4097 4581 
L 4097 0 
L 3475 0 
L 1069 3600 
L 1069 0 
L 488 0 
z
" transform="scale(0.015625)"/>
     <path id="ArialMT-68" d="M 422 0 
L 422 4581 
L 984 4581 
L 984 2938 
Q 1378 3394 1978 3394 
Q 2347 3394 2619 3248 
Q 2891 3103 3008 2847 
Q 3125 2591 3125 2103 
L 3125 0 
L 2563 0 
L 2563 2103 
Q 2563 2525 2380 2717 
Q 2197 2909 1863 2909 
Q 1613 2909 1392 2779 
Q 1172 2650 1078 2428 
Q 984 2206 984 1816 
L 984 0 
L 422 0 
z
" transform="scale(0.015625)"/>
     <path id="ArialMT-28" d="M 1497 -1347 
Q 1031 -759 709 28 
Q 388 816 388 1659 
Q 388 2403 628 3084 
Q 909 3875 1497 4659 
L 1900 4659 
Q 1522 4009 1400 3731 
Q 1209 3300 1100 2831 
Q 966 2247 966 1656 
Q 966 153 1900 -1347 
L 1497 -1347 
z
" transform="scale(0.015625)"/>
     <path id="ArialMT-39" d="M 350 1059 
L 891 1109 
Q 959 728 1153 556 
Q 1347 384 1650 384 
Q 1909 384 2104 503 
Q 2300 622 2425 820 
Q 2550 1019 2634 1356 
Q 2719 1694 2719 2044 
Q 2719 2081 2716 2156 
Q 2547 1888 2255 1720 
Q 1963 1553 1622 1553 
Q 1053 1553 659 1965 
Q 266 2378 266 3053 
Q 266 3750 677 4175 
Q 1088 4600 1706 4600 
Q 2153 4600 2523 4359 
Q 2894 4119 3086 3673 
Q 3278 3228 3278 2384 
Q 3278 1506 3087 986 
Q 2897 466 2520 194 
Q 2144 -78 1638 -78 
Q 1100 -78 759 220 
Q 419 519 350 1059 
z
M 2653 3081 
Q 2653 3566 2395 3850 
Q 2138 4134 1775 4134 
Q 1400 4134 1122 3828 
Q 844 3522 844 3034 
Q 844 2597 1108 2323 
Q 1372 2050 1759 2050 
Q 2150 2050 2401 2323 
Q 2653 2597 2653 3081 
z
" transform="scale(0.015625)"/>
     <path id="ArialMT-29" d="M 791 -1347 
L 388 -1347 
Q 1322 153 1322 1656 
Q 1322 2244 1188 2822 
Q 1081 3291 891 3722 
Q 769 4003 388 4659 
L 791 4659 
Q 1378 3875 1659 3084 
Q 1900 2403 1900 1659 
Q 1900 816 1576 28 
Q 1253 -759 791 -1347 
z
" transform="scale(0.015625)"/>
    </defs>
    <use xlink:href="#ArialMT-48"/>
    <use xlink:href="#ArialMT-6f" x="72.216797"/>
    <use xlink:href="#ArialMT-77" x="127.832031"/>
    <use xlink:href="#ArialMT-20" x="200.048828"/>
    <use xlink:href="#ArialMT-6d" x="227.832031"/>
    <use xlink:href="#ArialMT-61" x="311.132812"/>
    <use xlink:href="#ArialMT-6e" x="366.748047"/>
    <use xlink:href="#ArialMT-79" x="422.363281"/>
    <use xlink:href="#ArialMT-20" x="472.363281"/>
    <use xlink:href="#ArialMT-79" x="500.146484"/>
    <use xlink:href="#ArialMT-65" x="550.146484"/>
    <use xlink:href="#ArialMT-61" x="605.761719"/>
    <use xlink:href="#ArialMT-72" x="661.376953"/>
    <use xlink:href="#ArialMT-73" x="694.677734"/>
    <use xlink:href="#ArialMT-20" x="744.677734"/>
    <use xlink:href="#ArialMT-6f" x="772.460938"/>
    <use xlink:href="#ArialMT-66" x="828.076172"/>
    <use xlink:href="#ArialMT-20" x="855.859375"/>
    <use xlink:href="#ArialMT-73" x="883.642578"/>
    <use xlink:href="#ArialMT-6f" x="933.642578"/>
    <use xlink:href="#ArialMT-66" x="989.257812"/>
    <use xlink:href="#ArialMT-74" x="1017.041016"/>
    <use xlink:href="#ArialMT-77" x="1044.824219"/>
    <use xlink:href="#ArialMT-61" x="1117.041016"/>
    <use xlink:href="#ArialMT-72" x="1172.65625"/>
    <use xlink:href="#ArialMT-65" x="1205.957031"/>
    <use xlink:href="#ArialMT-20" x="1261.572266"/>
    <use xlink:href="#ArialMT-64" x="1289.355469"/>
    <use xlink:href="#ArialMT-65" x="1344.970703"/>
    <use xlink:href="#ArialMT-76" x="1400.585938"/>
    <use xlink:href="#ArialMT-65" x="1450.585938"/>
    <use xlink:href="#ArialMT-6c" x="1506.201172"/>
    <use xlink:href="#ArialMT-6f" x="1528.417969"/>
    <use xlink:href="#ArialMT-70" x="1584.033203"/>
    <use xlink:href="#ArialMT-6d" x="1639.648438"/>
    <use xlink:href="#ArialMT-65" x="1722.949219"/>
    <use xlink:href="#ArialMT-6e" x="1778.564453"/>
    <use xlink:href="#ArialMT-74" x="1834.179688"/>
    <use xlink:href="#ArialMT-20" x="1861.962891"/>
    <use xlink:href="#ArialMT-65" x="1889.746094"/>
    <use xlink:href="#ArialMT-78" x="1945.361328"/>
    <use xlink:href="#ArialMT-70" x="1995.361328"/>
    <use xlink:href="#ArialMT-65" x="2050.976562"/>
    <use xlink:href="#ArialMT-72" x="2106.591797"/>
    <use xlink:href="#ArialMT-69" x="2139.892578"/>
    <use xlink:href="#ArialMT-65" x="2162.109375"/>
    <use xlink:href="#ArialMT-6e" x="2217.724609"/>
    <use xlink:href="#ArialMT-63" x="2273.339844"/>
    <use xlink:href="#ArialMT-65" x="2323.339844"/>
    <use xlink:href="#ArialMT-20" x="2378.955078"/>
    <use xlink:href="#ArialMT-66" x="2406.738281"/>
    <use xlink:href="#ArialMT-6f" x="2434.521484"/>
    <use xlink:href="#ArialMT-72" x="2490.136719"/>
    <use xlink:href="#ArialMT-20" x="2523.4375"/>
    <use xlink:href="#ArialMT-4e" x="2551.220703"/>
    <use xlink:href="#ArialMT-65" x="2623.4375"/>
    <use xlink:href="#ArialMT-74" x="2679.052734"/>
    <use xlink:href="#ArialMT-68" x="2706.835938"/>
    <use xlink:href="#ArialMT-65" x="2762.451172"/>
    <use xlink:href="#ArialMT-72" x="2818.066406"/>
    <use xlink:href="#ArialMT-6c" x="2851.367188"/>
    <use xlink:href="#ArialMT-61" x="2873.583984"/>
    <use xlink:href="#ArialMT-6e" x="2929.199219"/>
    <use xlink:href="#ArialMT-64" x="2984.814453"/>
    <use xlink:href="#ArialMT-73" x="3040.429688"/>
    <use xlink:href="#ArialMT-20" x="3090.429688"/>
    <use xlink:href="#ArialMT-28" x="3118.212891"/>
    <use xlink:href="#ArialMT-77" x="3151.513672"/>
    <use xlink:href="#ArialMT-69" x="3223.730469"/>
    <use xlink:href="#ArialMT-74" x="3245.947266"/>
    <use xlink:href="#ArialMT-68" x="3273.730469"/>
    <use xlink:href="#ArialMT-6f" x="3329.345703"/>
    <use xlink:href="#ArialMT-75" x="3384.960938"/>
    <use xlink:href="#ArialMT-74" x="3440.576172"/>
    <use xlink:href="#ArialMT-20" x="3468.359375"/>
    <use xlink:href="#ArialMT-39" x="3496.142578"/>
    <use xlink:href="#ArialMT-35" x="3551.757812"/>
    <use xlink:href="#ArialMT-20" x="3607.373047"/>
    <use xlink:href="#ArialMT-70" x="3635.15625"/>
    <use xlink:href="#ArialMT-65" x="3690.771484"/>
    <use xlink:href="#ArialMT-72" x="3746.386719"/>
    <use xlink:href="#ArialMT-63" x="3779.6875"/>
    <use xlink:href="#ArialMT-65" x="3829.6875"/>
    <use xlink:href="#ArialMT-6e" x="3885.302734"/>
    <use xlink:href="#ArialMT-74" x="3940.917969"/>
    <use xlink:href="#ArialMT-69" x="3968.701172"/>
    <use xlink:href="#ArialMT-6c" x="3990.917969"/>
    <use xlink:href="#ArialMT-65" x="4013.134766"/>
    <use xlink:href="#ArialMT-29" x="4068.75"/>
   </g>
  </g>
 </g>
 <defs>
  <clipPath id="p9fc3381f3e">
   <rect x="52.189063" y="32.86125" width="230.471875" height="348.92625"/>
  </clipPath>
  <clipPath id="p94b00bbc45">
   <rect x="334.728125" y="32.86125" width="230.471875" height="348.92625"/>
  </clipPath>
 </defs>
</svg>
