<?xml version="1.0" encoding="utf-8" standalone="no"?>
<!DOCTYPE svg PUBLIC "-//W3C//DTD SVG 1.1//EN"
  "http://www.w3.org/Graphics/SVG/1.1/DTD/svg11.dtd">
<svg xmlns:xlink="http://www.w3.org/1999/xlink" width="576pt" height="432pt" viewBox="0 0 576 432" xmlns="http://www.w3.org/2000/svg" version="1.1">
 <metadata>
  <rdf:RDF xmlns:dc="http://purl.org/dc/elements/1.1/" xmlns:cc="http://creativecommons.org/ns#" xmlns:rdf="http://www.w3.org/1999/02/22-rdf-syntax-ns#">
   <cc:Work>
    <dc:type rdf:resource="http://purl.org/dc/dcmitype/StillImage"/>
    <dc:date>2022-10-13T10:42:37.369154</dc:date>
    <dc:format>image/svg+xml</dc:format>
    <dc:creator>
     <cc:Agent>
      <dc:title>Matplotlib v3.6.1, https://matplotlib.org/</dc:title>
     </cc:Agent>
    </dc:creator>
   </cc:Work>
  </rdf:RDF>
 </metadata>
 <defs>
  <style type="text/css">*{stroke-linejoin: round; stroke-linecap: butt}</style>
 </defs>
 <g id="figure_1">
  <g id="patch_1">
   <path d="M 0 432 
L 576 432 
L 576 0 
L 0 0 
z
" style="fill: #ffffff"/>
  </g>
  <g id="axes_1">
   <g id="patch_2">
    <path d="M 52.30625 381.670312 
L 282.719531 381.670312 
L 282.719531 32.86125 
L 52.30625 32.86125 
z
" style="fill: #ffffff"/>
   </g>
   <g id="patch_3">
    <path d="M 63.826914 344.675412 
L 155.992227 344.675412 
L 155.992227 302.395526 
L 63.826914 302.395526 
L 63.826914 344.675412 
z
" clip-path="url(#pe0008e9c11)" style="fill: #3274a1; stroke: #3f3f3f; stroke-width: 1.5; stroke-linejoin: miter"/>
   </g>
   <g id="patch_4">
    <path d="M 179.033555 355.245384 
L 271.198867 355.245384 
L 271.198867 320.892976 
L 179.033555 320.892976 
L 179.033555 355.245384 
z
" clip-path="url(#pe0008e9c11)" style="fill: #e1812c; stroke: #3f3f3f; stroke-width: 1.5; stroke-linejoin: miter"/>
   </g>
   <g id="matplotlib.axis_1">
    <g id="xtick_1">
     <g id="line2d_1">
      <defs>
       <path id="m4c99cd72f3" d="M 0 0 
L 0 3.5 
" style="stroke: #000000; stroke-width: 0.8"/>
      </defs>
      <g>
       <use xlink:href="#m4c99cd72f3" x="109.90957" y="391.670312" style="stroke: #000000; stroke-width: 0.8"/>
      </g>
     </g>
     <g id="text_1">
      <!-- 2018 -->
      <g transform="translate(98.787695 405.828125) scale(0.1 -0.1)">
       <defs>
        <path id="ArialMT-32" d="M 3222 541 
L 3222 0 
L 194 0 
Q 188 203 259 391 
Q 375 700 629 1000 
Q 884 1300 1366 1694 
Q 2113 2306 2375 2664 
Q 2638 3022 2638 3341 
Q 2638 3675 2398 3904 
Q 2159 4134 1775 4134 
Q 1369 4134 1125 3890 
Q 881 3647 878 3216 
L 300 3275 
Q 359 3922 746 4261 
Q 1134 4600 1788 4600 
Q 2447 4600 2831 4234 
Q 3216 3869 3216 3328 
Q 3216 3053 3103 2787 
Q 2991 2522 2730 2228 
Q 2469 1934 1863 1422 
Q 1356 997 1212 845 
Q 1069 694 975 541 
L 3222 541 
z
" transform="scale(0.015625)"/>
        <path id="ArialMT-30" d="M 266 2259 
Q 266 3072 433 3567 
Q 600 4063 929 4331 
Q 1259 4600 1759 4600 
Q 2128 4600 2406 4451 
Q 2684 4303 2865 4023 
Q 3047 3744 3150 3342 
Q 3253 2941 3253 2259 
Q 3253 1453 3087 958 
Q 2922 463 2592 192 
Q 2263 -78 1759 -78 
Q 1097 -78 719 397 
Q 266 969 266 2259 
z
M 844 2259 
Q 844 1131 1108 757 
Q 1372 384 1759 384 
Q 2147 384 2411 759 
Q 2675 1134 2675 2259 
Q 2675 3391 2411 3762 
Q 2147 4134 1753 4134 
Q 1366 4134 1134 3806 
Q 844 3388 844 2259 
z
" transform="scale(0.015625)"/>
        <path id="ArialMT-31" d="M 2384 0 
L 1822 0 
L 1822 3584 
Q 1619 3391 1289 3197 
Q 959 3003 697 2906 
L 697 3450 
Q 1169 3672 1522 3987 
Q 1875 4303 2022 4600 
L 2384 4600 
L 2384 0 
z
" transform="scale(0.015625)"/>
        <path id="ArialMT-38" d="M 1131 2484 
Q 781 2613 612 2850 
Q 444 3088 444 3419 
Q 444 3919 803 4259 
Q 1163 4600 1759 4600 
Q 2359 4600 2725 4251 
Q 3091 3903 3091 3403 
Q 3091 3084 2923 2848 
Q 2756 2613 2416 2484 
Q 2838 2347 3058 2040 
Q 3278 1734 3278 1309 
Q 3278 722 2862 322 
Q 2447 -78 1769 -78 
Q 1091 -78 675 323 
Q 259 725 259 1325 
Q 259 1772 486 2073 
Q 713 2375 1131 2484 
z
M 1019 3438 
Q 1019 3113 1228 2906 
Q 1438 2700 1772 2700 
Q 2097 2700 2305 2904 
Q 2513 3109 2513 3406 
Q 2513 3716 2298 3927 
Q 2084 4138 1766 4138 
Q 1444 4138 1231 3931 
Q 1019 3725 1019 3438 
z
M 838 1322 
Q 838 1081 952 856 
Q 1066 631 1291 507 
Q 1516 384 1775 384 
Q 2178 384 2440 643 
Q 2703 903 2703 1303 
Q 2703 1709 2433 1975 
Q 2163 2241 1756 2241 
Q 1359 2241 1098 1978 
Q 838 1716 838 1322 
z
" transform="scale(0.015625)"/>
       </defs>
       <use xlink:href="#ArialMT-32"/>
       <use xlink:href="#ArialMT-30" x="55.615234"/>
       <use xlink:href="#ArialMT-31" x="111.230469"/>
       <use xlink:href="#ArialMT-38" x="166.845703"/>
      </g>
     </g>
    </g>
    <g id="xtick_2">
     <g id="line2d_2">
      <g>
       <use xlink:href="#m4c99cd72f3" x="225.116211" y="391.670312" style="stroke: #000000; stroke-width: 0.8"/>
      </g>
     </g>
     <g id="text_2">
      <!-- 2022 -->
      <g transform="translate(213.994336 405.828125) scale(0.1 -0.1)">
       <use xlink:href="#ArialMT-32"/>
       <use xlink:href="#ArialMT-30" x="55.615234"/>
       <use xlink:href="#ArialMT-32" x="111.230469"/>
       <use xlink:href="#ArialMT-32" x="166.845703"/>
      </g>
     </g>
    </g>
    <g id="text_3">
     <!-- Year -->
     <g transform="translate(157.408203 418.973437) scale(0.1 -0.1)">
      <defs>
       <path id="ArialMT-59" d="M 1784 0 
L 1784 1941 
L 19 4581 
L 756 4581 
L 1659 3200 
Q 1909 2813 2125 2425 
Q 2331 2784 2625 3234 
L 3513 4581 
L 4219 4581 
L 2391 1941 
L 2391 0 
L 1784 0 
z
" transform="scale(0.015625)"/>
       <path id="ArialMT-65" d="M 2694 1069 
L 3275 997 
Q 3138 488 2766 206 
Q 2394 -75 1816 -75 
Q 1088 -75 661 373 
Q 234 822 234 1631 
Q 234 2469 665 2931 
Q 1097 3394 1784 3394 
Q 2450 3394 2872 2941 
Q 3294 2488 3294 1666 
Q 3294 1616 3291 1516 
L 816 1516 
Q 847 969 1125 678 
Q 1403 388 1819 388 
Q 2128 388 2347 550 
Q 2566 713 2694 1069 
z
M 847 1978 
L 2700 1978 
Q 2663 2397 2488 2606 
Q 2219 2931 1791 2931 
Q 1403 2931 1139 2672 
Q 875 2413 847 1978 
z
" transform="scale(0.015625)"/>
       <path id="ArialMT-61" d="M 2588 409 
Q 2275 144 1986 34 
Q 1697 -75 1366 -75 
Q 819 -75 525 192 
Q 231 459 231 875 
Q 231 1119 342 1320 
Q 453 1522 633 1644 
Q 813 1766 1038 1828 
Q 1203 1872 1538 1913 
Q 2219 1994 2541 2106 
Q 2544 2222 2544 2253 
Q 2544 2597 2384 2738 
Q 2169 2928 1744 2928 
Q 1347 2928 1158 2789 
Q 969 2650 878 2297 
L 328 2372 
Q 403 2725 575 2942 
Q 747 3159 1072 3276 
Q 1397 3394 1825 3394 
Q 2250 3394 2515 3294 
Q 2781 3194 2906 3042 
Q 3031 2891 3081 2659 
Q 3109 2516 3109 2141 
L 3109 1391 
Q 3109 606 3145 398 
Q 3181 191 3288 0 
L 2700 0 
Q 2613 175 2588 409 
z
M 2541 1666 
Q 2234 1541 1622 1453 
Q 1275 1403 1131 1340 
Q 988 1278 909 1158 
Q 831 1038 831 891 
Q 831 666 1001 516 
Q 1172 366 1500 366 
Q 1825 366 2078 508 
Q 2331 650 2450 897 
Q 2541 1088 2541 1459 
L 2541 1666 
z
" transform="scale(0.015625)"/>
       <path id="ArialMT-72" d="M 416 0 
L 416 3319 
L 922 3319 
L 922 2816 
Q 1116 3169 1280 3281 
Q 1444 3394 1641 3394 
Q 1925 3394 2219 3213 
L 2025 2691 
Q 1819 2813 1613 2813 
Q 1428 2813 1281 2702 
Q 1134 2591 1072 2394 
Q 978 2094 978 1738 
L 978 0 
L 416 0 
z
" transform="scale(0.015625)"/>
      </defs>
      <use xlink:href="#ArialMT-59"/>
      <use xlink:href="#ArialMT-65" x="57.574219"/>
      <use xlink:href="#ArialMT-61" x="113.189453"/>
      <use xlink:href="#ArialMT-72" x="168.804688"/>
     </g>
    </g>
   </g>
   <g id="matplotlib.axis_2">
    <g id="ytick_1">
     <g id="line2d_3">
      <defs>
       <path id="m8e343aef83" d="M 0 0 
L -3.5 0 
" style="stroke: #000000; stroke-width: 0.8"/>
      </defs>
      <g>
       <use xlink:href="#m8e343aef83" x="42.30625" y="365.815355" style="stroke: #000000; stroke-width: 0.8"/>
      </g>
     </g>
     <g id="text_4">
      <!-- 0 -->
      <g transform="translate(29.745313 369.394261) scale(0.1 -0.1)">
       <use xlink:href="#ArialMT-30"/>
      </g>
     </g>
    </g>
    <g id="ytick_2">
     <g id="line2d_4">
      <g>
       <use xlink:href="#m8e343aef83" x="42.30625" y="312.965497" style="stroke: #000000; stroke-width: 0.8"/>
      </g>
     </g>
     <g id="text_5">
      <!-- 5 -->
      <g transform="translate(29.745313 316.544403) scale(0.1 -0.1)">
       <defs>
        <path id="ArialMT-35" d="M 266 1200 
L 856 1250 
Q 922 819 1161 601 
Q 1400 384 1738 384 
Q 2144 384 2425 690 
Q 2706 997 2706 1503 
Q 2706 1984 2436 2262 
Q 2166 2541 1728 2541 
Q 1456 2541 1237 2417 
Q 1019 2294 894 2097 
L 366 2166 
L 809 4519 
L 3088 4519 
L 3088 3981 
L 1259 3981 
L 1013 2750 
Q 1425 3038 1878 3038 
Q 2478 3038 2890 2622 
Q 3303 2206 3303 1553 
Q 3303 931 2941 478 
Q 2500 -78 1738 -78 
Q 1113 -78 717 272 
Q 322 622 266 1200 
z
" transform="scale(0.015625)"/>
       </defs>
       <use xlink:href="#ArialMT-35"/>
      </g>
     </g>
    </g>
    <g id="ytick_3">
     <g id="line2d_5">
      <g>
       <use xlink:href="#m8e343aef83" x="42.30625" y="260.115639" style="stroke: #000000; stroke-width: 0.8"/>
      </g>
     </g>
     <g id="text_6">
      <!-- 10 -->
      <g transform="translate(24.184375 263.694545) scale(0.1 -0.1)">
       <use xlink:href="#ArialMT-31"/>
       <use xlink:href="#ArialMT-30" x="55.615234"/>
      </g>
     </g>
    </g>
    <g id="ytick_4">
     <g id="line2d_6">
      <g>
       <use xlink:href="#m8e343aef83" x="42.30625" y="207.265781" style="stroke: #000000; stroke-width: 0.8"/>
      </g>
     </g>
     <g id="text_7">
      <!-- 15 -->
      <g transform="translate(24.184375 210.844687) scale(0.1 -0.1)">
       <use xlink:href="#ArialMT-31"/>
       <use xlink:href="#ArialMT-35" x="55.615234"/>
      </g>
     </g>
    </g>
    <g id="ytick_5">
     <g id="line2d_7">
      <g>
       <use xlink:href="#m8e343aef83" x="42.30625" y="154.415923" style="stroke: #000000; stroke-width: 0.8"/>
      </g>
     </g>
     <g id="text_8">
      <!-- 20 -->
      <g transform="translate(24.184375 157.99483) scale(0.1 -0.1)">
       <use xlink:href="#ArialMT-32"/>
       <use xlink:href="#ArialMT-30" x="55.615234"/>
      </g>
     </g>
    </g>
    <g id="ytick_6">
     <g id="line2d_8">
      <g>
       <use xlink:href="#m8e343aef83" x="42.30625" y="101.566065" style="stroke: #000000; stroke-width: 0.8"/>
      </g>
     </g>
     <g id="text_9">
      <!-- 25 -->
      <g transform="translate(24.184375 105.144972) scale(0.1 -0.1)">
       <use xlink:href="#ArialMT-32"/>
       <use xlink:href="#ArialMT-35" x="55.615234"/>
      </g>
     </g>
    </g>
    <g id="ytick_7">
     <g id="line2d_9">
      <g>
       <use xlink:href="#m8e343aef83" x="42.30625" y="48.716207" style="stroke: #000000; stroke-width: 0.8"/>
      </g>
     </g>
     <g id="text_10">
      <!-- 30 -->
      <g transform="translate(24.184375 52.295114) scale(0.1 -0.1)">
       <defs>
        <path id="ArialMT-33" d="M 269 1209 
L 831 1284 
Q 928 806 1161 595 
Q 1394 384 1728 384 
Q 2125 384 2398 659 
Q 2672 934 2672 1341 
Q 2672 1728 2419 1979 
Q 2166 2231 1775 2231 
Q 1616 2231 1378 2169 
L 1441 2663 
Q 1497 2656 1531 2656 
Q 1891 2656 2178 2843 
Q 2466 3031 2466 3422 
Q 2466 3731 2256 3934 
Q 2047 4138 1716 4138 
Q 1388 4138 1169 3931 
Q 950 3725 888 3313 
L 325 3413 
Q 428 3978 793 4289 
Q 1159 4600 1703 4600 
Q 2078 4600 2393 4439 
Q 2709 4278 2876 4000 
Q 3044 3722 3044 3409 
Q 3044 3113 2884 2869 
Q 2725 2625 2413 2481 
Q 2819 2388 3044 2092 
Q 3269 1797 3269 1353 
Q 3269 753 2831 336 
Q 2394 -81 1725 -81 
Q 1122 -81 723 278 
Q 325 638 269 1209 
z
" transform="scale(0.015625)"/>
       </defs>
       <use xlink:href="#ArialMT-33"/>
       <use xlink:href="#ArialMT-30" x="55.615234"/>
      </g>
     </g>
    </g>
    <g id="text_11">
     <!-- Contract duration in years -->
     <g transform="translate(18.079687 264.512656) rotate(-90) scale(0.1 -0.1)">
      <defs>
       <path id="ArialMT-43" d="M 3763 1606 
L 4369 1453 
Q 4178 706 3683 314 
Q 3188 -78 2472 -78 
Q 1731 -78 1267 223 
Q 803 525 561 1097 
Q 319 1669 319 2325 
Q 319 3041 592 3573 
Q 866 4106 1370 4382 
Q 1875 4659 2481 4659 
Q 3169 4659 3637 4309 
Q 4106 3959 4291 3325 
L 3694 3184 
Q 3534 3684 3231 3912 
Q 2928 4141 2469 4141 
Q 1941 4141 1586 3887 
Q 1231 3634 1087 3207 
Q 944 2781 944 2328 
Q 944 1744 1114 1308 
Q 1284 872 1643 656 
Q 2003 441 2422 441 
Q 2931 441 3284 734 
Q 3638 1028 3763 1606 
z
" transform="scale(0.015625)"/>
       <path id="ArialMT-6f" d="M 213 1659 
Q 213 2581 725 3025 
Q 1153 3394 1769 3394 
Q 2453 3394 2887 2945 
Q 3322 2497 3322 1706 
Q 3322 1066 3130 698 
Q 2938 331 2570 128 
Q 2203 -75 1769 -75 
Q 1072 -75 642 372 
Q 213 819 213 1659 
z
M 791 1659 
Q 791 1022 1069 705 
Q 1347 388 1769 388 
Q 2188 388 2466 706 
Q 2744 1025 2744 1678 
Q 2744 2294 2464 2611 
Q 2184 2928 1769 2928 
Q 1347 2928 1069 2612 
Q 791 2297 791 1659 
z
" transform="scale(0.015625)"/>
       <path id="ArialMT-6e" d="M 422 0 
L 422 3319 
L 928 3319 
L 928 2847 
Q 1294 3394 1984 3394 
Q 2284 3394 2536 3286 
Q 2788 3178 2913 3003 
Q 3038 2828 3088 2588 
Q 3119 2431 3119 2041 
L 3119 0 
L 2556 0 
L 2556 2019 
Q 2556 2363 2490 2533 
Q 2425 2703 2258 2804 
Q 2091 2906 1866 2906 
Q 1506 2906 1245 2678 
Q 984 2450 984 1813 
L 984 0 
L 422 0 
z
" transform="scale(0.015625)"/>
       <path id="ArialMT-74" d="M 1650 503 
L 1731 6 
Q 1494 -44 1306 -44 
Q 1000 -44 831 53 
Q 663 150 594 308 
Q 525 466 525 972 
L 525 2881 
L 113 2881 
L 113 3319 
L 525 3319 
L 525 4141 
L 1084 4478 
L 1084 3319 
L 1650 3319 
L 1650 2881 
L 1084 2881 
L 1084 941 
Q 1084 700 1114 631 
Q 1144 563 1211 522 
Q 1278 481 1403 481 
Q 1497 481 1650 503 
z
" transform="scale(0.015625)"/>
       <path id="ArialMT-63" d="M 2588 1216 
L 3141 1144 
Q 3050 572 2676 248 
Q 2303 -75 1759 -75 
Q 1078 -75 664 370 
Q 250 816 250 1647 
Q 250 2184 428 2587 
Q 606 2991 970 3192 
Q 1334 3394 1763 3394 
Q 2303 3394 2647 3120 
Q 2991 2847 3088 2344 
L 2541 2259 
Q 2463 2594 2264 2762 
Q 2066 2931 1784 2931 
Q 1359 2931 1093 2626 
Q 828 2322 828 1663 
Q 828 994 1084 691 
Q 1341 388 1753 388 
Q 2084 388 2306 591 
Q 2528 794 2588 1216 
z
" transform="scale(0.015625)"/>
       <path id="ArialMT-20" transform="scale(0.015625)"/>
       <path id="ArialMT-64" d="M 2575 0 
L 2575 419 
Q 2259 -75 1647 -75 
Q 1250 -75 917 144 
Q 584 363 401 755 
Q 219 1147 219 1656 
Q 219 2153 384 2558 
Q 550 2963 881 3178 
Q 1213 3394 1622 3394 
Q 1922 3394 2156 3267 
Q 2391 3141 2538 2938 
L 2538 4581 
L 3097 4581 
L 3097 0 
L 2575 0 
z
M 797 1656 
Q 797 1019 1065 703 
Q 1334 388 1700 388 
Q 2069 388 2326 689 
Q 2584 991 2584 1609 
Q 2584 2291 2321 2609 
Q 2059 2928 1675 2928 
Q 1300 2928 1048 2622 
Q 797 2316 797 1656 
z
" transform="scale(0.015625)"/>
       <path id="ArialMT-75" d="M 2597 0 
L 2597 488 
Q 2209 -75 1544 -75 
Q 1250 -75 995 37 
Q 741 150 617 320 
Q 494 491 444 738 
Q 409 903 409 1263 
L 409 3319 
L 972 3319 
L 972 1478 
Q 972 1038 1006 884 
Q 1059 663 1231 536 
Q 1403 409 1656 409 
Q 1909 409 2131 539 
Q 2353 669 2445 892 
Q 2538 1116 2538 1541 
L 2538 3319 
L 3100 3319 
L 3100 0 
L 2597 0 
z
" transform="scale(0.015625)"/>
       <path id="ArialMT-69" d="M 425 3934 
L 425 4581 
L 988 4581 
L 988 3934 
L 425 3934 
z
M 425 0 
L 425 3319 
L 988 3319 
L 988 0 
L 425 0 
z
" transform="scale(0.015625)"/>
       <path id="ArialMT-79" d="M 397 -1278 
L 334 -750 
Q 519 -800 656 -800 
Q 844 -800 956 -737 
Q 1069 -675 1141 -563 
Q 1194 -478 1313 -144 
Q 1328 -97 1363 -6 
L 103 3319 
L 709 3319 
L 1400 1397 
Q 1534 1031 1641 628 
Q 1738 1016 1872 1384 
L 2581 3319 
L 3144 3319 
L 1881 -56 
Q 1678 -603 1566 -809 
Q 1416 -1088 1222 -1217 
Q 1028 -1347 759 -1347 
Q 597 -1347 397 -1278 
z
" transform="scale(0.015625)"/>
       <path id="ArialMT-73" d="M 197 991 
L 753 1078 
Q 800 744 1014 566 
Q 1228 388 1613 388 
Q 2000 388 2187 545 
Q 2375 703 2375 916 
Q 2375 1106 2209 1216 
Q 2094 1291 1634 1406 
Q 1016 1563 777 1677 
Q 538 1791 414 1992 
Q 291 2194 291 2438 
Q 291 2659 392 2848 
Q 494 3038 669 3163 
Q 800 3259 1026 3326 
Q 1253 3394 1513 3394 
Q 1903 3394 2198 3281 
Q 2494 3169 2634 2976 
Q 2775 2784 2828 2463 
L 2278 2388 
Q 2241 2644 2061 2787 
Q 1881 2931 1553 2931 
Q 1166 2931 1000 2803 
Q 834 2675 834 2503 
Q 834 2394 903 2306 
Q 972 2216 1119 2156 
Q 1203 2125 1616 2013 
Q 2213 1853 2448 1751 
Q 2684 1650 2818 1456 
Q 2953 1263 2953 975 
Q 2953 694 2789 445 
Q 2625 197 2315 61 
Q 2006 -75 1616 -75 
Q 969 -75 630 194 
Q 291 463 197 991 
z
" transform="scale(0.015625)"/>
      </defs>
      <use xlink:href="#ArialMT-43"/>
      <use xlink:href="#ArialMT-6f" x="72.216797"/>
      <use xlink:href="#ArialMT-6e" x="127.832031"/>
      <use xlink:href="#ArialMT-74" x="183.447266"/>
      <use xlink:href="#ArialMT-72" x="211.230469"/>
      <use xlink:href="#ArialMT-61" x="244.53125"/>
      <use xlink:href="#ArialMT-63" x="300.146484"/>
      <use xlink:href="#ArialMT-74" x="350.146484"/>
      <use xlink:href="#ArialMT-20" x="377.929688"/>
      <use xlink:href="#ArialMT-64" x="405.712891"/>
      <use xlink:href="#ArialMT-75" x="461.328125"/>
      <use xlink:href="#ArialMT-72" x="516.943359"/>
      <use xlink:href="#ArialMT-61" x="550.244141"/>
      <use xlink:href="#ArialMT-74" x="605.859375"/>
      <use xlink:href="#ArialMT-69" x="633.642578"/>
      <use xlink:href="#ArialMT-6f" x="655.859375"/>
      <use xlink:href="#ArialMT-6e" x="711.474609"/>
      <use xlink:href="#ArialMT-20" x="767.089844"/>
      <use xlink:href="#ArialMT-69" x="794.873047"/>
      <use xlink:href="#ArialMT-6e" x="817.089844"/>
      <use xlink:href="#ArialMT-20" x="872.705078"/>
      <use xlink:href="#ArialMT-79" x="900.488281"/>
      <use xlink:href="#ArialMT-65" x="950.488281"/>
      <use xlink:href="#ArialMT-61" x="1006.103516"/>
      <use xlink:href="#ArialMT-72" x="1061.71875"/>
      <use xlink:href="#ArialMT-73" x="1095.019531"/>
     </g>
    </g>
   </g>
   <g id="line2d_10">
    <path d="M 109.90957 344.675412 
L 109.90957 360.530369 
" clip-path="url(#pe0008e9c11)" style="fill: none; stroke: #3f3f3f; stroke-width: 1.5; stroke-linecap: square"/>
   </g>
   <g id="line2d_11">
    <path d="M 109.90957 302.395526 
L 109.90957 260.115639 
" clip-path="url(#pe0008e9c11)" style="fill: none; stroke: #3f3f3f; stroke-width: 1.5; stroke-linecap: square"/>
   </g>
   <g id="line2d_12">
    <path d="M 86.868242 360.530369 
L 132.950898 360.530369 
" clip-path="url(#pe0008e9c11)" style="fill: none; stroke: #3f3f3f; stroke-width: 1.5; stroke-linecap: square"/>
   </g>
   <g id="line2d_13">
    <path d="M 86.868242 260.115639 
L 132.950898 260.115639 
" clip-path="url(#pe0008e9c11)" style="fill: none; stroke: #3f3f3f; stroke-width: 1.5; stroke-linecap: square"/>
   </g>
   <g id="line2d_14">
    <defs>
     <path id="m1b309634d9" d="M -0 3.535534 
L 2.12132 0 
L -0 -3.535534 
L -2.12132 -0 
z
" style="stroke: #3f3f3f; stroke-linejoin: miter"/>
    </defs>
    <g clip-path="url(#pe0008e9c11)">
     <use xlink:href="#m1b309634d9" x="109.90957" y="48.716207" style="fill: #3f3f3f; stroke: #3f3f3f; stroke-linejoin: miter"/>
     <use xlink:href="#m1b309634d9" x="109.90957" y="175.555866" style="fill: #3f3f3f; stroke: #3f3f3f; stroke-linejoin: miter"/>
     <use xlink:href="#m1b309634d9" x="109.90957" y="154.415923" style="fill: #3f3f3f; stroke: #3f3f3f; stroke-linejoin: miter"/>
     <use xlink:href="#m1b309634d9" x="109.90957" y="101.566065" style="fill: #3f3f3f; stroke: #3f3f3f; stroke-linejoin: miter"/>
     <use xlink:href="#m1b309634d9" x="109.90957" y="101.566065" style="fill: #3f3f3f; stroke: #3f3f3f; stroke-linejoin: miter"/>
     <use xlink:href="#m1b309634d9" x="109.90957" y="101.566065" style="fill: #3f3f3f; stroke: #3f3f3f; stroke-linejoin: miter"/>
     <use xlink:href="#m1b309634d9" x="109.90957" y="175.555866" style="fill: #3f3f3f; stroke: #3f3f3f; stroke-linejoin: miter"/>
     <use xlink:href="#m1b309634d9" x="109.90957" y="207.265781" style="fill: #3f3f3f; stroke: #3f3f3f; stroke-linejoin: miter"/>
     <use xlink:href="#m1b309634d9" x="109.90957" y="48.716207" style="fill: #3f3f3f; stroke: #3f3f3f; stroke-linejoin: miter"/>
     <use xlink:href="#m1b309634d9" x="109.90957" y="101.566065" style="fill: #3f3f3f; stroke: #3f3f3f; stroke-linejoin: miter"/>
    </g>
   </g>
   <g id="line2d_15">
    <path d="M 225.116211 355.245384 
L 225.116211 365.815355 
" clip-path="url(#pe0008e9c11)" style="fill: none; stroke: #3f3f3f; stroke-width: 1.5; stroke-linecap: square"/>
   </g>
   <g id="line2d_16">
    <path d="M 225.116211 320.892976 
L 225.116211 302.395526 
" clip-path="url(#pe0008e9c11)" style="fill: none; stroke: #3f3f3f; stroke-width: 1.5; stroke-linecap: square"/>
   </g>
   <g id="line2d_17">
    <path d="M 202.074883 365.815355 
L 248.157539 365.815355 
" clip-path="url(#pe0008e9c11)" style="fill: none; stroke: #3f3f3f; stroke-width: 1.5; stroke-linecap: square"/>
   </g>
   <g id="line2d_18">
    <path d="M 202.074883 302.395526 
L 248.157539 302.395526 
" clip-path="url(#pe0008e9c11)" style="fill: none; stroke: #3f3f3f; stroke-width: 1.5; stroke-linecap: square"/>
   </g>
   <g id="line2d_19"/>
   <g id="line2d_20">
    <path d="M 63.826914 334.10544 
L 155.992227 334.10544 
" clip-path="url(#pe0008e9c11)" style="fill: none; stroke: #3f3f3f; stroke-width: 1.5; stroke-linecap: square"/>
   </g>
   <g id="line2d_21">
    <path d="M 179.033555 334.10544 
L 271.198867 334.10544 
" clip-path="url(#pe0008e9c11)" style="fill: none; stroke: #3f3f3f; stroke-width: 1.5; stroke-linecap: square"/>
   </g>
   <g id="patch_5">
    <path d="M 42.30625 365.815355 
L 42.30625 48.716207 
" style="fill: none; stroke: #000000; stroke-width: 0.8; stroke-linejoin: miter; stroke-linecap: square"/>
   </g>
   <g id="patch_6">
    <path d="M 109.90957 391.670312 
L 225.116211 391.670312 
" style="fill: none; stroke: #000000; stroke-width: 0.8; stroke-linejoin: miter; stroke-linecap: square"/>
   </g>
   <g id="PathCollection_1">
    <defs>
     <path id="m7c0cf669a7" d="M 0 2.5 
C 0.663008 2.5 1.29895 2.236584 1.767767 1.767767 
C 2.236584 1.29895 2.5 0.663008 2.5 0 
C 2.5 -0.663008 2.236584 -1.29895 1.767767 -1.767767 
C 1.29895 -2.236584 0.663008 -2.5 0 -2.5 
C -0.663008 -2.5 -1.29895 -2.236584 -1.767767 -1.767767 
C -2.236584 -1.29895 -2.5 -0.663008 -2.5 0 
C -2.5 0.663008 -2.236584 1.29895 -1.767767 1.767767 
C -1.29895 2.236584 -0.663008 2.5 0 2.5 
z
"/>
    </defs>
    <g clip-path="url(#pe0008e9c11)">
     <use xlink:href="#m7c0cf669a7" x="83.65957" y="334.10544" style="fill: #808080; fill-opacity: 0.75"/>
     <use xlink:href="#m7c0cf669a7" x="109.90957" y="355.245384" style="fill: #808080; fill-opacity: 0.75"/>
     <use xlink:href="#m7c0cf669a7" x="78.40957" y="334.10544" style="fill: #808080; fill-opacity: 0.75"/>
     <use xlink:href="#m7c0cf669a7" x="141.40957" y="334.10544" style="fill: #808080; fill-opacity: 0.75"/>
     <use xlink:href="#m7c0cf669a7" x="146.65957" y="334.10544" style="fill: #808080; fill-opacity: 0.75"/>
     <use xlink:href="#m7c0cf669a7" x="67.90957" y="334.10544" style="fill: #808080; fill-opacity: 0.75"/>
     <use xlink:href="#m7c0cf669a7" x="109.90957" y="48.716207" style="fill: #808080; fill-opacity: 0.75"/>
     <use xlink:href="#m7c0cf669a7" x="104.65957" y="312.965497" style="fill: #808080; fill-opacity: 0.75"/>
     <use xlink:href="#m7c0cf669a7" x="109.90957" y="312.965497" style="fill: #808080; fill-opacity: 0.75"/>
     <use xlink:href="#m7c0cf669a7" x="115.15957" y="323.535469" style="fill: #808080; fill-opacity: 0.75"/>
     <use xlink:href="#m7c0cf669a7" x="109.90957" y="318.250483" style="fill: #808080; fill-opacity: 0.75"/>
     <use xlink:href="#m7c0cf669a7" x="115.15957" y="260.115639" style="fill: #808080; fill-opacity: 0.75"/>
     <use xlink:href="#m7c0cf669a7" x="151.90957" y="334.10544" style="fill: #808080; fill-opacity: 0.75"/>
     <use xlink:href="#m7c0cf669a7" x="63.826914" y="334.10544" style="fill: #808080; fill-opacity: 0.75"/>
     <use xlink:href="#m7c0cf669a7" x="104.65957" y="260.115639" style="fill: #808080; fill-opacity: 0.75"/>
     <use xlink:href="#m7c0cf669a7" x="109.90957" y="344.675412" style="fill: #808080; fill-opacity: 0.75"/>
     <use xlink:href="#m7c0cf669a7" x="109.90957" y="360.530369" style="fill: #808080; fill-opacity: 0.75"/>
     <use xlink:href="#m7c0cf669a7" x="104.65957" y="175.555866" style="fill: #808080; fill-opacity: 0.75"/>
     <use xlink:href="#m7c0cf669a7" x="155.992227" y="334.10544" style="fill: #808080; fill-opacity: 0.75"/>
     <use xlink:href="#m7c0cf669a7" x="109.90957" y="260.115639" style="fill: #808080; fill-opacity: 0.75"/>
     <use xlink:href="#m7c0cf669a7" x="109.90957" y="154.415923" style="fill: #808080; fill-opacity: 0.75"/>
     <use xlink:href="#m7c0cf669a7" x="120.40957" y="260.115639" style="fill: #808080; fill-opacity: 0.75"/>
     <use xlink:href="#m7c0cf669a7" x="109.90957" y="101.566065" style="fill: #808080; fill-opacity: 0.75"/>
     <use xlink:href="#m7c0cf669a7" x="94.15957" y="312.965497" style="fill: #808080; fill-opacity: 0.75"/>
     <use xlink:href="#m7c0cf669a7" x="104.65957" y="101.566065" style="fill: #808080; fill-opacity: 0.75"/>
     <use xlink:href="#m7c0cf669a7" x="73.15957" y="334.10544" style="fill: #808080; fill-opacity: 0.75"/>
     <use xlink:href="#m7c0cf669a7" x="109.90957" y="323.535469" style="fill: #808080; fill-opacity: 0.75"/>
     <use xlink:href="#m7c0cf669a7" x="115.15957" y="344.675412" style="fill: #808080; fill-opacity: 0.75"/>
     <use xlink:href="#m7c0cf669a7" x="104.65957" y="344.675412" style="fill: #808080; fill-opacity: 0.75"/>
     <use xlink:href="#m7c0cf669a7" x="125.65957" y="344.675412" style="fill: #808080; fill-opacity: 0.75"/>
     <use xlink:href="#m7c0cf669a7" x="115.15957" y="101.566065" style="fill: #808080; fill-opacity: 0.75"/>
     <use xlink:href="#m7c0cf669a7" x="88.90957" y="344.675412" style="fill: #808080; fill-opacity: 0.75"/>
     <use xlink:href="#m7c0cf669a7" x="104.65957" y="334.10544" style="fill: #808080; fill-opacity: 0.75"/>
     <use xlink:href="#m7c0cf669a7" x="99.40957" y="260.115639" style="fill: #808080; fill-opacity: 0.75"/>
     <use xlink:href="#m7c0cf669a7" x="94.15957" y="323.535469" style="fill: #808080; fill-opacity: 0.75"/>
     <use xlink:href="#m7c0cf669a7" x="99.40957" y="344.675412" style="fill: #808080; fill-opacity: 0.75"/>
     <use xlink:href="#m7c0cf669a7" x="136.15957" y="334.10544" style="fill: #808080; fill-opacity: 0.75"/>
     <use xlink:href="#m7c0cf669a7" x="120.40957" y="334.10544" style="fill: #808080; fill-opacity: 0.75"/>
     <use xlink:href="#m7c0cf669a7" x="99.40957" y="334.10544" style="fill: #808080; fill-opacity: 0.75"/>
     <use xlink:href="#m7c0cf669a7" x="94.15957" y="334.10544" style="fill: #808080; fill-opacity: 0.75"/>
     <use xlink:href="#m7c0cf669a7" x="120.40957" y="344.675412" style="fill: #808080; fill-opacity: 0.75"/>
     <use xlink:href="#m7c0cf669a7" x="100.995761" y="355.245384" style="fill: #808080; fill-opacity: 0.75"/>
     <use xlink:href="#m7c0cf669a7" x="120.40957" y="312.965497" style="fill: #808080; fill-opacity: 0.75"/>
     <use xlink:href="#m7c0cf669a7" x="120.40957" y="323.535469" style="fill: #808080; fill-opacity: 0.75"/>
     <use xlink:href="#m7c0cf669a7" x="109.90957" y="291.825554" style="fill: #808080; fill-opacity: 0.75"/>
     <use xlink:href="#m7c0cf669a7" x="109.90957" y="175.555866" style="fill: #808080; fill-opacity: 0.75"/>
     <use xlink:href="#m7c0cf669a7" x="99.40957" y="312.965497" style="fill: #808080; fill-opacity: 0.75"/>
     <use xlink:href="#m7c0cf669a7" x="120.40957" y="355.245384" style="fill: #808080; fill-opacity: 0.75"/>
     <use xlink:href="#m7c0cf669a7" x="94.15957" y="344.675412" style="fill: #808080; fill-opacity: 0.75"/>
     <use xlink:href="#m7c0cf669a7" x="109.90957" y="334.10544" style="fill: #808080; fill-opacity: 0.75"/>
     <use xlink:href="#m7c0cf669a7" x="146.65957" y="344.675412" style="fill: #808080; fill-opacity: 0.75"/>
     <use xlink:href="#m7c0cf669a7" x="130.90957" y="344.675412" style="fill: #808080; fill-opacity: 0.75"/>
     <use xlink:href="#m7c0cf669a7" x="99.40957" y="323.535469" style="fill: #808080; fill-opacity: 0.75"/>
     <use xlink:href="#m7c0cf669a7" x="83.65957" y="344.675412" style="fill: #808080; fill-opacity: 0.75"/>
     <use xlink:href="#m7c0cf669a7" x="115.15957" y="312.965497" style="fill: #808080; fill-opacity: 0.75"/>
     <use xlink:href="#m7c0cf669a7" x="88.90957" y="334.10544" style="fill: #808080; fill-opacity: 0.75"/>
     <use xlink:href="#m7c0cf669a7" x="125.65957" y="334.10544" style="fill: #808080; fill-opacity: 0.75"/>
     <use xlink:href="#m7c0cf669a7" x="104.65957" y="323.535469" style="fill: #808080; fill-opacity: 0.75"/>
     <use xlink:href="#m7c0cf669a7" x="104.65957" y="302.395526" style="fill: #808080; fill-opacity: 0.75"/>
     <use xlink:href="#m7c0cf669a7" x="141.40957" y="344.675412" style="fill: #808080; fill-opacity: 0.75"/>
     <use xlink:href="#m7c0cf669a7" x="73.15957" y="344.675412" style="fill: #808080; fill-opacity: 0.75"/>
     <use xlink:href="#m7c0cf669a7" x="130.90957" y="334.10544" style="fill: #808080; fill-opacity: 0.75"/>
     <use xlink:href="#m7c0cf669a7" x="115.15957" y="302.395526" style="fill: #808080; fill-opacity: 0.75"/>
     <use xlink:href="#m7c0cf669a7" x="109.90957" y="207.265781" style="fill: #808080; fill-opacity: 0.75"/>
     <use xlink:href="#m7c0cf669a7" x="115.15957" y="334.10544" style="fill: #808080; fill-opacity: 0.75"/>
     <use xlink:href="#m7c0cf669a7" x="104.65957" y="48.716207" style="fill: #808080; fill-opacity: 0.75"/>
     <use xlink:href="#m7c0cf669a7" x="105.452666" y="357.887876" style="fill: #808080; fill-opacity: 0.75"/>
     <use xlink:href="#m7c0cf669a7" x="109.90957" y="328.820455" style="fill: #808080; fill-opacity: 0.75"/>
     <use xlink:href="#m7c0cf669a7" x="94.15957" y="260.115639" style="fill: #808080; fill-opacity: 0.75"/>
     <use xlink:href="#m7c0cf669a7" x="109.90957" y="302.395526" style="fill: #808080; fill-opacity: 0.75"/>
     <use xlink:href="#m7c0cf669a7" x="78.40957" y="344.675412" style="fill: #808080; fill-opacity: 0.75"/>
     <use xlink:href="#m7c0cf669a7" x="136.15957" y="344.675412" style="fill: #808080; fill-opacity: 0.75"/>
     <use xlink:href="#m7c0cf669a7" x="115.15957" y="355.245384" style="fill: #808080; fill-opacity: 0.75"/>
     <use xlink:href="#m7c0cf669a7" x="99.40957" y="101.566065" style="fill: #808080; fill-opacity: 0.75"/>
    </g>
   </g>
   <g id="PathCollection_2">
    <g clip-path="url(#pe0008e9c11)">
     <use xlink:href="#m7c0cf669a7" x="225.116211" y="365.815355" style="fill: #808080; fill-opacity: 0.75"/>
     <use xlink:href="#m7c0cf669a7" x="219.866211" y="344.675412" style="fill: #808080; fill-opacity: 0.75"/>
     <use xlink:href="#m7c0cf669a7" x="230.366211" y="302.395526" style="fill: #808080; fill-opacity: 0.75"/>
     <use xlink:href="#m7c0cf669a7" x="225.116211" y="360.530369" style="fill: #808080; fill-opacity: 0.75"/>
     <use xlink:href="#m7c0cf669a7" x="225.116211" y="302.395526" style="fill: #808080; fill-opacity: 0.75"/>
     <use xlink:href="#m7c0cf669a7" x="225.116211" y="312.965497" style="fill: #808080; fill-opacity: 0.75"/>
     <use xlink:href="#m7c0cf669a7" x="230.366211" y="355.245384" style="fill: #808080; fill-opacity: 0.75"/>
     <use xlink:href="#m7c0cf669a7" x="225.116211" y="344.675412" style="fill: #808080; fill-opacity: 0.75"/>
     <use xlink:href="#m7c0cf669a7" x="225.116211" y="334.10544" style="fill: #808080; fill-opacity: 0.75"/>
     <use xlink:href="#m7c0cf669a7" x="235.616211" y="334.10544" style="fill: #808080; fill-opacity: 0.75"/>
     <use xlink:href="#m7c0cf669a7" x="225.116211" y="328.820455" style="fill: #808080; fill-opacity: 0.75"/>
     <use xlink:href="#m7c0cf669a7" x="219.866211" y="302.395526" style="fill: #808080; fill-opacity: 0.75"/>
     <use xlink:href="#m7c0cf669a7" x="219.866211" y="355.245384" style="fill: #808080; fill-opacity: 0.75"/>
     <use xlink:href="#m7c0cf669a7" x="230.366211" y="334.10544" style="fill: #808080; fill-opacity: 0.75"/>
     <use xlink:href="#m7c0cf669a7" x="214.616211" y="302.395526" style="fill: #808080; fill-opacity: 0.75"/>
     <use xlink:href="#m7c0cf669a7" x="225.116211" y="355.245384" style="fill: #808080; fill-opacity: 0.75"/>
     <use xlink:href="#m7c0cf669a7" x="214.616211" y="334.10544" style="fill: #808080; fill-opacity: 0.75"/>
     <use xlink:href="#m7c0cf669a7" x="219.866211" y="334.10544" style="fill: #808080; fill-opacity: 0.75"/>
     <use xlink:href="#m7c0cf669a7" x="214.616211" y="355.245384" style="fill: #808080; fill-opacity: 0.75"/>
    </g>
   </g>
  </g>
  <g id="axes_2">
   <g id="patch_7">
    <path d="M 334.786719 381.670312 
L 565.2 381.670312 
L 565.2 32.86125 
L 334.786719 32.86125 
z
" style="fill: #ffffff"/>
   </g>
   <g id="patch_8">
    <path d="M 351.420833 381.670312 
L 357.581616 381.670312 
L 357.581616 324.721894 
L 351.420833 324.721894 
z
" clip-path="url(#pe09f7e7d9c)" style="fill: #2d1e3e; fill-opacity: 0.5; stroke: #000000; stroke-width: 0.646303; stroke-linejoin: miter"/>
   </g>
   <g id="patch_9">
    <path d="M 363.742398 381.670312 
L 369.903181 381.670312 
L 369.903181 305.739088 
L 363.742398 305.739088 
z
" clip-path="url(#pe09f7e7d9c)" style="fill: #2d1e3e; fill-opacity: 0.5; stroke: #000000; stroke-width: 0.646303; stroke-linejoin: miter"/>
   </g>
   <g id="patch_10">
    <path d="M 376.063964 381.670312 
L 382.224747 381.670312 
L 382.224747 372.178909 
L 376.063964 372.178909 
z
" clip-path="url(#pe09f7e7d9c)" style="fill: #2d1e3e; fill-opacity: 0.5; stroke: #000000; stroke-width: 0.646303; stroke-linejoin: miter"/>
   </g>
   <g id="patch_11">
    <path d="M 388.38553 381.670312 
L 394.546313 381.670312 
L 394.546313 343.7047 
L 388.38553 343.7047 
z
" clip-path="url(#pe09f7e7d9c)" style="fill: #2d1e3e; fill-opacity: 0.5; stroke: #000000; stroke-width: 0.646303; stroke-linejoin: miter"/>
   </g>
   <g id="patch_12">
    <path d="M 400.707096 381.670312 
L 406.867879 381.670312 
L 406.867879 381.670312 
L 400.707096 381.670312 
z
" clip-path="url(#pe09f7e7d9c)" style="fill: #2d1e3e; fill-opacity: 0.5; stroke: #000000; stroke-width: 0.646303; stroke-linejoin: miter"/>
   </g>
   <g id="patch_13">
    <path d="M 413.028662 381.670312 
L 419.189445 381.670312 
L 419.189445 381.670312 
L 413.028662 381.670312 
z
" clip-path="url(#pe09f7e7d9c)" style="fill: #2d1e3e; fill-opacity: 0.5; stroke: #000000; stroke-width: 0.646303; stroke-linejoin: miter"/>
   </g>
   <g id="patch_14">
    <path d="M 425.350228 381.670312 
L 431.511011 381.670312 
L 431.511011 381.670312 
L 425.350228 381.670312 
z
" clip-path="url(#pe09f7e7d9c)" style="fill: #2d1e3e; fill-opacity: 0.5; stroke: #000000; stroke-width: 0.646303; stroke-linejoin: miter"/>
   </g>
   <g id="patch_15">
    <path d="M 437.671794 381.670312 
L 443.832576 381.670312 
L 443.832576 381.670312 
L 437.671794 381.670312 
z
" clip-path="url(#pe09f7e7d9c)" style="fill: #2d1e3e; fill-opacity: 0.5; stroke: #000000; stroke-width: 0.646303; stroke-linejoin: miter"/>
   </g>
   <g id="patch_16">
    <path d="M 449.993359 381.670312 
L 456.154142 381.670312 
L 456.154142 381.670312 
L 449.993359 381.670312 
z
" clip-path="url(#pe09f7e7d9c)" style="fill: #2d1e3e; fill-opacity: 0.5; stroke: #000000; stroke-width: 0.646303; stroke-linejoin: miter"/>
   </g>
   <g id="patch_17">
    <path d="M 462.314925 381.670312 
L 468.475708 381.670312 
L 468.475708 381.670312 
L 462.314925 381.670312 
z
" clip-path="url(#pe09f7e7d9c)" style="fill: #2d1e3e; fill-opacity: 0.5; stroke: #000000; stroke-width: 0.646303; stroke-linejoin: miter"/>
   </g>
   <g id="patch_18">
    <path d="M 474.636491 381.670312 
L 480.797274 381.670312 
L 480.797274 381.670312 
L 474.636491 381.670312 
z
" clip-path="url(#pe09f7e7d9c)" style="fill: #2d1e3e; fill-opacity: 0.5; stroke: #000000; stroke-width: 0.646303; stroke-linejoin: miter"/>
   </g>
   <g id="patch_19">
    <path d="M 486.958057 381.670312 
L 493.11884 381.670312 
L 493.11884 381.670312 
L 486.958057 381.670312 
z
" clip-path="url(#pe09f7e7d9c)" style="fill: #2d1e3e; fill-opacity: 0.5; stroke: #000000; stroke-width: 0.646303; stroke-linejoin: miter"/>
   </g>
   <g id="patch_20">
    <path d="M 499.279623 381.670312 
L 505.440406 381.670312 
L 505.440406 381.670312 
L 499.279623 381.670312 
z
" clip-path="url(#pe09f7e7d9c)" style="fill: #2d1e3e; fill-opacity: 0.5; stroke: #000000; stroke-width: 0.646303; stroke-linejoin: miter"/>
   </g>
   <g id="patch_21">
    <path d="M 511.601189 381.670312 
L 517.761972 381.670312 
L 517.761972 381.670312 
L 511.601189 381.670312 
z
" clip-path="url(#pe09f7e7d9c)" style="fill: #2d1e3e; fill-opacity: 0.5; stroke: #000000; stroke-width: 0.646303; stroke-linejoin: miter"/>
   </g>
   <g id="patch_22">
    <path d="M 523.922754 381.670312 
L 530.083537 381.670312 
L 530.083537 381.670312 
L 523.922754 381.670312 
z
" clip-path="url(#pe09f7e7d9c)" style="fill: #2d1e3e; fill-opacity: 0.5; stroke: #000000; stroke-width: 0.646303; stroke-linejoin: miter"/>
   </g>
   <g id="patch_23">
    <path d="M 536.24432 381.670312 
L 542.405103 381.670312 
L 542.405103 381.670312 
L 536.24432 381.670312 
z
" clip-path="url(#pe09f7e7d9c)" style="fill: #2d1e3e; fill-opacity: 0.5; stroke: #000000; stroke-width: 0.646303; stroke-linejoin: miter"/>
   </g>
   <g id="patch_24">
    <path d="M 548.565886 381.670312 
L 554.726669 381.670312 
L 554.726669 381.670312 
L 548.565886 381.670312 
z
" clip-path="url(#pe09f7e7d9c)" style="fill: #2d1e3e; fill-opacity: 0.5; stroke: #000000; stroke-width: 0.646303; stroke-linejoin: miter"/>
   </g>
   <g id="patch_25">
    <path d="M 345.26005 381.670312 
L 351.420833 381.670312 
L 351.420833 324.721894 
L 345.26005 324.721894 
z
" clip-path="url(#pe09f7e7d9c)" style="fill: #edd1cb; fill-opacity: 0.5; stroke: #000000; stroke-width: 0.646303; stroke-linejoin: miter"/>
   </g>
   <g id="patch_26">
    <path d="M 357.581616 381.670312 
L 363.742398 381.670312 
L 363.742398 49.471205 
L 357.581616 49.471205 
z
" clip-path="url(#pe09f7e7d9c)" style="fill: #edd1cb; fill-opacity: 0.5; stroke: #000000; stroke-width: 0.646303; stroke-linejoin: miter"/>
   </g>
   <g id="patch_27">
    <path d="M 369.903181 381.670312 
L 376.063964 381.670312 
L 376.063964 258.282073 
L 369.903181 258.282073 
z
" clip-path="url(#pe09f7e7d9c)" style="fill: #edd1cb; fill-opacity: 0.5; stroke: #000000; stroke-width: 0.646303; stroke-linejoin: miter"/>
   </g>
   <g id="patch_28">
    <path d="M 382.224747 381.670312 
L 388.38553 381.670312 
L 388.38553 343.7047 
L 382.224747 343.7047 
z
" clip-path="url(#pe09f7e7d9c)" style="fill: #edd1cb; fill-opacity: 0.5; stroke: #000000; stroke-width: 0.646303; stroke-linejoin: miter"/>
   </g>
   <g id="patch_29">
    <path d="M 394.546313 381.670312 
L 400.707096 381.670312 
L 400.707096 381.670312 
L 394.546313 381.670312 
z
" clip-path="url(#pe09f7e7d9c)" style="fill: #edd1cb; fill-opacity: 0.5; stroke: #000000; stroke-width: 0.646303; stroke-linejoin: miter"/>
   </g>
   <g id="patch_30">
    <path d="M 406.867879 381.670312 
L 413.028662 381.670312 
L 413.028662 324.721894 
L 406.867879 324.721894 
z
" clip-path="url(#pe09f7e7d9c)" style="fill: #edd1cb; fill-opacity: 0.5; stroke: #000000; stroke-width: 0.646303; stroke-linejoin: miter"/>
   </g>
   <g id="patch_31">
    <path d="M 419.189445 381.670312 
L 425.350228 381.670312 
L 425.350228 381.670312 
L 419.189445 381.670312 
z
" clip-path="url(#pe09f7e7d9c)" style="fill: #edd1cb; fill-opacity: 0.5; stroke: #000000; stroke-width: 0.646303; stroke-linejoin: miter"/>
   </g>
   <g id="patch_32">
    <path d="M 431.511011 381.670312 
L 437.671794 381.670312 
L 437.671794 381.670312 
L 431.511011 381.670312 
z
" clip-path="url(#pe09f7e7d9c)" style="fill: #edd1cb; fill-opacity: 0.5; stroke: #000000; stroke-width: 0.646303; stroke-linejoin: miter"/>
   </g>
   <g id="patch_33">
    <path d="M 443.832576 381.670312 
L 449.993359 381.670312 
L 449.993359 372.178909 
L 443.832576 372.178909 
z
" clip-path="url(#pe09f7e7d9c)" style="fill: #edd1cb; fill-opacity: 0.5; stroke: #000000; stroke-width: 0.646303; stroke-linejoin: miter"/>
   </g>
   <g id="patch_34">
    <path d="M 456.154142 381.670312 
L 462.314925 381.670312 
L 462.314925 381.670312 
L 456.154142 381.670312 
z
" clip-path="url(#pe09f7e7d9c)" style="fill: #edd1cb; fill-opacity: 0.5; stroke: #000000; stroke-width: 0.646303; stroke-linejoin: miter"/>
   </g>
   <g id="patch_35">
    <path d="M 468.475708 381.670312 
L 474.636491 381.670312 
L 474.636491 362.687506 
L 468.475708 362.687506 
z
" clip-path="url(#pe09f7e7d9c)" style="fill: #edd1cb; fill-opacity: 0.5; stroke: #000000; stroke-width: 0.646303; stroke-linejoin: miter"/>
   </g>
   <g id="patch_36">
    <path d="M 480.797274 381.670312 
L 486.958057 381.670312 
L 486.958057 372.178909 
L 480.797274 372.178909 
z
" clip-path="url(#pe09f7e7d9c)" style="fill: #edd1cb; fill-opacity: 0.5; stroke: #000000; stroke-width: 0.646303; stroke-linejoin: miter"/>
   </g>
   <g id="patch_37">
    <path d="M 493.11884 381.670312 
L 499.279623 381.670312 
L 499.279623 381.670312 
L 493.11884 381.670312 
z
" clip-path="url(#pe09f7e7d9c)" style="fill: #edd1cb; fill-opacity: 0.5; stroke: #000000; stroke-width: 0.646303; stroke-linejoin: miter"/>
   </g>
   <g id="patch_38">
    <path d="M 505.440406 381.670312 
L 511.601189 381.670312 
L 511.601189 381.670312 
L 505.440406 381.670312 
z
" clip-path="url(#pe09f7e7d9c)" style="fill: #edd1cb; fill-opacity: 0.5; stroke: #000000; stroke-width: 0.646303; stroke-linejoin: miter"/>
   </g>
   <g id="patch_39">
    <path d="M 517.761972 381.670312 
L 523.922754 381.670312 
L 523.922754 343.7047 
L 517.761972 343.7047 
z
" clip-path="url(#pe09f7e7d9c)" style="fill: #edd1cb; fill-opacity: 0.5; stroke: #000000; stroke-width: 0.646303; stroke-linejoin: miter"/>
   </g>
   <g id="patch_40">
    <path d="M 530.083537 381.670312 
L 536.24432 381.670312 
L 536.24432 381.670312 
L 530.083537 381.670312 
z
" clip-path="url(#pe09f7e7d9c)" style="fill: #edd1cb; fill-opacity: 0.5; stroke: #000000; stroke-width: 0.646303; stroke-linejoin: miter"/>
   </g>
   <g id="patch_41">
    <path d="M 542.405103 381.670312 
L 548.565886 381.670312 
L 548.565886 362.687506 
L 542.405103 362.687506 
z
" clip-path="url(#pe09f7e7d9c)" style="fill: #edd1cb; fill-opacity: 0.5; stroke: #000000; stroke-width: 0.646303; stroke-linejoin: miter"/>
   </g>
   <g id="matplotlib.axis_3">
    <g id="xtick_3">
     <g id="line2d_22">
      <g>
       <use xlink:href="#m4c99cd72f3" x="345.26005" y="391.670312" style="stroke: #000000; stroke-width: 0.8"/>
      </g>
     </g>
     <g id="text_12">
      <!-- 0 -->
      <g transform="translate(342.479581 405.828125) scale(0.1 -0.1)">
       <use xlink:href="#ArialMT-30"/>
      </g>
     </g>
    </g>
    <g id="xtick_4">
     <g id="line2d_23">
      <g>
       <use xlink:href="#m4c99cd72f3" x="380.171153" y="391.670312" style="stroke: #000000; stroke-width: 0.8"/>
      </g>
     </g>
     <g id="text_13">
      <!-- 5 -->
      <g transform="translate(377.390684 405.828125) scale(0.1 -0.1)">
       <use xlink:href="#ArialMT-35"/>
      </g>
     </g>
    </g>
    <g id="xtick_5">
     <g id="line2d_24">
      <g>
       <use xlink:href="#m4c99cd72f3" x="415.082256" y="391.670312" style="stroke: #000000; stroke-width: 0.8"/>
      </g>
     </g>
     <g id="text_14">
      <!-- 10 -->
      <g transform="translate(409.521319 405.828125) scale(0.1 -0.1)">
       <use xlink:href="#ArialMT-31"/>
       <use xlink:href="#ArialMT-30" x="55.615234"/>
      </g>
     </g>
    </g>
    <g id="xtick_6">
     <g id="line2d_25">
      <g>
       <use xlink:href="#m4c99cd72f3" x="449.993359" y="391.670312" style="stroke: #000000; stroke-width: 0.8"/>
      </g>
     </g>
     <g id="text_15">
      <!-- 15 -->
      <g transform="translate(444.432422 405.828125) scale(0.1 -0.1)">
       <use xlink:href="#ArialMT-31"/>
       <use xlink:href="#ArialMT-35" x="55.615234"/>
      </g>
     </g>
    </g>
    <g id="xtick_7">
     <g id="line2d_26">
      <g>
       <use xlink:href="#m4c99cd72f3" x="484.904463" y="391.670312" style="stroke: #000000; stroke-width: 0.8"/>
      </g>
     </g>
     <g id="text_16">
      <!-- 20 -->
      <g transform="translate(479.343525 405.828125) scale(0.1 -0.1)">
       <use xlink:href="#ArialMT-32"/>
       <use xlink:href="#ArialMT-30" x="55.615234"/>
      </g>
     </g>
    </g>
    <g id="xtick_8">
     <g id="line2d_27">
      <g>
       <use xlink:href="#m4c99cd72f3" x="519.815566" y="391.670312" style="stroke: #000000; stroke-width: 0.8"/>
      </g>
     </g>
     <g id="text_17">
      <!-- 25 -->
      <g transform="translate(514.254628 405.828125) scale(0.1 -0.1)">
       <use xlink:href="#ArialMT-32"/>
       <use xlink:href="#ArialMT-35" x="55.615234"/>
      </g>
     </g>
    </g>
    <g id="xtick_9">
     <g id="line2d_28">
      <g>
       <use xlink:href="#m4c99cd72f3" x="554.726669" y="391.670312" style="stroke: #000000; stroke-width: 0.8"/>
      </g>
     </g>
     <g id="text_18">
      <!-- 30 -->
      <g transform="translate(549.165732 405.828125) scale(0.1 -0.1)">
       <use xlink:href="#ArialMT-33"/>
       <use xlink:href="#ArialMT-30" x="55.615234"/>
      </g>
     </g>
    </g>
    <g id="text_19">
     <!-- Contract duration in years -->
     <g transform="translate(392.746484 419.095312) scale(0.1 -0.1)">
      <use xlink:href="#ArialMT-43"/>
      <use xlink:href="#ArialMT-6f" x="72.216797"/>
      <use xlink:href="#ArialMT-6e" x="127.832031"/>
      <use xlink:href="#ArialMT-74" x="183.447266"/>
      <use xlink:href="#ArialMT-72" x="211.230469"/>
      <use xlink:href="#ArialMT-61" x="244.53125"/>
      <use xlink:href="#ArialMT-63" x="300.146484"/>
      <use xlink:href="#ArialMT-74" x="350.146484"/>
      <use xlink:href="#ArialMT-20" x="377.929688"/>
      <use xlink:href="#ArialMT-64" x="405.712891"/>
      <use xlink:href="#ArialMT-75" x="461.328125"/>
      <use xlink:href="#ArialMT-72" x="516.943359"/>
      <use xlink:href="#ArialMT-61" x="550.244141"/>
      <use xlink:href="#ArialMT-74" x="605.859375"/>
      <use xlink:href="#ArialMT-69" x="633.642578"/>
      <use xlink:href="#ArialMT-6f" x="655.859375"/>
      <use xlink:href="#ArialMT-6e" x="711.474609"/>
      <use xlink:href="#ArialMT-20" x="767.089844"/>
      <use xlink:href="#ArialMT-69" x="794.873047"/>
      <use xlink:href="#ArialMT-6e" x="817.089844"/>
      <use xlink:href="#ArialMT-20" x="872.705078"/>
      <use xlink:href="#ArialMT-79" x="900.488281"/>
      <use xlink:href="#ArialMT-65" x="950.488281"/>
      <use xlink:href="#ArialMT-61" x="1006.103516"/>
      <use xlink:href="#ArialMT-72" x="1061.71875"/>
      <use xlink:href="#ArialMT-73" x="1095.019531"/>
     </g>
    </g>
   </g>
   <g id="matplotlib.axis_4">
    <g id="ytick_8">
     <g id="line2d_29">
      <g>
       <use xlink:href="#m8e343aef83" x="324.786719" y="381.670312" style="stroke: #000000; stroke-width: 0.8"/>
      </g>
     </g>
     <g id="text_20">
      <!-- 0 -->
      <g transform="translate(312.225781 385.249219) scale(0.1 -0.1)">
       <use xlink:href="#ArialMT-30"/>
      </g>
     </g>
    </g>
    <g id="ytick_9">
     <g id="line2d_30">
      <g>
       <use xlink:href="#m8e343aef83" x="324.786719" y="334.213297" style="stroke: #000000; stroke-width: 0.8"/>
      </g>
     </g>
     <g id="text_21">
      <!-- 5 -->
      <g transform="translate(312.225781 337.792203) scale(0.1 -0.1)">
       <use xlink:href="#ArialMT-35"/>
      </g>
     </g>
    </g>
    <g id="ytick_10">
     <g id="line2d_31">
      <g>
       <use xlink:href="#m8e343aef83" x="324.786719" y="286.756282" style="stroke: #000000; stroke-width: 0.8"/>
      </g>
     </g>
     <g id="text_22">
      <!-- 10 -->
      <g transform="translate(306.664844 290.335188) scale(0.1 -0.1)">
       <use xlink:href="#ArialMT-31"/>
       <use xlink:href="#ArialMT-30" x="55.615234"/>
      </g>
     </g>
    </g>
    <g id="ytick_11">
     <g id="line2d_32">
      <g>
       <use xlink:href="#m8e343aef83" x="324.786719" y="239.299267" style="stroke: #000000; stroke-width: 0.8"/>
      </g>
     </g>
     <g id="text_23">
      <!-- 15 -->
      <g transform="translate(306.664844 242.878173) scale(0.1 -0.1)">
       <use xlink:href="#ArialMT-31"/>
       <use xlink:href="#ArialMT-35" x="55.615234"/>
      </g>
     </g>
    </g>
    <g id="ytick_12">
     <g id="line2d_33">
      <g>
       <use xlink:href="#m8e343aef83" x="324.786719" y="191.842251" style="stroke: #000000; stroke-width: 0.8"/>
      </g>
     </g>
     <g id="text_24">
      <!-- 20 -->
      <g transform="translate(306.664844 195.421158) scale(0.1 -0.1)">
       <use xlink:href="#ArialMT-32"/>
       <use xlink:href="#ArialMT-30" x="55.615234"/>
      </g>
     </g>
    </g>
    <g id="ytick_13">
     <g id="line2d_34">
      <g>
       <use xlink:href="#m8e343aef83" x="324.786719" y="144.385236" style="stroke: #000000; stroke-width: 0.8"/>
      </g>
     </g>
     <g id="text_25">
      <!-- 25 -->
      <g transform="translate(306.664844 147.964142) scale(0.1 -0.1)">
       <use xlink:href="#ArialMT-32"/>
       <use xlink:href="#ArialMT-35" x="55.615234"/>
      </g>
     </g>
    </g>
    <g id="ytick_14">
     <g id="line2d_35">
      <g>
       <use xlink:href="#m8e343aef83" x="324.786719" y="96.928221" style="stroke: #000000; stroke-width: 0.8"/>
      </g>
     </g>
     <g id="text_26">
      <!-- 30 -->
      <g transform="translate(306.664844 100.507127) scale(0.1 -0.1)">
       <use xlink:href="#ArialMT-33"/>
       <use xlink:href="#ArialMT-30" x="55.615234"/>
      </g>
     </g>
    </g>
    <g id="ytick_15">
     <g id="line2d_36">
      <g>
       <use xlink:href="#m8e343aef83" x="324.786719" y="49.471205" style="stroke: #000000; stroke-width: 0.8"/>
      </g>
     </g>
     <g id="text_27">
      <!-- 35 -->
      <g transform="translate(306.664844 53.050112) scale(0.1 -0.1)">
       <use xlink:href="#ArialMT-33"/>
       <use xlink:href="#ArialMT-35" x="55.615234"/>
      </g>
     </g>
    </g>
    <g id="text_28">
     <!-- Count -->
     <g transform="translate(300.677344 220.607188) rotate(-90) scale(0.1 -0.1)">
      <use xlink:href="#ArialMT-43"/>
      <use xlink:href="#ArialMT-6f" x="72.216797"/>
      <use xlink:href="#ArialMT-75" x="127.832031"/>
      <use xlink:href="#ArialMT-6e" x="183.447266"/>
      <use xlink:href="#ArialMT-74" x="239.0625"/>
     </g>
    </g>
   </g>
   <g id="line2d_37">
    <path d="M 345.26005 350.993278 
L 347.365242 344.886772 
L 349.470434 339.453908 
L 350.52303 337.099268 
L 351.575626 335.017071 
L 352.628222 333.212941 
L 353.680818 331.680282 
L 354.733414 330.403734 
L 355.78601 329.36364 
L 356.838607 328.540894 
L 357.891203 327.921408 
L 358.943799 327.499476 
L 359.996395 327.279446 
L 361.048991 327.275322 
L 362.101587 327.50828 
L 363.154183 328.002355 
L 364.206779 328.778909 
L 365.259375 329.850698 
L 366.311971 331.216426 
L 367.364567 332.8567 
L 369.469759 336.783508 
L 372.627548 343.193128 
L 373.680144 345.12257 
L 374.73274 346.817184 
L 375.785336 348.223063 
L 376.837932 349.311113 
L 377.890528 350.080034 
L 378.943124 350.55662 
L 379.99572 350.793365 
L 382.100912 350.854898 
L 384.206105 350.972802 
L 385.258701 351.272188 
L 386.311297 351.823411 
L 387.363893 352.669127 
L 388.416489 353.827497 
L 389.469085 355.291861 
L 390.521681 357.032666 
L 392.626873 361.135526 
L 396.837257 369.932849 
L 398.94245 373.655018 
L 399.995046 375.216714 
L 401.047642 376.564113 
L 402.100238 377.700486 
L 403.152834 378.637866 
L 404.20543 379.394497 
L 405.258026 379.992352 
L 407.363218 380.805543 
L 409.46841 381.255333 
L 412.626199 381.549696 
L 417.889179 381.659572 
L 446.309273 381.670312 
L 554.726669 381.670312 
L 554.726669 381.670312 
" clip-path="url(#pe09f7e7d9c)" style="fill: none; stroke: #2d1e3e; stroke-width: 1.5; stroke-linecap: square"/>
   </g>
   <g id="line2d_38">
    <path d="M 345.26005 304.976068 
L 349.470434 292.903749 
L 352.628222 284.71924 
L 354.733414 279.882702 
L 356.838607 275.659028 
L 358.943799 272.135361 
L 359.996395 270.659138 
L 361.048991 269.383467 
L 362.101587 268.314463 
L 363.154183 267.456973 
L 364.206779 266.814533 
L 365.259375 266.389333 
L 366.311971 266.182203 
L 367.364567 266.192608 
L 368.417163 266.418662 
L 369.469759 266.857151 
L 370.522356 267.503574 
L 371.574952 268.352194 
L 372.627548 269.396107 
L 373.680144 270.627314 
L 375.785336 273.614683 
L 377.890528 277.23198 
L 379.99572 281.385799 
L 382.100912 285.975362 
L 385.258701 293.448489 
L 397.889854 324.356314 
L 401.047642 331.130727 
L 404.20543 337.255683 
L 407.363218 342.701104 
L 409.46841 345.959688 
L 411.573603 348.934792 
L 413.678795 351.643401 
L 415.783987 354.105108 
L 418.941775 357.379895 
L 422.099563 360.21333 
L 425.257352 362.665328 
L 428.41514 364.78435 
L 431.572928 366.606839 
L 434.730716 368.158989 
L 437.888504 369.459957 
L 441.046293 370.525581 
L 444.204081 371.371793 
L 447.361869 372.017159 
L 451.572253 372.604745 
L 455.782638 372.939815 
L 461.045618 373.112165 
L 469.466387 373.11921 
L 488.413116 372.910157 
L 495.781289 372.554426 
L 504.202057 371.873239 
L 513.675422 371.113778 
L 518.938402 370.910859 
L 524.201383 370.95987 
L 529.464363 371.27506 
L 534.727344 371.822014 
L 541.04292 372.697758 
L 550.516285 374.254605 
L 554.726669 374.993407 
L 554.726669 374.993407 
" clip-path="url(#pe09f7e7d9c)" style="fill: none; stroke: #edd1cb; stroke-width: 1.5; stroke-linecap: square"/>
   </g>
   <g id="patch_42">
    <path d="M 324.786719 381.670312 
L 324.786719 49.471205 
" style="fill: none; stroke: #000000; stroke-width: 0.8; stroke-linejoin: miter; stroke-linecap: square"/>
   </g>
   <g id="patch_43">
    <path d="M 345.26005 391.670312 
L 554.726669 391.670312 
" style="fill: none; stroke: #000000; stroke-width: 0.8; stroke-linejoin: miter; stroke-linecap: square"/>
   </g>
   <g id="legend_1">
    <g id="patch_44">
     <path d="M 503.95625 83.297188 
L 558.2 83.297188 
Q 560.2 83.297188 560.2 81.297188 
L 560.2 39.86125 
Q 560.2 37.86125 558.2 37.86125 
L 503.95625 37.86125 
Q 501.95625 37.86125 501.95625 39.86125 
L 501.95625 81.297188 
Q 501.95625 83.297188 503.95625 83.297188 
z
" style="fill: #ffffff; opacity: 0.8; stroke: #cccccc; stroke-linejoin: miter"/>
    </g>
    <g id="text_29">
     <!-- Year -->
     <g transform="translate(520.973437 49.019063) scale(0.1 -0.1)">
      <use xlink:href="#ArialMT-59"/>
      <use xlink:href="#ArialMT-65" x="57.574219"/>
      <use xlink:href="#ArialMT-61" x="113.189453"/>
      <use xlink:href="#ArialMT-72" x="168.804688"/>
     </g>
    </g>
    <g id="patch_45">
     <path d="M 505.95625 63.164375 
L 525.95625 63.164375 
L 525.95625 56.164375 
L 505.95625 56.164375 
z
" style="fill: #edd1cb; fill-opacity: 0.5; stroke: #000000; stroke-linejoin: miter"/>
    </g>
    <g id="text_30">
     <!-- 2018 -->
     <g transform="translate(533.95625 63.164375) scale(0.1 -0.1)">
      <use xlink:href="#ArialMT-32"/>
      <use xlink:href="#ArialMT-30" x="55.615234"/>
      <use xlink:href="#ArialMT-31" x="111.230469"/>
      <use xlink:href="#ArialMT-38" x="166.845703"/>
     </g>
    </g>
    <g id="patch_46">
     <path d="M 505.95625 77.309688 
L 525.95625 77.309688 
L 525.95625 70.309688 
L 505.95625 70.309688 
z
" style="fill: #2d1e3e; fill-opacity: 0.5; stroke: #000000; stroke-linejoin: miter"/>
    </g>
    <g id="text_31">
     <!-- 2022 -->
     <g transform="translate(533.95625 77.309688) scale(0.1 -0.1)">
      <use xlink:href="#ArialMT-32"/>
      <use xlink:href="#ArialMT-30" x="55.615234"/>
      <use xlink:href="#ArialMT-32" x="111.230469"/>
      <use xlink:href="#ArialMT-32" x="166.845703"/>
     </g>
    </g>
   </g>
  </g>
  <g id="text_32">
   <!-- Duration of contract in years for Australia (without 95 percentile) -->
   <g transform="translate(118.929375 17.375625) scale(0.12 -0.12)">
    <defs>
     <path id="ArialMT-44" d="M 494 0 
L 494 4581 
L 2072 4581 
Q 2606 4581 2888 4516 
Q 3281 4425 3559 4188 
Q 3922 3881 4101 3404 
Q 4281 2928 4281 2316 
Q 4281 1794 4159 1391 
Q 4038 988 3847 723 
Q 3656 459 3429 307 
Q 3203 156 2883 78 
Q 2563 0 2147 0 
L 494 0 
z
M 1100 541 
L 2078 541 
Q 2531 541 2789 625 
Q 3047 709 3200 863 
Q 3416 1078 3536 1442 
Q 3656 1806 3656 2325 
Q 3656 3044 3420 3430 
Q 3184 3816 2847 3947 
Q 2603 4041 2063 4041 
L 1100 4041 
L 1100 541 
z
" transform="scale(0.015625)"/>
     <path id="ArialMT-66" d="M 556 0 
L 556 2881 
L 59 2881 
L 59 3319 
L 556 3319 
L 556 3672 
Q 556 4006 616 4169 
Q 697 4388 901 4523 
Q 1106 4659 1475 4659 
Q 1713 4659 2000 4603 
L 1916 4113 
Q 1741 4144 1584 4144 
Q 1328 4144 1222 4034 
Q 1116 3925 1116 3625 
L 1116 3319 
L 1763 3319 
L 1763 2881 
L 1116 2881 
L 1116 0 
L 556 0 
z
" transform="scale(0.015625)"/>
     <path id="ArialMT-41" d="M -9 0 
L 1750 4581 
L 2403 4581 
L 4278 0 
L 3588 0 
L 3053 1388 
L 1138 1388 
L 634 0 
L -9 0 
z
M 1313 1881 
L 2866 1881 
L 2388 3150 
Q 2169 3728 2063 4100 
Q 1975 3659 1816 3225 
L 1313 1881 
z
" transform="scale(0.015625)"/>
     <path id="ArialMT-6c" d="M 409 0 
L 409 4581 
L 972 4581 
L 972 0 
L 409 0 
z
" transform="scale(0.015625)"/>
     <path id="ArialMT-28" d="M 1497 -1347 
Q 1031 -759 709 28 
Q 388 816 388 1659 
Q 388 2403 628 3084 
Q 909 3875 1497 4659 
L 1900 4659 
Q 1522 4009 1400 3731 
Q 1209 3300 1100 2831 
Q 966 2247 966 1656 
Q 966 153 1900 -1347 
L 1497 -1347 
z
" transform="scale(0.015625)"/>
     <path id="ArialMT-77" d="M 1034 0 
L 19 3319 
L 600 3319 
L 1128 1403 
L 1325 691 
Q 1338 744 1497 1375 
L 2025 3319 
L 2603 3319 
L 3100 1394 
L 3266 759 
L 3456 1400 
L 4025 3319 
L 4572 3319 
L 3534 0 
L 2950 0 
L 2422 1988 
L 2294 2553 
L 1622 0 
L 1034 0 
z
" transform="scale(0.015625)"/>
     <path id="ArialMT-68" d="M 422 0 
L 422 4581 
L 984 4581 
L 984 2938 
Q 1378 3394 1978 3394 
Q 2347 3394 2619 3248 
Q 2891 3103 3008 2847 
Q 3125 2591 3125 2103 
L 3125 0 
L 2563 0 
L 2563 2103 
Q 2563 2525 2380 2717 
Q 2197 2909 1863 2909 
Q 1613 2909 1392 2779 
Q 1172 2650 1078 2428 
Q 984 2206 984 1816 
L 984 0 
L 422 0 
z
" transform="scale(0.015625)"/>
     <path id="ArialMT-39" d="M 350 1059 
L 891 1109 
Q 959 728 1153 556 
Q 1347 384 1650 384 
Q 1909 384 2104 503 
Q 2300 622 2425 820 
Q 2550 1019 2634 1356 
Q 2719 1694 2719 2044 
Q 2719 2081 2716 2156 
Q 2547 1888 2255 1720 
Q 1963 1553 1622 1553 
Q 1053 1553 659 1965 
Q 266 2378 266 3053 
Q 266 3750 677 4175 
Q 1088 4600 1706 4600 
Q 2153 4600 2523 4359 
Q 2894 4119 3086 3673 
Q 3278 3228 3278 2384 
Q 3278 1506 3087 986 
Q 2897 466 2520 194 
Q 2144 -78 1638 -78 
Q 1100 -78 759 220 
Q 419 519 350 1059 
z
M 2653 3081 
Q 2653 3566 2395 3850 
Q 2138 4134 1775 4134 
Q 1400 4134 1122 3828 
Q 844 3522 844 3034 
Q 844 2597 1108 2323 
Q 1372 2050 1759 2050 
Q 2150 2050 2401 2323 
Q 2653 2597 2653 3081 
z
" transform="scale(0.015625)"/>
     <path id="ArialMT-70" d="M 422 -1272 
L 422 3319 
L 934 3319 
L 934 2888 
Q 1116 3141 1344 3267 
Q 1572 3394 1897 3394 
Q 2322 3394 2647 3175 
Q 2972 2956 3137 2557 
Q 3303 2159 3303 1684 
Q 3303 1175 3120 767 
Q 2938 359 2589 142 
Q 2241 -75 1856 -75 
Q 1575 -75 1351 44 
Q 1128 163 984 344 
L 984 -1272 
L 422 -1272 
z
M 931 1641 
Q 931 1000 1190 694 
Q 1450 388 1819 388 
Q 2194 388 2461 705 
Q 2728 1022 2728 1688 
Q 2728 2322 2467 2637 
Q 2206 2953 1844 2953 
Q 1484 2953 1207 2617 
Q 931 2281 931 1641 
z
" transform="scale(0.015625)"/>
     <path id="ArialMT-29" d="M 791 -1347 
L 388 -1347 
Q 1322 153 1322 1656 
Q 1322 2244 1188 2822 
Q 1081 3291 891 3722 
Q 769 4003 388 4659 
L 791 4659 
Q 1378 3875 1659 3084 
Q 1900 2403 1900 1659 
Q 1900 816 1576 28 
Q 1253 -759 791 -1347 
z
" transform="scale(0.015625)"/>
    </defs>
    <use xlink:href="#ArialMT-44"/>
    <use xlink:href="#ArialMT-75" x="72.216797"/>
    <use xlink:href="#ArialMT-72" x="127.832031"/>
    <use xlink:href="#ArialMT-61" x="161.132812"/>
    <use xlink:href="#ArialMT-74" x="216.748047"/>
    <use xlink:href="#ArialMT-69" x="244.53125"/>
    <use xlink:href="#ArialMT-6f" x="266.748047"/>
    <use xlink:href="#ArialMT-6e" x="322.363281"/>
    <use xlink:href="#ArialMT-20" x="377.978516"/>
    <use xlink:href="#ArialMT-6f" x="405.761719"/>
    <use xlink:href="#ArialMT-66" x="461.376953"/>
    <use xlink:href="#ArialMT-20" x="489.160156"/>
    <use xlink:href="#ArialMT-63" x="516.943359"/>
    <use xlink:href="#ArialMT-6f" x="566.943359"/>
    <use xlink:href="#ArialMT-6e" x="622.558594"/>
    <use xlink:href="#ArialMT-74" x="678.173828"/>
    <use xlink:href="#ArialMT-72" x="705.957031"/>
    <use xlink:href="#ArialMT-61" x="739.257812"/>
    <use xlink:href="#ArialMT-63" x="794.873047"/>
    <use xlink:href="#ArialMT-74" x="844.873047"/>
    <use xlink:href="#ArialMT-20" x="872.65625"/>
    <use xlink:href="#ArialMT-69" x="900.439453"/>
    <use xlink:href="#ArialMT-6e" x="922.65625"/>
    <use xlink:href="#ArialMT-20" x="978.271484"/>
    <use xlink:href="#ArialMT-79" x="1006.054688"/>
    <use xlink:href="#ArialMT-65" x="1056.054688"/>
    <use xlink:href="#ArialMT-61" x="1111.669922"/>
    <use xlink:href="#ArialMT-72" x="1167.285156"/>
    <use xlink:href="#ArialMT-73" x="1200.585938"/>
    <use xlink:href="#ArialMT-20" x="1250.585938"/>
    <use xlink:href="#ArialMT-66" x="1278.369141"/>
    <use xlink:href="#ArialMT-6f" x="1306.152344"/>
    <use xlink:href="#ArialMT-72" x="1361.767578"/>
    <use xlink:href="#ArialMT-20" x="1395.068359"/>
    <use xlink:href="#ArialMT-41" x="1417.351562"/>
    <use xlink:href="#ArialMT-75" x="1484.050781"/>
    <use xlink:href="#ArialMT-73" x="1539.666016"/>
    <use xlink:href="#ArialMT-74" x="1589.666016"/>
    <use xlink:href="#ArialMT-72" x="1617.449219"/>
    <use xlink:href="#ArialMT-61" x="1650.75"/>
    <use xlink:href="#ArialMT-6c" x="1706.365234"/>
    <use xlink:href="#ArialMT-69" x="1728.582031"/>
    <use xlink:href="#ArialMT-61" x="1750.798828"/>
    <use xlink:href="#ArialMT-20" x="1806.414062"/>
    <use xlink:href="#ArialMT-28" x="1834.197266"/>
    <use xlink:href="#ArialMT-77" x="1867.498047"/>
    <use xlink:href="#ArialMT-69" x="1939.714844"/>
    <use xlink:href="#ArialMT-74" x="1961.931641"/>
    <use xlink:href="#ArialMT-68" x="1989.714844"/>
    <use xlink:href="#ArialMT-6f" x="2045.330078"/>
    <use xlink:href="#ArialMT-75" x="2100.945312"/>
    <use xlink:href="#ArialMT-74" x="2156.560547"/>
    <use xlink:href="#ArialMT-20" x="2184.34375"/>
    <use xlink:href="#ArialMT-39" x="2212.126953"/>
    <use xlink:href="#ArialMT-35" x="2267.742188"/>
    <use xlink:href="#ArialMT-20" x="2323.357422"/>
    <use xlink:href="#ArialMT-70" x="2351.140625"/>
    <use xlink:href="#ArialMT-65" x="2406.755859"/>
    <use xlink:href="#ArialMT-72" x="2462.371094"/>
    <use xlink:href="#ArialMT-63" x="2495.671875"/>
    <use xlink:href="#ArialMT-65" x="2545.671875"/>
    <use xlink:href="#ArialMT-6e" x="2601.287109"/>
    <use xlink:href="#ArialMT-74" x="2656.902344"/>
    <use xlink:href="#ArialMT-69" x="2684.685547"/>
    <use xlink:href="#ArialMT-6c" x="2706.902344"/>
    <use xlink:href="#ArialMT-65" x="2729.119141"/>
    <use xlink:href="#ArialMT-29" x="2784.734375"/>
   </g>
  </g>
 </g>
 <defs>
  <clipPath id="pe0008e9c11">
   <rect x="52.30625" y="32.86125" width="230.413281" height="348.809062"/>
  </clipPath>
  <clipPath id="pe09f7e7d9c">
   <rect x="334.786719" y="32.86125" width="230.413281" height="348.809062"/>
  </clipPath>
 </defs>
</svg>
