<?xml version="1.0" encoding="utf-8" standalone="no"?>
<!DOCTYPE svg PUBLIC "-//W3C//DTD SVG 1.1//EN"
  "http://www.w3.org/Graphics/SVG/1.1/DTD/svg11.dtd">
<svg xmlns:xlink="http://www.w3.org/1999/xlink" width="576pt" height="432pt" viewBox="0 0 576 432" xmlns="http://www.w3.org/2000/svg" version="1.1">
 <metadata>
  <rdf:RDF xmlns:dc="http://purl.org/dc/elements/1.1/" xmlns:cc="http://creativecommons.org/ns#" xmlns:rdf="http://www.w3.org/1999/02/22-rdf-syntax-ns#">
   <cc:Work>
    <dc:type rdf:resource="http://purl.org/dc/dcmitype/StillImage"/>
    <dc:date>2022-10-13T10:42:51.139051</dc:date>
    <dc:format>image/svg+xml</dc:format>
    <dc:creator>
     <cc:Agent>
      <dc:title>Matplotlib v3.6.1, https://matplotlib.org/</dc:title>
     </cc:Agent>
    </dc:creator>
   </cc:Work>
  </rdf:RDF>
 </metadata>
 <defs>
  <style type="text/css">*{stroke-linejoin: round; stroke-linecap: butt}</style>
 </defs>
 <g id="figure_1">
  <g id="patch_1">
   <path d="M 0 432 
L 576 432 
L 576 0 
L 0 0 
z
" style="fill: #ffffff"/>
  </g>
  <g id="axes_1">
   <g id="patch_2">
    <path d="M 52.30625 381.670312 
L 282.719531 381.670312 
L 282.719531 32.86125 
L 52.30625 32.86125 
z
" style="fill: #ffffff"/>
   </g>
   <g id="patch_3">
    <path d="M 63.826914 359.343944 
L 155.992227 359.343944 
L 155.992227 326.986888 
L 63.826914 326.986888 
L 63.826914 359.343944 
z
" clip-path="url(#pe0008e9c11)" style="fill: #3274a1; stroke: #3f3f3f; stroke-width: 1.5; stroke-linejoin: miter"/>
   </g>
   <g id="patch_4">
    <path d="M 179.033555 359.343944 
L 271.198867 359.343944 
L 271.198867 346.401122 
L 179.033555 346.401122 
L 179.033555 359.343944 
z
" clip-path="url(#pe0008e9c11)" style="fill: #e1812c; stroke: #3f3f3f; stroke-width: 1.5; stroke-linejoin: miter"/>
   </g>
   <g id="matplotlib.axis_1">
    <g id="xtick_1">
     <g id="line2d_1">
      <defs>
       <path id="m4c99cd72f3" d="M 0 0 
L 0 3.5 
" style="stroke: #000000; stroke-width: 0.8"/>
      </defs>
      <g>
       <use xlink:href="#m4c99cd72f3" x="109.90957" y="391.670312" style="stroke: #000000; stroke-width: 0.8"/>
      </g>
     </g>
     <g id="text_1">
      <!-- 2018 -->
      <g transform="translate(98.787695 405.828125) scale(0.1 -0.1)">
       <defs>
        <path id="ArialMT-32" d="M 3222 541 
L 3222 0 
L 194 0 
Q 188 203 259 391 
Q 375 700 629 1000 
Q 884 1300 1366 1694 
Q 2113 2306 2375 2664 
Q 2638 3022 2638 3341 
Q 2638 3675 2398 3904 
Q 2159 4134 1775 4134 
Q 1369 4134 1125 3890 
Q 881 3647 878 3216 
L 300 3275 
Q 359 3922 746 4261 
Q 1134 4600 1788 4600 
Q 2447 4600 2831 4234 
Q 3216 3869 3216 3328 
Q 3216 3053 3103 2787 
Q 2991 2522 2730 2228 
Q 2469 1934 1863 1422 
Q 1356 997 1212 845 
Q 1069 694 975 541 
L 3222 541 
z
" transform="scale(0.015625)"/>
        <path id="ArialMT-30" d="M 266 2259 
Q 266 3072 433 3567 
Q 600 4063 929 4331 
Q 1259 4600 1759 4600 
Q 2128 4600 2406 4451 
Q 2684 4303 2865 4023 
Q 3047 3744 3150 3342 
Q 3253 2941 3253 2259 
Q 3253 1453 3087 958 
Q 2922 463 2592 192 
Q 2263 -78 1759 -78 
Q 1097 -78 719 397 
Q 266 969 266 2259 
z
M 844 2259 
Q 844 1131 1108 757 
Q 1372 384 1759 384 
Q 2147 384 2411 759 
Q 2675 1134 2675 2259 
Q 2675 3391 2411 3762 
Q 2147 4134 1753 4134 
Q 1366 4134 1134 3806 
Q 844 3388 844 2259 
z
" transform="scale(0.015625)"/>
        <path id="ArialMT-31" d="M 2384 0 
L 1822 0 
L 1822 3584 
Q 1619 3391 1289 3197 
Q 959 3003 697 2906 
L 697 3450 
Q 1169 3672 1522 3987 
Q 1875 4303 2022 4600 
L 2384 4600 
L 2384 0 
z
" transform="scale(0.015625)"/>
        <path id="ArialMT-38" d="M 1131 2484 
Q 781 2613 612 2850 
Q 444 3088 444 3419 
Q 444 3919 803 4259 
Q 1163 4600 1759 4600 
Q 2359 4600 2725 4251 
Q 3091 3903 3091 3403 
Q 3091 3084 2923 2848 
Q 2756 2613 2416 2484 
Q 2838 2347 3058 2040 
Q 3278 1734 3278 1309 
Q 3278 722 2862 322 
Q 2447 -78 1769 -78 
Q 1091 -78 675 323 
Q 259 725 259 1325 
Q 259 1772 486 2073 
Q 713 2375 1131 2484 
z
M 1019 3438 
Q 1019 3113 1228 2906 
Q 1438 2700 1772 2700 
Q 2097 2700 2305 2904 
Q 2513 3109 2513 3406 
Q 2513 3716 2298 3927 
Q 2084 4138 1766 4138 
Q 1444 4138 1231 3931 
Q 1019 3725 1019 3438 
z
M 838 1322 
Q 838 1081 952 856 
Q 1066 631 1291 507 
Q 1516 384 1775 384 
Q 2178 384 2440 643 
Q 2703 903 2703 1303 
Q 2703 1709 2433 1975 
Q 2163 2241 1756 2241 
Q 1359 2241 1098 1978 
Q 838 1716 838 1322 
z
" transform="scale(0.015625)"/>
       </defs>
       <use xlink:href="#ArialMT-32"/>
       <use xlink:href="#ArialMT-30" x="55.615234"/>
       <use xlink:href="#ArialMT-31" x="111.230469"/>
       <use xlink:href="#ArialMT-38" x="166.845703"/>
      </g>
     </g>
    </g>
    <g id="xtick_2">
     <g id="line2d_2">
      <g>
       <use xlink:href="#m4c99cd72f3" x="225.116211" y="391.670312" style="stroke: #000000; stroke-width: 0.8"/>
      </g>
     </g>
     <g id="text_2">
      <!-- 2022 -->
      <g transform="translate(213.994336 405.828125) scale(0.1 -0.1)">
       <use xlink:href="#ArialMT-32"/>
       <use xlink:href="#ArialMT-30" x="55.615234"/>
       <use xlink:href="#ArialMT-32" x="111.230469"/>
       <use xlink:href="#ArialMT-32" x="166.845703"/>
      </g>
     </g>
    </g>
    <g id="text_3">
     <!-- Year -->
     <g transform="translate(157.408203 418.973437) scale(0.1 -0.1)">
      <defs>
       <path id="ArialMT-59" d="M 1784 0 
L 1784 1941 
L 19 4581 
L 756 4581 
L 1659 3200 
Q 1909 2813 2125 2425 
Q 2331 2784 2625 3234 
L 3513 4581 
L 4219 4581 
L 2391 1941 
L 2391 0 
L 1784 0 
z
" transform="scale(0.015625)"/>
       <path id="ArialMT-65" d="M 2694 1069 
L 3275 997 
Q 3138 488 2766 206 
Q 2394 -75 1816 -75 
Q 1088 -75 661 373 
Q 234 822 234 1631 
Q 234 2469 665 2931 
Q 1097 3394 1784 3394 
Q 2450 3394 2872 2941 
Q 3294 2488 3294 1666 
Q 3294 1616 3291 1516 
L 816 1516 
Q 847 969 1125 678 
Q 1403 388 1819 388 
Q 2128 388 2347 550 
Q 2566 713 2694 1069 
z
M 847 1978 
L 2700 1978 
Q 2663 2397 2488 2606 
Q 2219 2931 1791 2931 
Q 1403 2931 1139 2672 
Q 875 2413 847 1978 
z
" transform="scale(0.015625)"/>
       <path id="ArialMT-61" d="M 2588 409 
Q 2275 144 1986 34 
Q 1697 -75 1366 -75 
Q 819 -75 525 192 
Q 231 459 231 875 
Q 231 1119 342 1320 
Q 453 1522 633 1644 
Q 813 1766 1038 1828 
Q 1203 1872 1538 1913 
Q 2219 1994 2541 2106 
Q 2544 2222 2544 2253 
Q 2544 2597 2384 2738 
Q 2169 2928 1744 2928 
Q 1347 2928 1158 2789 
Q 969 2650 878 2297 
L 328 2372 
Q 403 2725 575 2942 
Q 747 3159 1072 3276 
Q 1397 3394 1825 3394 
Q 2250 3394 2515 3294 
Q 2781 3194 2906 3042 
Q 3031 2891 3081 2659 
Q 3109 2516 3109 2141 
L 3109 1391 
Q 3109 606 3145 398 
Q 3181 191 3288 0 
L 2700 0 
Q 2613 175 2588 409 
z
M 2541 1666 
Q 2234 1541 1622 1453 
Q 1275 1403 1131 1340 
Q 988 1278 909 1158 
Q 831 1038 831 891 
Q 831 666 1001 516 
Q 1172 366 1500 366 
Q 1825 366 2078 508 
Q 2331 650 2450 897 
Q 2541 1088 2541 1459 
L 2541 1666 
z
" transform="scale(0.015625)"/>
       <path id="ArialMT-72" d="M 416 0 
L 416 3319 
L 922 3319 
L 922 2816 
Q 1116 3169 1280 3281 
Q 1444 3394 1641 3394 
Q 1925 3394 2219 3213 
L 2025 2691 
Q 1819 2813 1613 2813 
Q 1428 2813 1281 2702 
Q 1134 2591 1072 2394 
Q 978 2094 978 1738 
L 978 0 
L 416 0 
z
" transform="scale(0.015625)"/>
      </defs>
      <use xlink:href="#ArialMT-59"/>
      <use xlink:href="#ArialMT-65" x="57.574219"/>
      <use xlink:href="#ArialMT-61" x="113.189453"/>
      <use xlink:href="#ArialMT-72" x="168.804688"/>
     </g>
    </g>
   </g>
   <g id="matplotlib.axis_2">
    <g id="ytick_1">
     <g id="line2d_3">
      <defs>
       <path id="m8e343aef83" d="M 0 0 
L -3.5 0 
" style="stroke: #000000; stroke-width: 0.8"/>
      </defs>
      <g>
       <use xlink:href="#m8e343aef83" x="42.30625" y="372.286766" style="stroke: #000000; stroke-width: 0.8"/>
      </g>
     </g>
     <g id="text_4">
      <!-- 0 -->
      <g transform="translate(29.745313 375.865673) scale(0.1 -0.1)">
       <use xlink:href="#ArialMT-30"/>
      </g>
     </g>
    </g>
    <g id="ytick_2">
     <g id="line2d_4">
      <g>
       <use xlink:href="#m8e343aef83" x="42.30625" y="307.572655" style="stroke: #000000; stroke-width: 0.8"/>
      </g>
     </g>
     <g id="text_5">
      <!-- 10 -->
      <g transform="translate(24.184375 311.151561) scale(0.1 -0.1)">
       <use xlink:href="#ArialMT-31"/>
       <use xlink:href="#ArialMT-30" x="55.615234"/>
      </g>
     </g>
    </g>
    <g id="ytick_3">
     <g id="line2d_5">
      <g>
       <use xlink:href="#m8e343aef83" x="42.30625" y="242.858543" style="stroke: #000000; stroke-width: 0.8"/>
      </g>
     </g>
     <g id="text_6">
      <!-- 20 -->
      <g transform="translate(24.184375 246.437449) scale(0.1 -0.1)">
       <use xlink:href="#ArialMT-32"/>
       <use xlink:href="#ArialMT-30" x="55.615234"/>
      </g>
     </g>
    </g>
    <g id="ytick_4">
     <g id="line2d_6">
      <g>
       <use xlink:href="#m8e343aef83" x="42.30625" y="178.144431" style="stroke: #000000; stroke-width: 0.8"/>
      </g>
     </g>
     <g id="text_7">
      <!-- 30 -->
      <g transform="translate(24.184375 181.723337) scale(0.1 -0.1)">
       <defs>
        <path id="ArialMT-33" d="M 269 1209 
L 831 1284 
Q 928 806 1161 595 
Q 1394 384 1728 384 
Q 2125 384 2398 659 
Q 2672 934 2672 1341 
Q 2672 1728 2419 1979 
Q 2166 2231 1775 2231 
Q 1616 2231 1378 2169 
L 1441 2663 
Q 1497 2656 1531 2656 
Q 1891 2656 2178 2843 
Q 2466 3031 2466 3422 
Q 2466 3731 2256 3934 
Q 2047 4138 1716 4138 
Q 1388 4138 1169 3931 
Q 950 3725 888 3313 
L 325 3413 
Q 428 3978 793 4289 
Q 1159 4600 1703 4600 
Q 2078 4600 2393 4439 
Q 2709 4278 2876 4000 
Q 3044 3722 3044 3409 
Q 3044 3113 2884 2869 
Q 2725 2625 2413 2481 
Q 2819 2388 3044 2092 
Q 3269 1797 3269 1353 
Q 3269 753 2831 336 
Q 2394 -81 1725 -81 
Q 1122 -81 723 278 
Q 325 638 269 1209 
z
" transform="scale(0.015625)"/>
       </defs>
       <use xlink:href="#ArialMT-33"/>
       <use xlink:href="#ArialMT-30" x="55.615234"/>
      </g>
     </g>
    </g>
    <g id="ytick_5">
     <g id="line2d_7">
      <g>
       <use xlink:href="#m8e343aef83" x="42.30625" y="113.430319" style="stroke: #000000; stroke-width: 0.8"/>
      </g>
     </g>
     <g id="text_8">
      <!-- 40 -->
      <g transform="translate(24.184375 117.009225) scale(0.1 -0.1)">
       <defs>
        <path id="ArialMT-34" d="M 2069 0 
L 2069 1097 
L 81 1097 
L 81 1613 
L 2172 4581 
L 2631 4581 
L 2631 1613 
L 3250 1613 
L 3250 1097 
L 2631 1097 
L 2631 0 
L 2069 0 
z
M 2069 1613 
L 2069 3678 
L 634 1613 
L 2069 1613 
z
" transform="scale(0.015625)"/>
       </defs>
       <use xlink:href="#ArialMT-34"/>
       <use xlink:href="#ArialMT-30" x="55.615234"/>
      </g>
     </g>
    </g>
    <g id="ytick_6">
     <g id="line2d_8">
      <g>
       <use xlink:href="#m8e343aef83" x="42.30625" y="48.716207" style="stroke: #000000; stroke-width: 0.8"/>
      </g>
     </g>
     <g id="text_9">
      <!-- 50 -->
      <g transform="translate(24.184375 52.295114) scale(0.1 -0.1)">
       <defs>
        <path id="ArialMT-35" d="M 266 1200 
L 856 1250 
Q 922 819 1161 601 
Q 1400 384 1738 384 
Q 2144 384 2425 690 
Q 2706 997 2706 1503 
Q 2706 1984 2436 2262 
Q 2166 2541 1728 2541 
Q 1456 2541 1237 2417 
Q 1019 2294 894 2097 
L 366 2166 
L 809 4519 
L 3088 4519 
L 3088 3981 
L 1259 3981 
L 1013 2750 
Q 1425 3038 1878 3038 
Q 2478 3038 2890 2622 
Q 3303 2206 3303 1553 
Q 3303 931 2941 478 
Q 2500 -78 1738 -78 
Q 1113 -78 717 272 
Q 322 622 266 1200 
z
" transform="scale(0.015625)"/>
       </defs>
       <use xlink:href="#ArialMT-35"/>
       <use xlink:href="#ArialMT-30" x="55.615234"/>
      </g>
     </g>
    </g>
    <g id="text_10">
     <!-- Contract duration in years -->
     <g transform="translate(18.079687 264.512656) rotate(-90) scale(0.1 -0.1)">
      <defs>
       <path id="ArialMT-43" d="M 3763 1606 
L 4369 1453 
Q 4178 706 3683 314 
Q 3188 -78 2472 -78 
Q 1731 -78 1267 223 
Q 803 525 561 1097 
Q 319 1669 319 2325 
Q 319 3041 592 3573 
Q 866 4106 1370 4382 
Q 1875 4659 2481 4659 
Q 3169 4659 3637 4309 
Q 4106 3959 4291 3325 
L 3694 3184 
Q 3534 3684 3231 3912 
Q 2928 4141 2469 4141 
Q 1941 4141 1586 3887 
Q 1231 3634 1087 3207 
Q 944 2781 944 2328 
Q 944 1744 1114 1308 
Q 1284 872 1643 656 
Q 2003 441 2422 441 
Q 2931 441 3284 734 
Q 3638 1028 3763 1606 
z
" transform="scale(0.015625)"/>
       <path id="ArialMT-6f" d="M 213 1659 
Q 213 2581 725 3025 
Q 1153 3394 1769 3394 
Q 2453 3394 2887 2945 
Q 3322 2497 3322 1706 
Q 3322 1066 3130 698 
Q 2938 331 2570 128 
Q 2203 -75 1769 -75 
Q 1072 -75 642 372 
Q 213 819 213 1659 
z
M 791 1659 
Q 791 1022 1069 705 
Q 1347 388 1769 388 
Q 2188 388 2466 706 
Q 2744 1025 2744 1678 
Q 2744 2294 2464 2611 
Q 2184 2928 1769 2928 
Q 1347 2928 1069 2612 
Q 791 2297 791 1659 
z
" transform="scale(0.015625)"/>
       <path id="ArialMT-6e" d="M 422 0 
L 422 3319 
L 928 3319 
L 928 2847 
Q 1294 3394 1984 3394 
Q 2284 3394 2536 3286 
Q 2788 3178 2913 3003 
Q 3038 2828 3088 2588 
Q 3119 2431 3119 2041 
L 3119 0 
L 2556 0 
L 2556 2019 
Q 2556 2363 2490 2533 
Q 2425 2703 2258 2804 
Q 2091 2906 1866 2906 
Q 1506 2906 1245 2678 
Q 984 2450 984 1813 
L 984 0 
L 422 0 
z
" transform="scale(0.015625)"/>
       <path id="ArialMT-74" d="M 1650 503 
L 1731 6 
Q 1494 -44 1306 -44 
Q 1000 -44 831 53 
Q 663 150 594 308 
Q 525 466 525 972 
L 525 2881 
L 113 2881 
L 113 3319 
L 525 3319 
L 525 4141 
L 1084 4478 
L 1084 3319 
L 1650 3319 
L 1650 2881 
L 1084 2881 
L 1084 941 
Q 1084 700 1114 631 
Q 1144 563 1211 522 
Q 1278 481 1403 481 
Q 1497 481 1650 503 
z
" transform="scale(0.015625)"/>
       <path id="ArialMT-63" d="M 2588 1216 
L 3141 1144 
Q 3050 572 2676 248 
Q 2303 -75 1759 -75 
Q 1078 -75 664 370 
Q 250 816 250 1647 
Q 250 2184 428 2587 
Q 606 2991 970 3192 
Q 1334 3394 1763 3394 
Q 2303 3394 2647 3120 
Q 2991 2847 3088 2344 
L 2541 2259 
Q 2463 2594 2264 2762 
Q 2066 2931 1784 2931 
Q 1359 2931 1093 2626 
Q 828 2322 828 1663 
Q 828 994 1084 691 
Q 1341 388 1753 388 
Q 2084 388 2306 591 
Q 2528 794 2588 1216 
z
" transform="scale(0.015625)"/>
       <path id="ArialMT-20" transform="scale(0.015625)"/>
       <path id="ArialMT-64" d="M 2575 0 
L 2575 419 
Q 2259 -75 1647 -75 
Q 1250 -75 917 144 
Q 584 363 401 755 
Q 219 1147 219 1656 
Q 219 2153 384 2558 
Q 550 2963 881 3178 
Q 1213 3394 1622 3394 
Q 1922 3394 2156 3267 
Q 2391 3141 2538 2938 
L 2538 4581 
L 3097 4581 
L 3097 0 
L 2575 0 
z
M 797 1656 
Q 797 1019 1065 703 
Q 1334 388 1700 388 
Q 2069 388 2326 689 
Q 2584 991 2584 1609 
Q 2584 2291 2321 2609 
Q 2059 2928 1675 2928 
Q 1300 2928 1048 2622 
Q 797 2316 797 1656 
z
" transform="scale(0.015625)"/>
       <path id="ArialMT-75" d="M 2597 0 
L 2597 488 
Q 2209 -75 1544 -75 
Q 1250 -75 995 37 
Q 741 150 617 320 
Q 494 491 444 738 
Q 409 903 409 1263 
L 409 3319 
L 972 3319 
L 972 1478 
Q 972 1038 1006 884 
Q 1059 663 1231 536 
Q 1403 409 1656 409 
Q 1909 409 2131 539 
Q 2353 669 2445 892 
Q 2538 1116 2538 1541 
L 2538 3319 
L 3100 3319 
L 3100 0 
L 2597 0 
z
" transform="scale(0.015625)"/>
       <path id="ArialMT-69" d="M 425 3934 
L 425 4581 
L 988 4581 
L 988 3934 
L 425 3934 
z
M 425 0 
L 425 3319 
L 988 3319 
L 988 0 
L 425 0 
z
" transform="scale(0.015625)"/>
       <path id="ArialMT-79" d="M 397 -1278 
L 334 -750 
Q 519 -800 656 -800 
Q 844 -800 956 -737 
Q 1069 -675 1141 -563 
Q 1194 -478 1313 -144 
Q 1328 -97 1363 -6 
L 103 3319 
L 709 3319 
L 1400 1397 
Q 1534 1031 1641 628 
Q 1738 1016 1872 1384 
L 2581 3319 
L 3144 3319 
L 1881 -56 
Q 1678 -603 1566 -809 
Q 1416 -1088 1222 -1217 
Q 1028 -1347 759 -1347 
Q 597 -1347 397 -1278 
z
" transform="scale(0.015625)"/>
       <path id="ArialMT-73" d="M 197 991 
L 753 1078 
Q 800 744 1014 566 
Q 1228 388 1613 388 
Q 2000 388 2187 545 
Q 2375 703 2375 916 
Q 2375 1106 2209 1216 
Q 2094 1291 1634 1406 
Q 1016 1563 777 1677 
Q 538 1791 414 1992 
Q 291 2194 291 2438 
Q 291 2659 392 2848 
Q 494 3038 669 3163 
Q 800 3259 1026 3326 
Q 1253 3394 1513 3394 
Q 1903 3394 2198 3281 
Q 2494 3169 2634 2976 
Q 2775 2784 2828 2463 
L 2278 2388 
Q 2241 2644 2061 2787 
Q 1881 2931 1553 2931 
Q 1166 2931 1000 2803 
Q 834 2675 834 2503 
Q 834 2394 903 2306 
Q 972 2216 1119 2156 
Q 1203 2125 1616 2013 
Q 2213 1853 2448 1751 
Q 2684 1650 2818 1456 
Q 2953 1263 2953 975 
Q 2953 694 2789 445 
Q 2625 197 2315 61 
Q 2006 -75 1616 -75 
Q 969 -75 630 194 
Q 291 463 197 991 
z
" transform="scale(0.015625)"/>
      </defs>
      <use xlink:href="#ArialMT-43"/>
      <use xlink:href="#ArialMT-6f" x="72.216797"/>
      <use xlink:href="#ArialMT-6e" x="127.832031"/>
      <use xlink:href="#ArialMT-74" x="183.447266"/>
      <use xlink:href="#ArialMT-72" x="211.230469"/>
      <use xlink:href="#ArialMT-61" x="244.53125"/>
      <use xlink:href="#ArialMT-63" x="300.146484"/>
      <use xlink:href="#ArialMT-74" x="350.146484"/>
      <use xlink:href="#ArialMT-20" x="377.929688"/>
      <use xlink:href="#ArialMT-64" x="405.712891"/>
      <use xlink:href="#ArialMT-75" x="461.328125"/>
      <use xlink:href="#ArialMT-72" x="516.943359"/>
      <use xlink:href="#ArialMT-61" x="550.244141"/>
      <use xlink:href="#ArialMT-74" x="605.859375"/>
      <use xlink:href="#ArialMT-69" x="633.642578"/>
      <use xlink:href="#ArialMT-6f" x="655.859375"/>
      <use xlink:href="#ArialMT-6e" x="711.474609"/>
      <use xlink:href="#ArialMT-20" x="767.089844"/>
      <use xlink:href="#ArialMT-69" x="794.873047"/>
      <use xlink:href="#ArialMT-6e" x="817.089844"/>
      <use xlink:href="#ArialMT-20" x="872.705078"/>
      <use xlink:href="#ArialMT-79" x="900.488281"/>
      <use xlink:href="#ArialMT-65" x="950.488281"/>
      <use xlink:href="#ArialMT-61" x="1006.103516"/>
      <use xlink:href="#ArialMT-72" x="1061.71875"/>
      <use xlink:href="#ArialMT-73" x="1095.019531"/>
     </g>
    </g>
   </g>
   <g id="line2d_9">
    <path d="M 109.90957 359.343944 
L 109.90957 365.815355 
" clip-path="url(#pe0008e9c11)" style="fill: none; stroke: #3f3f3f; stroke-width: 1.5; stroke-linecap: square"/>
   </g>
   <g id="line2d_10">
    <path d="M 109.90957 326.986888 
L 109.90957 326.986888 
" clip-path="url(#pe0008e9c11)" style="fill: none; stroke: #3f3f3f; stroke-width: 1.5; stroke-linecap: square"/>
   </g>
   <g id="line2d_11">
    <path d="M 86.868242 365.815355 
L 132.950898 365.815355 
" clip-path="url(#pe0008e9c11)" style="fill: none; stroke: #3f3f3f; stroke-width: 1.5; stroke-linecap: square"/>
   </g>
   <g id="line2d_12">
    <path d="M 86.868242 326.986888 
L 132.950898 326.986888 
" clip-path="url(#pe0008e9c11)" style="fill: none; stroke: #3f3f3f; stroke-width: 1.5; stroke-linecap: square"/>
   </g>
   <g id="line2d_13">
    <defs>
     <path id="m1b309634d9" d="M -0 3.535534 
L 2.12132 0 
L -0 -3.535534 
L -2.12132 -0 
z
" style="stroke: #3f3f3f; stroke-linejoin: miter"/>
    </defs>
    <g clip-path="url(#pe0008e9c11)">
     <use xlink:href="#m1b309634d9" x="109.90957" y="255.801365" style="fill: #3f3f3f; stroke: #3f3f3f; stroke-linejoin: miter"/>
     <use xlink:href="#m1b309634d9" x="109.90957" y="210.501487" style="fill: #3f3f3f; stroke: #3f3f3f; stroke-linejoin: miter"/>
     <use xlink:href="#m1b309634d9" x="109.90957" y="48.716207" style="fill: #3f3f3f; stroke: #3f3f3f; stroke-linejoin: miter"/>
     <use xlink:href="#m1b309634d9" x="109.90957" y="210.501487" style="fill: #3f3f3f; stroke: #3f3f3f; stroke-linejoin: miter"/>
     <use xlink:href="#m1b309634d9" x="109.90957" y="210.501487" style="fill: #3f3f3f; stroke: #3f3f3f; stroke-linejoin: miter"/>
     <use xlink:href="#m1b309634d9" x="109.90957" y="113.430319" style="fill: #3f3f3f; stroke: #3f3f3f; stroke-linejoin: miter"/>
     <use xlink:href="#m1b309634d9" x="109.90957" y="242.858543" style="fill: #3f3f3f; stroke: #3f3f3f; stroke-linejoin: miter"/>
     <use xlink:href="#m1b309634d9" x="109.90957" y="242.858543" style="fill: #3f3f3f; stroke: #3f3f3f; stroke-linejoin: miter"/>
     <use xlink:href="#m1b309634d9" x="109.90957" y="242.858543" style="fill: #3f3f3f; stroke: #3f3f3f; stroke-linejoin: miter"/>
    </g>
   </g>
   <g id="line2d_14">
    <path d="M 225.116211 359.343944 
L 225.116211 365.815355 
" clip-path="url(#pe0008e9c11)" style="fill: none; stroke: #3f3f3f; stroke-width: 1.5; stroke-linecap: square"/>
   </g>
   <g id="line2d_15">
    <path d="M 225.116211 346.401122 
L 225.116211 346.401122 
" clip-path="url(#pe0008e9c11)" style="fill: none; stroke: #3f3f3f; stroke-width: 1.5; stroke-linecap: square"/>
   </g>
   <g id="line2d_16">
    <path d="M 202.074883 365.815355 
L 248.157539 365.815355 
" clip-path="url(#pe0008e9c11)" style="fill: none; stroke: #3f3f3f; stroke-width: 1.5; stroke-linecap: square"/>
   </g>
   <g id="line2d_17">
    <path d="M 202.074883 346.401122 
L 248.157539 346.401122 
" clip-path="url(#pe0008e9c11)" style="fill: none; stroke: #3f3f3f; stroke-width: 1.5; stroke-linecap: square"/>
   </g>
   <g id="line2d_18"/>
   <g id="line2d_19">
    <path d="M 63.826914 346.401122 
L 155.992227 346.401122 
" clip-path="url(#pe0008e9c11)" style="fill: none; stroke: #3f3f3f; stroke-width: 1.5; stroke-linecap: square"/>
   </g>
   <g id="line2d_20">
    <path d="M 179.033555 359.343944 
L 271.198867 359.343944 
" clip-path="url(#pe0008e9c11)" style="fill: none; stroke: #3f3f3f; stroke-width: 1.5; stroke-linecap: square"/>
   </g>
   <g id="patch_5">
    <path d="M 42.30625 372.286766 
L 42.30625 48.716207 
" style="fill: none; stroke: #000000; stroke-width: 0.8; stroke-linejoin: miter; stroke-linecap: square"/>
   </g>
   <g id="patch_6">
    <path d="M 109.90957 391.670312 
L 225.116211 391.670312 
" style="fill: none; stroke: #000000; stroke-width: 0.8; stroke-linejoin: miter; stroke-linecap: square"/>
   </g>
   <g id="PathCollection_1">
    <defs>
     <path id="m7c0cf669a7" d="M 0 2.5 
C 0.663008 2.5 1.29895 2.236584 1.767767 1.767767 
C 2.236584 1.29895 2.5 0.663008 2.5 0 
C 2.5 -0.663008 2.236584 -1.29895 1.767767 -1.767767 
C 1.29895 -2.236584 0.663008 -2.5 0 -2.5 
C -0.663008 -2.5 -1.29895 -2.236584 -1.767767 -1.767767 
C -2.236584 -1.29895 -2.5 -0.663008 -2.5 0 
C -2.5 0.663008 -2.236584 1.29895 -1.767767 1.767767 
C -1.29895 2.236584 -0.663008 2.5 0 2.5 
z
"/>
    </defs>
    <g clip-path="url(#pe0008e9c11)">
     <use xlink:href="#m7c0cf669a7" x="109.90957" y="326.986888" style="fill: #808080; fill-opacity: 0.75"/>
     <use xlink:href="#m7c0cf669a7" x="125.65957" y="346.401122" style="fill: #808080; fill-opacity: 0.75"/>
     <use xlink:href="#m7c0cf669a7" x="109.90957" y="255.801365" style="fill: #808080; fill-opacity: 0.75"/>
     <use xlink:href="#m7c0cf669a7" x="104.65957" y="326.986888" style="fill: #808080; fill-opacity: 0.75"/>
     <use xlink:href="#m7c0cf669a7" x="109.90957" y="352.872533" style="fill: #808080; fill-opacity: 0.75"/>
     <use xlink:href="#m7c0cf669a7" x="88.90957" y="359.343944" style="fill: #808080; fill-opacity: 0.75"/>
     <use xlink:href="#m7c0cf669a7" x="83.65957" y="359.343944" style="fill: #808080; fill-opacity: 0.75"/>
     <use xlink:href="#m7c0cf669a7" x="94.15957" y="359.343944" style="fill: #808080; fill-opacity: 0.75"/>
     <use xlink:href="#m7c0cf669a7" x="120.40957" y="359.343944" style="fill: #808080; fill-opacity: 0.75"/>
     <use xlink:href="#m7c0cf669a7" x="115.15957" y="210.501487" style="fill: #808080; fill-opacity: 0.75"/>
     <use xlink:href="#m7c0cf669a7" x="115.15957" y="352.872533" style="fill: #808080; fill-opacity: 0.75"/>
     <use xlink:href="#m7c0cf669a7" x="109.90957" y="48.716207" style="fill: #808080; fill-opacity: 0.75"/>
     <use xlink:href="#m7c0cf669a7" x="109.90957" y="365.815355" style="fill: #808080; fill-opacity: 0.75"/>
     <use xlink:href="#m7c0cf669a7" x="104.65957" y="339.92971" style="fill: #808080; fill-opacity: 0.75"/>
     <use xlink:href="#m7c0cf669a7" x="104.65957" y="210.501487" style="fill: #808080; fill-opacity: 0.75"/>
     <use xlink:href="#m7c0cf669a7" x="120.40957" y="352.872533" style="fill: #808080; fill-opacity: 0.75"/>
     <use xlink:href="#m7c0cf669a7" x="109.90957" y="210.501487" style="fill: #808080; fill-opacity: 0.75"/>
     <use xlink:href="#m7c0cf669a7" x="120.40957" y="346.401122" style="fill: #808080; fill-opacity: 0.75"/>
     <use xlink:href="#m7c0cf669a7" x="99.40957" y="352.872533" style="fill: #808080; fill-opacity: 0.75"/>
     <use xlink:href="#m7c0cf669a7" x="109.90957" y="113.430319" style="fill: #808080; fill-opacity: 0.75"/>
     <use xlink:href="#m7c0cf669a7" x="104.65957" y="242.858543" style="fill: #808080; fill-opacity: 0.75"/>
     <use xlink:href="#m7c0cf669a7" x="115.15957" y="346.401122" style="fill: #808080; fill-opacity: 0.75"/>
     <use xlink:href="#m7c0cf669a7" x="104.65957" y="352.872533" style="fill: #808080; fill-opacity: 0.75"/>
     <use xlink:href="#m7c0cf669a7" x="109.90957" y="346.401122" style="fill: #808080; fill-opacity: 0.75"/>
     <use xlink:href="#m7c0cf669a7" x="104.65957" y="346.401122" style="fill: #808080; fill-opacity: 0.75"/>
     <use xlink:href="#m7c0cf669a7" x="109.90957" y="339.92971" style="fill: #808080; fill-opacity: 0.75"/>
     <use xlink:href="#m7c0cf669a7" x="99.40957" y="346.401122" style="fill: #808080; fill-opacity: 0.75"/>
     <use xlink:href="#m7c0cf669a7" x="125.65957" y="359.343944" style="fill: #808080; fill-opacity: 0.75"/>
     <use xlink:href="#m7c0cf669a7" x="88.90957" y="346.401122" style="fill: #808080; fill-opacity: 0.75"/>
     <use xlink:href="#m7c0cf669a7" x="104.65957" y="359.343944" style="fill: #808080; fill-opacity: 0.75"/>
     <use xlink:href="#m7c0cf669a7" x="115.15957" y="359.343944" style="fill: #808080; fill-opacity: 0.75"/>
     <use xlink:href="#m7c0cf669a7" x="94.15957" y="346.401122" style="fill: #808080; fill-opacity: 0.75"/>
     <use xlink:href="#m7c0cf669a7" x="109.90957" y="359.343944" style="fill: #808080; fill-opacity: 0.75"/>
     <use xlink:href="#m7c0cf669a7" x="130.90957" y="359.343944" style="fill: #808080; fill-opacity: 0.75"/>
     <use xlink:href="#m7c0cf669a7" x="134.912014" y="356.108238" style="fill: #808080; fill-opacity: 0.75"/>
     <use xlink:href="#m7c0cf669a7" x="109.90957" y="242.858543" style="fill: #808080; fill-opacity: 0.75"/>
     <use xlink:href="#m7c0cf669a7" x="99.40957" y="359.343944" style="fill: #808080; fill-opacity: 0.75"/>
     <use xlink:href="#m7c0cf669a7" x="115.15957" y="242.858543" style="fill: #808080; fill-opacity: 0.75"/>
    </g>
   </g>
   <g id="PathCollection_2">
    <g clip-path="url(#pe0008e9c11)">
     <use xlink:href="#m7c0cf669a7" x="240.866211" y="346.401122" style="fill: #808080; fill-opacity: 0.75"/>
     <use xlink:href="#m7c0cf669a7" x="214.616211" y="365.815355" style="fill: #808080; fill-opacity: 0.75"/>
     <use xlink:href="#m7c0cf669a7" x="219.866211" y="359.343944" style="fill: #808080; fill-opacity: 0.75"/>
     <use xlink:href="#m7c0cf669a7" x="225.116211" y="359.343944" style="fill: #808080; fill-opacity: 0.75"/>
     <use xlink:href="#m7c0cf669a7" x="242.676528" y="359.343944" style="fill: #808080; fill-opacity: 0.75"/>
     <use xlink:href="#m7c0cf669a7" x="209.366211" y="359.343944" style="fill: #808080; fill-opacity: 0.75"/>
     <use xlink:href="#m7c0cf669a7" x="225.116211" y="346.401122" style="fill: #808080; fill-opacity: 0.75"/>
     <use xlink:href="#m7c0cf669a7" x="219.866211" y="365.815355" style="fill: #808080; fill-opacity: 0.75"/>
     <use xlink:href="#m7c0cf669a7" x="225.116211" y="352.872533" style="fill: #808080; fill-opacity: 0.75"/>
     <use xlink:href="#m7c0cf669a7" x="209.366211" y="346.401122" style="fill: #808080; fill-opacity: 0.75"/>
     <use xlink:href="#m7c0cf669a7" x="225.116211" y="365.815355" style="fill: #808080; fill-opacity: 0.75"/>
     <use xlink:href="#m7c0cf669a7" x="237.426528" y="359.343944" style="fill: #808080; fill-opacity: 0.75"/>
     <use xlink:href="#m7c0cf669a7" x="235.204293" y="363.873932" style="fill: #808080; fill-opacity: 0.75"/>
     <use xlink:href="#m7c0cf669a7" x="230.366211" y="359.343944" style="fill: #808080; fill-opacity: 0.75"/>
     <use xlink:href="#m7c0cf669a7" x="219.866211" y="346.401122" style="fill: #808080; fill-opacity: 0.75"/>
     <use xlink:href="#m7c0cf669a7" x="230.366211" y="346.401122" style="fill: #808080; fill-opacity: 0.75"/>
     <use xlink:href="#m7c0cf669a7" x="219.866211" y="352.872533" style="fill: #808080; fill-opacity: 0.75"/>
     <use xlink:href="#m7c0cf669a7" x="214.616211" y="346.401122" style="fill: #808080; fill-opacity: 0.75"/>
     <use xlink:href="#m7c0cf669a7" x="235.616211" y="346.401122" style="fill: #808080; fill-opacity: 0.75"/>
     <use xlink:href="#m7c0cf669a7" x="214.616211" y="359.343944" style="fill: #808080; fill-opacity: 0.75"/>
     <use xlink:href="#m7c0cf669a7" x="230.366211" y="365.815355" style="fill: #808080; fill-opacity: 0.75"/>
    </g>
   </g>
  </g>
  <g id="axes_2">
   <g id="patch_7">
    <path d="M 334.786719 381.670312 
L 565.2 381.670312 
L 565.2 32.86125 
L 334.786719 32.86125 
z
" style="fill: #ffffff"/>
   </g>
   <g id="patch_8">
    <path d="M 347.441994 381.670312 
L 349.623938 381.670312 
L 349.623938 49.471205 
L 347.441994 49.471205 
z
" clip-path="url(#pe09f7e7d9c)" style="fill: #2d1e3e; fill-opacity: 0.5; stroke: #000000; stroke-width: 0.228899; stroke-linejoin: miter"/>
   </g>
   <g id="patch_9">
    <path d="M 351.805882 381.670312 
L 353.987826 381.670312 
L 353.987826 326.303795 
L 351.805882 326.303795 
z
" clip-path="url(#pe09f7e7d9c)" style="fill: #2d1e3e; fill-opacity: 0.5; stroke: #000000; stroke-width: 0.228899; stroke-linejoin: miter"/>
   </g>
   <g id="patch_10">
    <path d="M 356.169769 381.670312 
L 358.351713 381.670312 
L 358.351713 187.8875 
L 356.169769 187.8875 
z
" clip-path="url(#pe09f7e7d9c)" style="fill: #2d1e3e; fill-opacity: 0.5; stroke: #000000; stroke-width: 0.228899; stroke-linejoin: miter"/>
   </g>
   <g id="patch_11">
    <path d="M 360.533657 381.670312 
L 362.715601 381.670312 
L 362.715601 381.670312 
L 360.533657 381.670312 
z
" clip-path="url(#pe09f7e7d9c)" style="fill: #2d1e3e; fill-opacity: 0.5; stroke: #000000; stroke-width: 0.228899; stroke-linejoin: miter"/>
   </g>
   <g id="patch_12">
    <path d="M 364.897545 381.670312 
L 367.079489 381.670312 
L 367.079489 381.670312 
L 364.897545 381.670312 
z
" clip-path="url(#pe09f7e7d9c)" style="fill: #2d1e3e; fill-opacity: 0.5; stroke: #000000; stroke-width: 0.228899; stroke-linejoin: miter"/>
   </g>
   <g id="patch_13">
    <path d="M 369.261433 381.670312 
L 371.443377 381.670312 
L 371.443377 381.670312 
L 369.261433 381.670312 
z
" clip-path="url(#pe09f7e7d9c)" style="fill: #2d1e3e; fill-opacity: 0.5; stroke: #000000; stroke-width: 0.228899; stroke-linejoin: miter"/>
   </g>
   <g id="patch_14">
    <path d="M 373.625321 381.670312 
L 375.807265 381.670312 
L 375.807265 381.670312 
L 373.625321 381.670312 
z
" clip-path="url(#pe09f7e7d9c)" style="fill: #2d1e3e; fill-opacity: 0.5; stroke: #000000; stroke-width: 0.228899; stroke-linejoin: miter"/>
   </g>
   <g id="patch_15">
    <path d="M 377.989209 381.670312 
L 380.171153 381.670312 
L 380.171153 381.670312 
L 377.989209 381.670312 
z
" clip-path="url(#pe09f7e7d9c)" style="fill: #2d1e3e; fill-opacity: 0.5; stroke: #000000; stroke-width: 0.228899; stroke-linejoin: miter"/>
   </g>
   <g id="patch_16">
    <path d="M 382.353097 381.670312 
L 384.535041 381.670312 
L 384.535041 381.670312 
L 382.353097 381.670312 
z
" clip-path="url(#pe09f7e7d9c)" style="fill: #2d1e3e; fill-opacity: 0.5; stroke: #000000; stroke-width: 0.228899; stroke-linejoin: miter"/>
   </g>
   <g id="patch_17">
    <path d="M 386.716985 381.670312 
L 388.898929 381.670312 
L 388.898929 381.670312 
L 386.716985 381.670312 
z
" clip-path="url(#pe09f7e7d9c)" style="fill: #2d1e3e; fill-opacity: 0.5; stroke: #000000; stroke-width: 0.228899; stroke-linejoin: miter"/>
   </g>
   <g id="patch_18">
    <path d="M 391.080873 381.670312 
L 393.262817 381.670312 
L 393.262817 381.670312 
L 391.080873 381.670312 
z
" clip-path="url(#pe09f7e7d9c)" style="fill: #2d1e3e; fill-opacity: 0.5; stroke: #000000; stroke-width: 0.228899; stroke-linejoin: miter"/>
   </g>
   <g id="patch_19">
    <path d="M 395.444761 381.670312 
L 397.626705 381.670312 
L 397.626705 381.670312 
L 395.444761 381.670312 
z
" clip-path="url(#pe09f7e7d9c)" style="fill: #2d1e3e; fill-opacity: 0.5; stroke: #000000; stroke-width: 0.228899; stroke-linejoin: miter"/>
   </g>
   <g id="patch_20">
    <path d="M 399.808648 381.670312 
L 401.990592 381.670312 
L 401.990592 381.670312 
L 399.808648 381.670312 
z
" clip-path="url(#pe09f7e7d9c)" style="fill: #2d1e3e; fill-opacity: 0.5; stroke: #000000; stroke-width: 0.228899; stroke-linejoin: miter"/>
   </g>
   <g id="patch_21">
    <path d="M 404.172536 381.670312 
L 406.35448 381.670312 
L 406.35448 381.670312 
L 404.172536 381.670312 
z
" clip-path="url(#pe09f7e7d9c)" style="fill: #2d1e3e; fill-opacity: 0.5; stroke: #000000; stroke-width: 0.228899; stroke-linejoin: miter"/>
   </g>
   <g id="patch_22">
    <path d="M 408.536424 381.670312 
L 410.718368 381.670312 
L 410.718368 381.670312 
L 408.536424 381.670312 
z
" clip-path="url(#pe09f7e7d9c)" style="fill: #2d1e3e; fill-opacity: 0.5; stroke: #000000; stroke-width: 0.228899; stroke-linejoin: miter"/>
   </g>
   <g id="patch_23">
    <path d="M 412.900312 381.670312 
L 415.082256 381.670312 
L 415.082256 381.670312 
L 412.900312 381.670312 
z
" clip-path="url(#pe09f7e7d9c)" style="fill: #2d1e3e; fill-opacity: 0.5; stroke: #000000; stroke-width: 0.228899; stroke-linejoin: miter"/>
   </g>
   <g id="patch_24">
    <path d="M 417.2642 381.670312 
L 419.446144 381.670312 
L 419.446144 381.670312 
L 417.2642 381.670312 
z
" clip-path="url(#pe09f7e7d9c)" style="fill: #2d1e3e; fill-opacity: 0.5; stroke: #000000; stroke-width: 0.228899; stroke-linejoin: miter"/>
   </g>
   <g id="patch_25">
    <path d="M 421.628088 381.670312 
L 423.810032 381.670312 
L 423.810032 381.670312 
L 421.628088 381.670312 
z
" clip-path="url(#pe09f7e7d9c)" style="fill: #2d1e3e; fill-opacity: 0.5; stroke: #000000; stroke-width: 0.228899; stroke-linejoin: miter"/>
   </g>
   <g id="patch_26">
    <path d="M 425.991976 381.670312 
L 428.17392 381.670312 
L 428.17392 381.670312 
L 425.991976 381.670312 
z
" clip-path="url(#pe09f7e7d9c)" style="fill: #2d1e3e; fill-opacity: 0.5; stroke: #000000; stroke-width: 0.228899; stroke-linejoin: miter"/>
   </g>
   <g id="patch_27">
    <path d="M 430.355864 381.670312 
L 432.537808 381.670312 
L 432.537808 381.670312 
L 430.355864 381.670312 
z
" clip-path="url(#pe09f7e7d9c)" style="fill: #2d1e3e; fill-opacity: 0.5; stroke: #000000; stroke-width: 0.228899; stroke-linejoin: miter"/>
   </g>
   <g id="patch_28">
    <path d="M 434.719752 381.670312 
L 436.901696 381.670312 
L 436.901696 381.670312 
L 434.719752 381.670312 
z
" clip-path="url(#pe09f7e7d9c)" style="fill: #2d1e3e; fill-opacity: 0.5; stroke: #000000; stroke-width: 0.228899; stroke-linejoin: miter"/>
   </g>
   <g id="patch_29">
    <path d="M 439.08364 381.670312 
L 441.265584 381.670312 
L 441.265584 381.670312 
L 439.08364 381.670312 
z
" clip-path="url(#pe09f7e7d9c)" style="fill: #2d1e3e; fill-opacity: 0.5; stroke: #000000; stroke-width: 0.228899; stroke-linejoin: miter"/>
   </g>
   <g id="patch_30">
    <path d="M 443.447528 381.670312 
L 445.629471 381.670312 
L 445.629471 381.670312 
L 443.447528 381.670312 
z
" clip-path="url(#pe09f7e7d9c)" style="fill: #2d1e3e; fill-opacity: 0.5; stroke: #000000; stroke-width: 0.228899; stroke-linejoin: miter"/>
   </g>
   <g id="patch_31">
    <path d="M 447.811415 381.670312 
L 449.993359 381.670312 
L 449.993359 381.670312 
L 447.811415 381.670312 
z
" clip-path="url(#pe09f7e7d9c)" style="fill: #2d1e3e; fill-opacity: 0.5; stroke: #000000; stroke-width: 0.228899; stroke-linejoin: miter"/>
   </g>
   <g id="patch_32">
    <path d="M 452.175303 381.670312 
L 454.357247 381.670312 
L 454.357247 381.670312 
L 452.175303 381.670312 
z
" clip-path="url(#pe09f7e7d9c)" style="fill: #2d1e3e; fill-opacity: 0.5; stroke: #000000; stroke-width: 0.228899; stroke-linejoin: miter"/>
   </g>
   <g id="patch_33">
    <path d="M 456.539191 381.670312 
L 458.721135 381.670312 
L 458.721135 381.670312 
L 456.539191 381.670312 
z
" clip-path="url(#pe09f7e7d9c)" style="fill: #2d1e3e; fill-opacity: 0.5; stroke: #000000; stroke-width: 0.228899; stroke-linejoin: miter"/>
   </g>
   <g id="patch_34">
    <path d="M 460.903079 381.670312 
L 463.085023 381.670312 
L 463.085023 381.670312 
L 460.903079 381.670312 
z
" clip-path="url(#pe09f7e7d9c)" style="fill: #2d1e3e; fill-opacity: 0.5; stroke: #000000; stroke-width: 0.228899; stroke-linejoin: miter"/>
   </g>
   <g id="patch_35">
    <path d="M 465.266967 381.670312 
L 467.448911 381.670312 
L 467.448911 381.670312 
L 465.266967 381.670312 
z
" clip-path="url(#pe09f7e7d9c)" style="fill: #2d1e3e; fill-opacity: 0.5; stroke: #000000; stroke-width: 0.228899; stroke-linejoin: miter"/>
   </g>
   <g id="patch_36">
    <path d="M 469.630855 381.670312 
L 471.812799 381.670312 
L 471.812799 381.670312 
L 469.630855 381.670312 
z
" clip-path="url(#pe09f7e7d9c)" style="fill: #2d1e3e; fill-opacity: 0.5; stroke: #000000; stroke-width: 0.228899; stroke-linejoin: miter"/>
   </g>
   <g id="patch_37">
    <path d="M 473.994743 381.670312 
L 476.176687 381.670312 
L 476.176687 381.670312 
L 473.994743 381.670312 
z
" clip-path="url(#pe09f7e7d9c)" style="fill: #2d1e3e; fill-opacity: 0.5; stroke: #000000; stroke-width: 0.228899; stroke-linejoin: miter"/>
   </g>
   <g id="patch_38">
    <path d="M 478.358631 381.670312 
L 480.540575 381.670312 
L 480.540575 381.670312 
L 478.358631 381.670312 
z
" clip-path="url(#pe09f7e7d9c)" style="fill: #2d1e3e; fill-opacity: 0.5; stroke: #000000; stroke-width: 0.228899; stroke-linejoin: miter"/>
   </g>
   <g id="patch_39">
    <path d="M 482.722519 381.670312 
L 484.904463 381.670312 
L 484.904463 381.670312 
L 482.722519 381.670312 
z
" clip-path="url(#pe09f7e7d9c)" style="fill: #2d1e3e; fill-opacity: 0.5; stroke: #000000; stroke-width: 0.228899; stroke-linejoin: miter"/>
   </g>
   <g id="patch_40">
    <path d="M 487.086407 381.670312 
L 489.26835 381.670312 
L 489.26835 381.670312 
L 487.086407 381.670312 
z
" clip-path="url(#pe09f7e7d9c)" style="fill: #2d1e3e; fill-opacity: 0.5; stroke: #000000; stroke-width: 0.228899; stroke-linejoin: miter"/>
   </g>
   <g id="patch_41">
    <path d="M 491.450294 381.670312 
L 493.632238 381.670312 
L 493.632238 381.670312 
L 491.450294 381.670312 
z
" clip-path="url(#pe09f7e7d9c)" style="fill: #2d1e3e; fill-opacity: 0.5; stroke: #000000; stroke-width: 0.228899; stroke-linejoin: miter"/>
   </g>
   <g id="patch_42">
    <path d="M 495.814182 381.670312 
L 497.996126 381.670312 
L 497.996126 381.670312 
L 495.814182 381.670312 
z
" clip-path="url(#pe09f7e7d9c)" style="fill: #2d1e3e; fill-opacity: 0.5; stroke: #000000; stroke-width: 0.228899; stroke-linejoin: miter"/>
   </g>
   <g id="patch_43">
    <path d="M 500.17807 381.670312 
L 502.360014 381.670312 
L 502.360014 381.670312 
L 500.17807 381.670312 
z
" clip-path="url(#pe09f7e7d9c)" style="fill: #2d1e3e; fill-opacity: 0.5; stroke: #000000; stroke-width: 0.228899; stroke-linejoin: miter"/>
   </g>
   <g id="patch_44">
    <path d="M 504.541958 381.670312 
L 506.723902 381.670312 
L 506.723902 381.670312 
L 504.541958 381.670312 
z
" clip-path="url(#pe09f7e7d9c)" style="fill: #2d1e3e; fill-opacity: 0.5; stroke: #000000; stroke-width: 0.228899; stroke-linejoin: miter"/>
   </g>
   <g id="patch_45">
    <path d="M 508.905846 381.670312 
L 511.08779 381.670312 
L 511.08779 381.670312 
L 508.905846 381.670312 
z
" clip-path="url(#pe09f7e7d9c)" style="fill: #2d1e3e; fill-opacity: 0.5; stroke: #000000; stroke-width: 0.228899; stroke-linejoin: miter"/>
   </g>
   <g id="patch_46">
    <path d="M 513.269734 381.670312 
L 515.451678 381.670312 
L 515.451678 381.670312 
L 513.269734 381.670312 
z
" clip-path="url(#pe09f7e7d9c)" style="fill: #2d1e3e; fill-opacity: 0.5; stroke: #000000; stroke-width: 0.228899; stroke-linejoin: miter"/>
   </g>
   <g id="patch_47">
    <path d="M 517.633622 381.670312 
L 519.815566 381.670312 
L 519.815566 381.670312 
L 517.633622 381.670312 
z
" clip-path="url(#pe09f7e7d9c)" style="fill: #2d1e3e; fill-opacity: 0.5; stroke: #000000; stroke-width: 0.228899; stroke-linejoin: miter"/>
   </g>
   <g id="patch_48">
    <path d="M 521.99751 381.670312 
L 524.179454 381.670312 
L 524.179454 381.670312 
L 521.99751 381.670312 
z
" clip-path="url(#pe09f7e7d9c)" style="fill: #2d1e3e; fill-opacity: 0.5; stroke: #000000; stroke-width: 0.228899; stroke-linejoin: miter"/>
   </g>
   <g id="patch_49">
    <path d="M 526.361398 381.670312 
L 528.543342 381.670312 
L 528.543342 381.670312 
L 526.361398 381.670312 
z
" clip-path="url(#pe09f7e7d9c)" style="fill: #2d1e3e; fill-opacity: 0.5; stroke: #000000; stroke-width: 0.228899; stroke-linejoin: miter"/>
   </g>
   <g id="patch_50">
    <path d="M 530.725286 381.670312 
L 532.90723 381.670312 
L 532.90723 381.670312 
L 530.725286 381.670312 
z
" clip-path="url(#pe09f7e7d9c)" style="fill: #2d1e3e; fill-opacity: 0.5; stroke: #000000; stroke-width: 0.228899; stroke-linejoin: miter"/>
   </g>
   <g id="patch_51">
    <path d="M 535.089173 381.670312 
L 537.271117 381.670312 
L 537.271117 381.670312 
L 535.089173 381.670312 
z
" clip-path="url(#pe09f7e7d9c)" style="fill: #2d1e3e; fill-opacity: 0.5; stroke: #000000; stroke-width: 0.228899; stroke-linejoin: miter"/>
   </g>
   <g id="patch_52">
    <path d="M 539.453061 381.670312 
L 541.635005 381.670312 
L 541.635005 381.670312 
L 539.453061 381.670312 
z
" clip-path="url(#pe09f7e7d9c)" style="fill: #2d1e3e; fill-opacity: 0.5; stroke: #000000; stroke-width: 0.228899; stroke-linejoin: miter"/>
   </g>
   <g id="patch_53">
    <path d="M 543.816949 381.670312 
L 545.998893 381.670312 
L 545.998893 381.670312 
L 543.816949 381.670312 
z
" clip-path="url(#pe09f7e7d9c)" style="fill: #2d1e3e; fill-opacity: 0.5; stroke: #000000; stroke-width: 0.228899; stroke-linejoin: miter"/>
   </g>
   <g id="patch_54">
    <path d="M 548.180837 381.670312 
L 550.362781 381.670312 
L 550.362781 381.670312 
L 548.180837 381.670312 
z
" clip-path="url(#pe09f7e7d9c)" style="fill: #2d1e3e; fill-opacity: 0.5; stroke: #000000; stroke-width: 0.228899; stroke-linejoin: miter"/>
   </g>
   <g id="patch_55">
    <path d="M 552.544725 381.670312 
L 554.726669 381.670312 
L 554.726669 381.670312 
L 552.544725 381.670312 
z
" clip-path="url(#pe09f7e7d9c)" style="fill: #2d1e3e; fill-opacity: 0.5; stroke: #000000; stroke-width: 0.228899; stroke-linejoin: miter"/>
   </g>
   <g id="patch_56">
    <path d="M 345.26005 381.670312 
L 347.441994 381.670312 
L 347.441994 77.154464 
L 345.26005 77.154464 
z
" clip-path="url(#pe09f7e7d9c)" style="fill: #edd1cb; fill-opacity: 0.5; stroke: #000000; stroke-width: 0.228899; stroke-linejoin: miter"/>
   </g>
   <g id="patch_57">
    <path d="M 349.623938 381.670312 
L 351.805882 381.670312 
L 351.805882 215.570759 
L 349.623938 215.570759 
z
" clip-path="url(#pe09f7e7d9c)" style="fill: #edd1cb; fill-opacity: 0.5; stroke: #000000; stroke-width: 0.228899; stroke-linejoin: miter"/>
   </g>
   <g id="patch_58">
    <path d="M 353.987826 381.670312 
L 356.169769 381.670312 
L 356.169769 160.204241 
L 353.987826 160.204241 
z
" clip-path="url(#pe09f7e7d9c)" style="fill: #edd1cb; fill-opacity: 0.5; stroke: #000000; stroke-width: 0.228899; stroke-linejoin: miter"/>
   </g>
   <g id="patch_59">
    <path d="M 358.351713 381.670312 
L 360.533657 381.670312 
L 360.533657 326.303795 
L 358.351713 326.303795 
z
" clip-path="url(#pe09f7e7d9c)" style="fill: #edd1cb; fill-opacity: 0.5; stroke: #000000; stroke-width: 0.228899; stroke-linejoin: miter"/>
   </g>
   <g id="patch_60">
    <path d="M 362.715601 381.670312 
L 364.897545 381.670312 
L 364.897545 381.670312 
L 362.715601 381.670312 
z
" clip-path="url(#pe09f7e7d9c)" style="fill: #edd1cb; fill-opacity: 0.5; stroke: #000000; stroke-width: 0.228899; stroke-linejoin: miter"/>
   </g>
   <g id="patch_61">
    <path d="M 367.079489 381.670312 
L 369.261433 381.670312 
L 369.261433 326.303795 
L 367.079489 326.303795 
z
" clip-path="url(#pe09f7e7d9c)" style="fill: #edd1cb; fill-opacity: 0.5; stroke: #000000; stroke-width: 0.228899; stroke-linejoin: miter"/>
   </g>
   <g id="patch_62">
    <path d="M 371.443377 381.670312 
L 373.625321 381.670312 
L 373.625321 381.670312 
L 371.443377 381.670312 
z
" clip-path="url(#pe09f7e7d9c)" style="fill: #edd1cb; fill-opacity: 0.5; stroke: #000000; stroke-width: 0.228899; stroke-linejoin: miter"/>
   </g>
   <g id="patch_63">
    <path d="M 375.807265 381.670312 
L 377.989209 381.670312 
L 377.989209 381.670312 
L 375.807265 381.670312 
z
" clip-path="url(#pe09f7e7d9c)" style="fill: #edd1cb; fill-opacity: 0.5; stroke: #000000; stroke-width: 0.228899; stroke-linejoin: miter"/>
   </g>
   <g id="patch_64">
    <path d="M 380.171153 381.670312 
L 382.353097 381.670312 
L 382.353097 381.670312 
L 380.171153 381.670312 
z
" clip-path="url(#pe09f7e7d9c)" style="fill: #edd1cb; fill-opacity: 0.5; stroke: #000000; stroke-width: 0.228899; stroke-linejoin: miter"/>
   </g>
   <g id="patch_65">
    <path d="M 384.535041 381.670312 
L 386.716985 381.670312 
L 386.716985 381.670312 
L 384.535041 381.670312 
z
" clip-path="url(#pe09f7e7d9c)" style="fill: #edd1cb; fill-opacity: 0.5; stroke: #000000; stroke-width: 0.228899; stroke-linejoin: miter"/>
   </g>
   <g id="patch_66">
    <path d="M 388.898929 381.670312 
L 391.080873 381.670312 
L 391.080873 381.670312 
L 388.898929 381.670312 
z
" clip-path="url(#pe09f7e7d9c)" style="fill: #edd1cb; fill-opacity: 0.5; stroke: #000000; stroke-width: 0.228899; stroke-linejoin: miter"/>
   </g>
   <g id="patch_67">
    <path d="M 393.262817 381.670312 
L 395.444761 381.670312 
L 395.444761 381.670312 
L 393.262817 381.670312 
z
" clip-path="url(#pe09f7e7d9c)" style="fill: #edd1cb; fill-opacity: 0.5; stroke: #000000; stroke-width: 0.228899; stroke-linejoin: miter"/>
   </g>
   <g id="patch_68">
    <path d="M 397.626705 381.670312 
L 399.808648 381.670312 
L 399.808648 381.670312 
L 397.626705 381.670312 
z
" clip-path="url(#pe09f7e7d9c)" style="fill: #edd1cb; fill-opacity: 0.5; stroke: #000000; stroke-width: 0.228899; stroke-linejoin: miter"/>
   </g>
   <g id="patch_69">
    <path d="M 401.990592 381.670312 
L 404.172536 381.670312 
L 404.172536 381.670312 
L 401.990592 381.670312 
z
" clip-path="url(#pe09f7e7d9c)" style="fill: #edd1cb; fill-opacity: 0.5; stroke: #000000; stroke-width: 0.228899; stroke-linejoin: miter"/>
   </g>
   <g id="patch_70">
    <path d="M 406.35448 381.670312 
L 408.536424 381.670312 
L 408.536424 381.670312 
L 406.35448 381.670312 
z
" clip-path="url(#pe09f7e7d9c)" style="fill: #edd1cb; fill-opacity: 0.5; stroke: #000000; stroke-width: 0.228899; stroke-linejoin: miter"/>
   </g>
   <g id="patch_71">
    <path d="M 410.718368 381.670312 
L 412.900312 381.670312 
L 412.900312 381.670312 
L 410.718368 381.670312 
z
" clip-path="url(#pe09f7e7d9c)" style="fill: #edd1cb; fill-opacity: 0.5; stroke: #000000; stroke-width: 0.228899; stroke-linejoin: miter"/>
   </g>
   <g id="patch_72">
    <path d="M 415.082256 381.670312 
L 417.2642 381.670312 
L 417.2642 353.987054 
L 415.082256 353.987054 
z
" clip-path="url(#pe09f7e7d9c)" style="fill: #edd1cb; fill-opacity: 0.5; stroke: #000000; stroke-width: 0.228899; stroke-linejoin: miter"/>
   </g>
   <g id="patch_73">
    <path d="M 419.446144 381.670312 
L 421.628088 381.670312 
L 421.628088 381.670312 
L 419.446144 381.670312 
z
" clip-path="url(#pe09f7e7d9c)" style="fill: #edd1cb; fill-opacity: 0.5; stroke: #000000; stroke-width: 0.228899; stroke-linejoin: miter"/>
   </g>
   <g id="patch_74">
    <path d="M 423.810032 381.670312 
L 425.991976 381.670312 
L 425.991976 298.620536 
L 423.810032 298.620536 
z
" clip-path="url(#pe09f7e7d9c)" style="fill: #edd1cb; fill-opacity: 0.5; stroke: #000000; stroke-width: 0.228899; stroke-linejoin: miter"/>
   </g>
   <g id="patch_75">
    <path d="M 428.17392 381.670312 
L 430.355864 381.670312 
L 430.355864 381.670312 
L 428.17392 381.670312 
z
" clip-path="url(#pe09f7e7d9c)" style="fill: #edd1cb; fill-opacity: 0.5; stroke: #000000; stroke-width: 0.228899; stroke-linejoin: miter"/>
   </g>
   <g id="patch_76">
    <path d="M 432.537808 381.670312 
L 434.719752 381.670312 
L 434.719752 381.670312 
L 432.537808 381.670312 
z
" clip-path="url(#pe09f7e7d9c)" style="fill: #edd1cb; fill-opacity: 0.5; stroke: #000000; stroke-width: 0.228899; stroke-linejoin: miter"/>
   </g>
   <g id="patch_77">
    <path d="M 436.901696 381.670312 
L 439.08364 381.670312 
L 439.08364 381.670312 
L 436.901696 381.670312 
z
" clip-path="url(#pe09f7e7d9c)" style="fill: #edd1cb; fill-opacity: 0.5; stroke: #000000; stroke-width: 0.228899; stroke-linejoin: miter"/>
   </g>
   <g id="patch_78">
    <path d="M 441.265584 381.670312 
L 443.447528 381.670312 
L 443.447528 381.670312 
L 441.265584 381.670312 
z
" clip-path="url(#pe09f7e7d9c)" style="fill: #edd1cb; fill-opacity: 0.5; stroke: #000000; stroke-width: 0.228899; stroke-linejoin: miter"/>
   </g>
   <g id="patch_79">
    <path d="M 445.629471 381.670312 
L 447.811415 381.670312 
L 447.811415 298.620536 
L 445.629471 298.620536 
z
" clip-path="url(#pe09f7e7d9c)" style="fill: #edd1cb; fill-opacity: 0.5; stroke: #000000; stroke-width: 0.228899; stroke-linejoin: miter"/>
   </g>
   <g id="patch_80">
    <path d="M 449.993359 381.670312 
L 452.175303 381.670312 
L 452.175303 381.670312 
L 449.993359 381.670312 
z
" clip-path="url(#pe09f7e7d9c)" style="fill: #edd1cb; fill-opacity: 0.5; stroke: #000000; stroke-width: 0.228899; stroke-linejoin: miter"/>
   </g>
   <g id="patch_81">
    <path d="M 454.357247 381.670312 
L 456.539191 381.670312 
L 456.539191 381.670312 
L 454.357247 381.670312 
z
" clip-path="url(#pe09f7e7d9c)" style="fill: #edd1cb; fill-opacity: 0.5; stroke: #000000; stroke-width: 0.228899; stroke-linejoin: miter"/>
   </g>
   <g id="patch_82">
    <path d="M 458.721135 381.670312 
L 460.903079 381.670312 
L 460.903079 381.670312 
L 458.721135 381.670312 
z
" clip-path="url(#pe09f7e7d9c)" style="fill: #edd1cb; fill-opacity: 0.5; stroke: #000000; stroke-width: 0.228899; stroke-linejoin: miter"/>
   </g>
   <g id="patch_83">
    <path d="M 463.085023 381.670312 
L 465.266967 381.670312 
L 465.266967 381.670312 
L 463.085023 381.670312 
z
" clip-path="url(#pe09f7e7d9c)" style="fill: #edd1cb; fill-opacity: 0.5; stroke: #000000; stroke-width: 0.228899; stroke-linejoin: miter"/>
   </g>
   <g id="patch_84">
    <path d="M 467.448911 381.670312 
L 469.630855 381.670312 
L 469.630855 381.670312 
L 467.448911 381.670312 
z
" clip-path="url(#pe09f7e7d9c)" style="fill: #edd1cb; fill-opacity: 0.5; stroke: #000000; stroke-width: 0.228899; stroke-linejoin: miter"/>
   </g>
   <g id="patch_85">
    <path d="M 471.812799 381.670312 
L 473.994743 381.670312 
L 473.994743 381.670312 
L 471.812799 381.670312 
z
" clip-path="url(#pe09f7e7d9c)" style="fill: #edd1cb; fill-opacity: 0.5; stroke: #000000; stroke-width: 0.228899; stroke-linejoin: miter"/>
   </g>
   <g id="patch_86">
    <path d="M 476.176687 381.670312 
L 478.358631 381.670312 
L 478.358631 381.670312 
L 476.176687 381.670312 
z
" clip-path="url(#pe09f7e7d9c)" style="fill: #edd1cb; fill-opacity: 0.5; stroke: #000000; stroke-width: 0.228899; stroke-linejoin: miter"/>
   </g>
   <g id="patch_87">
    <path d="M 480.540575 381.670312 
L 482.722519 381.670312 
L 482.722519 381.670312 
L 480.540575 381.670312 
z
" clip-path="url(#pe09f7e7d9c)" style="fill: #edd1cb; fill-opacity: 0.5; stroke: #000000; stroke-width: 0.228899; stroke-linejoin: miter"/>
   </g>
   <g id="patch_88">
    <path d="M 484.904463 381.670312 
L 487.086407 381.670312 
L 487.086407 381.670312 
L 484.904463 381.670312 
z
" clip-path="url(#pe09f7e7d9c)" style="fill: #edd1cb; fill-opacity: 0.5; stroke: #000000; stroke-width: 0.228899; stroke-linejoin: miter"/>
   </g>
   <g id="patch_89">
    <path d="M 489.26835 381.670312 
L 491.450294 381.670312 
L 491.450294 381.670312 
L 489.26835 381.670312 
z
" clip-path="url(#pe09f7e7d9c)" style="fill: #edd1cb; fill-opacity: 0.5; stroke: #000000; stroke-width: 0.228899; stroke-linejoin: miter"/>
   </g>
   <g id="patch_90">
    <path d="M 493.632238 381.670312 
L 495.814182 381.670312 
L 495.814182 381.670312 
L 493.632238 381.670312 
z
" clip-path="url(#pe09f7e7d9c)" style="fill: #edd1cb; fill-opacity: 0.5; stroke: #000000; stroke-width: 0.228899; stroke-linejoin: miter"/>
   </g>
   <g id="patch_91">
    <path d="M 497.996126 381.670312 
L 500.17807 381.670312 
L 500.17807 381.670312 
L 497.996126 381.670312 
z
" clip-path="url(#pe09f7e7d9c)" style="fill: #edd1cb; fill-opacity: 0.5; stroke: #000000; stroke-width: 0.228899; stroke-linejoin: miter"/>
   </g>
   <g id="patch_92">
    <path d="M 502.360014 381.670312 
L 504.541958 381.670312 
L 504.541958 381.670312 
L 502.360014 381.670312 
z
" clip-path="url(#pe09f7e7d9c)" style="fill: #edd1cb; fill-opacity: 0.5; stroke: #000000; stroke-width: 0.228899; stroke-linejoin: miter"/>
   </g>
   <g id="patch_93">
    <path d="M 506.723902 381.670312 
L 508.905846 381.670312 
L 508.905846 381.670312 
L 506.723902 381.670312 
z
" clip-path="url(#pe09f7e7d9c)" style="fill: #edd1cb; fill-opacity: 0.5; stroke: #000000; stroke-width: 0.228899; stroke-linejoin: miter"/>
   </g>
   <g id="patch_94">
    <path d="M 511.08779 381.670312 
L 513.269734 381.670312 
L 513.269734 353.987054 
L 511.08779 353.987054 
z
" clip-path="url(#pe09f7e7d9c)" style="fill: #edd1cb; fill-opacity: 0.5; stroke: #000000; stroke-width: 0.228899; stroke-linejoin: miter"/>
   </g>
   <g id="patch_95">
    <path d="M 515.451678 381.670312 
L 517.633622 381.670312 
L 517.633622 381.670312 
L 515.451678 381.670312 
z
" clip-path="url(#pe09f7e7d9c)" style="fill: #edd1cb; fill-opacity: 0.5; stroke: #000000; stroke-width: 0.228899; stroke-linejoin: miter"/>
   </g>
   <g id="patch_96">
    <path d="M 519.815566 381.670312 
L 521.99751 381.670312 
L 521.99751 381.670312 
L 519.815566 381.670312 
z
" clip-path="url(#pe09f7e7d9c)" style="fill: #edd1cb; fill-opacity: 0.5; stroke: #000000; stroke-width: 0.228899; stroke-linejoin: miter"/>
   </g>
   <g id="patch_97">
    <path d="M 524.179454 381.670312 
L 526.361398 381.670312 
L 526.361398 381.670312 
L 524.179454 381.670312 
z
" clip-path="url(#pe09f7e7d9c)" style="fill: #edd1cb; fill-opacity: 0.5; stroke: #000000; stroke-width: 0.228899; stroke-linejoin: miter"/>
   </g>
   <g id="patch_98">
    <path d="M 528.543342 381.670312 
L 530.725286 381.670312 
L 530.725286 381.670312 
L 528.543342 381.670312 
z
" clip-path="url(#pe09f7e7d9c)" style="fill: #edd1cb; fill-opacity: 0.5; stroke: #000000; stroke-width: 0.228899; stroke-linejoin: miter"/>
   </g>
   <g id="patch_99">
    <path d="M 532.90723 381.670312 
L 535.089173 381.670312 
L 535.089173 381.670312 
L 532.90723 381.670312 
z
" clip-path="url(#pe09f7e7d9c)" style="fill: #edd1cb; fill-opacity: 0.5; stroke: #000000; stroke-width: 0.228899; stroke-linejoin: miter"/>
   </g>
   <g id="patch_100">
    <path d="M 537.271117 381.670312 
L 539.453061 381.670312 
L 539.453061 381.670312 
L 537.271117 381.670312 
z
" clip-path="url(#pe09f7e7d9c)" style="fill: #edd1cb; fill-opacity: 0.5; stroke: #000000; stroke-width: 0.228899; stroke-linejoin: miter"/>
   </g>
   <g id="patch_101">
    <path d="M 541.635005 381.670312 
L 543.816949 381.670312 
L 543.816949 381.670312 
L 541.635005 381.670312 
z
" clip-path="url(#pe09f7e7d9c)" style="fill: #edd1cb; fill-opacity: 0.5; stroke: #000000; stroke-width: 0.228899; stroke-linejoin: miter"/>
   </g>
   <g id="patch_102">
    <path d="M 545.998893 381.670312 
L 548.180837 381.670312 
L 548.180837 381.670312 
L 545.998893 381.670312 
z
" clip-path="url(#pe09f7e7d9c)" style="fill: #edd1cb; fill-opacity: 0.5; stroke: #000000; stroke-width: 0.228899; stroke-linejoin: miter"/>
   </g>
   <g id="patch_103">
    <path d="M 550.362781 381.670312 
L 552.544725 381.670312 
L 552.544725 353.987054 
L 550.362781 353.987054 
z
" clip-path="url(#pe09f7e7d9c)" style="fill: #edd1cb; fill-opacity: 0.5; stroke: #000000; stroke-width: 0.228899; stroke-linejoin: miter"/>
   </g>
   <g id="matplotlib.axis_3">
    <g id="xtick_3">
     <g id="line2d_21">
      <g>
       <use xlink:href="#m4c99cd72f3" x="340.985221" y="391.670312" style="stroke: #000000; stroke-width: 0.8"/>
      </g>
     </g>
     <g id="text_11">
      <!-- 0 -->
      <g transform="translate(338.204752 405.828125) scale(0.1 -0.1)">
       <use xlink:href="#ArialMT-30"/>
      </g>
     </g>
    </g>
    <g id="xtick_4">
     <g id="line2d_22">
      <g>
       <use xlink:href="#m4c99cd72f3" x="383.73351" y="391.670312" style="stroke: #000000; stroke-width: 0.8"/>
      </g>
     </g>
     <g id="text_12">
      <!-- 10 -->
      <g transform="translate(378.172573 405.828125) scale(0.1 -0.1)">
       <use xlink:href="#ArialMT-31"/>
       <use xlink:href="#ArialMT-30" x="55.615234"/>
      </g>
     </g>
    </g>
    <g id="xtick_5">
     <g id="line2d_23">
      <g>
       <use xlink:href="#m4c99cd72f3" x="426.4818" y="391.670312" style="stroke: #000000; stroke-width: 0.8"/>
      </g>
     </g>
     <g id="text_13">
      <!-- 20 -->
      <g transform="translate(420.920863 405.828125) scale(0.1 -0.1)">
       <use xlink:href="#ArialMT-32"/>
       <use xlink:href="#ArialMT-30" x="55.615234"/>
      </g>
     </g>
    </g>
    <g id="xtick_6">
     <g id="line2d_24">
      <g>
       <use xlink:href="#m4c99cd72f3" x="469.23009" y="391.670312" style="stroke: #000000; stroke-width: 0.8"/>
      </g>
     </g>
     <g id="text_14">
      <!-- 30 -->
      <g transform="translate(463.669152 405.828125) scale(0.1 -0.1)">
       <use xlink:href="#ArialMT-33"/>
       <use xlink:href="#ArialMT-30" x="55.615234"/>
      </g>
     </g>
    </g>
    <g id="xtick_7">
     <g id="line2d_25">
      <g>
       <use xlink:href="#m4c99cd72f3" x="511.978379" y="391.670312" style="stroke: #000000; stroke-width: 0.8"/>
      </g>
     </g>
     <g id="text_15">
      <!-- 40 -->
      <g transform="translate(506.417442 405.828125) scale(0.1 -0.1)">
       <use xlink:href="#ArialMT-34"/>
       <use xlink:href="#ArialMT-30" x="55.615234"/>
      </g>
     </g>
    </g>
    <g id="xtick_8">
     <g id="line2d_26">
      <g>
       <use xlink:href="#m4c99cd72f3" x="554.726669" y="391.670312" style="stroke: #000000; stroke-width: 0.8"/>
      </g>
     </g>
     <g id="text_16">
      <!-- 50 -->
      <g transform="translate(549.165732 405.828125) scale(0.1 -0.1)">
       <use xlink:href="#ArialMT-35"/>
       <use xlink:href="#ArialMT-30" x="55.615234"/>
      </g>
     </g>
    </g>
    <g id="text_17">
     <!-- Contract duration in years -->
     <g transform="translate(392.746484 419.095312) scale(0.1 -0.1)">
      <use xlink:href="#ArialMT-43"/>
      <use xlink:href="#ArialMT-6f" x="72.216797"/>
      <use xlink:href="#ArialMT-6e" x="127.832031"/>
      <use xlink:href="#ArialMT-74" x="183.447266"/>
      <use xlink:href="#ArialMT-72" x="211.230469"/>
      <use xlink:href="#ArialMT-61" x="244.53125"/>
      <use xlink:href="#ArialMT-63" x="300.146484"/>
      <use xlink:href="#ArialMT-74" x="350.146484"/>
      <use xlink:href="#ArialMT-20" x="377.929688"/>
      <use xlink:href="#ArialMT-64" x="405.712891"/>
      <use xlink:href="#ArialMT-75" x="461.328125"/>
      <use xlink:href="#ArialMT-72" x="516.943359"/>
      <use xlink:href="#ArialMT-61" x="550.244141"/>
      <use xlink:href="#ArialMT-74" x="605.859375"/>
      <use xlink:href="#ArialMT-69" x="633.642578"/>
      <use xlink:href="#ArialMT-6f" x="655.859375"/>
      <use xlink:href="#ArialMT-6e" x="711.474609"/>
      <use xlink:href="#ArialMT-20" x="767.089844"/>
      <use xlink:href="#ArialMT-69" x="794.873047"/>
      <use xlink:href="#ArialMT-6e" x="817.089844"/>
      <use xlink:href="#ArialMT-20" x="872.705078"/>
      <use xlink:href="#ArialMT-79" x="900.488281"/>
      <use xlink:href="#ArialMT-65" x="950.488281"/>
      <use xlink:href="#ArialMT-61" x="1006.103516"/>
      <use xlink:href="#ArialMT-72" x="1061.71875"/>
      <use xlink:href="#ArialMT-73" x="1095.019531"/>
     </g>
    </g>
   </g>
   <g id="matplotlib.axis_4">
    <g id="ytick_7">
     <g id="line2d_27">
      <g>
       <use xlink:href="#m8e343aef83" x="324.786719" y="381.670312" style="stroke: #000000; stroke-width: 0.8"/>
      </g>
     </g>
     <g id="text_18">
      <!-- 0 -->
      <g transform="translate(312.225781 385.249219) scale(0.1 -0.1)">
       <use xlink:href="#ArialMT-30"/>
      </g>
     </g>
    </g>
    <g id="ytick_8">
     <g id="line2d_28">
      <g>
       <use xlink:href="#m8e343aef83" x="324.786719" y="326.303795" style="stroke: #000000; stroke-width: 0.8"/>
      </g>
     </g>
     <g id="text_19">
      <!-- 2 -->
      <g transform="translate(312.225781 329.882701) scale(0.1 -0.1)">
       <use xlink:href="#ArialMT-32"/>
      </g>
     </g>
    </g>
    <g id="ytick_9">
     <g id="line2d_29">
      <g>
       <use xlink:href="#m8e343aef83" x="324.786719" y="270.937277" style="stroke: #000000; stroke-width: 0.8"/>
      </g>
     </g>
     <g id="text_20">
      <!-- 4 -->
      <g transform="translate(312.225781 274.516183) scale(0.1 -0.1)">
       <use xlink:href="#ArialMT-34"/>
      </g>
     </g>
    </g>
    <g id="ytick_10">
     <g id="line2d_30">
      <g>
       <use xlink:href="#m8e343aef83" x="324.786719" y="215.570759" style="stroke: #000000; stroke-width: 0.8"/>
      </g>
     </g>
     <g id="text_21">
      <!-- 6 -->
      <g transform="translate(312.225781 219.149665) scale(0.1 -0.1)">
       <defs>
        <path id="ArialMT-36" d="M 3184 3459 
L 2625 3416 
Q 2550 3747 2413 3897 
Q 2184 4138 1850 4138 
Q 1581 4138 1378 3988 
Q 1113 3794 959 3422 
Q 806 3050 800 2363 
Q 1003 2672 1297 2822 
Q 1591 2972 1913 2972 
Q 2475 2972 2870 2558 
Q 3266 2144 3266 1488 
Q 3266 1056 3080 686 
Q 2894 316 2569 119 
Q 2244 -78 1831 -78 
Q 1128 -78 684 439 
Q 241 956 241 2144 
Q 241 3472 731 4075 
Q 1159 4600 1884 4600 
Q 2425 4600 2770 4297 
Q 3116 3994 3184 3459 
z
M 888 1484 
Q 888 1194 1011 928 
Q 1134 663 1356 523 
Q 1578 384 1822 384 
Q 2178 384 2434 671 
Q 2691 959 2691 1453 
Q 2691 1928 2437 2201 
Q 2184 2475 1800 2475 
Q 1419 2475 1153 2201 
Q 888 1928 888 1484 
z
" transform="scale(0.015625)"/>
       </defs>
       <use xlink:href="#ArialMT-36"/>
      </g>
     </g>
    </g>
    <g id="ytick_11">
     <g id="line2d_31">
      <g>
       <use xlink:href="#m8e343aef83" x="324.786719" y="160.204241" style="stroke: #000000; stroke-width: 0.8"/>
      </g>
     </g>
     <g id="text_22">
      <!-- 8 -->
      <g transform="translate(312.225781 163.783147) scale(0.1 -0.1)">
       <use xlink:href="#ArialMT-38"/>
      </g>
     </g>
    </g>
    <g id="ytick_12">
     <g id="line2d_32">
      <g>
       <use xlink:href="#m8e343aef83" x="324.786719" y="104.837723" style="stroke: #000000; stroke-width: 0.8"/>
      </g>
     </g>
     <g id="text_23">
      <!-- 10 -->
      <g transform="translate(306.664844 108.416629) scale(0.1 -0.1)">
       <use xlink:href="#ArialMT-31"/>
       <use xlink:href="#ArialMT-30" x="55.615234"/>
      </g>
     </g>
    </g>
    <g id="ytick_13">
     <g id="line2d_33">
      <g>
       <use xlink:href="#m8e343aef83" x="324.786719" y="49.471205" style="stroke: #000000; stroke-width: 0.8"/>
      </g>
     </g>
     <g id="text_24">
      <!-- 12 -->
      <g transform="translate(306.664844 53.050112) scale(0.1 -0.1)">
       <use xlink:href="#ArialMT-31"/>
       <use xlink:href="#ArialMT-32" x="55.615234"/>
      </g>
     </g>
    </g>
    <g id="text_25">
     <!-- Count -->
     <g transform="translate(300.677344 220.607188) rotate(-90) scale(0.1 -0.1)">
      <use xlink:href="#ArialMT-43"/>
      <use xlink:href="#ArialMT-6f" x="72.216797"/>
      <use xlink:href="#ArialMT-75" x="127.832031"/>
      <use xlink:href="#ArialMT-6e" x="183.447266"/>
      <use xlink:href="#ArialMT-74" x="239.0625"/>
     </g>
    </g>
   </g>
   <g id="line2d_34">
    <path d="M 345.26005 259.136985 
L 346.312646 236.784817 
L 347.365242 220.90261 
L 348.417838 213.740505 
L 349.470434 216.901201 
L 350.52303 229.615116 
L 352.628222 263.501409 
L 353.680818 271.406 
L 354.733414 268.788485 
L 356.838607 248.691685 
L 357.891203 247.177215 
L 358.943799 259.013868 
L 359.996395 282.739326 
L 362.101587 338.693319 
L 363.154183 358.708283 
L 364.206779 371.030382 
L 365.259375 377.398009 
L 366.311971 380.184439 
L 367.364567 381.222817 
L 368.417163 381.553626 
L 370.522356 381.665164 
L 398.94245 381.670312 
L 554.726669 381.670312 
L 554.726669 381.670312 
" clip-path="url(#pe09f7e7d9c)" style="fill: none; stroke: #2d1e3e; stroke-width: 1.5; stroke-linecap: square"/>
   </g>
   <g id="line2d_35">
    <path d="M 345.26005 328.640392 
L 347.365242 327.033881 
L 349.470434 325.792915 
L 351.575626 324.942746 
L 353.680818 324.500055 
L 355.78601 324.472313 
L 357.891203 324.857475 
L 359.996395 325.644014 
L 362.101587 326.811313 
L 364.206779 328.330371 
L 366.311971 330.16481 
L 368.417163 332.27212 
L 371.574952 335.840523 
L 375.785336 341.090631 
L 384.206105 351.769898 
L 387.363893 355.38815 
L 390.521681 358.627482 
L 392.626873 360.543646 
L 394.732065 362.251337 
L 396.837257 363.74559 
L 398.94245 365.027046 
L 401.047642 366.101385 
L 403.152834 366.978677 
L 405.258026 367.672672 
L 407.363218 368.200053 
L 410.521006 368.720457 
L 413.678795 368.978071 
L 417.889179 369.036643 
L 425.257352 368.802631 
L 431.572928 368.708487 
L 435.783312 368.855769 
L 439.993697 369.220967 
L 444.204081 369.810832 
L 448.414465 370.605141 
L 453.677446 371.82154 
L 473.676771 376.776502 
L 478.939751 377.707882 
L 484.202732 378.387011 
L 489.465712 378.824353 
L 495.781289 379.085163 
L 503.149461 379.146007 
L 547.358496 379.064192 
L 554.726669 379.236442 
L 554.726669 379.236442 
" clip-path="url(#pe09f7e7d9c)" style="fill: none; stroke: #edd1cb; stroke-width: 1.5; stroke-linecap: square"/>
   </g>
   <g id="patch_104">
    <path d="M 324.786719 381.670312 
L 324.786719 49.471205 
" style="fill: none; stroke: #000000; stroke-width: 0.8; stroke-linejoin: miter; stroke-linecap: square"/>
   </g>
   <g id="patch_105">
    <path d="M 340.985221 391.670312 
L 554.726669 391.670312 
" style="fill: none; stroke: #000000; stroke-width: 0.8; stroke-linejoin: miter; stroke-linecap: square"/>
   </g>
   <g id="legend_1">
    <g id="patch_106">
     <path d="M 503.95625 83.297188 
L 558.2 83.297188 
Q 560.2 83.297188 560.2 81.297188 
L 560.2 39.86125 
Q 560.2 37.86125 558.2 37.86125 
L 503.95625 37.86125 
Q 501.95625 37.86125 501.95625 39.86125 
L 501.95625 81.297188 
Q 501.95625 83.297188 503.95625 83.297188 
z
" style="fill: #ffffff; opacity: 0.8; stroke: #cccccc; stroke-linejoin: miter"/>
    </g>
    <g id="text_26">
     <!-- Year -->
     <g transform="translate(520.973437 49.019063) scale(0.1 -0.1)">
      <use xlink:href="#ArialMT-59"/>
      <use xlink:href="#ArialMT-65" x="57.574219"/>
      <use xlink:href="#ArialMT-61" x="113.189453"/>
      <use xlink:href="#ArialMT-72" x="168.804688"/>
     </g>
    </g>
    <g id="patch_107">
     <path d="M 505.95625 63.164375 
L 525.95625 63.164375 
L 525.95625 56.164375 
L 505.95625 56.164375 
z
" style="fill: #edd1cb; fill-opacity: 0.5; stroke: #000000; stroke-linejoin: miter"/>
    </g>
    <g id="text_27">
     <!-- 2018 -->
     <g transform="translate(533.95625 63.164375) scale(0.1 -0.1)">
      <use xlink:href="#ArialMT-32"/>
      <use xlink:href="#ArialMT-30" x="55.615234"/>
      <use xlink:href="#ArialMT-31" x="111.230469"/>
      <use xlink:href="#ArialMT-38" x="166.845703"/>
     </g>
    </g>
    <g id="patch_108">
     <path d="M 505.95625 77.309688 
L 525.95625 77.309688 
L 525.95625 70.309688 
L 505.95625 70.309688 
z
" style="fill: #2d1e3e; fill-opacity: 0.5; stroke: #000000; stroke-linejoin: miter"/>
    </g>
    <g id="text_28">
     <!-- 2022 -->
     <g transform="translate(533.95625 77.309688) scale(0.1 -0.1)">
      <use xlink:href="#ArialMT-32"/>
      <use xlink:href="#ArialMT-30" x="55.615234"/>
      <use xlink:href="#ArialMT-32" x="111.230469"/>
      <use xlink:href="#ArialMT-32" x="166.845703"/>
     </g>
    </g>
   </g>
  </g>
  <g id="text_29">
   <!-- Duration of contract in years for Netherlands (without 95 percentile) -->
   <g transform="translate(109.591875 17.375625) scale(0.12 -0.12)">
    <defs>
     <path id="ArialMT-44" d="M 494 0 
L 494 4581 
L 2072 4581 
Q 2606 4581 2888 4516 
Q 3281 4425 3559 4188 
Q 3922 3881 4101 3404 
Q 4281 2928 4281 2316 
Q 4281 1794 4159 1391 
Q 4038 988 3847 723 
Q 3656 459 3429 307 
Q 3203 156 2883 78 
Q 2563 0 2147 0 
L 494 0 
z
M 1100 541 
L 2078 541 
Q 2531 541 2789 625 
Q 3047 709 3200 863 
Q 3416 1078 3536 1442 
Q 3656 1806 3656 2325 
Q 3656 3044 3420 3430 
Q 3184 3816 2847 3947 
Q 2603 4041 2063 4041 
L 1100 4041 
L 1100 541 
z
" transform="scale(0.015625)"/>
     <path id="ArialMT-66" d="M 556 0 
L 556 2881 
L 59 2881 
L 59 3319 
L 556 3319 
L 556 3672 
Q 556 4006 616 4169 
Q 697 4388 901 4523 
Q 1106 4659 1475 4659 
Q 1713 4659 2000 4603 
L 1916 4113 
Q 1741 4144 1584 4144 
Q 1328 4144 1222 4034 
Q 1116 3925 1116 3625 
L 1116 3319 
L 1763 3319 
L 1763 2881 
L 1116 2881 
L 1116 0 
L 556 0 
z
" transform="scale(0.015625)"/>
     <path id="ArialMT-4e" d="M 488 0 
L 488 4581 
L 1109 4581 
L 3516 984 
L 3516 4581 
L 4097 4581 
L 4097 0 
L 3475 0 
L 1069 3600 
L 1069 0 
L 488 0 
z
" transform="scale(0.015625)"/>
     <path id="ArialMT-68" d="M 422 0 
L 422 4581 
L 984 4581 
L 984 2938 
Q 1378 3394 1978 3394 
Q 2347 3394 2619 3248 
Q 2891 3103 3008 2847 
Q 3125 2591 3125 2103 
L 3125 0 
L 2563 0 
L 2563 2103 
Q 2563 2525 2380 2717 
Q 2197 2909 1863 2909 
Q 1613 2909 1392 2779 
Q 1172 2650 1078 2428 
Q 984 2206 984 1816 
L 984 0 
L 422 0 
z
" transform="scale(0.015625)"/>
     <path id="ArialMT-6c" d="M 409 0 
L 409 4581 
L 972 4581 
L 972 0 
L 409 0 
z
" transform="scale(0.015625)"/>
     <path id="ArialMT-28" d="M 1497 -1347 
Q 1031 -759 709 28 
Q 388 816 388 1659 
Q 388 2403 628 3084 
Q 909 3875 1497 4659 
L 1900 4659 
Q 1522 4009 1400 3731 
Q 1209 3300 1100 2831 
Q 966 2247 966 1656 
Q 966 153 1900 -1347 
L 1497 -1347 
z
" transform="scale(0.015625)"/>
     <path id="ArialMT-77" d="M 1034 0 
L 19 3319 
L 600 3319 
L 1128 1403 
L 1325 691 
Q 1338 744 1497 1375 
L 2025 3319 
L 2603 3319 
L 3100 1394 
L 3266 759 
L 3456 1400 
L 4025 3319 
L 4572 3319 
L 3534 0 
L 2950 0 
L 2422 1988 
L 2294 2553 
L 1622 0 
L 1034 0 
z
" transform="scale(0.015625)"/>
     <path id="ArialMT-39" d="M 350 1059 
L 891 1109 
Q 959 728 1153 556 
Q 1347 384 1650 384 
Q 1909 384 2104 503 
Q 2300 622 2425 820 
Q 2550 1019 2634 1356 
Q 2719 1694 2719 2044 
Q 2719 2081 2716 2156 
Q 2547 1888 2255 1720 
Q 1963 1553 1622 1553 
Q 1053 1553 659 1965 
Q 266 2378 266 3053 
Q 266 3750 677 4175 
Q 1088 4600 1706 4600 
Q 2153 4600 2523 4359 
Q 2894 4119 3086 3673 
Q 3278 3228 3278 2384 
Q 3278 1506 3087 986 
Q 2897 466 2520 194 
Q 2144 -78 1638 -78 
Q 1100 -78 759 220 
Q 419 519 350 1059 
z
M 2653 3081 
Q 2653 3566 2395 3850 
Q 2138 4134 1775 4134 
Q 1400 4134 1122 3828 
Q 844 3522 844 3034 
Q 844 2597 1108 2323 
Q 1372 2050 1759 2050 
Q 2150 2050 2401 2323 
Q 2653 2597 2653 3081 
z
" transform="scale(0.015625)"/>
     <path id="ArialMT-70" d="M 422 -1272 
L 422 3319 
L 934 3319 
L 934 2888 
Q 1116 3141 1344 3267 
Q 1572 3394 1897 3394 
Q 2322 3394 2647 3175 
Q 2972 2956 3137 2557 
Q 3303 2159 3303 1684 
Q 3303 1175 3120 767 
Q 2938 359 2589 142 
Q 2241 -75 1856 -75 
Q 1575 -75 1351 44 
Q 1128 163 984 344 
L 984 -1272 
L 422 -1272 
z
M 931 1641 
Q 931 1000 1190 694 
Q 1450 388 1819 388 
Q 2194 388 2461 705 
Q 2728 1022 2728 1688 
Q 2728 2322 2467 2637 
Q 2206 2953 1844 2953 
Q 1484 2953 1207 2617 
Q 931 2281 931 1641 
z
" transform="scale(0.015625)"/>
     <path id="ArialMT-29" d="M 791 -1347 
L 388 -1347 
Q 1322 153 1322 1656 
Q 1322 2244 1188 2822 
Q 1081 3291 891 3722 
Q 769 4003 388 4659 
L 791 4659 
Q 1378 3875 1659 3084 
Q 1900 2403 1900 1659 
Q 1900 816 1576 28 
Q 1253 -759 791 -1347 
z
" transform="scale(0.015625)"/>
    </defs>
    <use xlink:href="#ArialMT-44"/>
    <use xlink:href="#ArialMT-75" x="72.216797"/>
    <use xlink:href="#ArialMT-72" x="127.832031"/>
    <use xlink:href="#ArialMT-61" x="161.132812"/>
    <use xlink:href="#ArialMT-74" x="216.748047"/>
    <use xlink:href="#ArialMT-69" x="244.53125"/>
    <use xlink:href="#ArialMT-6f" x="266.748047"/>
    <use xlink:href="#ArialMT-6e" x="322.363281"/>
    <use xlink:href="#ArialMT-20" x="377.978516"/>
    <use xlink:href="#ArialMT-6f" x="405.761719"/>
    <use xlink:href="#ArialMT-66" x="461.376953"/>
    <use xlink:href="#ArialMT-20" x="489.160156"/>
    <use xlink:href="#ArialMT-63" x="516.943359"/>
    <use xlink:href="#ArialMT-6f" x="566.943359"/>
    <use xlink:href="#ArialMT-6e" x="622.558594"/>
    <use xlink:href="#ArialMT-74" x="678.173828"/>
    <use xlink:href="#ArialMT-72" x="705.957031"/>
    <use xlink:href="#ArialMT-61" x="739.257812"/>
    <use xlink:href="#ArialMT-63" x="794.873047"/>
    <use xlink:href="#ArialMT-74" x="844.873047"/>
    <use xlink:href="#ArialMT-20" x="872.65625"/>
    <use xlink:href="#ArialMT-69" x="900.439453"/>
    <use xlink:href="#ArialMT-6e" x="922.65625"/>
    <use xlink:href="#ArialMT-20" x="978.271484"/>
    <use xlink:href="#ArialMT-79" x="1006.054688"/>
    <use xlink:href="#ArialMT-65" x="1056.054688"/>
    <use xlink:href="#ArialMT-61" x="1111.669922"/>
    <use xlink:href="#ArialMT-72" x="1167.285156"/>
    <use xlink:href="#ArialMT-73" x="1200.585938"/>
    <use xlink:href="#ArialMT-20" x="1250.585938"/>
    <use xlink:href="#ArialMT-66" x="1278.369141"/>
    <use xlink:href="#ArialMT-6f" x="1306.152344"/>
    <use xlink:href="#ArialMT-72" x="1361.767578"/>
    <use xlink:href="#ArialMT-20" x="1395.068359"/>
    <use xlink:href="#ArialMT-4e" x="1422.851562"/>
    <use xlink:href="#ArialMT-65" x="1495.068359"/>
    <use xlink:href="#ArialMT-74" x="1550.683594"/>
    <use xlink:href="#ArialMT-68" x="1578.466797"/>
    <use xlink:href="#ArialMT-65" x="1634.082031"/>
    <use xlink:href="#ArialMT-72" x="1689.697266"/>
    <use xlink:href="#ArialMT-6c" x="1722.998047"/>
    <use xlink:href="#ArialMT-61" x="1745.214844"/>
    <use xlink:href="#ArialMT-6e" x="1800.830078"/>
    <use xlink:href="#ArialMT-64" x="1856.445312"/>
    <use xlink:href="#ArialMT-73" x="1912.060547"/>
    <use xlink:href="#ArialMT-20" x="1962.060547"/>
    <use xlink:href="#ArialMT-28" x="1989.84375"/>
    <use xlink:href="#ArialMT-77" x="2023.144531"/>
    <use xlink:href="#ArialMT-69" x="2095.361328"/>
    <use xlink:href="#ArialMT-74" x="2117.578125"/>
    <use xlink:href="#ArialMT-68" x="2145.361328"/>
    <use xlink:href="#ArialMT-6f" x="2200.976562"/>
    <use xlink:href="#ArialMT-75" x="2256.591797"/>
    <use xlink:href="#ArialMT-74" x="2312.207031"/>
    <use xlink:href="#ArialMT-20" x="2339.990234"/>
    <use xlink:href="#ArialMT-39" x="2367.773438"/>
    <use xlink:href="#ArialMT-35" x="2423.388672"/>
    <use xlink:href="#ArialMT-20" x="2479.003906"/>
    <use xlink:href="#ArialMT-70" x="2506.787109"/>
    <use xlink:href="#ArialMT-65" x="2562.402344"/>
    <use xlink:href="#ArialMT-72" x="2618.017578"/>
    <use xlink:href="#ArialMT-63" x="2651.318359"/>
    <use xlink:href="#ArialMT-65" x="2701.318359"/>
    <use xlink:href="#ArialMT-6e" x="2756.933594"/>
    <use xlink:href="#ArialMT-74" x="2812.548828"/>
    <use xlink:href="#ArialMT-69" x="2840.332031"/>
    <use xlink:href="#ArialMT-6c" x="2862.548828"/>
    <use xlink:href="#ArialMT-65" x="2884.765625"/>
    <use xlink:href="#ArialMT-29" x="2940.380859"/>
   </g>
  </g>
 </g>
 <defs>
  <clipPath id="pe0008e9c11">
   <rect x="52.30625" y="32.86125" width="230.413281" height="348.809062"/>
  </clipPath>
  <clipPath id="pe09f7e7d9c">
   <rect x="334.786719" y="32.86125" width="230.413281" height="348.809062"/>
  </clipPath>
 </defs>
</svg>
