<?xml version="1.0" encoding="utf-8" standalone="no"?>
<!DOCTYPE svg PUBLIC "-//W3C//DTD SVG 1.1//EN"
  "http://www.w3.org/Graphics/SVG/1.1/DTD/svg11.dtd">
<svg xmlns:xlink="http://www.w3.org/1999/xlink" width="576pt" height="600pt" viewBox="0 0 576 600" xmlns="http://www.w3.org/2000/svg" version="1.1">
 <metadata>
  <rdf:RDF xmlns:dc="http://purl.org/dc/elements/1.1/" xmlns:cc="http://creativecommons.org/ns#" xmlns:rdf="http://www.w3.org/1999/02/22-rdf-syntax-ns#">
   <cc:Work>
    <dc:type rdf:resource="http://purl.org/dc/dcmitype/StillImage"/>
    <dc:date>2022-10-13T10:41:44.188867</dc:date>
    <dc:format>image/svg+xml</dc:format>
    <dc:creator>
     <cc:Agent>
      <dc:title>Matplotlib v3.6.1, https://matplotlib.org/</dc:title>
     </cc:Agent>
    </dc:creator>
   </cc:Work>
  </rdf:RDF>
 </metadata>
 <defs>
  <style type="text/css">*{stroke-linejoin: round; stroke-linecap: butt}</style>
 </defs>
 <g id="figure_1">
  <g id="patch_1">
   <path d="M 0 600 
L 576 600 
L 576 0 
L 0 0 
z
" style="fill: #ffffff"/>
  </g>
  <g id="axes_1">
   <g id="patch_2">
    <path d="M 130.620313 573.054687 
L 489.814968 573.054687 
L 489.814968 25.389375 
L 130.620313 25.389375 
z
" style="fill: #ffffff"/>
   </g>
   <g id="patch_3">
    <path d="M 130.620313 548.16081 
L 130.620313 548.16081 
L 130.620313 529.890074 
L 130.620313 529.890074 
z
" clip-path="url(#p8d521793c7)" style="fill: #1f77b4"/>
   </g>
   <g id="patch_4">
    <path d="M 130.620313 525.32239 
L 137.327962 525.32239 
L 137.327962 507.051654 
L 130.620313 507.051654 
z
" clip-path="url(#p8d521793c7)" style="fill: #1f77b4"/>
   </g>
   <g id="patch_5">
    <path d="M 130.620313 502.48397 
L 137.327962 502.48397 
L 137.327962 484.213234 
L 130.620313 484.213234 
z
" clip-path="url(#p8d521793c7)" style="fill: #1f77b4"/>
   </g>
   <g id="patch_6">
    <path d="M 130.620313 479.64555 
L 137.327962 479.64555 
L 137.327962 461.374814 
L 130.620313 461.374814 
z
" clip-path="url(#p8d521793c7)" style="fill: #1f77b4"/>
   </g>
   <g id="patch_7">
    <path d="M 130.620313 456.80713 
L 137.327962 456.80713 
L 137.327962 438.536393 
L 130.620313 438.536393 
z
" clip-path="url(#p8d521793c7)" style="fill: #1f77b4"/>
   </g>
   <g id="patch_8">
    <path d="M 130.620313 433.968709 
L 137.327962 433.968709 
L 137.327962 415.697973 
L 130.620313 415.697973 
z
" clip-path="url(#p8d521793c7)" style="fill: #1f77b4"/>
   </g>
   <g id="patch_9">
    <path d="M 130.620313 411.130289 
L 144.035612 411.130289 
L 144.035612 392.859553 
L 130.620313 392.859553 
z
" clip-path="url(#p8d521793c7)" style="fill: #1f77b4"/>
   </g>
   <g id="patch_10">
    <path d="M 130.620313 388.291869 
L 144.035612 388.291869 
L 144.035612 370.021133 
L 130.620313 370.021133 
z
" clip-path="url(#p8d521793c7)" style="fill: #1f77b4"/>
   </g>
   <g id="patch_11">
    <path d="M 130.620313 365.453449 
L 144.035612 365.453449 
L 144.035612 347.182713 
L 130.620313 347.182713 
z
" clip-path="url(#p8d521793c7)" style="fill: #1f77b4"/>
   </g>
   <g id="patch_12">
    <path d="M 130.620313 342.615029 
L 150.743262 342.615029 
L 150.743262 324.344293 
L 130.620313 324.344293 
z
" clip-path="url(#p8d521793c7)" style="fill: #1f77b4"/>
   </g>
   <g id="patch_13">
    <path d="M 130.620313 319.776609 
L 157.450912 319.776609 
L 157.450912 301.505873 
L 130.620313 301.505873 
z
" clip-path="url(#p8d521793c7)" style="fill: #1f77b4"/>
   </g>
   <g id="patch_14">
    <path d="M 130.620313 296.938189 
L 157.450912 296.938189 
L 157.450912 278.667453 
L 130.620313 278.667453 
z
" clip-path="url(#p8d521793c7)" style="fill: #1f77b4"/>
   </g>
   <g id="patch_15">
    <path d="M 130.620313 274.099769 
L 170.866212 274.099769 
L 170.866212 255.829033 
L 130.620313 255.829033 
z
" clip-path="url(#p8d521793c7)" style="fill: #1f77b4"/>
   </g>
   <g id="patch_16">
    <path d="M 130.620313 251.261349 
L 177.573862 251.261349 
L 177.573862 232.990613 
L 130.620313 232.990613 
z
" clip-path="url(#p8d521793c7)" style="fill: #1f77b4"/>
   </g>
   <g id="patch_17">
    <path d="M 130.620313 228.422929 
L 197.696812 228.422929 
L 197.696812 210.152193 
L 130.620313 210.152193 
z
" clip-path="url(#p8d521793c7)" style="fill: #1f77b4"/>
   </g>
   <g id="patch_18">
    <path d="M 130.620313 205.584509 
L 204.404462 205.584509 
L 204.404462 187.313773 
L 130.620313 187.313773 
z
" clip-path="url(#p8d521793c7)" style="fill: #1f77b4"/>
   </g>
   <g id="patch_19">
    <path d="M 130.620313 182.746089 
L 231.235062 182.746089 
L 231.235062 164.475353 
L 130.620313 164.475353 
z
" clip-path="url(#p8d521793c7)" style="fill: #1f77b4"/>
   </g>
   <g id="patch_20">
    <path d="M 130.620313 159.907669 
L 237.942712 159.907669 
L 237.942712 141.636933 
L 130.620313 141.636933 
z
" clip-path="url(#p8d521793c7)" style="fill: #1f77b4"/>
   </g>
   <g id="patch_21">
    <path d="M 130.620313 137.069249 
L 244.650362 137.069249 
L 244.650362 118.798513 
L 130.620313 118.798513 
z
" clip-path="url(#p8d521793c7)" style="fill: #1f77b4"/>
   </g>
   <g id="patch_22">
    <path d="M 130.620313 114.230829 
L 251.358012 114.230829 
L 251.358012 95.960093 
L 130.620313 95.960093 
z
" clip-path="url(#p8d521793c7)" style="fill: #1f77b4"/>
   </g>
   <g id="patch_23">
    <path d="M 130.620313 91.392409 
L 264.773312 91.392409 
L 264.773312 73.121673 
L 130.620313 73.121673 
z
" clip-path="url(#p8d521793c7)" style="fill: #1f77b4"/>
   </g>
   <g id="patch_24">
    <path d="M 130.620313 68.553989 
L 472.71046 68.553989 
L 472.71046 50.283253 
L 130.620313 50.283253 
z
" clip-path="url(#p8d521793c7)" style="fill: #1f77b4"/>
   </g>
   <g id="matplotlib.axis_1">
    <g id="xtick_1">
     <g id="line2d_1">
      <defs>
       <path id="m4c99cd72f3" d="M 0 0 
L 0 3.5 
" style="stroke: #000000; stroke-width: 0.8"/>
      </defs>
      <g>
       <use xlink:href="#m4c99cd72f3" x="130.620313" y="573.054687" style="stroke: #000000; stroke-width: 0.8"/>
      </g>
     </g>
     <g id="text_1">
      <!-- 0 -->
      <g transform="translate(127.839844 587.2125) scale(0.1 -0.1)">
       <defs>
        <path id="ArialMT-30" d="M 266 2259 
Q 266 3072 433 3567 
Q 600 4063 929 4331 
Q 1259 4600 1759 4600 
Q 2128 4600 2406 4451 
Q 2684 4303 2865 4023 
Q 3047 3744 3150 3342 
Q 3253 2941 3253 2259 
Q 3253 1453 3087 958 
Q 2922 463 2592 192 
Q 2263 -78 1759 -78 
Q 1097 -78 719 397 
Q 266 969 266 2259 
z
M 844 2259 
Q 844 1131 1108 757 
Q 1372 384 1759 384 
Q 2147 384 2411 759 
Q 2675 1134 2675 2259 
Q 2675 3391 2411 3762 
Q 2147 4134 1753 4134 
Q 1366 4134 1134 3806 
Q 844 3388 844 2259 
z
" transform="scale(0.015625)"/>
       </defs>
       <use xlink:href="#ArialMT-30"/>
      </g>
     </g>
    </g>
    <g id="xtick_2">
     <g id="line2d_2">
      <g>
       <use xlink:href="#m4c99cd72f3" x="174.890802" y="573.054687" style="stroke: #000000; stroke-width: 0.8"/>
      </g>
     </g>
     <g id="text_2">
      <!-- 10 -->
      <g transform="translate(169.329865 587.2125) scale(0.1 -0.1)">
       <defs>
        <path id="ArialMT-31" d="M 2384 0 
L 1822 0 
L 1822 3584 
Q 1619 3391 1289 3197 
Q 959 3003 697 2906 
L 697 3450 
Q 1169 3672 1522 3987 
Q 1875 4303 2022 4600 
L 2384 4600 
L 2384 0 
z
" transform="scale(0.015625)"/>
       </defs>
       <use xlink:href="#ArialMT-31"/>
       <use xlink:href="#ArialMT-30" x="55.615234"/>
      </g>
     </g>
    </g>
    <g id="xtick_3">
     <g id="line2d_3">
      <g>
       <use xlink:href="#m4c99cd72f3" x="219.161292" y="573.054687" style="stroke: #000000; stroke-width: 0.8"/>
      </g>
     </g>
     <g id="text_3">
      <!-- 20 -->
      <g transform="translate(213.600354 587.2125) scale(0.1 -0.1)">
       <defs>
        <path id="ArialMT-32" d="M 3222 541 
L 3222 0 
L 194 0 
Q 188 203 259 391 
Q 375 700 629 1000 
Q 884 1300 1366 1694 
Q 2113 2306 2375 2664 
Q 2638 3022 2638 3341 
Q 2638 3675 2398 3904 
Q 2159 4134 1775 4134 
Q 1369 4134 1125 3890 
Q 881 3647 878 3216 
L 300 3275 
Q 359 3922 746 4261 
Q 1134 4600 1788 4600 
Q 2447 4600 2831 4234 
Q 3216 3869 3216 3328 
Q 3216 3053 3103 2787 
Q 2991 2522 2730 2228 
Q 2469 1934 1863 1422 
Q 1356 997 1212 845 
Q 1069 694 975 541 
L 3222 541 
z
" transform="scale(0.015625)"/>
       </defs>
       <use xlink:href="#ArialMT-32"/>
       <use xlink:href="#ArialMT-30" x="55.615234"/>
      </g>
     </g>
    </g>
    <g id="xtick_4">
     <g id="line2d_4">
      <g>
       <use xlink:href="#m4c99cd72f3" x="263.431782" y="573.054687" style="stroke: #000000; stroke-width: 0.8"/>
      </g>
     </g>
     <g id="text_4">
      <!-- 30 -->
      <g transform="translate(257.870844 587.2125) scale(0.1 -0.1)">
       <defs>
        <path id="ArialMT-33" d="M 269 1209 
L 831 1284 
Q 928 806 1161 595 
Q 1394 384 1728 384 
Q 2125 384 2398 659 
Q 2672 934 2672 1341 
Q 2672 1728 2419 1979 
Q 2166 2231 1775 2231 
Q 1616 2231 1378 2169 
L 1441 2663 
Q 1497 2656 1531 2656 
Q 1891 2656 2178 2843 
Q 2466 3031 2466 3422 
Q 2466 3731 2256 3934 
Q 2047 4138 1716 4138 
Q 1388 4138 1169 3931 
Q 950 3725 888 3313 
L 325 3413 
Q 428 3978 793 4289 
Q 1159 4600 1703 4600 
Q 2078 4600 2393 4439 
Q 2709 4278 2876 4000 
Q 3044 3722 3044 3409 
Q 3044 3113 2884 2869 
Q 2725 2625 2413 2481 
Q 2819 2388 3044 2092 
Q 3269 1797 3269 1353 
Q 3269 753 2831 336 
Q 2394 -81 1725 -81 
Q 1122 -81 723 278 
Q 325 638 269 1209 
z
" transform="scale(0.015625)"/>
       </defs>
       <use xlink:href="#ArialMT-33"/>
       <use xlink:href="#ArialMT-30" x="55.615234"/>
      </g>
     </g>
    </g>
    <g id="xtick_5">
     <g id="line2d_5">
      <g>
       <use xlink:href="#m4c99cd72f3" x="307.702271" y="573.054687" style="stroke: #000000; stroke-width: 0.8"/>
      </g>
     </g>
     <g id="text_5">
      <!-- 40 -->
      <g transform="translate(302.141334 587.2125) scale(0.1 -0.1)">
       <defs>
        <path id="ArialMT-34" d="M 2069 0 
L 2069 1097 
L 81 1097 
L 81 1613 
L 2172 4581 
L 2631 4581 
L 2631 1613 
L 3250 1613 
L 3250 1097 
L 2631 1097 
L 2631 0 
L 2069 0 
z
M 2069 1613 
L 2069 3678 
L 634 1613 
L 2069 1613 
z
" transform="scale(0.015625)"/>
       </defs>
       <use xlink:href="#ArialMT-34"/>
       <use xlink:href="#ArialMT-30" x="55.615234"/>
      </g>
     </g>
    </g>
    <g id="xtick_6">
     <g id="line2d_6">
      <g>
       <use xlink:href="#m4c99cd72f3" x="351.972761" y="573.054687" style="stroke: #000000; stroke-width: 0.8"/>
      </g>
     </g>
     <g id="text_6">
      <!-- 50 -->
      <g transform="translate(346.411824 587.2125) scale(0.1 -0.1)">
       <defs>
        <path id="ArialMT-35" d="M 266 1200 
L 856 1250 
Q 922 819 1161 601 
Q 1400 384 1738 384 
Q 2144 384 2425 690 
Q 2706 997 2706 1503 
Q 2706 1984 2436 2262 
Q 2166 2541 1728 2541 
Q 1456 2541 1237 2417 
Q 1019 2294 894 2097 
L 366 2166 
L 809 4519 
L 3088 4519 
L 3088 3981 
L 1259 3981 
L 1013 2750 
Q 1425 3038 1878 3038 
Q 2478 3038 2890 2622 
Q 3303 2206 3303 1553 
Q 3303 931 2941 478 
Q 2500 -78 1738 -78 
Q 1113 -78 717 272 
Q 322 622 266 1200 
z
" transform="scale(0.015625)"/>
       </defs>
       <use xlink:href="#ArialMT-35"/>
       <use xlink:href="#ArialMT-30" x="55.615234"/>
      </g>
     </g>
    </g>
    <g id="xtick_7">
     <g id="line2d_7">
      <g>
       <use xlink:href="#m4c99cd72f3" x="396.243251" y="573.054687" style="stroke: #000000; stroke-width: 0.8"/>
      </g>
     </g>
     <g id="text_7">
      <!-- 60 -->
      <g transform="translate(390.682313 587.2125) scale(0.1 -0.1)">
       <defs>
        <path id="ArialMT-36" d="M 3184 3459 
L 2625 3416 
Q 2550 3747 2413 3897 
Q 2184 4138 1850 4138 
Q 1581 4138 1378 3988 
Q 1113 3794 959 3422 
Q 806 3050 800 2363 
Q 1003 2672 1297 2822 
Q 1591 2972 1913 2972 
Q 2475 2972 2870 2558 
Q 3266 2144 3266 1488 
Q 3266 1056 3080 686 
Q 2894 316 2569 119 
Q 2244 -78 1831 -78 
Q 1128 -78 684 439 
Q 241 956 241 2144 
Q 241 3472 731 4075 
Q 1159 4600 1884 4600 
Q 2425 4600 2770 4297 
Q 3116 3994 3184 3459 
z
M 888 1484 
Q 888 1194 1011 928 
Q 1134 663 1356 523 
Q 1578 384 1822 384 
Q 2178 384 2434 671 
Q 2691 959 2691 1453 
Q 2691 1928 2437 2201 
Q 2184 2475 1800 2475 
Q 1419 2475 1153 2201 
Q 888 1928 888 1484 
z
" transform="scale(0.015625)"/>
       </defs>
       <use xlink:href="#ArialMT-36"/>
       <use xlink:href="#ArialMT-30" x="55.615234"/>
      </g>
     </g>
    </g>
    <g id="xtick_8">
     <g id="line2d_8">
      <g>
       <use xlink:href="#m4c99cd72f3" x="440.513741" y="573.054687" style="stroke: #000000; stroke-width: 0.8"/>
      </g>
     </g>
     <g id="text_8">
      <!-- 70 -->
      <g transform="translate(434.952803 587.2125) scale(0.1 -0.1)">
       <defs>
        <path id="ArialMT-37" d="M 303 3981 
L 303 4522 
L 3269 4522 
L 3269 4084 
Q 2831 3619 2401 2847 
Q 1972 2075 1738 1259 
Q 1569 684 1522 0 
L 944 0 
Q 953 541 1156 1306 
Q 1359 2072 1739 2783 
Q 2119 3494 2547 3981 
L 303 3981 
z
" transform="scale(0.015625)"/>
       </defs>
       <use xlink:href="#ArialMT-37"/>
       <use xlink:href="#ArialMT-30" x="55.615234"/>
      </g>
     </g>
    </g>
    <g id="xtick_9">
     <g id="line2d_9">
      <g>
       <use xlink:href="#m4c99cd72f3" x="484.78423" y="573.054687" style="stroke: #000000; stroke-width: 0.8"/>
      </g>
     </g>
     <g id="text_9">
      <!-- 80 -->
      <g transform="translate(479.223293 587.2125) scale(0.1 -0.1)">
       <defs>
        <path id="ArialMT-38" d="M 1131 2484 
Q 781 2613 612 2850 
Q 444 3088 444 3419 
Q 444 3919 803 4259 
Q 1163 4600 1759 4600 
Q 2359 4600 2725 4251 
Q 3091 3903 3091 3403 
Q 3091 3084 2923 2848 
Q 2756 2613 2416 2484 
Q 2838 2347 3058 2040 
Q 3278 1734 3278 1309 
Q 3278 722 2862 322 
Q 2447 -78 1769 -78 
Q 1091 -78 675 323 
Q 259 725 259 1325 
Q 259 1772 486 2073 
Q 713 2375 1131 2484 
z
M 1019 3438 
Q 1019 3113 1228 2906 
Q 1438 2700 1772 2700 
Q 2097 2700 2305 2904 
Q 2513 3109 2513 3406 
Q 2513 3716 2298 3927 
Q 2084 4138 1766 4138 
Q 1444 4138 1231 3931 
Q 1019 3725 1019 3438 
z
M 838 1322 
Q 838 1081 952 856 
Q 1066 631 1291 507 
Q 1516 384 1775 384 
Q 2178 384 2440 643 
Q 2703 903 2703 1303 
Q 2703 1709 2433 1975 
Q 2163 2241 1756 2241 
Q 1359 2241 1098 1978 
Q 838 1716 838 1322 
z
" transform="scale(0.015625)"/>
       </defs>
       <use xlink:href="#ArialMT-38"/>
       <use xlink:href="#ArialMT-30" x="55.615234"/>
      </g>
     </g>
    </g>
   </g>
   <g id="matplotlib.axis_2">
    <g id="ytick_1">
     <g id="line2d_10">
      <defs>
       <path id="m8e343aef83" d="M 0 0 
L -3.5 0 
" style="stroke: #000000; stroke-width: 0.8"/>
      </defs>
      <g>
       <use xlink:href="#m8e343aef83" x="130.620313" y="539.025442" style="stroke: #000000; stroke-width: 0.8"/>
      </g>
     </g>
     <g id="text_10">
      <!-- Swift -->
      <g transform="translate(101.95 542.604348) scale(0.1 -0.1)">
       <defs>
        <path id="ArialMT-53" d="M 288 1472 
L 859 1522 
Q 900 1178 1048 958 
Q 1197 738 1509 602 
Q 1822 466 2213 466 
Q 2559 466 2825 569 
Q 3091 672 3220 851 
Q 3350 1031 3350 1244 
Q 3350 1459 3225 1620 
Q 3100 1781 2813 1891 
Q 2628 1963 1997 2114 
Q 1366 2266 1113 2400 
Q 784 2572 623 2826 
Q 463 3081 463 3397 
Q 463 3744 659 4045 
Q 856 4347 1234 4503 
Q 1613 4659 2075 4659 
Q 2584 4659 2973 4495 
Q 3363 4331 3572 4012 
Q 3781 3694 3797 3291 
L 3216 3247 
Q 3169 3681 2898 3903 
Q 2628 4125 2100 4125 
Q 1550 4125 1298 3923 
Q 1047 3722 1047 3438 
Q 1047 3191 1225 3031 
Q 1400 2872 2139 2705 
Q 2878 2538 3153 2413 
Q 3553 2228 3743 1945 
Q 3934 1663 3934 1294 
Q 3934 928 3725 604 
Q 3516 281 3123 101 
Q 2731 -78 2241 -78 
Q 1619 -78 1198 103 
Q 778 284 539 648 
Q 300 1013 288 1472 
z
" transform="scale(0.015625)"/>
        <path id="ArialMT-77" d="M 1034 0 
L 19 3319 
L 600 3319 
L 1128 1403 
L 1325 691 
Q 1338 744 1497 1375 
L 2025 3319 
L 2603 3319 
L 3100 1394 
L 3266 759 
L 3456 1400 
L 4025 3319 
L 4572 3319 
L 3534 0 
L 2950 0 
L 2422 1988 
L 2294 2553 
L 1622 0 
L 1034 0 
z
" transform="scale(0.015625)"/>
        <path id="ArialMT-69" d="M 425 3934 
L 425 4581 
L 988 4581 
L 988 3934 
L 425 3934 
z
M 425 0 
L 425 3319 
L 988 3319 
L 988 0 
L 425 0 
z
" transform="scale(0.015625)"/>
        <path id="ArialMT-66" d="M 556 0 
L 556 2881 
L 59 2881 
L 59 3319 
L 556 3319 
L 556 3672 
Q 556 4006 616 4169 
Q 697 4388 901 4523 
Q 1106 4659 1475 4659 
Q 1713 4659 2000 4603 
L 1916 4113 
Q 1741 4144 1584 4144 
Q 1328 4144 1222 4034 
Q 1116 3925 1116 3625 
L 1116 3319 
L 1763 3319 
L 1763 2881 
L 1116 2881 
L 1116 0 
L 556 0 
z
" transform="scale(0.015625)"/>
        <path id="ArialMT-74" d="M 1650 503 
L 1731 6 
Q 1494 -44 1306 -44 
Q 1000 -44 831 53 
Q 663 150 594 308 
Q 525 466 525 972 
L 525 2881 
L 113 2881 
L 113 3319 
L 525 3319 
L 525 4141 
L 1084 4478 
L 1084 3319 
L 1650 3319 
L 1650 2881 
L 1084 2881 
L 1084 941 
Q 1084 700 1114 631 
Q 1144 563 1211 522 
Q 1278 481 1403 481 
Q 1497 481 1650 503 
z
" transform="scale(0.015625)"/>
       </defs>
       <use xlink:href="#ArialMT-53"/>
       <use xlink:href="#ArialMT-77" x="66.699219"/>
       <use xlink:href="#ArialMT-69" x="138.916016"/>
       <use xlink:href="#ArialMT-66" x="161.132812"/>
       <use xlink:href="#ArialMT-74" x="188.916016"/>
      </g>
     </g>
    </g>
    <g id="ytick_2">
     <g id="line2d_11">
      <g>
       <use xlink:href="#m8e343aef83" x="130.620313" y="516.187022" style="stroke: #000000; stroke-width: 0.8"/>
      </g>
     </g>
     <g id="text_11">
      <!-- Groovy -->
      <g transform="translate(91.390625 519.826865) scale(0.1 -0.1)">
       <defs>
        <path id="ArialMT-47" d="M 2638 1797 
L 2638 2334 
L 4578 2338 
L 4578 638 
Q 4131 281 3656 101 
Q 3181 -78 2681 -78 
Q 2006 -78 1454 211 
Q 903 500 622 1047 
Q 341 1594 341 2269 
Q 341 2938 620 3517 
Q 900 4097 1425 4378 
Q 1950 4659 2634 4659 
Q 3131 4659 3532 4498 
Q 3934 4338 4162 4050 
Q 4391 3763 4509 3300 
L 3963 3150 
Q 3859 3500 3706 3700 
Q 3553 3900 3268 4020 
Q 2984 4141 2638 4141 
Q 2222 4141 1919 4014 
Q 1616 3888 1430 3681 
Q 1244 3475 1141 3228 
Q 966 2803 966 2306 
Q 966 1694 1177 1281 
Q 1388 869 1791 669 
Q 2194 469 2647 469 
Q 3041 469 3416 620 
Q 3791 772 3984 944 
L 3984 1797 
L 2638 1797 
z
" transform="scale(0.015625)"/>
        <path id="ArialMT-72" d="M 416 0 
L 416 3319 
L 922 3319 
L 922 2816 
Q 1116 3169 1280 3281 
Q 1444 3394 1641 3394 
Q 1925 3394 2219 3213 
L 2025 2691 
Q 1819 2813 1613 2813 
Q 1428 2813 1281 2702 
Q 1134 2591 1072 2394 
Q 978 2094 978 1738 
L 978 0 
L 416 0 
z
" transform="scale(0.015625)"/>
        <path id="ArialMT-6f" d="M 213 1659 
Q 213 2581 725 3025 
Q 1153 3394 1769 3394 
Q 2453 3394 2887 2945 
Q 3322 2497 3322 1706 
Q 3322 1066 3130 698 
Q 2938 331 2570 128 
Q 2203 -75 1769 -75 
Q 1072 -75 642 372 
Q 213 819 213 1659 
z
M 791 1659 
Q 791 1022 1069 705 
Q 1347 388 1769 388 
Q 2188 388 2466 706 
Q 2744 1025 2744 1678 
Q 2744 2294 2464 2611 
Q 2184 2928 1769 2928 
Q 1347 2928 1069 2612 
Q 791 2297 791 1659 
z
" transform="scale(0.015625)"/>
        <path id="ArialMT-76" d="M 1344 0 
L 81 3319 
L 675 3319 
L 1388 1331 
Q 1503 1009 1600 663 
Q 1675 925 1809 1294 
L 2547 3319 
L 3125 3319 
L 1869 0 
L 1344 0 
z
" transform="scale(0.015625)"/>
        <path id="ArialMT-79" d="M 397 -1278 
L 334 -750 
Q 519 -800 656 -800 
Q 844 -800 956 -737 
Q 1069 -675 1141 -563 
Q 1194 -478 1313 -144 
Q 1328 -97 1363 -6 
L 103 3319 
L 709 3319 
L 1400 1397 
Q 1534 1031 1641 628 
Q 1738 1016 1872 1384 
L 2581 3319 
L 3144 3319 
L 1881 -56 
Q 1678 -603 1566 -809 
Q 1416 -1088 1222 -1217 
Q 1028 -1347 759 -1347 
Q 597 -1347 397 -1278 
z
" transform="scale(0.015625)"/>
       </defs>
       <use xlink:href="#ArialMT-47"/>
       <use xlink:href="#ArialMT-72" x="77.783203"/>
       <use xlink:href="#ArialMT-6f" x="111.083984"/>
       <use xlink:href="#ArialMT-6f" x="166.699219"/>
       <use xlink:href="#ArialMT-76" x="222.314453"/>
       <use xlink:href="#ArialMT-79" x="272.314453"/>
      </g>
     </g>
    </g>
    <g id="ytick_3">
     <g id="line2d_12">
      <g>
       <use xlink:href="#m8e343aef83" x="130.620313" y="493.348602" style="stroke: #000000; stroke-width: 0.8"/>
      </g>
     </g>
     <g id="text_12">
      <!-- Ruby -->
      <g transform="translate(100.276563 496.927508) scale(0.1 -0.1)">
       <defs>
        <path id="ArialMT-52" d="M 503 0 
L 503 4581 
L 2534 4581 
Q 3147 4581 3465 4457 
Q 3784 4334 3975 4021 
Q 4166 3709 4166 3331 
Q 4166 2844 3850 2509 
Q 3534 2175 2875 2084 
Q 3116 1969 3241 1856 
Q 3506 1613 3744 1247 
L 4541 0 
L 3778 0 
L 3172 953 
Q 2906 1366 2734 1584 
Q 2563 1803 2427 1890 
Q 2291 1978 2150 2013 
Q 2047 2034 1813 2034 
L 1109 2034 
L 1109 0 
L 503 0 
z
M 1109 2559 
L 2413 2559 
Q 2828 2559 3062 2645 
Q 3297 2731 3419 2920 
Q 3541 3109 3541 3331 
Q 3541 3656 3305 3865 
Q 3069 4075 2559 4075 
L 1109 4075 
L 1109 2559 
z
" transform="scale(0.015625)"/>
        <path id="ArialMT-75" d="M 2597 0 
L 2597 488 
Q 2209 -75 1544 -75 
Q 1250 -75 995 37 
Q 741 150 617 320 
Q 494 491 444 738 
Q 409 903 409 1263 
L 409 3319 
L 972 3319 
L 972 1478 
Q 972 1038 1006 884 
Q 1059 663 1231 536 
Q 1403 409 1656 409 
Q 1909 409 2131 539 
Q 2353 669 2445 892 
Q 2538 1116 2538 1541 
L 2538 3319 
L 3100 3319 
L 3100 0 
L 2597 0 
z
" transform="scale(0.015625)"/>
        <path id="ArialMT-62" d="M 941 0 
L 419 0 
L 419 4581 
L 981 4581 
L 981 2947 
Q 1338 3394 1891 3394 
Q 2197 3394 2470 3270 
Q 2744 3147 2920 2923 
Q 3097 2700 3197 2384 
Q 3297 2069 3297 1709 
Q 3297 856 2875 390 
Q 2453 -75 1863 -75 
Q 1275 -75 941 416 
L 941 0 
z
M 934 1684 
Q 934 1088 1097 822 
Q 1363 388 1816 388 
Q 2184 388 2453 708 
Q 2722 1028 2722 1663 
Q 2722 2313 2464 2622 
Q 2206 2931 1841 2931 
Q 1472 2931 1203 2611 
Q 934 2291 934 1684 
z
" transform="scale(0.015625)"/>
       </defs>
       <use xlink:href="#ArialMT-52"/>
       <use xlink:href="#ArialMT-75" x="72.216797"/>
       <use xlink:href="#ArialMT-62" x="127.832031"/>
       <use xlink:href="#ArialMT-79" x="183.447266"/>
      </g>
     </g>
    </g>
    <g id="ytick_4">
     <g id="line2d_13">
      <g>
       <use xlink:href="#m8e343aef83" x="130.620313" y="470.510182" style="stroke: #000000; stroke-width: 0.8"/>
      </g>
     </g>
     <g id="text_13">
      <!-- Lua -->
      <g transform="translate(106.9375 474.089088) scale(0.1 -0.1)">
       <defs>
        <path id="ArialMT-4c" d="M 469 0 
L 469 4581 
L 1075 4581 
L 1075 541 
L 3331 541 
L 3331 0 
L 469 0 
z
" transform="scale(0.015625)"/>
        <path id="ArialMT-61" d="M 2588 409 
Q 2275 144 1986 34 
Q 1697 -75 1366 -75 
Q 819 -75 525 192 
Q 231 459 231 875 
Q 231 1119 342 1320 
Q 453 1522 633 1644 
Q 813 1766 1038 1828 
Q 1203 1872 1538 1913 
Q 2219 1994 2541 2106 
Q 2544 2222 2544 2253 
Q 2544 2597 2384 2738 
Q 2169 2928 1744 2928 
Q 1347 2928 1158 2789 
Q 969 2650 878 2297 
L 328 2372 
Q 403 2725 575 2942 
Q 747 3159 1072 3276 
Q 1397 3394 1825 3394 
Q 2250 3394 2515 3294 
Q 2781 3194 2906 3042 
Q 3031 2891 3081 2659 
Q 3109 2516 3109 2141 
L 3109 1391 
Q 3109 606 3145 398 
Q 3181 191 3288 0 
L 2700 0 
Q 2613 175 2588 409 
z
M 2541 1666 
Q 2234 1541 1622 1453 
Q 1275 1403 1131 1340 
Q 988 1278 909 1158 
Q 831 1038 831 891 
Q 831 666 1001 516 
Q 1172 366 1500 366 
Q 1825 366 2078 508 
Q 2331 650 2450 897 
Q 2541 1088 2541 1459 
L 2541 1666 
z
" transform="scale(0.015625)"/>
       </defs>
       <use xlink:href="#ArialMT-4c"/>
       <use xlink:href="#ArialMT-75" x="55.615234"/>
       <use xlink:href="#ArialMT-61" x="111.230469"/>
      </g>
     </g>
    </g>
    <g id="ytick_5">
     <g id="line2d_14">
      <g>
       <use xlink:href="#m8e343aef83" x="130.620313" y="447.671761" style="stroke: #000000; stroke-width: 0.8"/>
      </g>
     </g>
     <g id="text_14">
      <!-- Go -->
      <g transform="translate(110.28125 451.250668) scale(0.1 -0.1)">
       <use xlink:href="#ArialMT-47"/>
       <use xlink:href="#ArialMT-6f" x="77.783203"/>
      </g>
     </g>
    </g>
    <g id="ytick_6">
     <g id="line2d_15">
      <g>
       <use xlink:href="#m8e343aef83" x="130.620313" y="424.833341" style="stroke: #000000; stroke-width: 0.8"/>
      </g>
     </g>
     <g id="text_15">
      <!-- Scala -->
      <g transform="translate(98.60625 428.412248) scale(0.1 -0.1)">
       <defs>
        <path id="ArialMT-63" d="M 2588 1216 
L 3141 1144 
Q 3050 572 2676 248 
Q 2303 -75 1759 -75 
Q 1078 -75 664 370 
Q 250 816 250 1647 
Q 250 2184 428 2587 
Q 606 2991 970 3192 
Q 1334 3394 1763 3394 
Q 2303 3394 2647 3120 
Q 2991 2847 3088 2344 
L 2541 2259 
Q 2463 2594 2264 2762 
Q 2066 2931 1784 2931 
Q 1359 2931 1093 2626 
Q 828 2322 828 1663 
Q 828 994 1084 691 
Q 1341 388 1753 388 
Q 2084 388 2306 591 
Q 2528 794 2588 1216 
z
" transform="scale(0.015625)"/>
        <path id="ArialMT-6c" d="M 409 0 
L 409 4581 
L 972 4581 
L 972 0 
L 409 0 
z
" transform="scale(0.015625)"/>
       </defs>
       <use xlink:href="#ArialMT-53"/>
       <use xlink:href="#ArialMT-63" x="66.699219"/>
       <use xlink:href="#ArialMT-61" x="116.699219"/>
       <use xlink:href="#ArialMT-6c" x="172.314453"/>
       <use xlink:href="#ArialMT-61" x="194.53125"/>
      </g>
     </g>
    </g>
    <g id="ytick_7">
     <g id="line2d_16">
      <g>
       <use xlink:href="#m8e343aef83" x="130.620313" y="401.994921" style="stroke: #000000; stroke-width: 0.8"/>
      </g>
     </g>
     <g id="text_16">
      <!-- Rust -->
      <g transform="translate(103.059375 405.573828) scale(0.1 -0.1)">
       <defs>
        <path id="ArialMT-73" d="M 197 991 
L 753 1078 
Q 800 744 1014 566 
Q 1228 388 1613 388 
Q 2000 388 2187 545 
Q 2375 703 2375 916 
Q 2375 1106 2209 1216 
Q 2094 1291 1634 1406 
Q 1016 1563 777 1677 
Q 538 1791 414 1992 
Q 291 2194 291 2438 
Q 291 2659 392 2848 
Q 494 3038 669 3163 
Q 800 3259 1026 3326 
Q 1253 3394 1513 3394 
Q 1903 3394 2198 3281 
Q 2494 3169 2634 2976 
Q 2775 2784 2828 2463 
L 2278 2388 
Q 2241 2644 2061 2787 
Q 1881 2931 1553 2931 
Q 1166 2931 1000 2803 
Q 834 2675 834 2503 
Q 834 2394 903 2306 
Q 972 2216 1119 2156 
Q 1203 2125 1616 2013 
Q 2213 1853 2448 1751 
Q 2684 1650 2818 1456 
Q 2953 1263 2953 975 
Q 2953 694 2789 445 
Q 2625 197 2315 61 
Q 2006 -75 1616 -75 
Q 969 -75 630 194 
Q 291 463 197 991 
z
" transform="scale(0.015625)"/>
       </defs>
       <use xlink:href="#ArialMT-52"/>
       <use xlink:href="#ArialMT-75" x="72.216797"/>
       <use xlink:href="#ArialMT-73" x="127.832031"/>
       <use xlink:href="#ArialMT-74" x="177.832031"/>
      </g>
     </g>
    </g>
    <g id="ytick_8">
     <g id="line2d_17">
      <g>
       <use xlink:href="#m8e343aef83" x="130.620313" y="379.156501" style="stroke: #000000; stroke-width: 0.8"/>
      </g>
     </g>
     <g id="text_17">
      <!-- Julia -->
      <g transform="translate(103.054688 382.735408) scale(0.1 -0.1)">
       <defs>
        <path id="ArialMT-4a" d="M 184 1300 
L 731 1375 
Q 753 850 928 656 
Q 1103 463 1413 463 
Q 1641 463 1806 567 
Q 1972 672 2034 851 
Q 2097 1031 2097 1425 
L 2097 4581 
L 2703 4581 
L 2703 1459 
Q 2703 884 2564 568 
Q 2425 253 2123 87 
Q 1822 -78 1416 -78 
Q 813 -78 492 269 
Q 172 616 184 1300 
z
" transform="scale(0.015625)"/>
       </defs>
       <use xlink:href="#ArialMT-4a"/>
       <use xlink:href="#ArialMT-75" x="50"/>
       <use xlink:href="#ArialMT-6c" x="105.615234"/>
       <use xlink:href="#ArialMT-69" x="127.832031"/>
       <use xlink:href="#ArialMT-61" x="150.048828"/>
      </g>
     </g>
    </g>
    <g id="ytick_9">
     <g id="line2d_18">
      <g>
       <use xlink:href="#m8e343aef83" x="130.620313" y="356.318081" style="stroke: #000000; stroke-width: 0.8"/>
      </g>
     </g>
     <g id="text_18">
      <!-- Matlab -->
      <g transform="translate(93.607813 359.896988) scale(0.1 -0.1)">
       <defs>
        <path id="ArialMT-4d" d="M 475 0 
L 475 4581 
L 1388 4581 
L 2472 1338 
Q 2622 884 2691 659 
Q 2769 909 2934 1394 
L 4031 4581 
L 4847 4581 
L 4847 0 
L 4263 0 
L 4263 3834 
L 2931 0 
L 2384 0 
L 1059 3900 
L 1059 0 
L 475 0 
z
" transform="scale(0.015625)"/>
       </defs>
       <use xlink:href="#ArialMT-4d"/>
       <use xlink:href="#ArialMT-61" x="83.300781"/>
       <use xlink:href="#ArialMT-74" x="138.916016"/>
       <use xlink:href="#ArialMT-6c" x="166.699219"/>
       <use xlink:href="#ArialMT-61" x="188.916016"/>
       <use xlink:href="#ArialMT-62" x="244.53125"/>
      </g>
     </g>
    </g>
    <g id="ytick_10">
     <g id="line2d_19">
      <g>
       <use xlink:href="#m8e343aef83" x="130.620313" y="333.479661" style="stroke: #000000; stroke-width: 0.8"/>
      </g>
     </g>
     <g id="text_19">
      <!-- Perl -->
      <g transform="translate(105.8375 337.058568) scale(0.1 -0.1)">
       <defs>
        <path id="ArialMT-50" d="M 494 0 
L 494 4581 
L 2222 4581 
Q 2678 4581 2919 4538 
Q 3256 4481 3484 4323 
Q 3713 4166 3852 3881 
Q 3991 3597 3991 3256 
Q 3991 2672 3619 2267 
Q 3247 1863 2275 1863 
L 1100 1863 
L 1100 0 
L 494 0 
z
M 1100 2403 
L 2284 2403 
Q 2872 2403 3119 2622 
Q 3366 2841 3366 3238 
Q 3366 3525 3220 3729 
Q 3075 3934 2838 4000 
Q 2684 4041 2272 4041 
L 1100 4041 
L 1100 2403 
z
" transform="scale(0.015625)"/>
        <path id="ArialMT-65" d="M 2694 1069 
L 3275 997 
Q 3138 488 2766 206 
Q 2394 -75 1816 -75 
Q 1088 -75 661 373 
Q 234 822 234 1631 
Q 234 2469 665 2931 
Q 1097 3394 1784 3394 
Q 2450 3394 2872 2941 
Q 3294 2488 3294 1666 
Q 3294 1616 3291 1516 
L 816 1516 
Q 847 969 1125 678 
Q 1403 388 1819 388 
Q 2128 388 2347 550 
Q 2566 713 2694 1069 
z
M 847 1978 
L 2700 1978 
Q 2663 2397 2488 2606 
Q 2219 2931 1791 2931 
Q 1403 2931 1139 2672 
Q 875 2413 847 1978 
z
" transform="scale(0.015625)"/>
       </defs>
       <use xlink:href="#ArialMT-50"/>
       <use xlink:href="#ArialMT-65" x="66.699219"/>
       <use xlink:href="#ArialMT-72" x="122.314453"/>
       <use xlink:href="#ArialMT-6c" x="155.615234"/>
      </g>
     </g>
    </g>
    <g id="ytick_11">
     <g id="line2d_20">
      <g>
       <use xlink:href="#m8e343aef83" x="130.620313" y="310.641241" style="stroke: #000000; stroke-width: 0.8"/>
      </g>
     </g>
     <g id="text_20">
      <!-- C# -->
      <g transform="translate(110.8375 314.220148) scale(0.1 -0.1)">
       <defs>
        <path id="ArialMT-43" d="M 3763 1606 
L 4369 1453 
Q 4178 706 3683 314 
Q 3188 -78 2472 -78 
Q 1731 -78 1267 223 
Q 803 525 561 1097 
Q 319 1669 319 2325 
Q 319 3041 592 3573 
Q 866 4106 1370 4382 
Q 1875 4659 2481 4659 
Q 3169 4659 3637 4309 
Q 4106 3959 4291 3325 
L 3694 3184 
Q 3534 3684 3231 3912 
Q 2928 4141 2469 4141 
Q 1941 4141 1586 3887 
Q 1231 3634 1087 3207 
Q 944 2781 944 2328 
Q 944 1744 1114 1308 
Q 1284 872 1643 656 
Q 2003 441 2422 441 
Q 2931 441 3284 734 
Q 3638 1028 3763 1606 
z
" transform="scale(0.015625)"/>
        <path id="ArialMT-23" d="M 322 -78 
L 594 1253 
L 66 1253 
L 66 1719 
L 688 1719 
L 919 2853 
L 66 2853 
L 66 3319 
L 1013 3319 
L 1284 4659 
L 1753 4659 
L 1481 3319 
L 2466 3319 
L 2738 4659 
L 3209 4659 
L 2938 3319 
L 3478 3319 
L 3478 2853 
L 2844 2853 
L 2609 1719 
L 3478 1719 
L 3478 1253 
L 2516 1253 
L 2244 -78 
L 1775 -78 
L 2044 1253 
L 1063 1253 
L 791 -78 
L 322 -78 
z
M 1156 1719 
L 2138 1719 
L 2372 2853 
L 1388 2853 
L 1156 1719 
z
" transform="scale(0.015625)"/>
       </defs>
       <use xlink:href="#ArialMT-43"/>
       <use xlink:href="#ArialMT-23" x="72.216797"/>
      </g>
     </g>
    </g>
    <g id="ytick_12">
     <g id="line2d_21">
      <g>
       <use xlink:href="#m8e343aef83" x="130.620313" y="287.802821" style="stroke: #000000; stroke-width: 0.8"/>
      </g>
     </g>
     <g id="text_21">
      <!-- TypeScript -->
      <g transform="translate(76.379688 291.442665) scale(0.1 -0.1)">
       <defs>
        <path id="ArialMT-54" d="M 1659 0 
L 1659 4041 
L 150 4041 
L 150 4581 
L 3781 4581 
L 3781 4041 
L 2266 4041 
L 2266 0 
L 1659 0 
z
" transform="scale(0.015625)"/>
        <path id="ArialMT-70" d="M 422 -1272 
L 422 3319 
L 934 3319 
L 934 2888 
Q 1116 3141 1344 3267 
Q 1572 3394 1897 3394 
Q 2322 3394 2647 3175 
Q 2972 2956 3137 2557 
Q 3303 2159 3303 1684 
Q 3303 1175 3120 767 
Q 2938 359 2589 142 
Q 2241 -75 1856 -75 
Q 1575 -75 1351 44 
Q 1128 163 984 344 
L 984 -1272 
L 422 -1272 
z
M 931 1641 
Q 931 1000 1190 694 
Q 1450 388 1819 388 
Q 2194 388 2461 705 
Q 2728 1022 2728 1688 
Q 2728 2322 2467 2637 
Q 2206 2953 1844 2953 
Q 1484 2953 1207 2617 
Q 931 2281 931 1641 
z
" transform="scale(0.015625)"/>
       </defs>
       <use xlink:href="#ArialMT-54"/>
       <use xlink:href="#ArialMT-79" x="55.583984"/>
       <use xlink:href="#ArialMT-70" x="105.583984"/>
       <use xlink:href="#ArialMT-65" x="161.199219"/>
       <use xlink:href="#ArialMT-53" x="216.814453"/>
       <use xlink:href="#ArialMT-63" x="283.513672"/>
       <use xlink:href="#ArialMT-72" x="333.513672"/>
       <use xlink:href="#ArialMT-69" x="366.814453"/>
       <use xlink:href="#ArialMT-70" x="389.03125"/>
       <use xlink:href="#ArialMT-74" x="444.646484"/>
      </g>
     </g>
    </g>
    <g id="ytick_13">
     <g id="line2d_22">
      <g>
       <use xlink:href="#m8e343aef83" x="130.620313" y="264.964401" style="stroke: #000000; stroke-width: 0.8"/>
      </g>
     </g>
     <g id="text_22">
      <!-- PHP -->
      <g transform="translate(103.057813 268.543307) scale(0.1 -0.1)">
       <defs>
        <path id="ArialMT-48" d="M 513 0 
L 513 4581 
L 1119 4581 
L 1119 2700 
L 3500 2700 
L 3500 4581 
L 4106 4581 
L 4106 0 
L 3500 0 
L 3500 2159 
L 1119 2159 
L 1119 0 
L 513 0 
z
" transform="scale(0.015625)"/>
       </defs>
       <use xlink:href="#ArialMT-50"/>
       <use xlink:href="#ArialMT-48" x="66.699219"/>
       <use xlink:href="#ArialMT-50" x="138.916016"/>
      </g>
     </g>
    </g>
    <g id="ytick_14">
     <g id="line2d_23">
      <g>
       <use xlink:href="#m8e343aef83" x="130.620313" y="242.125981" style="stroke: #000000; stroke-width: 0.8"/>
      </g>
     </g>
     <g id="text_23">
      <!-- other. What programming -->
      <g transform="translate(10.8 230.438169) scale(0.1 -0.1)">
       <defs>
        <path id="ArialMT-68" d="M 422 0 
L 422 4581 
L 984 4581 
L 984 2938 
Q 1378 3394 1978 3394 
Q 2347 3394 2619 3248 
Q 2891 3103 3008 2847 
Q 3125 2591 3125 2103 
L 3125 0 
L 2563 0 
L 2563 2103 
Q 2563 2525 2380 2717 
Q 2197 2909 1863 2909 
Q 1613 2909 1392 2779 
Q 1172 2650 1078 2428 
Q 984 2206 984 1816 
L 984 0 
L 422 0 
z
" transform="scale(0.015625)"/>
        <path id="ArialMT-2e" d="M 581 0 
L 581 641 
L 1222 641 
L 1222 0 
L 581 0 
z
" transform="scale(0.015625)"/>
        <path id="ArialMT-20" transform="scale(0.015625)"/>
        <path id="ArialMT-57" d="M 1294 0 
L 78 4581 
L 700 4581 
L 1397 1578 
Q 1509 1106 1591 641 
Q 1766 1375 1797 1488 
L 2669 4581 
L 3400 4581 
L 4056 2263 
Q 4303 1400 4413 641 
Q 4500 1075 4641 1638 
L 5359 4581 
L 5969 4581 
L 4713 0 
L 4128 0 
L 3163 3491 
Q 3041 3928 3019 4028 
Q 2947 3713 2884 3491 
L 1913 0 
L 1294 0 
z
" transform="scale(0.015625)"/>
        <path id="ArialMT-67" d="M 319 -275 
L 866 -356 
Q 900 -609 1056 -725 
Q 1266 -881 1628 -881 
Q 2019 -881 2231 -725 
Q 2444 -569 2519 -288 
Q 2563 -116 2559 434 
Q 2191 0 1641 0 
Q 956 0 581 494 
Q 206 988 206 1678 
Q 206 2153 378 2554 
Q 550 2956 876 3175 
Q 1203 3394 1644 3394 
Q 2231 3394 2613 2919 
L 2613 3319 
L 3131 3319 
L 3131 450 
Q 3131 -325 2973 -648 
Q 2816 -972 2473 -1159 
Q 2131 -1347 1631 -1347 
Q 1038 -1347 672 -1080 
Q 306 -813 319 -275 
z
M 784 1719 
Q 784 1066 1043 766 
Q 1303 466 1694 466 
Q 2081 466 2343 764 
Q 2606 1063 2606 1700 
Q 2606 2309 2336 2618 
Q 2066 2928 1684 2928 
Q 1309 2928 1046 2623 
Q 784 2319 784 1719 
z
" transform="scale(0.015625)"/>
        <path id="ArialMT-6d" d="M 422 0 
L 422 3319 
L 925 3319 
L 925 2853 
Q 1081 3097 1340 3245 
Q 1600 3394 1931 3394 
Q 2300 3394 2536 3241 
Q 2772 3088 2869 2813 
Q 3263 3394 3894 3394 
Q 4388 3394 4653 3120 
Q 4919 2847 4919 2278 
L 4919 0 
L 4359 0 
L 4359 2091 
Q 4359 2428 4304 2576 
Q 4250 2725 4106 2815 
Q 3963 2906 3769 2906 
Q 3419 2906 3187 2673 
Q 2956 2441 2956 1928 
L 2956 0 
L 2394 0 
L 2394 2156 
Q 2394 2531 2256 2718 
Q 2119 2906 1806 2906 
Q 1569 2906 1367 2781 
Q 1166 2656 1075 2415 
Q 984 2175 984 1722 
L 984 0 
L 422 0 
z
" transform="scale(0.015625)"/>
        <path id="ArialMT-6e" d="M 422 0 
L 422 3319 
L 928 3319 
L 928 2847 
Q 1294 3394 1984 3394 
Q 2284 3394 2536 3286 
Q 2788 3178 2913 3003 
Q 3038 2828 3088 2588 
Q 3119 2431 3119 2041 
L 3119 0 
L 2556 0 
L 2556 2019 
Q 2556 2363 2490 2533 
Q 2425 2703 2258 2804 
Q 2091 2906 1866 2906 
Q 1506 2906 1245 2678 
Q 984 2450 984 1813 
L 984 0 
L 422 0 
z
" transform="scale(0.015625)"/>
       </defs>
       <use xlink:href="#ArialMT-6f"/>
       <use xlink:href="#ArialMT-74" x="55.615234"/>
       <use xlink:href="#ArialMT-68" x="83.398438"/>
       <use xlink:href="#ArialMT-65" x="139.013672"/>
       <use xlink:href="#ArialMT-72" x="194.628906"/>
       <use xlink:href="#ArialMT-2e" x="222.429688"/>
       <use xlink:href="#ArialMT-20" x="250.212891"/>
       <use xlink:href="#ArialMT-57" x="277.996094"/>
       <use xlink:href="#ArialMT-68" x="372.380859"/>
       <use xlink:href="#ArialMT-61" x="427.996094"/>
       <use xlink:href="#ArialMT-74" x="483.611328"/>
       <use xlink:href="#ArialMT-20" x="511.394531"/>
       <use xlink:href="#ArialMT-70" x="539.177734"/>
       <use xlink:href="#ArialMT-72" x="594.792969"/>
       <use xlink:href="#ArialMT-6f" x="628.09375"/>
       <use xlink:href="#ArialMT-67" x="683.708984"/>
       <use xlink:href="#ArialMT-72" x="739.324219"/>
       <use xlink:href="#ArialMT-61" x="772.625"/>
       <use xlink:href="#ArialMT-6d" x="828.240234"/>
       <use xlink:href="#ArialMT-6d" x="911.541016"/>
       <use xlink:href="#ArialMT-69" x="994.841797"/>
       <use xlink:href="#ArialMT-6e" x="1017.058594"/>
       <use xlink:href="#ArialMT-67" x="1072.673828"/>
      </g>
      <!-- languages do you use -->
      <g transform="translate(25.771875 241.132231) scale(0.1 -0.1)">
       <defs>
        <path id="ArialMT-64" d="M 2575 0 
L 2575 419 
Q 2259 -75 1647 -75 
Q 1250 -75 917 144 
Q 584 363 401 755 
Q 219 1147 219 1656 
Q 219 2153 384 2558 
Q 550 2963 881 3178 
Q 1213 3394 1622 3394 
Q 1922 3394 2156 3267 
Q 2391 3141 2538 2938 
L 2538 4581 
L 3097 4581 
L 3097 0 
L 2575 0 
z
M 797 1656 
Q 797 1019 1065 703 
Q 1334 388 1700 388 
Q 2069 388 2326 689 
Q 2584 991 2584 1609 
Q 2584 2291 2321 2609 
Q 2059 2928 1675 2928 
Q 1300 2928 1048 2622 
Q 797 2316 797 1656 
z
" transform="scale(0.015625)"/>
       </defs>
       <use xlink:href="#ArialMT-6c"/>
       <use xlink:href="#ArialMT-61" x="22.216797"/>
       <use xlink:href="#ArialMT-6e" x="77.832031"/>
       <use xlink:href="#ArialMT-67" x="133.447266"/>
       <use xlink:href="#ArialMT-75" x="189.0625"/>
       <use xlink:href="#ArialMT-61" x="244.677734"/>
       <use xlink:href="#ArialMT-67" x="300.292969"/>
       <use xlink:href="#ArialMT-65" x="355.908203"/>
       <use xlink:href="#ArialMT-73" x="411.523438"/>
       <use xlink:href="#ArialMT-20" x="461.523438"/>
       <use xlink:href="#ArialMT-64" x="489.306641"/>
       <use xlink:href="#ArialMT-6f" x="544.921875"/>
       <use xlink:href="#ArialMT-20" x="600.537109"/>
       <use xlink:href="#ArialMT-79" x="628.320312"/>
       <use xlink:href="#ArialMT-6f" x="678.320312"/>
       <use xlink:href="#ArialMT-75" x="733.935547"/>
       <use xlink:href="#ArialMT-20" x="789.550781"/>
       <use xlink:href="#ArialMT-75" x="817.333984"/>
       <use xlink:href="#ArialMT-73" x="872.949219"/>
       <use xlink:href="#ArialMT-65" x="922.949219"/>
      </g>
      <!-- at work? Please select -->
      <g transform="translate(23.576563 251.826294) scale(0.1 -0.1)">
       <defs>
        <path id="ArialMT-6b" d="M 425 0 
L 425 4581 
L 988 4581 
L 988 1969 
L 2319 3319 
L 3047 3319 
L 1778 2088 
L 3175 0 
L 2481 0 
L 1384 1697 
L 988 1316 
L 988 0 
L 425 0 
z
" transform="scale(0.015625)"/>
        <path id="ArialMT-3f" d="M 1475 1128 
Q 1472 1241 1472 1297 
Q 1472 1628 1566 1869 
Q 1634 2050 1788 2234 
Q 1900 2369 2192 2626 
Q 2484 2884 2571 3037 
Q 2659 3191 2659 3372 
Q 2659 3700 2403 3948 
Q 2147 4197 1775 4197 
Q 1416 4197 1175 3972 
Q 934 3747 859 3269 
L 281 3338 
Q 359 3978 745 4318 
Q 1131 4659 1766 4659 
Q 2438 4659 2838 4293 
Q 3238 3928 3238 3409 
Q 3238 3109 3097 2856 
Q 2956 2603 2547 2241 
Q 2272 1997 2187 1881 
Q 2103 1766 2062 1616 
Q 2022 1466 2016 1128 
L 1475 1128 
z
M 1441 0 
L 1441 641 
L 2081 641 
L 2081 0 
L 1441 0 
z
" transform="scale(0.015625)"/>
       </defs>
       <use xlink:href="#ArialMT-61"/>
       <use xlink:href="#ArialMT-74" x="55.615234"/>
       <use xlink:href="#ArialMT-20" x="83.398438"/>
       <use xlink:href="#ArialMT-77" x="111.181641"/>
       <use xlink:href="#ArialMT-6f" x="183.398438"/>
       <use xlink:href="#ArialMT-72" x="239.013672"/>
       <use xlink:href="#ArialMT-6b" x="272.314453"/>
       <use xlink:href="#ArialMT-3f" x="322.314453"/>
       <use xlink:href="#ArialMT-20" x="377.929688"/>
       <use xlink:href="#ArialMT-50" x="405.712891"/>
       <use xlink:href="#ArialMT-6c" x="472.412109"/>
       <use xlink:href="#ArialMT-65" x="494.628906"/>
       <use xlink:href="#ArialMT-61" x="550.244141"/>
       <use xlink:href="#ArialMT-73" x="605.859375"/>
       <use xlink:href="#ArialMT-65" x="655.859375"/>
       <use xlink:href="#ArialMT-20" x="711.474609"/>
       <use xlink:href="#ArialMT-73" x="739.257812"/>
       <use xlink:href="#ArialMT-65" x="789.257812"/>
       <use xlink:href="#ArialMT-6c" x="844.873047"/>
       <use xlink:href="#ArialMT-65" x="867.089844"/>
       <use xlink:href="#ArialMT-63" x="922.705078"/>
       <use xlink:href="#ArialMT-74" x="972.705078"/>
      </g>
      <!-- all that apply.  -->
      <g transform="translate(62.657813 262.403169) scale(0.1 -0.1)">
       <use xlink:href="#ArialMT-61"/>
       <use xlink:href="#ArialMT-6c" x="55.615234"/>
       <use xlink:href="#ArialMT-6c" x="77.832031"/>
       <use xlink:href="#ArialMT-20" x="100.048828"/>
       <use xlink:href="#ArialMT-74" x="127.832031"/>
       <use xlink:href="#ArialMT-68" x="155.615234"/>
       <use xlink:href="#ArialMT-61" x="211.230469"/>
       <use xlink:href="#ArialMT-74" x="266.845703"/>
       <use xlink:href="#ArialMT-20" x="294.628906"/>
       <use xlink:href="#ArialMT-61" x="322.412109"/>
       <use xlink:href="#ArialMT-70" x="378.027344"/>
       <use xlink:href="#ArialMT-70" x="433.642578"/>
       <use xlink:href="#ArialMT-6c" x="489.257812"/>
       <use xlink:href="#ArialMT-79" x="511.474609"/>
       <use xlink:href="#ArialMT-2e" x="554.099609"/>
       <use xlink:href="#ArialMT-20" x="581.882812"/>
      </g>
     </g>
    </g>
    <g id="ytick_15">
     <g id="line2d_24">
      <g>
       <use xlink:href="#m8e343aef83" x="130.620313" y="219.287561" style="stroke: #000000; stroke-width: 0.8"/>
      </g>
     </g>
     <g id="text_24">
      <!-- Fortran -->
      <g transform="translate(91.392188 222.866467) scale(0.1 -0.1)">
       <defs>
        <path id="ArialMT-46" d="M 525 0 
L 525 4581 
L 3616 4581 
L 3616 4041 
L 1131 4041 
L 1131 2622 
L 3281 2622 
L 3281 2081 
L 1131 2081 
L 1131 0 
L 525 0 
z
" transform="scale(0.015625)"/>
       </defs>
       <use xlink:href="#ArialMT-46"/>
       <use xlink:href="#ArialMT-6f" x="61.083984"/>
       <use xlink:href="#ArialMT-72" x="116.699219"/>
       <use xlink:href="#ArialMT-74" x="150"/>
       <use xlink:href="#ArialMT-72" x="177.783203"/>
       <use xlink:href="#ArialMT-61" x="211.083984"/>
       <use xlink:href="#ArialMT-6e" x="266.699219"/>
      </g>
     </g>
    </g>
    <g id="ytick_16">
     <g id="line2d_25">
      <g>
       <use xlink:href="#m8e343aef83" x="130.620313" y="196.449141" style="stroke: #000000; stroke-width: 0.8"/>
      </g>
     </g>
     <g id="text_25">
      <!-- C -->
      <g transform="translate(116.398438 200.028047) scale(0.1 -0.1)">
       <use xlink:href="#ArialMT-43"/>
      </g>
     </g>
    </g>
    <g id="ytick_17">
     <g id="line2d_26">
      <g>
       <use xlink:href="#m8e343aef83" x="130.620313" y="173.610721" style="stroke: #000000; stroke-width: 0.8"/>
      </g>
     </g>
     <g id="text_26">
      <!-- Java -->
      <g transform="translate(102.498438 177.189627) scale(0.1 -0.1)">
       <use xlink:href="#ArialMT-4a"/>
       <use xlink:href="#ArialMT-61" x="50"/>
       <use xlink:href="#ArialMT-76" x="105.615234"/>
       <use xlink:href="#ArialMT-61" x="155.615234"/>
      </g>
     </g>
    </g>
    <g id="ytick_18">
     <g id="line2d_27">
      <g>
       <use xlink:href="#m8e343aef83" x="130.620313" y="150.772301" style="stroke: #000000; stroke-width: 0.8"/>
      </g>
     </g>
     <g id="text_27">
      <!-- SQL -->
      <g transform="translate(103.610938 154.351207) scale(0.1 -0.1)">
       <defs>
        <path id="ArialMT-51" d="M 3966 491 
Q 4388 200 4744 66 
L 4566 -356 
Q 4072 -178 3581 206 
Q 3072 -78 2456 -78 
Q 1834 -78 1328 222 
Q 822 522 548 1065 
Q 275 1609 275 2291 
Q 275 2969 550 3525 
Q 825 4081 1333 4372 
Q 1841 4663 2469 4663 
Q 3103 4663 3612 4361 
Q 4122 4059 4389 3517 
Q 4656 2975 4656 2294 
Q 4656 1728 4484 1276 
Q 4313 825 3966 491 
z
M 2631 1266 
Q 3156 1119 3497 828 
Q 4031 1316 4031 2294 
Q 4031 2850 3842 3265 
Q 3653 3681 3289 3911 
Q 2925 4141 2472 4141 
Q 1794 4141 1347 3677 
Q 900 3213 900 2291 
Q 900 1397 1342 919 
Q 1784 441 2472 441 
Q 2797 441 3084 563 
Q 2800 747 2484 825 
L 2631 1266 
z
" transform="scale(0.015625)"/>
       </defs>
       <use xlink:href="#ArialMT-53"/>
       <use xlink:href="#ArialMT-51" x="66.699219"/>
       <use xlink:href="#ArialMT-4c" x="144.482422"/>
      </g>
     </g>
    </g>
    <g id="ytick_19">
     <g id="line2d_28">
      <g>
       <use xlink:href="#m8e343aef83" x="130.620313" y="127.933881" style="stroke: #000000; stroke-width: 0.8"/>
      </g>
     </g>
     <g id="text_28">
      <!-- C++ -->
      <g transform="translate(104.717188 131.512787) scale(0.1 -0.1)">
       <defs>
        <path id="ArialMT-2b" d="M 1603 741 
L 1603 1997 
L 356 1997 
L 356 2522 
L 1603 2522 
L 1603 3769 
L 2134 3769 
L 2134 2522 
L 3381 2522 
L 3381 1997 
L 2134 1997 
L 2134 741 
L 1603 741 
z
" transform="scale(0.015625)"/>
       </defs>
       <use xlink:href="#ArialMT-43"/>
       <use xlink:href="#ArialMT-2b" x="72.216797"/>
       <use xlink:href="#ArialMT-2b" x="130.615234"/>
      </g>
     </g>
    </g>
    <g id="ytick_20">
     <g id="line2d_29">
      <g>
       <use xlink:href="#m8e343aef83" x="130.620313" y="105.095461" style="stroke: #000000; stroke-width: 0.8"/>
      </g>
     </g>
     <g id="text_29">
      <!-- R -->
      <g transform="translate(116.398438 108.674367) scale(0.1 -0.1)">
       <use xlink:href="#ArialMT-52"/>
      </g>
     </g>
    </g>
    <g id="ytick_21">
     <g id="line2d_30">
      <g>
       <use xlink:href="#m8e343aef83" x="130.620313" y="82.257041" style="stroke: #000000; stroke-width: 0.8"/>
      </g>
     </g>
     <g id="text_30">
      <!-- JavaScript -->
      <g transform="translate(76.9375 85.896885) scale(0.1 -0.1)">
       <use xlink:href="#ArialMT-4a"/>
       <use xlink:href="#ArialMT-61" x="50"/>
       <use xlink:href="#ArialMT-76" x="105.615234"/>
       <use xlink:href="#ArialMT-61" x="155.615234"/>
       <use xlink:href="#ArialMT-53" x="211.230469"/>
       <use xlink:href="#ArialMT-63" x="277.929688"/>
       <use xlink:href="#ArialMT-72" x="327.929688"/>
       <use xlink:href="#ArialMT-69" x="361.230469"/>
       <use xlink:href="#ArialMT-70" x="383.447266"/>
       <use xlink:href="#ArialMT-74" x="439.0625"/>
      </g>
     </g>
    </g>
    <g id="ytick_22">
     <g id="line2d_31">
      <g>
       <use xlink:href="#m8e343aef83" x="130.620313" y="59.418621" style="stroke: #000000; stroke-width: 0.8"/>
      </g>
     </g>
     <g id="text_31">
      <!-- Python -->
      <g transform="translate(92.489063 62.997527) scale(0.1 -0.1)">
       <use xlink:href="#ArialMT-50"/>
       <use xlink:href="#ArialMT-79" x="66.699219"/>
       <use xlink:href="#ArialMT-74" x="116.699219"/>
       <use xlink:href="#ArialMT-68" x="144.482422"/>
       <use xlink:href="#ArialMT-6f" x="200.097656"/>
       <use xlink:href="#ArialMT-6e" x="255.712891"/>
      </g>
     </g>
    </g>
   </g>
   <g id="patch_25">
    <path d="M 130.620313 573.054687 
L 489.814968 573.054687 
" style="fill: none; stroke: #000000; stroke-width: 0.8; stroke-linejoin: miter; stroke-linecap: square"/>
   </g>
   <g id="text_32">
    <!-- 0% -->
    <g transform="translate(138.39375 541.610598) scale(0.1 -0.1)">
     <defs>
      <path id="ArialMT-25" d="M 372 3481 
Q 372 3972 619 4315 
Q 866 4659 1334 4659 
Q 1766 4659 2048 4351 
Q 2331 4044 2331 3447 
Q 2331 2866 2045 2552 
Q 1759 2238 1341 2238 
Q 925 2238 648 2547 
Q 372 2856 372 3481 
z
M 1350 4272 
Q 1141 4272 1002 4090 
Q 863 3909 863 3425 
Q 863 2984 1003 2804 
Q 1144 2625 1350 2625 
Q 1563 2625 1702 2806 
Q 1841 2988 1841 3469 
Q 1841 3913 1700 4092 
Q 1559 4272 1350 4272 
z
M 1353 -169 
L 3859 4659 
L 4316 4659 
L 1819 -169 
L 1353 -169 
z
M 3334 1075 
Q 3334 1569 3581 1911 
Q 3828 2253 4300 2253 
Q 4731 2253 5014 1945 
Q 5297 1638 5297 1041 
Q 5297 459 5011 145 
Q 4725 -169 4303 -169 
Q 3888 -169 3611 142 
Q 3334 453 3334 1075 
z
M 4316 1866 
Q 4103 1866 3964 1684 
Q 3825 1503 3825 1019 
Q 3825 581 3965 400 
Q 4106 219 4313 219 
Q 4528 219 4667 400 
Q 4806 581 4806 1063 
Q 4806 1506 4665 1686 
Q 4525 1866 4316 1866 
z
" transform="scale(0.015625)"/>
     </defs>
     <use xlink:href="#ArialMT-30"/>
     <use xlink:href="#ArialMT-25" x="55.615234"/>
    </g>
   </g>
   <g id="text_33">
    <!-- 2% -->
    <g transform="translate(145.1014 518.772178) scale(0.1 -0.1)">
     <use xlink:href="#ArialMT-32"/>
     <use xlink:href="#ArialMT-25" x="55.615234"/>
    </g>
   </g>
   <g id="text_34">
    <!-- 2% -->
    <g transform="translate(145.1014 495.933758) scale(0.1 -0.1)">
     <use xlink:href="#ArialMT-32"/>
     <use xlink:href="#ArialMT-25" x="55.615234"/>
    </g>
   </g>
   <g id="text_35">
    <!-- 2% -->
    <g transform="translate(145.1014 473.095338) scale(0.1 -0.1)">
     <use xlink:href="#ArialMT-32"/>
     <use xlink:href="#ArialMT-25" x="55.615234"/>
    </g>
   </g>
   <g id="text_36">
    <!-- 2% -->
    <g transform="translate(145.1014 450.256918) scale(0.1 -0.1)">
     <use xlink:href="#ArialMT-32"/>
     <use xlink:href="#ArialMT-25" x="55.615234"/>
    </g>
   </g>
   <g id="text_37">
    <!-- 2% -->
    <g transform="translate(145.1014 427.418498) scale(0.1 -0.1)">
     <use xlink:href="#ArialMT-32"/>
     <use xlink:href="#ArialMT-25" x="55.615234"/>
    </g>
   </g>
   <g id="text_38">
    <!-- 3% -->
    <g transform="translate(151.80905 404.580078) scale(0.1 -0.1)">
     <use xlink:href="#ArialMT-33"/>
     <use xlink:href="#ArialMT-25" x="55.615234"/>
    </g>
   </g>
   <g id="text_39">
    <!-- 3% -->
    <g transform="translate(151.80905 381.741658) scale(0.1 -0.1)">
     <use xlink:href="#ArialMT-33"/>
     <use xlink:href="#ArialMT-25" x="55.615234"/>
    </g>
   </g>
   <g id="text_40">
    <!-- 3% -->
    <g transform="translate(151.80905 358.903238) scale(0.1 -0.1)">
     <use xlink:href="#ArialMT-33"/>
     <use xlink:href="#ArialMT-25" x="55.615234"/>
    </g>
   </g>
   <g id="text_41">
    <!-- 5% -->
    <g transform="translate(158.5167 336.064818) scale(0.1 -0.1)">
     <use xlink:href="#ArialMT-35"/>
     <use xlink:href="#ArialMT-25" x="55.615234"/>
    </g>
   </g>
   <g id="text_42">
    <!-- 6% -->
    <g transform="translate(165.22435 313.226398) scale(0.1 -0.1)">
     <use xlink:href="#ArialMT-36"/>
     <use xlink:href="#ArialMT-25" x="55.615234"/>
    </g>
   </g>
   <g id="text_43">
    <!-- 6% -->
    <g transform="translate(165.22435 290.387977) scale(0.1 -0.1)">
     <use xlink:href="#ArialMT-36"/>
     <use xlink:href="#ArialMT-25" x="55.615234"/>
    </g>
   </g>
   <g id="text_44">
    <!-- 9% -->
    <g transform="translate(178.63965 267.549557) scale(0.1 -0.1)">
     <defs>
      <path id="ArialMT-39" d="M 350 1059 
L 891 1109 
Q 959 728 1153 556 
Q 1347 384 1650 384 
Q 1909 384 2104 503 
Q 2300 622 2425 820 
Q 2550 1019 2634 1356 
Q 2719 1694 2719 2044 
Q 2719 2081 2716 2156 
Q 2547 1888 2255 1720 
Q 1963 1553 1622 1553 
Q 1053 1553 659 1965 
Q 266 2378 266 3053 
Q 266 3750 677 4175 
Q 1088 4600 1706 4600 
Q 2153 4600 2523 4359 
Q 2894 4119 3086 3673 
Q 3278 3228 3278 2384 
Q 3278 1506 3087 986 
Q 2897 466 2520 194 
Q 2144 -78 1638 -78 
Q 1100 -78 759 220 
Q 419 519 350 1059 
z
M 2653 3081 
Q 2653 3566 2395 3850 
Q 2138 4134 1775 4134 
Q 1400 4134 1122 3828 
Q 844 3522 844 3034 
Q 844 2597 1108 2323 
Q 1372 2050 1759 2050 
Q 2150 2050 2401 2323 
Q 2653 2597 2653 3081 
z
" transform="scale(0.015625)"/>
     </defs>
     <use xlink:href="#ArialMT-39"/>
     <use xlink:href="#ArialMT-25" x="55.615234"/>
    </g>
   </g>
   <g id="text_45">
    <!-- 11% -->
    <g transform="translate(182.935581 244.711137) scale(0.1 -0.1)">
     <use xlink:href="#ArialMT-31"/>
     <use xlink:href="#ArialMT-31" x="48.240234"/>
     <use xlink:href="#ArialMT-25" x="103.855469"/>
    </g>
   </g>
   <g id="text_46">
    <!-- 15% -->
    <g transform="translate(202.689781 221.872717) scale(0.1 -0.1)">
     <use xlink:href="#ArialMT-31"/>
     <use xlink:href="#ArialMT-35" x="55.615234"/>
     <use xlink:href="#ArialMT-25" x="111.230469"/>
    </g>
   </g>
   <g id="text_47">
    <!-- 17% -->
    <g transform="translate(209.397431 199.034297) scale(0.1 -0.1)">
     <use xlink:href="#ArialMT-31"/>
     <use xlink:href="#ArialMT-37" x="55.615234"/>
     <use xlink:href="#ArialMT-25" x="111.230469"/>
    </g>
   </g>
   <g id="text_48">
    <!-- 23% -->
    <g transform="translate(236.228031 176.195877) scale(0.1 -0.1)">
     <use xlink:href="#ArialMT-32"/>
     <use xlink:href="#ArialMT-33" x="55.615234"/>
     <use xlink:href="#ArialMT-25" x="111.230469"/>
    </g>
   </g>
   <g id="text_49">
    <!-- 24% -->
    <g transform="translate(242.935681 153.357457) scale(0.1 -0.1)">
     <use xlink:href="#ArialMT-32"/>
     <use xlink:href="#ArialMT-34" x="55.615234"/>
     <use xlink:href="#ArialMT-25" x="111.230469"/>
    </g>
   </g>
   <g id="text_50">
    <!-- 26% -->
    <g transform="translate(249.643331 130.519037) scale(0.1 -0.1)">
     <use xlink:href="#ArialMT-32"/>
     <use xlink:href="#ArialMT-36" x="55.615234"/>
     <use xlink:href="#ArialMT-25" x="111.230469"/>
    </g>
   </g>
   <g id="text_51">
    <!-- 27% -->
    <g transform="translate(256.35098 107.680617) scale(0.1 -0.1)">
     <use xlink:href="#ArialMT-32"/>
     <use xlink:href="#ArialMT-37" x="55.615234"/>
     <use xlink:href="#ArialMT-25" x="111.230469"/>
    </g>
   </g>
   <g id="text_52">
    <!-- 30% -->
    <g transform="translate(269.76628 84.842197) scale(0.1 -0.1)">
     <use xlink:href="#ArialMT-33"/>
     <use xlink:href="#ArialMT-30" x="55.615234"/>
     <use xlink:href="#ArialMT-25" x="111.230469"/>
    </g>
   </g>
   <g id="text_53">
    <!-- 77% -->
    <g transform="translate(477.703429 62.003777) scale(0.1 -0.1)">
     <use xlink:href="#ArialMT-37"/>
     <use xlink:href="#ArialMT-37" x="55.615234"/>
     <use xlink:href="#ArialMT-25" x="111.230469"/>
    </g>
   </g>
   <g id="text_54">
    <!-- Programming languages, Netherlands -->
    <g transform="translate(209.168265 19.389375) scale(0.12 -0.12)">
     <defs>
      <path id="ArialMT-2c" d="M 569 0 
L 569 641 
L 1209 641 
L 1209 0 
Q 1209 -353 1084 -570 
Q 959 -788 688 -906 
L 531 -666 
Q 709 -588 793 -436 
Q 878 -284 888 0 
L 569 0 
z
" transform="scale(0.015625)"/>
      <path id="ArialMT-4e" d="M 488 0 
L 488 4581 
L 1109 4581 
L 3516 984 
L 3516 4581 
L 4097 4581 
L 4097 0 
L 3475 0 
L 1069 3600 
L 1069 0 
L 488 0 
z
" transform="scale(0.015625)"/>
     </defs>
     <use xlink:href="#ArialMT-50"/>
     <use xlink:href="#ArialMT-72" x="66.699219"/>
     <use xlink:href="#ArialMT-6f" x="100"/>
     <use xlink:href="#ArialMT-67" x="155.615234"/>
     <use xlink:href="#ArialMT-72" x="211.230469"/>
     <use xlink:href="#ArialMT-61" x="244.53125"/>
     <use xlink:href="#ArialMT-6d" x="300.146484"/>
     <use xlink:href="#ArialMT-6d" x="383.447266"/>
     <use xlink:href="#ArialMT-69" x="466.748047"/>
     <use xlink:href="#ArialMT-6e" x="488.964844"/>
     <use xlink:href="#ArialMT-67" x="544.580078"/>
     <use xlink:href="#ArialMT-20" x="600.195312"/>
     <use xlink:href="#ArialMT-6c" x="627.978516"/>
     <use xlink:href="#ArialMT-61" x="650.195312"/>
     <use xlink:href="#ArialMT-6e" x="705.810547"/>
     <use xlink:href="#ArialMT-67" x="761.425781"/>
     <use xlink:href="#ArialMT-75" x="817.041016"/>
     <use xlink:href="#ArialMT-61" x="872.65625"/>
     <use xlink:href="#ArialMT-67" x="928.271484"/>
     <use xlink:href="#ArialMT-65" x="983.886719"/>
     <use xlink:href="#ArialMT-73" x="1039.501953"/>
     <use xlink:href="#ArialMT-2c" x="1089.501953"/>
     <use xlink:href="#ArialMT-20" x="1117.285156"/>
     <use xlink:href="#ArialMT-4e" x="1145.068359"/>
     <use xlink:href="#ArialMT-65" x="1217.285156"/>
     <use xlink:href="#ArialMT-74" x="1272.900391"/>
     <use xlink:href="#ArialMT-68" x="1300.683594"/>
     <use xlink:href="#ArialMT-65" x="1356.298828"/>
     <use xlink:href="#ArialMT-72" x="1411.914062"/>
     <use xlink:href="#ArialMT-6c" x="1445.214844"/>
     <use xlink:href="#ArialMT-61" x="1467.431641"/>
     <use xlink:href="#ArialMT-6e" x="1523.046875"/>
     <use xlink:href="#ArialMT-64" x="1578.662109"/>
     <use xlink:href="#ArialMT-73" x="1634.277344"/>
    </g>
   </g>
  </g>
  <g id="axes_2">
   <g id="patch_26">
    <path d="M 513.741729 573.054687 
L 565.055251 573.054687 
L 565.055251 25.389375 
L 513.741729 25.389375 
z
" style="fill: #ffffff"/>
   </g>
   <g id="patch_27">
    <path d="M 538.321982 548.16081 
L 534.374788 548.16081 
L 534.374788 529.890074 
L 538.321982 529.890074 
z
" clip-path="url(#peef60c2754)" style="fill: #ffa500"/>
   </g>
   <g id="patch_28">
    <path d="M 538.321982 525.32239 
L 533.657117 525.32239 
L 533.657117 507.051654 
L 538.321982 507.051654 
z
" clip-path="url(#peef60c2754)" style="fill: #ffa500"/>
   </g>
   <g id="patch_29">
    <path d="M 538.321982 502.48397 
L 533.657117 502.48397 
L 533.657117 484.213234 
L 538.321982 484.213234 
z
" clip-path="url(#peef60c2754)" style="fill: #ffa500"/>
   </g>
   <g id="patch_30">
    <path d="M 538.321982 479.64555 
L 541.551505 479.64555 
L 541.551505 461.374814 
L 538.321982 461.374814 
z
" clip-path="url(#peef60c2754)" style="fill: #008000"/>
   </g>
   <g id="patch_31">
    <path d="M 538.321982 456.80713 
L 541.551505 456.80713 
L 541.551505 438.536393 
L 538.321982 438.536393 
z
" clip-path="url(#peef60c2754)" style="fill: #008000"/>
   </g>
   <g id="patch_32">
    <path d="M 538.321982 433.968709 
L 533.657117 433.968709 
L 533.657117 415.697973 
L 538.321982 415.697973 
z
" clip-path="url(#peef60c2754)" style="fill: #ffa500"/>
   </g>
   <g id="patch_33">
    <path d="M 538.321982 411.130289 
L 536.886639 411.130289 
L 536.886639 392.859553 
L 538.321982 392.859553 
z
" clip-path="url(#peef60c2754)" style="fill: #ffa500"/>
   </g>
   <g id="patch_34">
    <path d="M 538.321982 388.291869 
L 536.886639 388.291869 
L 536.886639 370.021133 
L 538.321982 370.021133 
z
" clip-path="url(#peef60c2754)" style="fill: #ffa500"/>
   </g>
   <g id="patch_35">
    <path d="M 538.321982 365.453449 
L 528.992251 365.453449 
L 528.992251 347.182713 
L 538.321982 347.182713 
z
" clip-path="url(#peef60c2754)" style="fill: #ffa500"/>
   </g>
   <g id="patch_36">
    <path d="M 538.321982 342.615029 
L 544.063355 342.615029 
L 544.063355 324.344293 
L 538.321982 324.344293 
z
" clip-path="url(#peef60c2754)" style="fill: #008000"/>
   </g>
   <g id="patch_37">
    <path d="M 538.321982 319.776609 
L 551.240072 319.776609 
L 551.240072 301.505873 
L 538.321982 301.505873 
z
" clip-path="url(#peef60c2754)" style="fill: #008000"/>
   </g>
   <g id="patch_38">
    <path d="M 538.321982 296.938189 
L 531.504102 296.938189 
L 531.504102 278.667453 
L 538.321982 278.667453 
z
" clip-path="url(#peef60c2754)" style="fill: #ffa500"/>
   </g>
   <g id="patch_39">
    <path d="M 538.321982 274.099769 
L 537.963146 274.099769 
L 537.963146 255.829033 
L 538.321982 255.829033 
z
" clip-path="url(#peef60c2754)" style="fill: #ffa500"/>
   </g>
   <g id="patch_40">
    <path d="M 538.321982 251.261349 
L 560.928639 251.261349 
L 560.928639 232.990613 
L 538.321982 232.990613 
z
" clip-path="url(#peef60c2754)" style="fill: #008000"/>
   </g>
   <g id="patch_41">
    <path d="M 538.321982 228.422929 
L 562.722818 228.422929 
L 562.722818 210.152193 
L 538.321982 210.152193 
z
" clip-path="url(#peef60c2754)" style="fill: #008000"/>
   </g>
   <g id="patch_42">
    <path d="M 538.321982 205.584509 
L 542.269176 205.584509 
L 542.269176 187.313773 
L 538.321982 187.313773 
z
" clip-path="url(#peef60c2754)" style="fill: #008000"/>
   </g>
   <g id="patch_43">
    <path d="M 538.321982 182.746089 
L 543.345684 182.746089 
L 543.345684 164.475353 
L 538.321982 164.475353 
z
" clip-path="url(#peef60c2754)" style="fill: #008000"/>
   </g>
   <g id="patch_44">
    <path d="M 538.321982 159.907669 
L 530.78643 159.907669 
L 530.78643 141.636933 
L 538.321982 141.636933 
z
" clip-path="url(#peef60c2754)" style="fill: #ffa500"/>
   </g>
   <g id="patch_45">
    <path d="M 538.321982 137.069249 
L 522.17437 137.069249 
L 522.17437 118.798513 
L 538.321982 118.798513 
z
" clip-path="url(#peef60c2754)" style="fill: #ffa500"/>
   </g>
   <g id="patch_46">
    <path d="M 538.321982 114.230829 
L 549.087057 114.230829 
L 549.087057 95.960093 
L 538.321982 95.960093 
z
" clip-path="url(#peef60c2754)" style="fill: #008000"/>
   </g>
   <g id="patch_47">
    <path d="M 538.321982 91.392409 
L 516.074161 91.392409 
L 516.074161 73.121673 
L 538.321982 73.121673 
z
" clip-path="url(#peef60c2754)" style="fill: #ffa500"/>
   </g>
   <g id="patch_48">
    <path d="M 538.321982 68.553989 
L 529.351087 68.553989 
L 529.351087 50.283253 
L 538.321982 50.283253 
z
" clip-path="url(#peef60c2754)" style="fill: #ffa500"/>
   </g>
   <g id="matplotlib.axis_3">
    <g id="xtick_10">
     <g id="line2d_32">
      <g>
       <use xlink:href="#m4c99cd72f3" x="517.007135" y="573.054687" style="stroke: #000000; stroke-width: 0.8"/>
      </g>
     </g>
     <g id="text_55">
      <!-- 10 -->
      <g transform="translate(508.525885 587.2125) scale(0.1 -0.1)">
       <defs>
        <path id="ArialMT-2212" d="M 3381 1997 
L 356 1997 
L 356 2522 
L 3381 2522 
L 3381 1997 
z
" transform="scale(0.015625)"/>
       </defs>
       <use xlink:href="#ArialMT-2212"/>
       <use xlink:href="#ArialMT-31" x="58.398438"/>
       <use xlink:href="#ArialMT-30" x="114.013672"/>
      </g>
     </g>
    </g>
    <g id="xtick_11">
     <g id="line2d_33">
      <g>
       <use xlink:href="#m4c99cd72f3" x="538.321982" y="573.054687" style="stroke: #000000; stroke-width: 0.8"/>
      </g>
     </g>
     <g id="text_56">
      <!-- 0 -->
      <g transform="translate(535.541514 587.2125) scale(0.1 -0.1)">
       <use xlink:href="#ArialMT-30"/>
      </g>
     </g>
    </g>
    <g id="xtick_12">
     <g id="line2d_34">
      <g>
       <use xlink:href="#m4c99cd72f3" x="559.63683" y="573.054687" style="stroke: #000000; stroke-width: 0.8"/>
      </g>
     </g>
     <g id="text_57">
      <!-- 10 -->
      <g transform="translate(554.075892 587.2125) scale(0.1 -0.1)">
       <use xlink:href="#ArialMT-31"/>
       <use xlink:href="#ArialMT-30" x="55.615234"/>
      </g>
     </g>
    </g>
   </g>
   <g id="matplotlib.axis_4">
    <g id="ytick_23">
     <g id="line2d_35">
      <g>
       <use xlink:href="#m8e343aef83" x="513.741729" y="539.025442" style="stroke: #000000; stroke-width: 0.8"/>
      </g>
     </g>
    </g>
    <g id="ytick_24">
     <g id="line2d_36">
      <g>
       <use xlink:href="#m8e343aef83" x="513.741729" y="516.187022" style="stroke: #000000; stroke-width: 0.8"/>
      </g>
     </g>
    </g>
    <g id="ytick_25">
     <g id="line2d_37">
      <g>
       <use xlink:href="#m8e343aef83" x="513.741729" y="493.348602" style="stroke: #000000; stroke-width: 0.8"/>
      </g>
     </g>
    </g>
    <g id="ytick_26">
     <g id="line2d_38">
      <g>
       <use xlink:href="#m8e343aef83" x="513.741729" y="470.510182" style="stroke: #000000; stroke-width: 0.8"/>
      </g>
     </g>
    </g>
    <g id="ytick_27">
     <g id="line2d_39">
      <g>
       <use xlink:href="#m8e343aef83" x="513.741729" y="447.671761" style="stroke: #000000; stroke-width: 0.8"/>
      </g>
     </g>
    </g>
    <g id="ytick_28">
     <g id="line2d_40">
      <g>
       <use xlink:href="#m8e343aef83" x="513.741729" y="424.833341" style="stroke: #000000; stroke-width: 0.8"/>
      </g>
     </g>
    </g>
    <g id="ytick_29">
     <g id="line2d_41">
      <g>
       <use xlink:href="#m8e343aef83" x="513.741729" y="401.994921" style="stroke: #000000; stroke-width: 0.8"/>
      </g>
     </g>
    </g>
    <g id="ytick_30">
     <g id="line2d_42">
      <g>
       <use xlink:href="#m8e343aef83" x="513.741729" y="379.156501" style="stroke: #000000; stroke-width: 0.8"/>
      </g>
     </g>
    </g>
    <g id="ytick_31">
     <g id="line2d_43">
      <g>
       <use xlink:href="#m8e343aef83" x="513.741729" y="356.318081" style="stroke: #000000; stroke-width: 0.8"/>
      </g>
     </g>
    </g>
    <g id="ytick_32">
     <g id="line2d_44">
      <g>
       <use xlink:href="#m8e343aef83" x="513.741729" y="333.479661" style="stroke: #000000; stroke-width: 0.8"/>
      </g>
     </g>
    </g>
    <g id="ytick_33">
     <g id="line2d_45">
      <g>
       <use xlink:href="#m8e343aef83" x="513.741729" y="310.641241" style="stroke: #000000; stroke-width: 0.8"/>
      </g>
     </g>
    </g>
    <g id="ytick_34">
     <g id="line2d_46">
      <g>
       <use xlink:href="#m8e343aef83" x="513.741729" y="287.802821" style="stroke: #000000; stroke-width: 0.8"/>
      </g>
     </g>
    </g>
    <g id="ytick_35">
     <g id="line2d_47">
      <g>
       <use xlink:href="#m8e343aef83" x="513.741729" y="264.964401" style="stroke: #000000; stroke-width: 0.8"/>
      </g>
     </g>
    </g>
    <g id="ytick_36">
     <g id="line2d_48">
      <g>
       <use xlink:href="#m8e343aef83" x="513.741729" y="242.125981" style="stroke: #000000; stroke-width: 0.8"/>
      </g>
     </g>
    </g>
    <g id="ytick_37">
     <g id="line2d_49">
      <g>
       <use xlink:href="#m8e343aef83" x="513.741729" y="219.287561" style="stroke: #000000; stroke-width: 0.8"/>
      </g>
     </g>
    </g>
    <g id="ytick_38">
     <g id="line2d_50">
      <g>
       <use xlink:href="#m8e343aef83" x="513.741729" y="196.449141" style="stroke: #000000; stroke-width: 0.8"/>
      </g>
     </g>
    </g>
    <g id="ytick_39">
     <g id="line2d_51">
      <g>
       <use xlink:href="#m8e343aef83" x="513.741729" y="173.610721" style="stroke: #000000; stroke-width: 0.8"/>
      </g>
     </g>
    </g>
    <g id="ytick_40">
     <g id="line2d_52">
      <g>
       <use xlink:href="#m8e343aef83" x="513.741729" y="150.772301" style="stroke: #000000; stroke-width: 0.8"/>
      </g>
     </g>
    </g>
    <g id="ytick_41">
     <g id="line2d_53">
      <g>
       <use xlink:href="#m8e343aef83" x="513.741729" y="127.933881" style="stroke: #000000; stroke-width: 0.8"/>
      </g>
     </g>
    </g>
    <g id="ytick_42">
     <g id="line2d_54">
      <g>
       <use xlink:href="#m8e343aef83" x="513.741729" y="105.095461" style="stroke: #000000; stroke-width: 0.8"/>
      </g>
     </g>
    </g>
    <g id="ytick_43">
     <g id="line2d_55">
      <g>
       <use xlink:href="#m8e343aef83" x="513.741729" y="82.257041" style="stroke: #000000; stroke-width: 0.8"/>
      </g>
     </g>
    </g>
    <g id="ytick_44">
     <g id="line2d_56">
      <g>
       <use xlink:href="#m8e343aef83" x="513.741729" y="59.418621" style="stroke: #000000; stroke-width: 0.8"/>
      </g>
     </g>
    </g>
   </g>
   <g id="patch_49">
    <path d="M 513.741729 573.054687 
L 565.055251 573.054687 
" style="fill: none; stroke: #000000; stroke-width: 0.8; stroke-linejoin: miter; stroke-linecap: square"/>
   </g>
   <g id="text_58">
    <!--  -->
    <g transform="translate(535.390677 19.389375) scale(0.12 -0.12)">
     <defs>
      <path id="ArialMT-394" d="M -6 0 
L 1753 4581 
L 2406 4581 
L 4281 0 
L -6 0 
z
M 834 541 
L 3381 541 
L 2391 3150 
Q 2169 3738 2066 4100 
Q 1981 3675 1819 3225 
L 834 541 
z
" transform="scale(0.015625)"/>
     </defs>
     <use xlink:href="#ArialMT-394"/>
    </g>
   </g>
  </g>
 </g>
 <defs>
  <clipPath id="p8d521793c7">
   <rect x="130.620313" y="25.389375" width="359.194655" height="547.665312"/>
  </clipPath>
  <clipPath id="peef60c2754">
   <rect x="513.741729" y="25.389375" width="51.313522" height="547.665312"/>
  </clipPath>
 </defs>
</svg>
