<?xml version="1.0" encoding="utf-8" standalone="no"?>
<!DOCTYPE svg PUBLIC "-//W3C//DTD SVG 1.1//EN"
  "http://www.w3.org/Graphics/SVG/1.1/DTD/svg11.dtd">
<svg xmlns:xlink="http://www.w3.org/1999/xlink" width="576pt" height="432pt" viewBox="0 0 576 432" xmlns="http://www.w3.org/2000/svg" version="1.1">
 <metadata>
  <rdf:RDF xmlns:dc="http://purl.org/dc/elements/1.1/" xmlns:cc="http://creativecommons.org/ns#" xmlns:rdf="http://www.w3.org/1999/02/22-rdf-syntax-ns#">
   <cc:Work>
    <dc:type rdf:resource="http://purl.org/dc/dcmitype/StillImage"/>
    <dc:date>2022-10-13T10:42:13.354524</dc:date>
    <dc:format>image/svg+xml</dc:format>
    <dc:creator>
     <cc:Agent>
      <dc:title>Matplotlib v3.6.1, https://matplotlib.org/</dc:title>
     </cc:Agent>
    </dc:creator>
   </cc:Work>
  </rdf:RDF>
 </metadata>
 <defs>
  <style type="text/css">*{stroke-linejoin: round; stroke-linecap: butt}</style>
 </defs>
 <g id="figure_1">
  <g id="patch_1">
   <path d="M 0 432 
L 576 432 
L 576 0 
L 0 0 
z
" style="fill: #ffffff"/>
  </g>
  <g id="axes_1">
   <g id="patch_2">
    <path d="M 46.623438 381.792187 
L 279.878125 381.792187 
L 279.878125 32.86125 
L 46.623438 32.86125 
z
" style="fill: #ffffff"/>
   </g>
   <g id="patch_3">
    <path d="M 58.286172 365.93169 
L 151.588047 365.93169 
L 151.588047 239.047713 
L 58.286172 239.047713 
L 58.286172 365.93169 
z
" clip-path="url(#peb0904fb6a)" style="fill: #3274a1; stroke: #3f3f3f; stroke-width: 1.5; stroke-linejoin: miter"/>
   </g>
   <g id="patch_4">
    <path d="M 174.913516 365.93169 
L 268.215391 365.93169 
L 268.215391 239.047713 
L 174.913516 239.047713 
L 174.913516 365.93169 
z
" clip-path="url(#peb0904fb6a)" style="fill: #e1812c; stroke: #3f3f3f; stroke-width: 1.5; stroke-linejoin: miter"/>
   </g>
   <g id="matplotlib.axis_1">
    <g id="xtick_1">
     <g id="line2d_1">
      <defs>
       <path id="m4c99cd72f3" d="M 0 0 
L 0 3.5 
" style="stroke: #000000; stroke-width: 0.8"/>
      </defs>
      <g>
       <use xlink:href="#m4c99cd72f3" x="104.937109" y="391.792187" style="stroke: #000000; stroke-width: 0.8"/>
      </g>
     </g>
     <g id="text_1">
      <!-- 2018 -->
      <g transform="translate(93.815234 405.95) scale(0.1 -0.1)">
       <defs>
        <path id="ArialMT-32" d="M 3222 541 
L 3222 0 
L 194 0 
Q 188 203 259 391 
Q 375 700 629 1000 
Q 884 1300 1366 1694 
Q 2113 2306 2375 2664 
Q 2638 3022 2638 3341 
Q 2638 3675 2398 3904 
Q 2159 4134 1775 4134 
Q 1369 4134 1125 3890 
Q 881 3647 878 3216 
L 300 3275 
Q 359 3922 746 4261 
Q 1134 4600 1788 4600 
Q 2447 4600 2831 4234 
Q 3216 3869 3216 3328 
Q 3216 3053 3103 2787 
Q 2991 2522 2730 2228 
Q 2469 1934 1863 1422 
Q 1356 997 1212 845 
Q 1069 694 975 541 
L 3222 541 
z
" transform="scale(0.015625)"/>
        <path id="ArialMT-30" d="M 266 2259 
Q 266 3072 433 3567 
Q 600 4063 929 4331 
Q 1259 4600 1759 4600 
Q 2128 4600 2406 4451 
Q 2684 4303 2865 4023 
Q 3047 3744 3150 3342 
Q 3253 2941 3253 2259 
Q 3253 1453 3087 958 
Q 2922 463 2592 192 
Q 2263 -78 1759 -78 
Q 1097 -78 719 397 
Q 266 969 266 2259 
z
M 844 2259 
Q 844 1131 1108 757 
Q 1372 384 1759 384 
Q 2147 384 2411 759 
Q 2675 1134 2675 2259 
Q 2675 3391 2411 3762 
Q 2147 4134 1753 4134 
Q 1366 4134 1134 3806 
Q 844 3388 844 2259 
z
" transform="scale(0.015625)"/>
        <path id="ArialMT-31" d="M 2384 0 
L 1822 0 
L 1822 3584 
Q 1619 3391 1289 3197 
Q 959 3003 697 2906 
L 697 3450 
Q 1169 3672 1522 3987 
Q 1875 4303 2022 4600 
L 2384 4600 
L 2384 0 
z
" transform="scale(0.015625)"/>
        <path id="ArialMT-38" d="M 1131 2484 
Q 781 2613 612 2850 
Q 444 3088 444 3419 
Q 444 3919 803 4259 
Q 1163 4600 1759 4600 
Q 2359 4600 2725 4251 
Q 3091 3903 3091 3403 
Q 3091 3084 2923 2848 
Q 2756 2613 2416 2484 
Q 2838 2347 3058 2040 
Q 3278 1734 3278 1309 
Q 3278 722 2862 322 
Q 2447 -78 1769 -78 
Q 1091 -78 675 323 
Q 259 725 259 1325 
Q 259 1772 486 2073 
Q 713 2375 1131 2484 
z
M 1019 3438 
Q 1019 3113 1228 2906 
Q 1438 2700 1772 2700 
Q 2097 2700 2305 2904 
Q 2513 3109 2513 3406 
Q 2513 3716 2298 3927 
Q 2084 4138 1766 4138 
Q 1444 4138 1231 3931 
Q 1019 3725 1019 3438 
z
M 838 1322 
Q 838 1081 952 856 
Q 1066 631 1291 507 
Q 1516 384 1775 384 
Q 2178 384 2440 643 
Q 2703 903 2703 1303 
Q 2703 1709 2433 1975 
Q 2163 2241 1756 2241 
Q 1359 2241 1098 1978 
Q 838 1716 838 1322 
z
" transform="scale(0.015625)"/>
       </defs>
       <use xlink:href="#ArialMT-32"/>
       <use xlink:href="#ArialMT-30" x="55.615234"/>
       <use xlink:href="#ArialMT-31" x="111.230469"/>
       <use xlink:href="#ArialMT-38" x="166.845703"/>
      </g>
     </g>
    </g>
    <g id="xtick_2">
     <g id="line2d_2">
      <g>
       <use xlink:href="#m4c99cd72f3" x="221.564453" y="391.792187" style="stroke: #000000; stroke-width: 0.8"/>
      </g>
     </g>
     <g id="text_2">
      <!-- 2022 -->
      <g transform="translate(210.442578 405.95) scale(0.1 -0.1)">
       <use xlink:href="#ArialMT-32"/>
       <use xlink:href="#ArialMT-30" x="55.615234"/>
       <use xlink:href="#ArialMT-32" x="111.230469"/>
       <use xlink:href="#ArialMT-32" x="166.845703"/>
      </g>
     </g>
    </g>
    <g id="text_3">
     <!-- Year -->
     <g transform="translate(153.146094 419.095312) scale(0.1 -0.1)">
      <defs>
       <path id="ArialMT-59" d="M 1784 0 
L 1784 1941 
L 19 4581 
L 756 4581 
L 1659 3200 
Q 1909 2813 2125 2425 
Q 2331 2784 2625 3234 
L 3513 4581 
L 4219 4581 
L 2391 1941 
L 2391 0 
L 1784 0 
z
" transform="scale(0.015625)"/>
       <path id="ArialMT-65" d="M 2694 1069 
L 3275 997 
Q 3138 488 2766 206 
Q 2394 -75 1816 -75 
Q 1088 -75 661 373 
Q 234 822 234 1631 
Q 234 2469 665 2931 
Q 1097 3394 1784 3394 
Q 2450 3394 2872 2941 
Q 3294 2488 3294 1666 
Q 3294 1616 3291 1516 
L 816 1516 
Q 847 969 1125 678 
Q 1403 388 1819 388 
Q 2128 388 2347 550 
Q 2566 713 2694 1069 
z
M 847 1978 
L 2700 1978 
Q 2663 2397 2488 2606 
Q 2219 2931 1791 2931 
Q 1403 2931 1139 2672 
Q 875 2413 847 1978 
z
" transform="scale(0.015625)"/>
       <path id="ArialMT-61" d="M 2588 409 
Q 2275 144 1986 34 
Q 1697 -75 1366 -75 
Q 819 -75 525 192 
Q 231 459 231 875 
Q 231 1119 342 1320 
Q 453 1522 633 1644 
Q 813 1766 1038 1828 
Q 1203 1872 1538 1913 
Q 2219 1994 2541 2106 
Q 2544 2222 2544 2253 
Q 2544 2597 2384 2738 
Q 2169 2928 1744 2928 
Q 1347 2928 1158 2789 
Q 969 2650 878 2297 
L 328 2372 
Q 403 2725 575 2942 
Q 747 3159 1072 3276 
Q 1397 3394 1825 3394 
Q 2250 3394 2515 3294 
Q 2781 3194 2906 3042 
Q 3031 2891 3081 2659 
Q 3109 2516 3109 2141 
L 3109 1391 
Q 3109 606 3145 398 
Q 3181 191 3288 0 
L 2700 0 
Q 2613 175 2588 409 
z
M 2541 1666 
Q 2234 1541 1622 1453 
Q 1275 1403 1131 1340 
Q 988 1278 909 1158 
Q 831 1038 831 891 
Q 831 666 1001 516 
Q 1172 366 1500 366 
Q 1825 366 2078 508 
Q 2331 650 2450 897 
Q 2541 1088 2541 1459 
L 2541 1666 
z
" transform="scale(0.015625)"/>
       <path id="ArialMT-72" d="M 416 0 
L 416 3319 
L 922 3319 
L 922 2816 
Q 1116 3169 1280 3281 
Q 1444 3394 1641 3394 
Q 1925 3394 2219 3213 
L 2025 2691 
Q 1819 2813 1613 2813 
Q 1428 2813 1281 2702 
Q 1134 2591 1072 2394 
Q 978 2094 978 1738 
L 978 0 
L 416 0 
z
" transform="scale(0.015625)"/>
      </defs>
      <use xlink:href="#ArialMT-59"/>
      <use xlink:href="#ArialMT-65" x="57.574219"/>
      <use xlink:href="#ArialMT-61" x="113.189453"/>
      <use xlink:href="#ArialMT-72" x="168.804688"/>
     </g>
    </g>
   </g>
   <g id="matplotlib.axis_2">
    <g id="ytick_1">
     <g id="line2d_3">
      <defs>
       <path id="m8e343aef83" d="M 0 0 
L -3.5 0 
" style="stroke: #000000; stroke-width: 0.8"/>
      </defs>
      <g>
       <use xlink:href="#m8e343aef83" x="36.623438" y="365.93169" style="stroke: #000000; stroke-width: 0.8"/>
      </g>
     </g>
     <g id="text_4">
      <!-- 0 -->
      <g transform="translate(24.0625 369.510597) scale(0.1 -0.1)">
       <use xlink:href="#ArialMT-30"/>
      </g>
     </g>
    </g>
    <g id="ytick_2">
     <g id="line2d_4">
      <g>
       <use xlink:href="#m8e343aef83" x="36.623438" y="302.489702" style="stroke: #000000; stroke-width: 0.8"/>
      </g>
     </g>
     <g id="text_5">
      <!-- 1 -->
      <g transform="translate(24.0625 306.068608) scale(0.1 -0.1)">
       <use xlink:href="#ArialMT-31"/>
      </g>
     </g>
    </g>
    <g id="ytick_3">
     <g id="line2d_5">
      <g>
       <use xlink:href="#m8e343aef83" x="36.623438" y="239.047713" style="stroke: #000000; stroke-width: 0.8"/>
      </g>
     </g>
     <g id="text_6">
      <!-- 2 -->
      <g transform="translate(24.0625 242.626619) scale(0.1 -0.1)">
       <use xlink:href="#ArialMT-32"/>
      </g>
     </g>
    </g>
    <g id="ytick_4">
     <g id="line2d_6">
      <g>
       <use xlink:href="#m8e343aef83" x="36.623438" y="175.605724" style="stroke: #000000; stroke-width: 0.8"/>
      </g>
     </g>
     <g id="text_7">
      <!-- 3 -->
      <g transform="translate(24.0625 179.184631) scale(0.1 -0.1)">
       <defs>
        <path id="ArialMT-33" d="M 269 1209 
L 831 1284 
Q 928 806 1161 595 
Q 1394 384 1728 384 
Q 2125 384 2398 659 
Q 2672 934 2672 1341 
Q 2672 1728 2419 1979 
Q 2166 2231 1775 2231 
Q 1616 2231 1378 2169 
L 1441 2663 
Q 1497 2656 1531 2656 
Q 1891 2656 2178 2843 
Q 2466 3031 2466 3422 
Q 2466 3731 2256 3934 
Q 2047 4138 1716 4138 
Q 1388 4138 1169 3931 
Q 950 3725 888 3313 
L 325 3413 
Q 428 3978 793 4289 
Q 1159 4600 1703 4600 
Q 2078 4600 2393 4439 
Q 2709 4278 2876 4000 
Q 3044 3722 3044 3409 
Q 3044 3113 2884 2869 
Q 2725 2625 2413 2481 
Q 2819 2388 3044 2092 
Q 3269 1797 3269 1353 
Q 3269 753 2831 336 
Q 2394 -81 1725 -81 
Q 1122 -81 723 278 
Q 325 638 269 1209 
z
" transform="scale(0.015625)"/>
       </defs>
       <use xlink:href="#ArialMT-33"/>
      </g>
     </g>
    </g>
    <g id="ytick_5">
     <g id="line2d_7">
      <g>
       <use xlink:href="#m8e343aef83" x="36.623438" y="112.163736" style="stroke: #000000; stroke-width: 0.8"/>
      </g>
     </g>
     <g id="text_8">
      <!-- 4 -->
      <g transform="translate(24.0625 115.742642) scale(0.1 -0.1)">
       <defs>
        <path id="ArialMT-34" d="M 2069 0 
L 2069 1097 
L 81 1097 
L 81 1613 
L 2172 4581 
L 2631 4581 
L 2631 1613 
L 3250 1613 
L 3250 1097 
L 2631 1097 
L 2631 0 
L 2069 0 
z
M 2069 1613 
L 2069 3678 
L 634 1613 
L 2069 1613 
z
" transform="scale(0.015625)"/>
       </defs>
       <use xlink:href="#ArialMT-34"/>
      </g>
     </g>
    </g>
    <g id="ytick_6">
     <g id="line2d_8">
      <g>
       <use xlink:href="#m8e343aef83" x="36.623438" y="48.721747" style="stroke: #000000; stroke-width: 0.8"/>
      </g>
     </g>
     <g id="text_9">
      <!-- 5 -->
      <g transform="translate(24.0625 52.300653) scale(0.1 -0.1)">
       <defs>
        <path id="ArialMT-35" d="M 266 1200 
L 856 1250 
Q 922 819 1161 601 
Q 1400 384 1738 384 
Q 2144 384 2425 690 
Q 2706 997 2706 1503 
Q 2706 1984 2436 2262 
Q 2166 2541 1728 2541 
Q 1456 2541 1237 2417 
Q 1019 2294 894 2097 
L 366 2166 
L 809 4519 
L 3088 4519 
L 3088 3981 
L 1259 3981 
L 1013 2750 
Q 1425 3038 1878 3038 
Q 2478 3038 2890 2622 
Q 3303 2206 3303 1553 
Q 3303 931 2941 478 
Q 2500 -78 1738 -78 
Q 1113 -78 717 272 
Q 322 622 266 1200 
z
" transform="scale(0.015625)"/>
       </defs>
       <use xlink:href="#ArialMT-35"/>
      </g>
     </g>
    </g>
    <g id="text_10">
     <!-- Training events per year -->
     <g transform="translate(17.957813 261.050938) rotate(-90) scale(0.1 -0.1)">
      <defs>
       <path id="ArialMT-54" d="M 1659 0 
L 1659 4041 
L 150 4041 
L 150 4581 
L 3781 4581 
L 3781 4041 
L 2266 4041 
L 2266 0 
L 1659 0 
z
" transform="scale(0.015625)"/>
       <path id="ArialMT-69" d="M 425 3934 
L 425 4581 
L 988 4581 
L 988 3934 
L 425 3934 
z
M 425 0 
L 425 3319 
L 988 3319 
L 988 0 
L 425 0 
z
" transform="scale(0.015625)"/>
       <path id="ArialMT-6e" d="M 422 0 
L 422 3319 
L 928 3319 
L 928 2847 
Q 1294 3394 1984 3394 
Q 2284 3394 2536 3286 
Q 2788 3178 2913 3003 
Q 3038 2828 3088 2588 
Q 3119 2431 3119 2041 
L 3119 0 
L 2556 0 
L 2556 2019 
Q 2556 2363 2490 2533 
Q 2425 2703 2258 2804 
Q 2091 2906 1866 2906 
Q 1506 2906 1245 2678 
Q 984 2450 984 1813 
L 984 0 
L 422 0 
z
" transform="scale(0.015625)"/>
       <path id="ArialMT-67" d="M 319 -275 
L 866 -356 
Q 900 -609 1056 -725 
Q 1266 -881 1628 -881 
Q 2019 -881 2231 -725 
Q 2444 -569 2519 -288 
Q 2563 -116 2559 434 
Q 2191 0 1641 0 
Q 956 0 581 494 
Q 206 988 206 1678 
Q 206 2153 378 2554 
Q 550 2956 876 3175 
Q 1203 3394 1644 3394 
Q 2231 3394 2613 2919 
L 2613 3319 
L 3131 3319 
L 3131 450 
Q 3131 -325 2973 -648 
Q 2816 -972 2473 -1159 
Q 2131 -1347 1631 -1347 
Q 1038 -1347 672 -1080 
Q 306 -813 319 -275 
z
M 784 1719 
Q 784 1066 1043 766 
Q 1303 466 1694 466 
Q 2081 466 2343 764 
Q 2606 1063 2606 1700 
Q 2606 2309 2336 2618 
Q 2066 2928 1684 2928 
Q 1309 2928 1046 2623 
Q 784 2319 784 1719 
z
" transform="scale(0.015625)"/>
       <path id="ArialMT-20" transform="scale(0.015625)"/>
       <path id="ArialMT-76" d="M 1344 0 
L 81 3319 
L 675 3319 
L 1388 1331 
Q 1503 1009 1600 663 
Q 1675 925 1809 1294 
L 2547 3319 
L 3125 3319 
L 1869 0 
L 1344 0 
z
" transform="scale(0.015625)"/>
       <path id="ArialMT-74" d="M 1650 503 
L 1731 6 
Q 1494 -44 1306 -44 
Q 1000 -44 831 53 
Q 663 150 594 308 
Q 525 466 525 972 
L 525 2881 
L 113 2881 
L 113 3319 
L 525 3319 
L 525 4141 
L 1084 4478 
L 1084 3319 
L 1650 3319 
L 1650 2881 
L 1084 2881 
L 1084 941 
Q 1084 700 1114 631 
Q 1144 563 1211 522 
Q 1278 481 1403 481 
Q 1497 481 1650 503 
z
" transform="scale(0.015625)"/>
       <path id="ArialMT-73" d="M 197 991 
L 753 1078 
Q 800 744 1014 566 
Q 1228 388 1613 388 
Q 2000 388 2187 545 
Q 2375 703 2375 916 
Q 2375 1106 2209 1216 
Q 2094 1291 1634 1406 
Q 1016 1563 777 1677 
Q 538 1791 414 1992 
Q 291 2194 291 2438 
Q 291 2659 392 2848 
Q 494 3038 669 3163 
Q 800 3259 1026 3326 
Q 1253 3394 1513 3394 
Q 1903 3394 2198 3281 
Q 2494 3169 2634 2976 
Q 2775 2784 2828 2463 
L 2278 2388 
Q 2241 2644 2061 2787 
Q 1881 2931 1553 2931 
Q 1166 2931 1000 2803 
Q 834 2675 834 2503 
Q 834 2394 903 2306 
Q 972 2216 1119 2156 
Q 1203 2125 1616 2013 
Q 2213 1853 2448 1751 
Q 2684 1650 2818 1456 
Q 2953 1263 2953 975 
Q 2953 694 2789 445 
Q 2625 197 2315 61 
Q 2006 -75 1616 -75 
Q 969 -75 630 194 
Q 291 463 197 991 
z
" transform="scale(0.015625)"/>
       <path id="ArialMT-70" d="M 422 -1272 
L 422 3319 
L 934 3319 
L 934 2888 
Q 1116 3141 1344 3267 
Q 1572 3394 1897 3394 
Q 2322 3394 2647 3175 
Q 2972 2956 3137 2557 
Q 3303 2159 3303 1684 
Q 3303 1175 3120 767 
Q 2938 359 2589 142 
Q 2241 -75 1856 -75 
Q 1575 -75 1351 44 
Q 1128 163 984 344 
L 984 -1272 
L 422 -1272 
z
M 931 1641 
Q 931 1000 1190 694 
Q 1450 388 1819 388 
Q 2194 388 2461 705 
Q 2728 1022 2728 1688 
Q 2728 2322 2467 2637 
Q 2206 2953 1844 2953 
Q 1484 2953 1207 2617 
Q 931 2281 931 1641 
z
" transform="scale(0.015625)"/>
       <path id="ArialMT-79" d="M 397 -1278 
L 334 -750 
Q 519 -800 656 -800 
Q 844 -800 956 -737 
Q 1069 -675 1141 -563 
Q 1194 -478 1313 -144 
Q 1328 -97 1363 -6 
L 103 3319 
L 709 3319 
L 1400 1397 
Q 1534 1031 1641 628 
Q 1738 1016 1872 1384 
L 2581 3319 
L 3144 3319 
L 1881 -56 
Q 1678 -603 1566 -809 
Q 1416 -1088 1222 -1217 
Q 1028 -1347 759 -1347 
Q 597 -1347 397 -1278 
z
" transform="scale(0.015625)"/>
      </defs>
      <use xlink:href="#ArialMT-54"/>
      <use xlink:href="#ArialMT-72" x="57.333984"/>
      <use xlink:href="#ArialMT-61" x="90.634766"/>
      <use xlink:href="#ArialMT-69" x="146.25"/>
      <use xlink:href="#ArialMT-6e" x="168.466797"/>
      <use xlink:href="#ArialMT-69" x="224.082031"/>
      <use xlink:href="#ArialMT-6e" x="246.298828"/>
      <use xlink:href="#ArialMT-67" x="301.914062"/>
      <use xlink:href="#ArialMT-20" x="357.529297"/>
      <use xlink:href="#ArialMT-65" x="385.3125"/>
      <use xlink:href="#ArialMT-76" x="440.927734"/>
      <use xlink:href="#ArialMT-65" x="490.927734"/>
      <use xlink:href="#ArialMT-6e" x="546.542969"/>
      <use xlink:href="#ArialMT-74" x="602.158203"/>
      <use xlink:href="#ArialMT-73" x="629.941406"/>
      <use xlink:href="#ArialMT-20" x="679.941406"/>
      <use xlink:href="#ArialMT-70" x="707.724609"/>
      <use xlink:href="#ArialMT-65" x="763.339844"/>
      <use xlink:href="#ArialMT-72" x="818.955078"/>
      <use xlink:href="#ArialMT-20" x="852.255859"/>
      <use xlink:href="#ArialMT-79" x="880.039062"/>
      <use xlink:href="#ArialMT-65" x="930.039062"/>
      <use xlink:href="#ArialMT-61" x="985.654297"/>
      <use xlink:href="#ArialMT-72" x="1041.269531"/>
     </g>
    </g>
   </g>
   <g id="line2d_9">
    <path d="M 104.937109 365.93169 
L 104.937109 365.93169 
" clip-path="url(#peb0904fb6a)" style="fill: none; stroke: #3f3f3f; stroke-width: 1.5; stroke-linecap: square"/>
   </g>
   <g id="line2d_10">
    <path d="M 104.937109 239.047713 
L 104.937109 48.721747 
" clip-path="url(#peb0904fb6a)" style="fill: none; stroke: #3f3f3f; stroke-width: 1.5; stroke-linecap: square"/>
   </g>
   <g id="line2d_11">
    <path d="M 81.611641 365.93169 
L 128.262578 365.93169 
" clip-path="url(#peb0904fb6a)" style="fill: none; stroke: #3f3f3f; stroke-width: 1.5; stroke-linecap: square"/>
   </g>
   <g id="line2d_12">
    <path d="M 81.611641 48.721747 
L 128.262578 48.721747 
" clip-path="url(#peb0904fb6a)" style="fill: none; stroke: #3f3f3f; stroke-width: 1.5; stroke-linecap: square"/>
   </g>
   <g id="line2d_13"/>
   <g id="line2d_14">
    <path d="M 221.564453 365.93169 
L 221.564453 365.93169 
" clip-path="url(#peb0904fb6a)" style="fill: none; stroke: #3f3f3f; stroke-width: 1.5; stroke-linecap: square"/>
   </g>
   <g id="line2d_15">
    <path d="M 221.564453 239.047713 
L 221.564453 48.721747 
" clip-path="url(#peb0904fb6a)" style="fill: none; stroke: #3f3f3f; stroke-width: 1.5; stroke-linecap: square"/>
   </g>
   <g id="line2d_16">
    <path d="M 198.238984 365.93169 
L 244.889922 365.93169 
" clip-path="url(#peb0904fb6a)" style="fill: none; stroke: #3f3f3f; stroke-width: 1.5; stroke-linecap: square"/>
   </g>
   <g id="line2d_17">
    <path d="M 198.238984 48.721747 
L 244.889922 48.721747 
" clip-path="url(#peb0904fb6a)" style="fill: none; stroke: #3f3f3f; stroke-width: 1.5; stroke-linecap: square"/>
   </g>
   <g id="line2d_18"/>
   <g id="line2d_19">
    <path d="M 58.286172 302.489702 
L 151.588047 302.489702 
" clip-path="url(#peb0904fb6a)" style="fill: none; stroke: #3f3f3f; stroke-width: 1.5; stroke-linecap: square"/>
   </g>
   <g id="line2d_20">
    <path d="M 174.913516 302.489702 
L 268.215391 302.489702 
" clip-path="url(#peb0904fb6a)" style="fill: none; stroke: #3f3f3f; stroke-width: 1.5; stroke-linecap: square"/>
   </g>
   <g id="patch_5">
    <path d="M 36.623438 365.93169 
L 36.623438 48.721747 
" style="fill: none; stroke: #000000; stroke-width: 0.8; stroke-linejoin: miter; stroke-linecap: square"/>
   </g>
   <g id="patch_6">
    <path d="M 104.937109 391.792187 
L 221.564453 391.792187 
" style="fill: none; stroke: #000000; stroke-width: 0.8; stroke-linejoin: miter; stroke-linecap: square"/>
   </g>
   <g id="PathCollection_1">
    <defs>
     <path id="m7c0cf669a7" d="M 0 2.5 
C 0.663008 2.5 1.29895 2.236584 1.767767 1.767767 
C 2.236584 1.29895 2.5 0.663008 2.5 0 
C 2.5 -0.663008 2.236584 -1.29895 1.767767 -1.767767 
C 1.29895 -2.236584 0.663008 -2.5 0 -2.5 
C -0.663008 -2.5 -1.29895 -2.236584 -1.767767 -1.767767 
C -2.236584 -1.29895 -2.5 -0.663008 -2.5 0 
C -2.5 0.663008 -2.236584 1.29895 -1.767767 1.767767 
C -1.29895 2.236584 -0.663008 2.5 0 2.5 
z
"/>
    </defs>
    <g clip-path="url(#peb0904fb6a)">
     <use xlink:href="#m7c0cf669a7" x="104.937109" y="112.163736" style="fill: #808080; fill-opacity: 0.75"/>
     <use xlink:href="#m7c0cf669a7" x="104.937109" y="48.721747" style="fill: #808080; fill-opacity: 0.75"/>
     <use xlink:href="#m7c0cf669a7" x="120.687109" y="302.489702" style="fill: #808080; fill-opacity: 0.75"/>
     <use xlink:href="#m7c0cf669a7" x="104.937109" y="302.489702" style="fill: #808080; fill-opacity: 0.75"/>
     <use xlink:href="#m7c0cf669a7" x="73.437109" y="365.93169" style="fill: #808080; fill-opacity: 0.75"/>
     <use xlink:href="#m7c0cf669a7" x="136.437109" y="365.93169" style="fill: #808080; fill-opacity: 0.75"/>
     <use xlink:href="#m7c0cf669a7" x="78.687109" y="365.93169" style="fill: #808080; fill-opacity: 0.75"/>
     <use xlink:href="#m7c0cf669a7" x="83.937109" y="239.047713" style="fill: #808080; fill-opacity: 0.75"/>
     <use xlink:href="#m7c0cf669a7" x="94.437109" y="239.047713" style="fill: #808080; fill-opacity: 0.75"/>
     <use xlink:href="#m7c0cf669a7" x="89.187109" y="302.489702" style="fill: #808080; fill-opacity: 0.75"/>
     <use xlink:href="#m7c0cf669a7" x="125.937109" y="365.93169" style="fill: #808080; fill-opacity: 0.75"/>
     <use xlink:href="#m7c0cf669a7" x="83.937109" y="365.93169" style="fill: #808080; fill-opacity: 0.75"/>
     <use xlink:href="#m7c0cf669a7" x="120.687109" y="365.93169" style="fill: #808080; fill-opacity: 0.75"/>
     <use xlink:href="#m7c0cf669a7" x="120.687109" y="239.047713" style="fill: #808080; fill-opacity: 0.75"/>
     <use xlink:href="#m7c0cf669a7" x="110.187109" y="302.489702" style="fill: #808080; fill-opacity: 0.75"/>
     <use xlink:href="#m7c0cf669a7" x="104.937109" y="365.93169" style="fill: #808080; fill-opacity: 0.75"/>
     <use xlink:href="#m7c0cf669a7" x="94.437109" y="302.489702" style="fill: #808080; fill-opacity: 0.75"/>
     <use xlink:href="#m7c0cf669a7" x="115.437109" y="302.489702" style="fill: #808080; fill-opacity: 0.75"/>
     <use xlink:href="#m7c0cf669a7" x="115.437109" y="365.93169" style="fill: #808080; fill-opacity: 0.75"/>
     <use xlink:href="#m7c0cf669a7" x="89.187109" y="239.047713" style="fill: #808080; fill-opacity: 0.75"/>
     <use xlink:href="#m7c0cf669a7" x="94.437109" y="365.93169" style="fill: #808080; fill-opacity: 0.75"/>
     <use xlink:href="#m7c0cf669a7" x="115.437109" y="239.047713" style="fill: #808080; fill-opacity: 0.75"/>
     <use xlink:href="#m7c0cf669a7" x="125.937109" y="239.047713" style="fill: #808080; fill-opacity: 0.75"/>
     <use xlink:href="#m7c0cf669a7" x="110.187109" y="365.93169" style="fill: #808080; fill-opacity: 0.75"/>
     <use xlink:href="#m7c0cf669a7" x="110.187109" y="239.047713" style="fill: #808080; fill-opacity: 0.75"/>
     <use xlink:href="#m7c0cf669a7" x="99.687109" y="239.047713" style="fill: #808080; fill-opacity: 0.75"/>
     <use xlink:href="#m7c0cf669a7" x="104.937109" y="239.047713" style="fill: #808080; fill-opacity: 0.75"/>
     <use xlink:href="#m7c0cf669a7" x="99.687109" y="302.489702" style="fill: #808080; fill-opacity: 0.75"/>
     <use xlink:href="#m7c0cf669a7" x="104.937109" y="334.210696" style="fill: #808080; fill-opacity: 0.75"/>
     <use xlink:href="#m7c0cf669a7" x="99.687109" y="365.93169" style="fill: #808080; fill-opacity: 0.75"/>
     <use xlink:href="#m7c0cf669a7" x="89.187109" y="365.93169" style="fill: #808080; fill-opacity: 0.75"/>
     <use xlink:href="#m7c0cf669a7" x="131.187109" y="365.93169" style="fill: #808080; fill-opacity: 0.75"/>
    </g>
   </g>
   <g id="PathCollection_2">
    <g clip-path="url(#peb0904fb6a)">
     <use xlink:href="#m7c0cf669a7" x="221.564453" y="365.93169" style="fill: #808080; fill-opacity: 0.75"/>
     <use xlink:href="#m7c0cf669a7" x="237.314453" y="365.93169" style="fill: #808080; fill-opacity: 0.75"/>
     <use xlink:href="#m7c0cf669a7" x="232.064453" y="302.489702" style="fill: #808080; fill-opacity: 0.75"/>
     <use xlink:href="#m7c0cf669a7" x="221.564453" y="334.210696" style="fill: #808080; fill-opacity: 0.75"/>
     <use xlink:href="#m7c0cf669a7" x="216.314453" y="175.605724" style="fill: #808080; fill-opacity: 0.75"/>
     <use xlink:href="#m7c0cf669a7" x="232.064453" y="365.93169" style="fill: #808080; fill-opacity: 0.75"/>
     <use xlink:href="#m7c0cf669a7" x="211.064453" y="365.93169" style="fill: #808080; fill-opacity: 0.75"/>
     <use xlink:href="#m7c0cf669a7" x="221.564453" y="112.163736" style="fill: #808080; fill-opacity: 0.75"/>
     <use xlink:href="#m7c0cf669a7" x="221.564453" y="48.721747" style="fill: #808080; fill-opacity: 0.75"/>
     <use xlink:href="#m7c0cf669a7" x="226.814453" y="239.047713" style="fill: #808080; fill-opacity: 0.75"/>
     <use xlink:href="#m7c0cf669a7" x="221.564453" y="239.047713" style="fill: #808080; fill-opacity: 0.75"/>
     <use xlink:href="#m7c0cf669a7" x="216.314453" y="48.721747" style="fill: #808080; fill-opacity: 0.75"/>
     <use xlink:href="#m7c0cf669a7" x="211.064453" y="302.489702" style="fill: #808080; fill-opacity: 0.75"/>
     <use xlink:href="#m7c0cf669a7" x="226.814453" y="365.93169" style="fill: #808080; fill-opacity: 0.75"/>
     <use xlink:href="#m7c0cf669a7" x="205.814453" y="302.489702" style="fill: #808080; fill-opacity: 0.75"/>
     <use xlink:href="#m7c0cf669a7" x="237.314453" y="302.489702" style="fill: #808080; fill-opacity: 0.75"/>
     <use xlink:href="#m7c0cf669a7" x="216.314453" y="365.93169" style="fill: #808080; fill-opacity: 0.75"/>
     <use xlink:href="#m7c0cf669a7" x="226.814453" y="302.489702" style="fill: #808080; fill-opacity: 0.75"/>
     <use xlink:href="#m7c0cf669a7" x="205.814453" y="365.93169" style="fill: #808080; fill-opacity: 0.75"/>
     <use xlink:href="#m7c0cf669a7" x="216.314453" y="302.489702" style="fill: #808080; fill-opacity: 0.75"/>
     <use xlink:href="#m7c0cf669a7" x="221.564453" y="302.489702" style="fill: #808080; fill-opacity: 0.75"/>
     <use xlink:href="#m7c0cf669a7" x="200.564453" y="365.93169" style="fill: #808080; fill-opacity: 0.75"/>
     <use xlink:href="#m7c0cf669a7" x="216.314453" y="239.047713" style="fill: #808080; fill-opacity: 0.75"/>
     <use xlink:href="#m7c0cf669a7" x="221.564453" y="175.605724" style="fill: #808080; fill-opacity: 0.75"/>
    </g>
   </g>
  </g>
  <g id="axes_2">
   <g id="patch_7">
    <path d="M 331.945312 381.792187 
L 565.2 381.792187 
L 565.2 32.86125 
L 331.945312 32.86125 
z
" style="fill: #ffffff"/>
   </g>
   <g id="patch_8">
    <path d="M 357.694207 381.792187 
L 372.840615 381.792187 
L 372.840615 168.161001 
L 357.694207 168.161001 
z
" clip-path="url(#pf5966eed3b)" style="fill: #2d1e3e; fill-opacity: 0.5; stroke: #000000; stroke-linejoin: miter"/>
   </g>
   <g id="patch_9">
    <path d="M 387.987023 381.792187 
L 403.133431 381.792187 
L 403.133431 215.634598 
L 387.987023 215.634598 
z
" clip-path="url(#pf5966eed3b)" style="fill: #2d1e3e; fill-opacity: 0.5; stroke: #000000; stroke-linejoin: miter"/>
   </g>
   <g id="patch_10">
    <path d="M 418.27984 381.792187 
L 433.426248 381.792187 
L 433.426248 310.581792 
L 418.27984 310.581792 
z
" clip-path="url(#pf5966eed3b)" style="fill: #2d1e3e; fill-opacity: 0.5; stroke: #000000; stroke-linejoin: miter"/>
   </g>
   <g id="patch_11">
    <path d="M 448.572656 381.792187 
L 463.719065 381.792187 
L 463.719065 381.792187 
L 448.572656 381.792187 
z
" clip-path="url(#pf5966eed3b)" style="fill: #2d1e3e; fill-opacity: 0.5; stroke: #000000; stroke-linejoin: miter"/>
   </g>
   <g id="patch_12">
    <path d="M 478.865473 381.792187 
L 494.011881 381.792187 
L 494.011881 334.318591 
L 478.865473 334.318591 
z
" clip-path="url(#pf5966eed3b)" style="fill: #2d1e3e; fill-opacity: 0.5; stroke: #000000; stroke-linejoin: miter"/>
   </g>
   <g id="patch_13">
    <path d="M 509.158289 381.792187 
L 524.304698 381.792187 
L 524.304698 358.055389 
L 509.158289 358.055389 
z
" clip-path="url(#pf5966eed3b)" style="fill: #2d1e3e; fill-opacity: 0.5; stroke: #000000; stroke-linejoin: miter"/>
   </g>
   <g id="patch_14">
    <path d="M 539.451106 381.792187 
L 554.597514 381.792187 
L 554.597514 334.318591 
L 539.451106 334.318591 
z
" clip-path="url(#pf5966eed3b)" style="fill: #2d1e3e; fill-opacity: 0.5; stroke: #000000; stroke-linejoin: miter"/>
   </g>
   <g id="patch_15">
    <path d="M 342.547798 381.792187 
L 357.694207 381.792187 
L 357.694207 49.477009 
L 342.547798 49.477009 
z
" clip-path="url(#pf5966eed3b)" style="fill: #edd1cb; fill-opacity: 0.5; stroke: #000000; stroke-linejoin: miter"/>
   </g>
   <g id="patch_16">
    <path d="M 372.840615 381.792187 
L 387.987023 381.792187 
L 387.987023 215.634598 
L 372.840615 215.634598 
z
" clip-path="url(#pf5966eed3b)" style="fill: #edd1cb; fill-opacity: 0.5; stroke: #000000; stroke-linejoin: miter"/>
   </g>
   <g id="patch_17">
    <path d="M 403.133431 381.792187 
L 418.27984 381.792187 
L 418.27984 168.161001 
L 403.133431 168.161001 
z
" clip-path="url(#pf5966eed3b)" style="fill: #edd1cb; fill-opacity: 0.5; stroke: #000000; stroke-linejoin: miter"/>
   </g>
   <g id="patch_18">
    <path d="M 433.426248 381.792187 
L 448.572656 381.792187 
L 448.572656 381.792187 
L 433.426248 381.792187 
z
" clip-path="url(#pf5966eed3b)" style="fill: #edd1cb; fill-opacity: 0.5; stroke: #000000; stroke-linejoin: miter"/>
   </g>
   <g id="patch_19">
    <path d="M 463.719065 381.792187 
L 478.865473 381.792187 
L 478.865473 381.792187 
L 463.719065 381.792187 
z
" clip-path="url(#pf5966eed3b)" style="fill: #edd1cb; fill-opacity: 0.5; stroke: #000000; stroke-linejoin: miter"/>
   </g>
   <g id="patch_20">
    <path d="M 494.011881 381.792187 
L 509.158289 381.792187 
L 509.158289 358.055389 
L 494.011881 358.055389 
z
" clip-path="url(#pf5966eed3b)" style="fill: #edd1cb; fill-opacity: 0.5; stroke: #000000; stroke-linejoin: miter"/>
   </g>
   <g id="patch_21">
    <path d="M 524.304698 381.792187 
L 539.451106 381.792187 
L 539.451106 358.055389 
L 524.304698 358.055389 
z
" clip-path="url(#pf5966eed3b)" style="fill: #edd1cb; fill-opacity: 0.5; stroke: #000000; stroke-linejoin: miter"/>
   </g>
   <g id="matplotlib.axis_3">
    <g id="xtick_3">
     <g id="line2d_21">
      <g>
       <use xlink:href="#m4c99cd72f3" x="342.547798" y="391.792187" style="stroke: #000000; stroke-width: 0.8"/>
      </g>
     </g>
     <g id="text_11">
      <!-- 0 -->
      <g transform="translate(339.76733 405.95) scale(0.1 -0.1)">
       <use xlink:href="#ArialMT-30"/>
      </g>
     </g>
    </g>
    <g id="xtick_4">
     <g id="line2d_22">
      <g>
       <use xlink:href="#m4c99cd72f3" x="384.957741" y="391.792187" style="stroke: #000000; stroke-width: 0.8"/>
      </g>
     </g>
     <g id="text_12">
      <!-- 1 -->
      <g transform="translate(382.177273 405.95) scale(0.1 -0.1)">
       <use xlink:href="#ArialMT-31"/>
      </g>
     </g>
    </g>
    <g id="xtick_5">
     <g id="line2d_23">
      <g>
       <use xlink:href="#m4c99cd72f3" x="427.367685" y="391.792187" style="stroke: #000000; stroke-width: 0.8"/>
      </g>
     </g>
     <g id="text_13">
      <!-- 2 -->
      <g transform="translate(424.587216 405.95) scale(0.1 -0.1)">
       <use xlink:href="#ArialMT-32"/>
      </g>
     </g>
    </g>
    <g id="xtick_6">
     <g id="line2d_24">
      <g>
       <use xlink:href="#m4c99cd72f3" x="469.777628" y="391.792187" style="stroke: #000000; stroke-width: 0.8"/>
      </g>
     </g>
     <g id="text_14">
      <!-- 3 -->
      <g transform="translate(466.997159 405.95) scale(0.1 -0.1)">
       <use xlink:href="#ArialMT-33"/>
      </g>
     </g>
    </g>
    <g id="xtick_7">
     <g id="line2d_25">
      <g>
       <use xlink:href="#m4c99cd72f3" x="512.187571" y="391.792187" style="stroke: #000000; stroke-width: 0.8"/>
      </g>
     </g>
     <g id="text_15">
      <!-- 4 -->
      <g transform="translate(509.407102 405.95) scale(0.1 -0.1)">
       <use xlink:href="#ArialMT-34"/>
      </g>
     </g>
    </g>
    <g id="xtick_8">
     <g id="line2d_26">
      <g>
       <use xlink:href="#m4c99cd72f3" x="554.597514" y="391.792187" style="stroke: #000000; stroke-width: 0.8"/>
      </g>
     </g>
     <g id="text_16">
      <!-- 5 -->
      <g transform="translate(551.817045 405.95) scale(0.1 -0.1)">
       <use xlink:href="#ArialMT-35"/>
      </g>
     </g>
    </g>
    <g id="text_17">
     <!-- Training events per year -->
     <g transform="translate(394.848437 419.095312) scale(0.1 -0.1)">
      <use xlink:href="#ArialMT-54"/>
      <use xlink:href="#ArialMT-72" x="57.333984"/>
      <use xlink:href="#ArialMT-61" x="90.634766"/>
      <use xlink:href="#ArialMT-69" x="146.25"/>
      <use xlink:href="#ArialMT-6e" x="168.466797"/>
      <use xlink:href="#ArialMT-69" x="224.082031"/>
      <use xlink:href="#ArialMT-6e" x="246.298828"/>
      <use xlink:href="#ArialMT-67" x="301.914062"/>
      <use xlink:href="#ArialMT-20" x="357.529297"/>
      <use xlink:href="#ArialMT-65" x="385.3125"/>
      <use xlink:href="#ArialMT-76" x="440.927734"/>
      <use xlink:href="#ArialMT-65" x="490.927734"/>
      <use xlink:href="#ArialMT-6e" x="546.542969"/>
      <use xlink:href="#ArialMT-74" x="602.158203"/>
      <use xlink:href="#ArialMT-73" x="629.941406"/>
      <use xlink:href="#ArialMT-20" x="679.941406"/>
      <use xlink:href="#ArialMT-70" x="707.724609"/>
      <use xlink:href="#ArialMT-65" x="763.339844"/>
      <use xlink:href="#ArialMT-72" x="818.955078"/>
      <use xlink:href="#ArialMT-20" x="852.255859"/>
      <use xlink:href="#ArialMT-79" x="880.039062"/>
      <use xlink:href="#ArialMT-65" x="930.039062"/>
      <use xlink:href="#ArialMT-61" x="985.654297"/>
      <use xlink:href="#ArialMT-72" x="1041.269531"/>
     </g>
    </g>
   </g>
   <g id="matplotlib.axis_4">
    <g id="ytick_7">
     <g id="line2d_27">
      <g>
       <use xlink:href="#m8e343aef83" x="321.945312" y="381.792187" style="stroke: #000000; stroke-width: 0.8"/>
      </g>
     </g>
     <g id="text_18">
      <!-- 0 -->
      <g transform="translate(309.384375 385.371094) scale(0.1 -0.1)">
       <use xlink:href="#ArialMT-30"/>
      </g>
     </g>
    </g>
    <g id="ytick_8">
     <g id="line2d_28">
      <g>
       <use xlink:href="#m8e343aef83" x="321.945312" y="334.318591" style="stroke: #000000; stroke-width: 0.8"/>
      </g>
     </g>
     <g id="text_19">
      <!-- 2 -->
      <g transform="translate(309.384375 337.897497) scale(0.1 -0.1)">
       <use xlink:href="#ArialMT-32"/>
      </g>
     </g>
    </g>
    <g id="ytick_9">
     <g id="line2d_29">
      <g>
       <use xlink:href="#m8e343aef83" x="321.945312" y="286.844994" style="stroke: #000000; stroke-width: 0.8"/>
      </g>
     </g>
     <g id="text_20">
      <!-- 4 -->
      <g transform="translate(309.384375 290.4239) scale(0.1 -0.1)">
       <use xlink:href="#ArialMT-34"/>
      </g>
     </g>
    </g>
    <g id="ytick_10">
     <g id="line2d_30">
      <g>
       <use xlink:href="#m8e343aef83" x="321.945312" y="239.371397" style="stroke: #000000; stroke-width: 0.8"/>
      </g>
     </g>
     <g id="text_21">
      <!-- 6 -->
      <g transform="translate(309.384375 242.950303) scale(0.1 -0.1)">
       <defs>
        <path id="ArialMT-36" d="M 3184 3459 
L 2625 3416 
Q 2550 3747 2413 3897 
Q 2184 4138 1850 4138 
Q 1581 4138 1378 3988 
Q 1113 3794 959 3422 
Q 806 3050 800 2363 
Q 1003 2672 1297 2822 
Q 1591 2972 1913 2972 
Q 2475 2972 2870 2558 
Q 3266 2144 3266 1488 
Q 3266 1056 3080 686 
Q 2894 316 2569 119 
Q 2244 -78 1831 -78 
Q 1128 -78 684 439 
Q 241 956 241 2144 
Q 241 3472 731 4075 
Q 1159 4600 1884 4600 
Q 2425 4600 2770 4297 
Q 3116 3994 3184 3459 
z
M 888 1484 
Q 888 1194 1011 928 
Q 1134 663 1356 523 
Q 1578 384 1822 384 
Q 2178 384 2434 671 
Q 2691 959 2691 1453 
Q 2691 1928 2437 2201 
Q 2184 2475 1800 2475 
Q 1419 2475 1153 2201 
Q 888 1928 888 1484 
z
" transform="scale(0.015625)"/>
       </defs>
       <use xlink:href="#ArialMT-36"/>
      </g>
     </g>
    </g>
    <g id="ytick_11">
     <g id="line2d_31">
      <g>
       <use xlink:href="#m8e343aef83" x="321.945312" y="191.8978" style="stroke: #000000; stroke-width: 0.8"/>
      </g>
     </g>
     <g id="text_22">
      <!-- 8 -->
      <g transform="translate(309.384375 195.476706) scale(0.1 -0.1)">
       <use xlink:href="#ArialMT-38"/>
      </g>
     </g>
    </g>
    <g id="ytick_12">
     <g id="line2d_32">
      <g>
       <use xlink:href="#m8e343aef83" x="321.945312" y="144.424203" style="stroke: #000000; stroke-width: 0.8"/>
      </g>
     </g>
     <g id="text_23">
      <!-- 10 -->
      <g transform="translate(303.823437 148.003109) scale(0.1 -0.1)">
       <use xlink:href="#ArialMT-31"/>
       <use xlink:href="#ArialMT-30" x="55.615234"/>
      </g>
     </g>
    </g>
    <g id="ytick_13">
     <g id="line2d_33">
      <g>
       <use xlink:href="#m8e343aef83" x="321.945312" y="96.950606" style="stroke: #000000; stroke-width: 0.8"/>
      </g>
     </g>
     <g id="text_24">
      <!-- 12 -->
      <g transform="translate(303.823437 100.529512) scale(0.1 -0.1)">
       <use xlink:href="#ArialMT-31"/>
       <use xlink:href="#ArialMT-32" x="55.615234"/>
      </g>
     </g>
    </g>
    <g id="ytick_14">
     <g id="line2d_34">
      <g>
       <use xlink:href="#m8e343aef83" x="321.945312" y="49.477009" style="stroke: #000000; stroke-width: 0.8"/>
      </g>
     </g>
     <g id="text_25">
      <!-- 14 -->
      <g transform="translate(303.823437 53.055915) scale(0.1 -0.1)">
       <use xlink:href="#ArialMT-31"/>
       <use xlink:href="#ArialMT-34" x="55.615234"/>
      </g>
     </g>
    </g>
    <g id="text_26">
     <!-- Count -->
     <g transform="translate(297.835937 220.668125) rotate(-90) scale(0.1 -0.1)">
      <defs>
       <path id="ArialMT-43" d="M 3763 1606 
L 4369 1453 
Q 4178 706 3683 314 
Q 3188 -78 2472 -78 
Q 1731 -78 1267 223 
Q 803 525 561 1097 
Q 319 1669 319 2325 
Q 319 3041 592 3573 
Q 866 4106 1370 4382 
Q 1875 4659 2481 4659 
Q 3169 4659 3637 4309 
Q 4106 3959 4291 3325 
L 3694 3184 
Q 3534 3684 3231 3912 
Q 2928 4141 2469 4141 
Q 1941 4141 1586 3887 
Q 1231 3634 1087 3207 
Q 944 2781 944 2328 
Q 944 1744 1114 1308 
Q 1284 872 1643 656 
Q 2003 441 2422 441 
Q 2931 441 3284 734 
Q 3638 1028 3763 1606 
z
" transform="scale(0.015625)"/>
       <path id="ArialMT-6f" d="M 213 1659 
Q 213 2581 725 3025 
Q 1153 3394 1769 3394 
Q 2453 3394 2887 2945 
Q 3322 2497 3322 1706 
Q 3322 1066 3130 698 
Q 2938 331 2570 128 
Q 2203 -75 1769 -75 
Q 1072 -75 642 372 
Q 213 819 213 1659 
z
M 791 1659 
Q 791 1022 1069 705 
Q 1347 388 1769 388 
Q 2188 388 2466 706 
Q 2744 1025 2744 1678 
Q 2744 2294 2464 2611 
Q 2184 2928 1769 2928 
Q 1347 2928 1069 2612 
Q 791 2297 791 1659 
z
" transform="scale(0.015625)"/>
       <path id="ArialMT-75" d="M 2597 0 
L 2597 488 
Q 2209 -75 1544 -75 
Q 1250 -75 995 37 
Q 741 150 617 320 
Q 494 491 444 738 
Q 409 903 409 1263 
L 409 3319 
L 972 3319 
L 972 1478 
Q 972 1038 1006 884 
Q 1059 663 1231 536 
Q 1403 409 1656 409 
Q 1909 409 2131 539 
Q 2353 669 2445 892 
Q 2538 1116 2538 1541 
L 2538 3319 
L 3100 3319 
L 3100 0 
L 2597 0 
z
" transform="scale(0.015625)"/>
      </defs>
      <use xlink:href="#ArialMT-43"/>
      <use xlink:href="#ArialMT-6f" x="72.216797"/>
      <use xlink:href="#ArialMT-75" x="127.832031"/>
      <use xlink:href="#ArialMT-6e" x="183.447266"/>
      <use xlink:href="#ArialMT-74" x="239.0625"/>
     </g>
    </g>
   </g>
   <g id="line2d_35">
    <path d="M 342.547798 280.828293 
L 345.744528 277.348298 
L 348.941257 274.318174 
L 351.07241 272.56199 
L 353.203563 271.024382 
L 355.334716 269.709928 
L 357.465869 268.621603 
L 359.597022 267.760808 
L 361.728175 267.127409 
L 363.859328 266.719799 
L 365.99048 266.534963 
L 368.121633 266.568564 
L 370.252786 266.815025 
L 372.383939 267.267626 
L 374.515092 267.918602 
L 376.646245 268.759246 
L 378.777398 269.78001 
L 381.974127 271.626221 
L 385.170857 273.817192 
L 388.367586 276.313305 
L 391.564316 279.073345 
L 395.826621 283.091252 
L 401.154504 288.516835 
L 408.613539 296.531913 
L 419.269304 308.014942 
L 425.662762 314.542972 
L 430.990645 319.6386 
L 435.25295 323.451795 
L 439.515256 327.015722 
L 443.777562 330.326168 
L 448.039868 333.386331 
L 452.302174 336.204897 
L 456.56448 338.794096 
L 460.826786 341.167883 
L 466.154668 343.853576 
L 471.48255 346.249494 
L 476.810432 348.375504 
L 482.138315 350.245747 
L 487.466197 351.869537 
L 492.794079 353.253634 
L 498.121962 354.405473 
L 503.449844 355.336773 
L 508.777726 356.066905 
L 515.171185 356.719844 
L 523.695797 357.334616 
L 538.613867 358.363508 
L 545.007326 359.056087 
L 550.335208 359.838718 
L 554.597514 360.619465 
L 554.597514 360.619465 
" clip-path="url(#pf5966eed3b)" style="fill: none; stroke: #2d1e3e; stroke-width: 1.5; stroke-linecap: square"/>
   </g>
   <g id="line2d_36">
    <path d="M 342.547798 210.060172 
L 344.678951 207.033667 
L 345.744528 205.78762 
L 346.810104 204.718361 
L 347.875681 203.823799 
L 348.941257 203.101022 
L 350.006834 202.546332 
L 351.07241 202.155289 
L 352.137986 201.922765 
L 353.203563 201.842996 
L 354.269139 201.909639 
L 355.334716 202.115836 
L 356.400292 202.454278 
L 358.531445 203.496785 
L 360.662598 204.972127 
L 362.793751 206.812225 
L 364.924904 208.947949 
L 368.121633 212.556965 
L 372.383939 217.789776 
L 378.777398 225.648366 
L 381.974127 229.26955 
L 385.170857 232.553683 
L 388.367586 235.445487 
L 391.564316 237.923891 
L 394.761045 240.001196 
L 397.957774 241.721996 
L 401.154504 243.161608 
L 406.482386 245.228251 
L 410.744692 246.942789 
L 413.941421 248.501781 
L 416.072574 249.75825 
L 418.203727 251.240127 
L 420.33488 252.987748 
L 422.466033 255.036264 
L 424.597186 257.414249 
L 426.728339 260.142493 
L 428.859492 263.233027 
L 430.990645 266.68845 
L 433.121798 270.501594 
L 435.25295 274.655539 
L 438.44968 281.465559 
L 441.646409 288.857117 
L 445.908715 299.338342 
L 455.498903 323.353429 
L 458.695633 330.824515 
L 461.892362 337.76154 
L 465.089091 344.048455 
L 467.220244 347.837409 
L 469.351397 351.286257 
L 471.48255 354.387308 
L 473.613703 357.139527 
L 475.744856 359.547978 
L 477.876009 361.623158 
L 480.007162 363.380237 
L 482.138315 364.838252 
L 484.269468 366.019279 
L 486.400621 366.947624 
L 488.531774 367.649035 
L 490.662926 368.149976 
L 492.794079 368.476968 
L 495.990809 368.697876 
L 499.187538 368.668542 
L 503.449844 368.368038 
L 510.908879 367.517096 
L 519.433491 366.589141 
L 525.82695 366.141671 
L 531.154832 365.977615 
L 536.482714 366.016467 
L 541.810597 366.271358 
L 547.138479 366.760634 
L 552.466361 367.501954 
L 554.597514 367.870981 
L 554.597514 367.870981 
" clip-path="url(#pf5966eed3b)" style="fill: none; stroke: #edd1cb; stroke-width: 1.5; stroke-linecap: square"/>
   </g>
   <g id="patch_22">
    <path d="M 321.945312 381.792187 
L 321.945312 49.477009 
" style="fill: none; stroke: #000000; stroke-width: 0.8; stroke-linejoin: miter; stroke-linecap: square"/>
   </g>
   <g id="patch_23">
    <path d="M 342.547798 391.792187 
L 554.597514 391.792187 
" style="fill: none; stroke: #000000; stroke-width: 0.8; stroke-linejoin: miter; stroke-linecap: square"/>
   </g>
   <g id="legend_1">
    <g id="patch_24">
     <path d="M 503.95625 83.297188 
L 558.2 83.297188 
Q 560.2 83.297188 560.2 81.297188 
L 560.2 39.86125 
Q 560.2 37.86125 558.2 37.86125 
L 503.95625 37.86125 
Q 501.95625 37.86125 501.95625 39.86125 
L 501.95625 81.297188 
Q 501.95625 83.297188 503.95625 83.297188 
z
" style="fill: #ffffff; opacity: 0.8; stroke: #cccccc; stroke-linejoin: miter"/>
    </g>
    <g id="text_27">
     <!-- Year -->
     <g transform="translate(520.973437 49.019063) scale(0.1 -0.1)">
      <use xlink:href="#ArialMT-59"/>
      <use xlink:href="#ArialMT-65" x="57.574219"/>
      <use xlink:href="#ArialMT-61" x="113.189453"/>
      <use xlink:href="#ArialMT-72" x="168.804688"/>
     </g>
    </g>
    <g id="patch_25">
     <path d="M 505.95625 63.164375 
L 525.95625 63.164375 
L 525.95625 56.164375 
L 505.95625 56.164375 
z
" style="fill: #edd1cb; fill-opacity: 0.5; stroke: #000000; stroke-linejoin: miter"/>
    </g>
    <g id="text_28">
     <!-- 2018 -->
     <g transform="translate(533.95625 63.164375) scale(0.1 -0.1)">
      <use xlink:href="#ArialMT-32"/>
      <use xlink:href="#ArialMT-30" x="55.615234"/>
      <use xlink:href="#ArialMT-31" x="111.230469"/>
      <use xlink:href="#ArialMT-38" x="166.845703"/>
     </g>
    </g>
    <g id="patch_26">
     <path d="M 505.95625 77.309688 
L 525.95625 77.309688 
L 525.95625 70.309688 
L 505.95625 70.309688 
z
" style="fill: #2d1e3e; fill-opacity: 0.5; stroke: #000000; stroke-linejoin: miter"/>
    </g>
    <g id="text_29">
     <!-- 2022 -->
     <g transform="translate(533.95625 77.309688) scale(0.1 -0.1)">
      <use xlink:href="#ArialMT-32"/>
      <use xlink:href="#ArialMT-30" x="55.615234"/>
      <use xlink:href="#ArialMT-32" x="111.230469"/>
      <use xlink:href="#ArialMT-32" x="166.845703"/>
     </g>
    </g>
   </g>
  </g>
  <g id="text_30">
   <!-- Number of time per year providing training for New Zealand (without 95 percentile) -->
   <g transform="translate(69.578438 17.375625) scale(0.12 -0.12)">
    <defs>
     <path id="ArialMT-4e" d="M 488 0 
L 488 4581 
L 1109 4581 
L 3516 984 
L 3516 4581 
L 4097 4581 
L 4097 0 
L 3475 0 
L 1069 3600 
L 1069 0 
L 488 0 
z
" transform="scale(0.015625)"/>
     <path id="ArialMT-6d" d="M 422 0 
L 422 3319 
L 925 3319 
L 925 2853 
Q 1081 3097 1340 3245 
Q 1600 3394 1931 3394 
Q 2300 3394 2536 3241 
Q 2772 3088 2869 2813 
Q 3263 3394 3894 3394 
Q 4388 3394 4653 3120 
Q 4919 2847 4919 2278 
L 4919 0 
L 4359 0 
L 4359 2091 
Q 4359 2428 4304 2576 
Q 4250 2725 4106 2815 
Q 3963 2906 3769 2906 
Q 3419 2906 3187 2673 
Q 2956 2441 2956 1928 
L 2956 0 
L 2394 0 
L 2394 2156 
Q 2394 2531 2256 2718 
Q 2119 2906 1806 2906 
Q 1569 2906 1367 2781 
Q 1166 2656 1075 2415 
Q 984 2175 984 1722 
L 984 0 
L 422 0 
z
" transform="scale(0.015625)"/>
     <path id="ArialMT-62" d="M 941 0 
L 419 0 
L 419 4581 
L 981 4581 
L 981 2947 
Q 1338 3394 1891 3394 
Q 2197 3394 2470 3270 
Q 2744 3147 2920 2923 
Q 3097 2700 3197 2384 
Q 3297 2069 3297 1709 
Q 3297 856 2875 390 
Q 2453 -75 1863 -75 
Q 1275 -75 941 416 
L 941 0 
z
M 934 1684 
Q 934 1088 1097 822 
Q 1363 388 1816 388 
Q 2184 388 2453 708 
Q 2722 1028 2722 1663 
Q 2722 2313 2464 2622 
Q 2206 2931 1841 2931 
Q 1472 2931 1203 2611 
Q 934 2291 934 1684 
z
" transform="scale(0.015625)"/>
     <path id="ArialMT-66" d="M 556 0 
L 556 2881 
L 59 2881 
L 59 3319 
L 556 3319 
L 556 3672 
Q 556 4006 616 4169 
Q 697 4388 901 4523 
Q 1106 4659 1475 4659 
Q 1713 4659 2000 4603 
L 1916 4113 
Q 1741 4144 1584 4144 
Q 1328 4144 1222 4034 
Q 1116 3925 1116 3625 
L 1116 3319 
L 1763 3319 
L 1763 2881 
L 1116 2881 
L 1116 0 
L 556 0 
z
" transform="scale(0.015625)"/>
     <path id="ArialMT-64" d="M 2575 0 
L 2575 419 
Q 2259 -75 1647 -75 
Q 1250 -75 917 144 
Q 584 363 401 755 
Q 219 1147 219 1656 
Q 219 2153 384 2558 
Q 550 2963 881 3178 
Q 1213 3394 1622 3394 
Q 1922 3394 2156 3267 
Q 2391 3141 2538 2938 
L 2538 4581 
L 3097 4581 
L 3097 0 
L 2575 0 
z
M 797 1656 
Q 797 1019 1065 703 
Q 1334 388 1700 388 
Q 2069 388 2326 689 
Q 2584 991 2584 1609 
Q 2584 2291 2321 2609 
Q 2059 2928 1675 2928 
Q 1300 2928 1048 2622 
Q 797 2316 797 1656 
z
" transform="scale(0.015625)"/>
     <path id="ArialMT-77" d="M 1034 0 
L 19 3319 
L 600 3319 
L 1128 1403 
L 1325 691 
Q 1338 744 1497 1375 
L 2025 3319 
L 2603 3319 
L 3100 1394 
L 3266 759 
L 3456 1400 
L 4025 3319 
L 4572 3319 
L 3534 0 
L 2950 0 
L 2422 1988 
L 2294 2553 
L 1622 0 
L 1034 0 
z
" transform="scale(0.015625)"/>
     <path id="ArialMT-5a" d="M 128 0 
L 128 563 
L 2475 3497 
Q 2725 3809 2950 4041 
L 394 4041 
L 394 4581 
L 3675 4581 
L 3675 4041 
L 1103 863 
L 825 541 
L 3750 541 
L 3750 0 
L 128 0 
z
" transform="scale(0.015625)"/>
     <path id="ArialMT-6c" d="M 409 0 
L 409 4581 
L 972 4581 
L 972 0 
L 409 0 
z
" transform="scale(0.015625)"/>
     <path id="ArialMT-28" d="M 1497 -1347 
Q 1031 -759 709 28 
Q 388 816 388 1659 
Q 388 2403 628 3084 
Q 909 3875 1497 4659 
L 1900 4659 
Q 1522 4009 1400 3731 
Q 1209 3300 1100 2831 
Q 966 2247 966 1656 
Q 966 153 1900 -1347 
L 1497 -1347 
z
" transform="scale(0.015625)"/>
     <path id="ArialMT-68" d="M 422 0 
L 422 4581 
L 984 4581 
L 984 2938 
Q 1378 3394 1978 3394 
Q 2347 3394 2619 3248 
Q 2891 3103 3008 2847 
Q 3125 2591 3125 2103 
L 3125 0 
L 2563 0 
L 2563 2103 
Q 2563 2525 2380 2717 
Q 2197 2909 1863 2909 
Q 1613 2909 1392 2779 
Q 1172 2650 1078 2428 
Q 984 2206 984 1816 
L 984 0 
L 422 0 
z
" transform="scale(0.015625)"/>
     <path id="ArialMT-39" d="M 350 1059 
L 891 1109 
Q 959 728 1153 556 
Q 1347 384 1650 384 
Q 1909 384 2104 503 
Q 2300 622 2425 820 
Q 2550 1019 2634 1356 
Q 2719 1694 2719 2044 
Q 2719 2081 2716 2156 
Q 2547 1888 2255 1720 
Q 1963 1553 1622 1553 
Q 1053 1553 659 1965 
Q 266 2378 266 3053 
Q 266 3750 677 4175 
Q 1088 4600 1706 4600 
Q 2153 4600 2523 4359 
Q 2894 4119 3086 3673 
Q 3278 3228 3278 2384 
Q 3278 1506 3087 986 
Q 2897 466 2520 194 
Q 2144 -78 1638 -78 
Q 1100 -78 759 220 
Q 419 519 350 1059 
z
M 2653 3081 
Q 2653 3566 2395 3850 
Q 2138 4134 1775 4134 
Q 1400 4134 1122 3828 
Q 844 3522 844 3034 
Q 844 2597 1108 2323 
Q 1372 2050 1759 2050 
Q 2150 2050 2401 2323 
Q 2653 2597 2653 3081 
z
" transform="scale(0.015625)"/>
     <path id="ArialMT-63" d="M 2588 1216 
L 3141 1144 
Q 3050 572 2676 248 
Q 2303 -75 1759 -75 
Q 1078 -75 664 370 
Q 250 816 250 1647 
Q 250 2184 428 2587 
Q 606 2991 970 3192 
Q 1334 3394 1763 3394 
Q 2303 3394 2647 3120 
Q 2991 2847 3088 2344 
L 2541 2259 
Q 2463 2594 2264 2762 
Q 2066 2931 1784 2931 
Q 1359 2931 1093 2626 
Q 828 2322 828 1663 
Q 828 994 1084 691 
Q 1341 388 1753 388 
Q 2084 388 2306 591 
Q 2528 794 2588 1216 
z
" transform="scale(0.015625)"/>
     <path id="ArialMT-29" d="M 791 -1347 
L 388 -1347 
Q 1322 153 1322 1656 
Q 1322 2244 1188 2822 
Q 1081 3291 891 3722 
Q 769 4003 388 4659 
L 791 4659 
Q 1378 3875 1659 3084 
Q 1900 2403 1900 1659 
Q 1900 816 1576 28 
Q 1253 -759 791 -1347 
z
" transform="scale(0.015625)"/>
    </defs>
    <use xlink:href="#ArialMT-4e"/>
    <use xlink:href="#ArialMT-75" x="72.216797"/>
    <use xlink:href="#ArialMT-6d" x="127.832031"/>
    <use xlink:href="#ArialMT-62" x="211.132812"/>
    <use xlink:href="#ArialMT-65" x="266.748047"/>
    <use xlink:href="#ArialMT-72" x="322.363281"/>
    <use xlink:href="#ArialMT-20" x="355.664062"/>
    <use xlink:href="#ArialMT-6f" x="383.447266"/>
    <use xlink:href="#ArialMT-66" x="439.0625"/>
    <use xlink:href="#ArialMT-20" x="466.845703"/>
    <use xlink:href="#ArialMT-74" x="494.628906"/>
    <use xlink:href="#ArialMT-69" x="522.412109"/>
    <use xlink:href="#ArialMT-6d" x="544.628906"/>
    <use xlink:href="#ArialMT-65" x="627.929688"/>
    <use xlink:href="#ArialMT-20" x="683.544922"/>
    <use xlink:href="#ArialMT-70" x="711.328125"/>
    <use xlink:href="#ArialMT-65" x="766.943359"/>
    <use xlink:href="#ArialMT-72" x="822.558594"/>
    <use xlink:href="#ArialMT-20" x="855.859375"/>
    <use xlink:href="#ArialMT-79" x="883.642578"/>
    <use xlink:href="#ArialMT-65" x="933.642578"/>
    <use xlink:href="#ArialMT-61" x="989.257812"/>
    <use xlink:href="#ArialMT-72" x="1044.873047"/>
    <use xlink:href="#ArialMT-20" x="1078.173828"/>
    <use xlink:href="#ArialMT-70" x="1105.957031"/>
    <use xlink:href="#ArialMT-72" x="1161.572266"/>
    <use xlink:href="#ArialMT-6f" x="1194.873047"/>
    <use xlink:href="#ArialMT-76" x="1250.488281"/>
    <use xlink:href="#ArialMT-69" x="1300.488281"/>
    <use xlink:href="#ArialMT-64" x="1322.705078"/>
    <use xlink:href="#ArialMT-69" x="1378.320312"/>
    <use xlink:href="#ArialMT-6e" x="1400.537109"/>
    <use xlink:href="#ArialMT-67" x="1456.152344"/>
    <use xlink:href="#ArialMT-20" x="1511.767578"/>
    <use xlink:href="#ArialMT-74" x="1539.550781"/>
    <use xlink:href="#ArialMT-72" x="1567.333984"/>
    <use xlink:href="#ArialMT-61" x="1600.634766"/>
    <use xlink:href="#ArialMT-69" x="1656.25"/>
    <use xlink:href="#ArialMT-6e" x="1678.466797"/>
    <use xlink:href="#ArialMT-69" x="1734.082031"/>
    <use xlink:href="#ArialMT-6e" x="1756.298828"/>
    <use xlink:href="#ArialMT-67" x="1811.914062"/>
    <use xlink:href="#ArialMT-20" x="1867.529297"/>
    <use xlink:href="#ArialMT-66" x="1895.3125"/>
    <use xlink:href="#ArialMT-6f" x="1923.095703"/>
    <use xlink:href="#ArialMT-72" x="1978.710938"/>
    <use xlink:href="#ArialMT-20" x="2012.011719"/>
    <use xlink:href="#ArialMT-4e" x="2039.794922"/>
    <use xlink:href="#ArialMT-65" x="2112.011719"/>
    <use xlink:href="#ArialMT-77" x="2167.626953"/>
    <use xlink:href="#ArialMT-20" x="2239.84375"/>
    <use xlink:href="#ArialMT-5a" x="2267.626953"/>
    <use xlink:href="#ArialMT-65" x="2328.710938"/>
    <use xlink:href="#ArialMT-61" x="2384.326172"/>
    <use xlink:href="#ArialMT-6c" x="2439.941406"/>
    <use xlink:href="#ArialMT-61" x="2462.158203"/>
    <use xlink:href="#ArialMT-6e" x="2517.773438"/>
    <use xlink:href="#ArialMT-64" x="2573.388672"/>
    <use xlink:href="#ArialMT-20" x="2629.003906"/>
    <use xlink:href="#ArialMT-28" x="2656.787109"/>
    <use xlink:href="#ArialMT-77" x="2690.087891"/>
    <use xlink:href="#ArialMT-69" x="2762.304688"/>
    <use xlink:href="#ArialMT-74" x="2784.521484"/>
    <use xlink:href="#ArialMT-68" x="2812.304688"/>
    <use xlink:href="#ArialMT-6f" x="2867.919922"/>
    <use xlink:href="#ArialMT-75" x="2923.535156"/>
    <use xlink:href="#ArialMT-74" x="2979.150391"/>
    <use xlink:href="#ArialMT-20" x="3006.933594"/>
    <use xlink:href="#ArialMT-39" x="3034.716797"/>
    <use xlink:href="#ArialMT-35" x="3090.332031"/>
    <use xlink:href="#ArialMT-20" x="3145.947266"/>
    <use xlink:href="#ArialMT-70" x="3173.730469"/>
    <use xlink:href="#ArialMT-65" x="3229.345703"/>
    <use xlink:href="#ArialMT-72" x="3284.960938"/>
    <use xlink:href="#ArialMT-63" x="3318.261719"/>
    <use xlink:href="#ArialMT-65" x="3368.261719"/>
    <use xlink:href="#ArialMT-6e" x="3423.876953"/>
    <use xlink:href="#ArialMT-74" x="3479.492188"/>
    <use xlink:href="#ArialMT-69" x="3507.275391"/>
    <use xlink:href="#ArialMT-6c" x="3529.492188"/>
    <use xlink:href="#ArialMT-65" x="3551.708984"/>
    <use xlink:href="#ArialMT-29" x="3607.324219"/>
   </g>
  </g>
 </g>
 <defs>
  <clipPath id="peb0904fb6a">
   <rect x="46.623438" y="32.86125" width="233.254687" height="348.930937"/>
  </clipPath>
  <clipPath id="pf5966eed3b">
   <rect x="331.945312" y="32.86125" width="233.254687" height="348.930937"/>
  </clipPath>
 </defs>
</svg>
